<svg width="24" height="24" viewBox="0 0 24 24" fill="none" xmlns="http://www.w3.org/2000/svg">
<path fill-rule="evenodd" clip-rule="evenodd" d="M10.5692 9.73451C10.5692 8.73304 11.2771 8 12.2557 8C12.7242 8 13.151 8.16519 13.4529 8.47493C13.7652 8.79499 13.9318 9.22861 13.9318 9.71386V9.76549C13.9318 10.2507 13.7652 10.6844 13.4529 11.0044C13.151 11.3245 12.7138 11.5 12.2453 11.5C11.2875 11.5 10.5692 10.7566 10.5692 9.77581V9.73451ZM12.568 9.35251C12.4743 9.25959 12.3494 9.23894 12.2557 9.23894C11.8705 9.23894 11.8185 9.54867 11.8289 9.73451C11.8289 10.0133 11.9434 10.2611 12.2557 10.2611C12.3494 10.2611 12.4743 10.2404 12.568 10.1475C12.6513 10.0649 12.6929 9.92035 12.6929 9.76549C12.6929 9.56932 12.6513 9.4351 12.568 9.35251Z" fill="#001325" fill-opacity="0.92"/>
<path d="M14.7641 15.9522C14.7952 16.2726 15.0642 16.5 15.3746 16.5C15.3952 16.5 15.4263 16.5 15.4573 16.4897C15.7987 16.4483 16.0367 16.1382 15.9953 15.7972C15.7574 13.916 14.1537 12.5 12.25 12.5C10.3463 12.5 8.74263 13.916 8.50467 15.7972C8.46329 16.1382 8.70125 16.4483 9.04268 16.4897C9.3841 16.531 9.69449 16.2933 9.73587 15.9522C9.89106 14.6912 10.9774 13.7403 12.25 13.7403C13.5329 13.7403 14.6089 14.6912 14.7641 15.9522Z" fill="#001325" fill-opacity="0.92"/>
<path fill-rule="evenodd" clip-rule="evenodd" d="M5.65654 3H18.5015C19.0532 3 19.5046 3.45 19.5046 4V20C19.5046 20.55 19.0532 21 18.5015 21H5.65654C5.10486 21 4.6535 20.55 4.6535 20V17.26H4.25228C3.84103 17.26 3.5 16.92 3.5 16.51C3.5 16.1 3.84103 15.76 4.25228 15.76H4.6535V12.75H4.25228C3.84103 12.75 3.5 12.41 3.5 12C3.5 11.59 3.84103 11.25 4.25228 11.25H4.6535V8.24H4.26231C3.85106 8.24 3.51003 7.9 3.51003 7.49C3.51003 7.08 3.85106 6.74 4.26231 6.74H4.6535V4C4.6535 3.45 5.10486 3 5.65654 3ZM6.15805 19.5H18V4.5H6.15805V6.74H6.21824C6.62948 6.74 6.97052 7.08 6.97052 7.49C6.97052 7.9 6.62948 8.24 6.21824 8.24H6.15805V11.25H6.20821C6.61945 11.25 6.96049 11.59 6.96049 12C6.96049 12.41 6.61945 12.75 6.20821 12.75H6.15805V15.76H6.20821C6.61945 15.76 6.96049 16.1 6.96049 16.51C6.96049 16.92 6.61945 17.26 6.20821 17.26H6.15805V19.5Z" fill="#001325" fill-opacity="0.92"/>
</svg>
