<svg width="24" height="24" viewBox="0 0 24 24" fill="none" xmlns="http://www.w3.org/2000/svg">
<path d="M20.7044 11.2905L12.7095 3.29561C12.6166 3.20194 12.5061 3.12759 12.3843 3.07686C12.2625 3.02612 12.1319 3 12 3C11.8681 3 11.7375 3.02612 11.6157 3.07686C11.4939 3.12759 11.3834 3.20194 11.2905 3.29561L3.29561 11.2905C3.20194 11.3834 3.12759 11.4939 3.07686 11.6157C3.02612 11.7375 3 11.8681 3 12C3 12.1319 3.02612 12.2625 3.07686 12.3843C3.12759 12.5061 3.20194 12.6166 3.29561 12.7095L11.2905 20.7044C11.3834 20.7981 11.4939 20.8724 11.6157 20.9231C11.7375 20.9739 11.8681 21 12 21C12.1319 21 12.2625 20.9739 12.3843 20.9231C12.5061 20.8724 12.6166 20.7981 12.7095 20.7044L20.7044 12.7095C20.7981 12.6166 20.8724 12.5061 20.9231 12.3843C20.9739 12.2625 21 12.1319 21 12C21 11.8681 20.9739 11.7375 20.9231 11.6157C20.8724 11.4939 20.7981 11.3834 20.7044 11.2905ZM11.99 15.8975C11.8418 15.8975 11.6969 15.8535 11.5736 15.7712C11.4503 15.6888 11.3543 15.5718 11.2975 15.4348C11.2408 15.2978 11.226 15.1471 11.2549 15.0017C11.2838 14.8564 11.3552 14.7228 11.46 14.618C11.5648 14.5132 11.6984 14.4418 11.8438 14.4129C11.9892 14.3839 12.1399 14.3988 12.2768 14.4555C12.4138 14.5122 12.5308 14.6083 12.6132 14.7316C12.6956 14.8548 12.7395 14.9997 12.7395 15.148C12.7409 15.2468 12.7224 15.3448 12.6852 15.4364C12.648 15.5279 12.5929 15.6111 12.523 15.681C12.4531 15.7508 12.37 15.806 12.2784 15.8432C12.1869 15.8804 12.0888 15.8988 11.99 15.8975ZM12.7395 11.9001C12.7395 12.0988 12.6606 12.2895 12.52 12.4301C12.3794 12.5706 12.1888 12.6496 11.99 12.6496C11.7912 12.6496 11.6006 12.5706 11.46 12.4301C11.3195 12.2895 11.2405 12.0988 11.2405 11.9001V8.22243C11.2405 8.02365 11.3195 7.83301 11.46 7.69245C11.6006 7.55188 11.7912 7.47292 11.99 7.47292C12.1888 7.47292 12.3794 7.55188 12.52 7.69245C12.6606 7.83301 12.7395 8.02365 12.7395 8.22243V11.9001Z" fill="#001325" fill-opacity="0.92"/>
</svg>
