<svg width="24" height="24" viewBox="0 0 24 24" fill="none" xmlns="http://www.w3.org/2000/svg">
<path d="M12 5.94724L19.1788 18.0396H4.82118L12 5.94724ZM12 4C11.8319 4.00003 11.6666 4.04403 11.5206 4.12768C11.3745 4.21132 11.2526 4.33173 11.1668 4.47707L3.13546 18.0298C3.04825 18.1777 3.00153 18.346 3.00004 18.5179C2.99854 18.6897 3.04233 18.8589 3.12696 19.0082C3.21159 19.1576 3.33403 19.2817 3.48186 19.3681C3.62969 19.4545 3.79764 19.5 3.96863 19.5H20.0314C20.2024 19.5 20.3703 19.4545 20.5181 19.3681C20.666 19.2817 20.7884 19.1576 20.873 19.0082C20.9577 18.8589 21.0015 18.6897 21 18.5179C20.9985 18.346 20.9517 18.1777 20.8645 18.0298L12.8332 4.49655C12.7474 4.35121 12.6255 4.23079 12.4794 4.14715C12.3334 4.0635 12.1681 4.00003 12 4Z" fill="#001325" fill-opacity="0.92"/>
<path d="M12.7266 16.0534C12.7266 16.2471 12.65 16.4328 12.5138 16.5697C12.3775 16.7067 12.1927 16.7836 12 16.7836C11.8073 16.7836 11.6225 16.7067 11.4862 16.5697C11.35 16.4328 11.2734 16.2471 11.2734 16.0534C11.2734 15.8597 11.35 15.674 11.4862 15.5371C11.6225 15.4001 11.8073 15.3232 12 15.3232C12.1927 15.3232 12.3775 15.4001 12.5138 15.5371C12.65 15.674 12.7266 15.8597 12.7266 16.0534Z" fill="#001325" fill-opacity="0.92"/>
<path d="M12 13.5804C11.8073 13.5804 11.6225 13.5035 11.4862 13.3665C11.35 13.2296 11.2734 13.0439 11.2734 12.8502V10.4161C11.2734 10.2225 11.35 10.0367 11.4862 9.8998C11.6225 9.76286 11.8073 9.68593 12 9.68593C12.1927 9.68593 12.3775 9.76286 12.5138 9.8998C12.65 10.0367 12.7266 10.2225 12.7266 10.4161V12.8502C12.7266 13.0439 12.65 13.2296 12.5138 13.3665C12.3775 13.5035 12.1927 13.5804 12 13.5804Z" fill="#001325" fill-opacity="0.92"/>
</svg>
