<svg width="24" height="24" viewBox="0 0 24 24" fill="none" xmlns="http://www.w3.org/2000/svg">
<path d="M20.8341 17.9835L12.8303 4.47588C12.7448 4.33087 12.6233 4.21075 12.4777 4.12731C12.3322 4.04387 12.1675 4 12 4C11.8325 4 11.6678 4.04387 11.5223 4.12731C11.3767 4.21075 11.2552 4.33087 11.1697 4.47588L3.16592 17.9835C3.06618 18.1319 3.00911 18.305 3.001 18.4839C2.99289 18.6629 3.03407 18.8405 3.11997 18.9974C3.20587 19.1542 3.33317 19.2841 3.4878 19.3727C3.64243 19.4613 3.81838 19.5052 3.99622 19.4995H20.0038C20.1816 19.5052 20.3576 19.4613 20.5122 19.3727C20.6668 19.2841 20.7941 19.1542 20.88 18.9974C20.9659 18.8405 21.0071 18.6629 20.999 18.4839C20.9909 18.305 20.9338 18.1319 20.8341 17.9835ZM11.2759 10.3843C11.2759 10.191 11.3522 10.0056 11.488 9.86891C11.6238 9.73223 11.808 9.65544 12 9.65544C12.192 9.65544 12.3762 9.73223 12.512 9.86891C12.6478 10.0056 12.7241 10.191 12.7241 10.3843V12.8137C12.7241 13.007 12.6478 13.1924 12.512 13.3291C12.3762 13.4657 12.192 13.5425 12 13.5425C11.808 13.5425 11.6238 13.4657 11.488 13.3291C11.3522 13.1924 11.2759 13.007 11.2759 12.8137V10.3843ZM12 16.7591C11.8564 16.761 11.7155 16.7199 11.5951 16.641C11.4748 16.5621 11.3805 16.449 11.3242 16.316C11.2679 16.183 11.2522 16.0362 11.279 15.8941C11.3058 15.7521 11.374 15.6214 11.4749 15.5184C11.5758 15.4155 11.7048 15.3452 11.8455 15.3162C11.9862 15.2873 12.1323 15.3012 12.2652 15.356C12.398 15.4109 12.5117 15.5043 12.5917 15.6244C12.6717 15.7444 12.7144 15.8857 12.7145 16.0303C12.7157 16.1255 12.6982 16.2201 12.6629 16.3085C12.6275 16.3968 12.5751 16.4772 12.5086 16.5451C12.4422 16.6129 12.363 16.6667 12.2757 16.7035C12.1883 16.7402 12.0946 16.7591 12 16.7591Z" fill="#001325" fill-opacity="0.92"/>
</svg>
