<svg width="24" height="24" viewBox="0 0 24 24" fill="none" xmlns="http://www.w3.org/2000/svg">
<path d="M12 4.69947L19.2953 11.9971L12 19.2948L4.7047 11.9971L12 4.69947ZM12 3.00002C11.8685 2.99926 11.7381 3.02447 11.6163 3.07422C11.4946 3.12397 11.3838 3.19727 11.2905 3.28992L3.29561 11.2873C3.20194 11.3803 3.12759 11.4908 3.07686 11.6127C3.02612 11.7345 3 11.8651 3 11.9971C3 12.1291 3.02612 12.2597 3.07686 12.3816C3.12759 12.5034 3.20194 12.6139 3.29561 12.7069L11.2905 20.7043C11.3834 20.798 11.4939 20.8724 11.6157 20.9231C11.7375 20.9739 11.8681 21 12 21C12.1319 21 12.2625 20.9739 12.3843 20.9231C12.5061 20.8724 12.6166 20.798 12.7095 20.7043L20.7044 12.7069C20.7981 12.6139 20.8724 12.5034 20.9231 12.3816C20.9739 12.2597 21 12.1291 21 11.9971C21 11.8651 20.9739 11.7345 20.9231 11.6127C20.8724 11.4908 20.7981 11.3803 20.7044 11.2873L12.7095 3.28992C12.6162 3.19727 12.5054 3.12397 12.3837 3.07422C12.2619 3.02447 12.1315 2.99926 12 3.00002Z" fill="#001325" fill-opacity="0.92"/>
<path d="M12.8295 15.2261C12.8295 15.4461 12.7421 15.6572 12.5865 15.8128C12.431 15.9684 12.22 16.0558 12 16.0558C11.78 16.0558 11.569 15.9684 11.4135 15.8128C11.2579 15.6572 11.1705 15.4461 11.1705 15.2261C11.1705 15.006 11.2579 14.795 11.4135 14.6394C11.569 14.4838 11.78 14.3963 12 14.3963C12.22 14.3963 12.431 14.4838 12.5865 14.6394C12.7421 14.795 12.8295 15.006 12.8295 15.2261Z" fill="#001325" fill-opacity="0.92"/>
<path d="M12 12.6069C11.802 12.6043 11.6129 12.5245 11.4729 12.3845C11.3329 12.2444 11.2531 12.0552 11.2505 11.8572V8.21833C11.2505 8.01948 11.3294 7.82878 11.47 7.68817C11.6106 7.54756 11.8012 7.46857 12 7.46857C12.1988 7.46857 12.3894 7.54756 12.53 7.68817C12.6706 7.82878 12.7495 8.01948 12.7495 8.21833V11.8572C12.7469 12.0552 12.6671 12.2444 12.5271 12.3845C12.3871 12.5245 12.198 12.6043 12 12.6069Z" fill="#001325" fill-opacity="0.92"/>
</svg>
