<svg width="24" height="24" viewBox="0 0 24 24" fill="none" xmlns="http://www.w3.org/2000/svg">
<path d="M12 4.5C13.4834 4.5 14.9334 4.93987 16.1668 5.76398C17.4001 6.58809 18.3614 7.75943 18.9291 9.12987C19.4968 10.5003 19.6453 12.0083 19.3559 13.4632C19.0665 14.918 18.3522 16.2544 17.3033 17.3033C16.2544 18.3522 14.918 19.0665 13.4632 19.3559C12.0083 19.6453 10.5003 19.4968 9.12988 18.9291C7.75943 18.3614 6.58809 17.4001 5.76398 16.1668C4.93987 14.9334 4.5 13.4834 4.5 12C4.5 10.0109 5.29018 8.10322 6.6967 6.6967C8.10323 5.29018 10.0109 4.5 12 4.5ZM12 3C10.22 3 8.47991 3.52784 6.99987 4.51677C5.51983 5.50571 4.36628 6.91131 3.68509 8.55585C3.0039 10.2004 2.82567 12.01 3.17294 13.7558C3.5202 15.5016 4.37737 17.1053 5.63604 18.364C6.89472 19.6226 8.49836 20.4798 10.2442 20.8271C11.99 21.1743 13.7996 20.9961 15.4442 20.3149C17.0887 19.6337 18.4943 18.4802 19.4832 17.0001C20.4722 15.5201 21 13.78 21 12C21 9.61305 20.0518 7.32387 18.364 5.63604C16.6761 3.94821 14.387 3 12 3Z" fill="#001325" fill-opacity="0.92"/>
<path d="M10.56 15.25C10.25 15.25 10.25 15.25 9.29999 14.3L7.92999 12.94C7.85923 12.871 7.803 12.7886 7.7646 12.6976C7.7262 12.6066 7.70642 12.5088 7.70642 12.41C7.70642 12.3112 7.7262 12.2134 7.7646 12.1224C7.803 12.0313 7.85923 11.9489 7.92999 11.88C8.07062 11.7395 8.26124 11.6606 8.45999 11.6606C8.65874 11.6606 8.84937 11.7395 8.98999 11.88L10.56 13.45L15 8.99998C15.1406 8.85953 15.3312 8.78064 15.53 8.78064C15.7287 8.78064 15.9194 8.85953 16.06 8.99998C16.1307 9.06893 16.187 9.15134 16.2254 9.24237C16.2638 9.33339 16.2836 9.43119 16.2836 9.52998C16.2836 9.62877 16.2638 9.72657 16.2254 9.81759C16.187 9.90862 16.1307 9.99103 16.06 10.06L11.06 15.06C10.9223 15.1826 10.7443 15.2502 10.56 15.25Z" fill="#001325" fill-opacity="0.92"/>
</svg>
