<svg width="24" height="24" viewBox="0 0 24 24" fill="none" xmlns="http://www.w3.org/2000/svg">
<path d="M12 3C10.22 3 8.47991 3.52784 6.99986 4.51677C5.51982 5.50571 4.36627 6.91131 3.68508 8.55585C3.00389 10.2004 2.82566 12.01 3.17293 13.7558C3.5202 15.5016 4.37736 17.1053 5.63604 18.364C6.89471 19.6226 8.49835 20.4798 10.2442 20.8271C11.99 21.1743 13.7996 20.9961 15.4441 20.3149C17.0887 19.6337 18.4943 18.4802 19.4832 17.0001C20.4722 15.5201 21 13.78 21 12C21 9.61305 20.0518 7.32387 18.364 5.63604C16.6761 3.94821 14.3869 3 12 3ZM16.07 10L11.07 15C10.9295 15.1407 10.7388 15.2198 10.54 15.22C10.4399 15.2212 10.3405 15.2024 10.2477 15.1646C10.155 15.1268 10.0708 15.0709 10 15L7.9 12.91C7.82924 12.8411 7.773 12.7586 7.73461 12.6676C7.69621 12.5766 7.67643 12.4788 7.67643 12.38C7.67643 12.2812 7.69621 12.1834 7.73461 12.0924C7.773 12.0014 7.82924 11.9189 7.9 11.85C8.04062 11.7095 8.23125 11.6307 8.43 11.6307C8.62875 11.6307 8.81937 11.7095 8.96 11.85L10.53 13.42L15 9C15.1406 8.85955 15.3312 8.78066 15.53 8.78066C15.7287 8.78066 15.9194 8.85955 16.06 9C16.1865 9.13522 16.2576 9.31293 16.2595 9.49806C16.2613 9.68318 16.1937 9.86228 16.07 10Z" fill="#001325" fill-opacity="0.92"/>
</svg>
