<svg width="24" height="24" viewBox="0 0 24 24" fill="none" xmlns="http://www.w3.org/2000/svg">
<path d="M12 4.5C13.4834 4.5 14.9334 4.93987 16.1668 5.76398C17.4001 6.58809 18.3614 7.75943 18.9291 9.12987C19.4968 10.5003 19.6453 12.0083 19.3559 13.4632C19.0665 14.918 18.3522 16.2544 17.3033 17.3033C16.2544 18.3522 14.918 19.0665 13.4632 19.3559C12.0083 19.6453 10.5003 19.4968 9.12988 18.9291C7.75943 18.3614 6.58809 17.4001 5.76398 16.1668C4.93987 14.9334 4.5 13.4834 4.5 12C4.5 10.0109 5.29018 8.10322 6.6967 6.6967C8.10323 5.29018 10.0109 4.5 12 4.5ZM12 3C10.22 3 8.47991 3.52784 6.99987 4.51677C5.51983 5.50571 4.36628 6.91131 3.68509 8.55585C3.0039 10.2004 2.82567 12.01 3.17294 13.7558C3.5202 15.5016 4.37737 17.1053 5.63604 18.364C6.89472 19.6226 8.49836 20.4798 10.2442 20.8271C11.99 21.1743 13.7996 20.9961 15.4442 20.3149C17.0887 19.6337 18.4943 18.4802 19.4832 17.0001C20.4722 15.5201 21 13.78 21 12C21 9.61305 20.0518 7.32387 18.364 5.63604C16.6761 3.94821 14.387 3 12 3Z" fill="#001325" fill-opacity="0.92"/>
<path d="M11.15 8C11.14 7.83011 11.1812 7.66113 11.2683 7.51493C11.3554 7.36873 11.4844 7.25205 11.6386 7.17998C11.7928 7.10791 11.965 7.08378 12.133 7.11071C12.3011 7.13764 12.4572 7.21439 12.5811 7.33103C12.705 7.44767 12.7911 7.59882 12.8281 7.76492C12.8652 7.93102 12.8515 8.10442 12.7889 8.26267C12.7263 8.42092 12.6177 8.55673 12.477 8.65253C12.3364 8.74833 12.1702 8.79971 12 8.8C11.7815 8.80541 11.5698 8.72444 11.4106 8.57466C11.2515 8.42489 11.1578 8.21839 11.15 8Z" fill="#001325" fill-opacity="0.92"/>
<path d="M12 16.55C11.8019 16.5474 11.6126 16.4676 11.4725 16.3275C11.3324 16.1874 11.2526 15.9981 11.25 15.8V11.8C11.25 11.6011 11.329 11.4103 11.4697 11.2697C11.6103 11.129 11.8011 11.05 12 11.05C12.1989 11.05 12.3897 11.129 12.5303 11.2697C12.671 11.4103 12.75 11.6011 12.75 11.8V15.8C12.7474 15.9981 12.6676 16.1874 12.5275 16.3275C12.3874 16.4676 12.1981 16.5474 12 16.55Z" fill="#001325" fill-opacity="0.92"/>
</svg>
