<svg width="24" height="24" viewBox="0 0 24 24" fill="none" xmlns="http://www.w3.org/2000/svg">
<path d="M18.9777 15.37C18.8533 14.1164 18.3174 12.9388 17.4531 12.02L14.1832 8.41C14.0291 8.24354 13.9332 8.03188 13.9097 7.8066C13.8862 7.58132 13.9364 7.35451 14.0528 7.16L15.0558 5.64C15.1608 5.4799 15.2204 5.29445 15.2282 5.10333C15.2361 4.91221 15.1919 4.72253 15.1004 4.55441C15.0089 4.38629 14.8734 4.24599 14.7084 4.14838C14.5434 4.05078 14.355 3.99951 14.1631 4H9.03766C8.85176 4.00011 8.66907 4.04837 8.5075 4.14003C8.34592 4.2317 8.211 4.36364 8.11595 4.52292C8.0209 4.6822 7.96898 4.86337 7.96527 5.04868C7.96157 5.23398 8.00621 5.41707 8.09481 5.58L9.03766 7.16C9.04024 7.19329 9.04024 7.22672 9.03766 7.26H7.88418C7.71126 7.26 7.54543 7.32849 7.42317 7.45038C7.3009 7.57228 7.23221 7.73761 7.23221 7.91C7.23221 8.08239 7.3009 8.24772 7.42317 8.36962C7.54543 8.49152 7.71126 8.56 7.88418 8.56H8.6866L5.55715 12.02C4.68532 12.9349 4.14517 14.114 4.02252 15.37C3.93557 16.215 4.10161 17.0668 4.49969 17.8178C4.89777 18.5689 5.51004 19.1855 6.25927 19.59C7.1683 20.1291 8.21091 20.4028 9.26836 20.38H13.7519C14.8091 20.4012 15.8513 20.1276 16.761 19.59C17.5047 19.1807 18.1114 18.5624 18.5055 17.8121C18.8996 17.0618 19.0638 16.2126 18.9777 15.37ZM10.3215 6.37L9.7799 5.37H13.3707L12.8191 6.21C12.6282 6.51458 12.5019 6.8549 12.448 7.21H10.6024C10.5566 6.9258 10.4616 6.65171 10.3215 6.4V6.37ZM15.9485 18.29C15.2812 18.6728 14.5216 18.8665 13.7519 18.85H9.2483C8.47448 18.8808 7.70722 18.6974 7.0316 18.32C6.52355 18.0522 6.10824 17.638 5.83985 17.1314C5.57146 16.6248 5.46246 16.0493 5.52706 15.48C5.63074 14.5581 6.03203 13.6948 6.67051 13.02L9.98051 9.37C10.193 9.13254 10.3597 8.85791 10.472 8.56H12.5583C12.6734 8.873 12.847 9.16141 13.0698 9.41L16.3397 13.02C16.9757 13.6953 17.3737 14.559 17.4731 15.48C17.5374 16.0516 17.426 16.6292 17.1537 17.1363C16.8815 17.6435 16.4612 18.0562 15.9485 18.32V18.29Z" fill="#001325" fill-opacity="0.92"/>
<path d="M12.9896 13.16H12.7489C12.7064 12.9925 12.6423 12.8311 12.5583 12.68H13.0498C13.1828 12.68 13.3103 12.6273 13.4044 12.5336C13.4985 12.4398 13.5513 12.3126 13.5513 12.18C13.5487 12.0482 13.4951 11.9225 13.4016 11.8293C13.3081 11.7361 13.182 11.6826 13.0498 11.68H9.96045C9.82744 11.68 9.69987 11.7327 9.60582 11.8265C9.51177 11.9202 9.45893 12.0474 9.45893 12.18C9.45893 12.3126 9.51177 12.4398 9.60582 12.5336C9.69987 12.6273 9.82744 12.68 9.96045 12.68H10.8632C11.026 12.689 11.1841 12.7374 11.324 12.821C11.4638 12.9046 11.5811 13.021 11.6656 13.16H9.96045C9.82744 13.16 9.69987 13.2127 9.60582 13.3064C9.51177 13.4002 9.45893 13.5274 9.45893 13.66C9.45893 13.7926 9.51177 13.9198 9.60582 14.0136C9.69987 14.1073 9.82744 14.16 9.96045 14.16H11.6355C11.5528 14.2931 11.4377 14.4032 11.3009 14.4801C11.1642 14.557 11.0102 14.5982 10.8531 14.6H9.96045C9.89729 14.5904 9.83303 14.5904 9.76987 14.6L9.6796 14.66L9.60939 14.71L9.53917 14.82C9.52413 14.8858 9.52413 14.9542 9.53917 15.02C9.53433 15.0766 9.53433 15.1334 9.53917 15.19C9.56291 15.2512 9.6007 15.306 9.64951 15.35L11.8261 17.52C11.9218 17.6157 12.0516 17.6697 12.1872 17.67C12.2853 17.6686 12.3809 17.6386 12.4621 17.5835C12.5433 17.5285 12.6065 17.4509 12.6439 17.3604C12.6812 17.2699 12.6912 17.1705 12.6724 17.0744C12.6536 16.9783 12.607 16.8899 12.5382 16.82L11.144 15.55C11.5116 15.488 11.8547 15.3251 12.1346 15.0796C12.4145 14.8341 12.6203 14.5156 12.7288 14.16H12.9896C13.1226 14.16 13.2502 14.1073 13.3442 14.0136C13.4383 13.9198 13.4911 13.7926 13.4911 13.66C13.4911 13.5274 13.4383 13.4002 13.3442 13.3064C13.2502 13.2127 13.1226 13.16 12.9896 13.16Z" fill="#001325" fill-opacity="0.92"/>
</svg>
