<svg width="24" height="24" viewBox="0 0 24 24" fill="none" xmlns="http://www.w3.org/2000/svg">
<path d="M9.2011 21.4995C7.73828 21.4772 6.33814 20.9042 5.28211 19.8957C4.22608 18.8871 3.59245 17.5177 3.5086 16.0627C3.46788 15.3727 3.57211 14.6819 3.81463 14.0343C4.05715 13.3867 4.43262 12.7967 4.91705 12.3018L13.3971 3.67908C13.7732 3.30131 14.2213 3.00238 14.7152 2.7999C15.2091 2.59742 15.7387 2.4955 16.2727 2.50015C16.8479 2.50329 17.4165 2.6223 17.9443 2.85001C18.4721 3.07773 18.9482 3.40946 19.3439 3.82523C19.7337 4.2349 20.0367 4.71865 20.2346 5.24757C20.4325 5.77649 20.5213 6.33972 20.4957 6.90361C20.4701 7.4675 20.3307 8.02047 20.0858 8.52946C19.8408 9.03846 19.4954 9.49304 19.0701 9.86604L12.5168 16.2868C11.3822 17.4365 9.64124 17.9139 8.40884 16.7058C7.17644 15.4976 7.34272 13.8705 8.73161 12.4285L14.385 6.69949C14.5225 6.56264 14.709 6.48578 14.9034 6.48578C15.0978 6.48578 15.2842 6.56264 15.4218 6.69949C15.5574 6.83936 15.6332 7.02626 15.6332 7.22075C15.6332 7.41524 15.5574 7.60213 15.4218 7.74201L9.79773 13.4515C9.32825 13.9387 8.65336 14.8838 9.4554 15.6633C10.1107 16.3063 11.0106 15.7412 11.4116 15.3125L11.4801 15.2443L18.0333 8.82351C18.3163 8.58062 18.5476 8.28373 18.7135 7.95034C18.8795 7.61696 18.9767 7.25384 18.9995 6.88241C19.0223 6.51098 18.9702 6.13877 18.8462 5.78773C18.7223 5.43669 18.529 5.11395 18.2778 4.83853C18.0191 4.56135 17.7058 4.34039 17.3574 4.18949C17.009 4.0386 16.633 3.96102 16.2531 3.96164C15.914 3.95627 15.5772 4.01907 15.2629 4.1463C14.9487 4.27353 14.6634 4.46257 14.4241 4.70212L5.96361 13.3249C5.62606 13.6796 5.36512 14.0996 5.19689 14.5588C5.02866 15.0179 4.95672 15.5066 4.98552 15.9945C5.03159 17.0636 5.48653 18.0745 6.25704 18.8201C6.96354 19.5695 7.93869 20.0105 8.97009 20.047C10.0015 20.0835 11.0056 19.7125 11.7637 19.0149L18.9331 11.7465C19.0707 11.6096 19.2571 11.5328 19.4515 11.5328C19.6459 11.5328 19.8324 11.6096 19.9699 11.7465C20.1073 11.8835 20.1844 12.0692 20.1844 12.2629C20.1844 12.4565 20.1073 12.6422 19.9699 12.7793L12.7907 20.0477C12.3205 20.5168 11.7604 20.8871 11.1438 21.1364C10.5272 21.3858 9.86653 21.5093 9.2011 21.4995Z" fill="#001325" fill-opacity="0.92"/>
</svg>
