<svg width="24" height="24" viewBox="0 0 24 24" fill="none" xmlns="http://www.w3.org/2000/svg">
<path d="M21.6685 9.4605C21.17 7.57731 20.1349 5.88031 18.6897 4.57669C17.2445 3.27307 15.4517 2.41925 13.5302 2.11948C11.6087 1.8197 9.64169 2.08694 7.86928 2.88857C6.09687 3.69019 4.59577 4.99152 3.54927 6.63365V4.63944C3.55069 4.53694 3.53141 4.4352 3.4926 4.34034C3.45378 4.24548 3.39623 4.15946 3.3234 4.08745C3.25056 4.01544 3.16395 3.95893 3.06877 3.9213C2.97359 3.88367 2.87179 3.86571 2.7695 3.86849C2.56542 3.86849 2.36969 3.94971 2.22538 4.0943C2.08107 4.23888 2 4.43497 2 4.63944V8.55591C2.00266 8.75955 2.08458 8.9541 2.22832 9.09811C2.37206 9.24212 2.56625 9.3242 2.7695 9.32686H6.68885C6.89293 9.32686 7.08866 9.24564 7.23297 9.10106C7.37728 8.95647 7.45835 8.76038 7.45835 8.55591C7.45835 8.35144 7.37728 8.15534 7.23297 8.01076C7.08866 7.86617 6.89293 7.78495 6.68885 7.78495H4.63684V7.73355C5.47726 6.26807 6.73462 5.08684 8.24832 4.34073C9.76202 3.59463 11.4633 3.31752 13.135 3.5448C14.8066 3.77207 16.3727 4.49343 17.6332 5.61671C18.8937 6.74 19.7914 8.21423 20.2116 9.85111C20.4976 10.9249 20.5678 12.0448 20.4181 13.146C20.2684 14.2471 19.9017 15.3075 19.3395 16.2655C18.4374 17.8288 17.0613 19.0633 15.411 19.7896C13.7608 20.5158 11.9225 20.6961 10.163 20.3041C8.40357 19.9121 6.81469 18.9683 5.62718 17.6099C4.43967 16.2514 3.71538 14.549 3.55953 12.7499C3.54184 12.5454 3.44381 12.3564 3.28699 12.2243C3.20934 12.1589 3.1196 12.1095 3.02289 12.0789C2.92618 12.0483 2.82439 12.037 2.72333 12.0458C2.51925 12.0635 2.33055 12.1617 2.19875 12.3188C2.06694 12.4759 2.00283 12.6791 2.02052 12.8835C2.16954 14.4767 2.69482 16.0114 3.55295 17.3609C4.41108 18.7104 5.57743 19.8359 6.95561 20.6445C9.24829 21.9768 11.9743 22.3451 14.5373 21.6689C17.1003 20.9928 19.2918 19.3272 20.6323 17.0364C21.2967 15.9051 21.7304 14.653 21.9083 13.3525C22.0862 12.0521 22.0047 10.7292 21.6685 9.4605Z" fill="#001325" fill-opacity="0.92"/>
<path d="M10.4338 9.55301V14.775H9.18204V10.7249L8.0124 11.4444V10.3445L9.2949 9.55301H10.4338Z" fill="#001325" fill-opacity="0.92"/>
<path d="M13.8299 14.8983C13.4168 14.9125 13.0092 14.8014 12.6602 14.5797C12.3175 14.346 12.0501 14.0174 11.8907 13.6339C11.7012 13.168 11.6137 12.6667 11.6342 12.164C11.6178 11.6639 11.7088 11.1661 11.901 10.7043C12.0585 10.331 12.3227 10.0128 12.6602 9.78944C13.019 9.58774 13.4235 9.4818 13.835 9.4818C14.2464 9.4818 14.6509 9.58774 15.0098 9.78944C15.3473 10.0128 15.6115 10.331 15.769 10.7043C15.9612 11.1661 16.0522 11.6639 16.0358 12.164C16.0519 12.6707 15.961 13.1752 15.769 13.6442C15.6149 14.025 15.3505 14.3509 15.0098 14.5797C14.6579 14.8035 14.2463 14.9146 13.8299 14.8983ZM13.8299 13.8704C13.9686 13.8669 14.1039 13.8259 14.2213 13.7517C14.3387 13.6775 14.4339 13.5729 14.4968 13.4489C14.6877 13.0489 14.7725 12.6064 14.743 12.164C14.7486 11.8485 14.7106 11.5337 14.6301 11.2286C14.5698 11.0238 14.4606 10.8368 14.3121 10.6837C14.1803 10.5634 14.0081 10.4974 13.8299 10.4987C13.6941 10.504 13.5622 10.5448 13.447 10.6169C13.3318 10.689 13.2374 10.79 13.1732 10.9099C12.9853 11.2999 12.9005 11.7317 12.927 12.164C12.9157 12.4865 12.9538 12.8089 13.0398 13.12C13.0895 13.3351 13.1999 13.5313 13.3579 13.6853C13.4859 13.805 13.6547 13.8712 13.8299 13.8704Z" fill="#001325" fill-opacity="0.92"/>
</svg>
