<svg width="24" height="24" viewBox="0 0 24 24" fill="none" xmlns="http://www.w3.org/2000/svg">
<path fill-rule="evenodd" clip-rule="evenodd" d="M11.5497 3.11C11.6898 3.04 11.8499 3 12 3C12.1501 3 12.3102 3.04 12.4503 3.11L20.4465 7.11C21.3873 7.58 21.057 9 19.9962 9H4.00381C2.94299 9 2.61274 7.58 3.55347 7.11L11.5497 3.11ZM17.8745 7.5L12 4.56L6.12546 7.5H17.8745Z" fill="#001325" fill-opacity="0.92"/>
<path d="M9 10.7463C9 11.1542 8.65903 11.4925 8.24785 11.4925H8.00716V16.5075H8.24785C8.65903 16.5075 9 16.8458 9 17.2537C9 17.6617 8.65903 18 8.24785 18H6.25215C5.84097 18 5.5 17.6617 5.5 17.2537C5.5 16.8458 5.84097 16.5075 6.25215 16.5075H6.50287V11.4925H6.25215C5.84097 11.4925 5.5 11.1542 5.5 10.7463C5.5 10.3383 5.84097 10 6.25215 10H8.24785C8.65903 10 9 10.3383 9 10.7463Z" fill="#001325" fill-opacity="0.92"/>
<path d="M17.4971 16.5075H17.7479C18.1691 16.5075 18.5 16.8458 18.5 17.2537C18.5 17.6617 18.159 18 17.7479 18H15.7521C15.341 18 15 17.6617 15 17.2537C15 16.8458 15.341 16.5075 15.7521 16.5075H16.0029V11.4925H15.7521C15.341 11.4925 15 11.1542 15 10.7463C15 10.3383 15.341 10 15.7521 10H17.7479C18.159 10 18.5 10.3383 18.5 10.7463C18.5 11.1542 18.159 11.4925 17.7479 11.4925H17.4971V16.5075Z" fill="#001325" fill-opacity="0.92"/>
<path d="M21 19.75C21 20.16 20.6602 20.5 20.2277 20.5H3.77231C3.35011 20.5 3 20.16 3 19.75C3 19.34 3.35011 19 3.77231 19H20.2277C20.6499 19 21 19.34 21 19.75Z" fill="#001325" fill-opacity="0.92"/>
</svg>
