<svg width="24" height="24" viewBox="0 0 24 24" fill="none" xmlns="http://www.w3.org/2000/svg">
<path d="M19 3H6.14C5.87478 3 5.62043 3.10536 5.43289 3.29289C5.24536 3.48043 5.14 3.73478 5.14 4V6.74H4.75C4.55109 6.74 4.36032 6.81902 4.21967 6.95967C4.07902 7.10032 4 7.29109 4 7.49C4 7.68891 4.07902 7.87968 4.21967 8.02033C4.36032 8.16098 4.55109 8.24 4.75 8.24H5.14V11.24H4.75C4.55109 11.24 4.36032 11.319 4.21967 11.4597C4.07902 11.6003 4 11.7911 4 11.99C4 12.1889 4.07902 12.3797 4.21967 12.5203C4.36032 12.661 4.55109 12.74 4.75 12.74H5.14V15.74H4.75C4.55109 15.74 4.36032 15.819 4.21967 15.9597C4.07902 16.1003 4 16.2911 4 16.49C4 16.6889 4.07902 16.8797 4.21967 17.0203C4.36032 17.161 4.55109 17.24 4.75 17.24H5.14V20C5.14 20.2652 5.24536 20.5196 5.43289 20.7071C5.62043 20.8946 5.87478 21 6.14 21H19C19.2652 21 19.5196 20.8946 19.7071 20.7071C19.8946 20.5196 20 20.2652 20 20V4C20 3.73478 19.8946 3.48043 19.7071 3.29289C19.5196 3.10536 19.2652 3 19 3ZM18.5 19.5H6.64V17.26H6.7C6.89891 17.26 7.08968 17.181 7.23033 17.0403C7.37098 16.8997 7.45 16.7089 7.45 16.51C7.45 16.3111 7.37098 16.1203 7.23033 15.9797C7.08968 15.839 6.89891 15.76 6.7 15.76H6.64V12.76H6.7C6.89891 12.76 7.08968 12.681 7.23033 12.5403C7.37098 12.3997 7.45 12.2089 7.45 12.01C7.45 11.8111 7.37098 11.6203 7.23033 11.4797C7.08968 11.339 6.89891 11.26 6.7 11.26H6.64V8.26H6.7C6.89891 8.26 7.08968 8.18098 7.23033 8.04033C7.37098 7.89968 7.45 7.70891 7.45 7.51C7.45 7.31109 7.37098 7.12032 7.23033 6.97967C7.08968 6.83902 6.89891 6.76 6.7 6.76H6.64V4.5H18.5V19.5Z" fill="#001325" fill-opacity="0.92"/>
<path d="M12.36 10.08C12.5312 10.7809 12.8808 11.4256 13.375 11.9513C13.8692 12.477 14.491 12.8658 15.18 13.08C15.206 13.0904 15.2283 13.1083 15.244 13.1315C15.2597 13.1547 15.268 13.182 15.268 13.21C15.268 13.238 15.2597 13.2653 15.244 13.2885C15.2283 13.3117 15.206 13.3296 15.18 13.34C14.5086 13.5297 13.8964 13.8871 13.4013 14.3787C12.9062 14.8704 12.5444 15.4799 12.35 16.15C12.3396 16.176 12.3217 16.1983 12.2985 16.214C12.2753 16.2297 12.248 16.238 12.22 16.238C12.192 16.238 12.1647 16.2297 12.1415 16.214C12.1183 16.1983 12.1004 16.176 12.09 16.15C11.8836 15.4692 11.5072 14.8521 10.9963 14.357C10.4855 13.8619 9.85694 13.505 9.17 13.32C9.14401 13.3096 9.12173 13.2917 9.10604 13.2685C9.09035 13.2453 9.08196 13.218 9.08196 13.19C9.08196 13.162 9.09035 13.1347 9.10604 13.1115C9.12173 13.0883 9.14401 13.0704 9.17 13.06C9.86288 12.8463 10.4926 12.4655 11.0035 11.951C11.5145 11.4366 11.891 10.8043 12.1 10.11C12.107 10.0825 12.1222 10.0577 12.1435 10.039C12.1649 10.0204 12.1915 10.0086 12.2197 10.0053C12.2479 10.0021 12.2764 10.0075 12.3015 10.0208C12.3265 10.0342 12.3469 10.0548 12.36 10.08Z" fill="#001325" fill-opacity="0.92"/>
<path d="M14.66 7.08C14.7585 7.38232 14.9224 7.65919 15.1402 7.89082C15.358 8.12245 15.6243 8.30315 15.92 8.42C15.9437 8.42987 15.9639 8.44653 15.9782 8.46789C15.9924 8.48924 16 8.51433 16 8.54C16 8.56567 15.9924 8.59076 15.9782 8.61211C15.9639 8.63347 15.9437 8.65013 15.92 8.66C15.6296 8.76536 15.3656 8.93263 15.1463 9.1502C14.927 9.36778 14.7577 9.63045 14.65 9.92C14.6401 9.94369 14.6235 9.96393 14.6021 9.97817C14.5808 9.9924 14.5557 10 14.53 10C14.5043 10 14.4792 9.9924 14.4579 9.97817C14.4365 9.96393 14.4199 9.94369 14.41 9.92C14.2974 9.62725 14.123 9.36225 13.8987 9.14307C13.6743 8.92389 13.4053 8.75571 13.11 8.65C13.0863 8.64013 13.0661 8.62347 13.0518 8.60211C13.0376 8.58076 13.03 8.55567 13.03 8.53C13.03 8.50433 13.0376 8.47924 13.0518 8.45789C13.0661 8.43653 13.0863 8.41987 13.11 8.41C13.4114 8.29392 13.6848 8.11541 13.9123 7.88619C14.1398 7.65698 14.3162 7.38223 14.43 7.08C14.441 7.05906 14.4576 7.04154 14.4778 7.02931C14.4981 7.01708 14.5213 7.01062 14.545 7.01062C14.5687 7.01062 14.5919 7.01708 14.6122 7.02931C14.6324 7.04154 14.649 7.05906 14.66 7.08Z" fill="#001325" fill-opacity="0.92"/>
</svg>
