<svg width="24" height="24" viewBox="0 0 24 24" fill="none" xmlns="http://www.w3.org/2000/svg">
<path d="M8.32136 9.48244L9.25 8.9709L10.1786 9.47261C10.2912 9.54147 10.4131 9.44309 10.3944 9.31521L10.2162 8.24293L10.9572 7.48545C11.0416 7.39691 10.9947 7.23951 10.8728 7.21984L9.84095 7.06244L9.38132 6.08854C9.32504 5.97049 9.17496 5.97049 9.11868 6.08854L8.65905 7.06244L7.62722 7.21984C7.50528 7.23951 7.45838 7.38707 7.5428 7.48545L8.28384 8.24293L8.11499 9.31521C8.09623 9.44309 8.21817 9.54147 8.32136 9.48244Z" fill="#001325" fill-opacity="0.92"/>
<path d="M13.2 14.1L13.2 14.095C13.2 13.7664 12.9314 13.5 12.6 13.5C12.2686 13.5 12 13.7664 12 14.095L12 14.1001L12 14.105C12 14.4323 12.27 14.7001 12.6 14.7001C12.93 14.7001 13.2 14.4323 13.2 14.105L13.2 14.1Z" fill="#001325" fill-opacity="0.92"/>
<path d="M15.7 14.1L15.7 14.095C15.7 13.7664 15.4314 13.5 15.1 13.5C14.7686 13.5 14.5 13.7664 14.5 14.095L14.5 14.1001L14.5 14.105C14.5 14.4323 14.77 14.7001 15.1 14.7001C15.43 14.7001 15.7 14.4323 15.7 14.105L15.7 14.1Z" fill="#001325" fill-opacity="0.92"/>
<path d="M18.2 14.1L18.2 14.095C18.2 13.7664 17.9314 13.5 17.6 13.5C17.2686 13.5 17 13.7664 17 14.095L17 14.1001L17 14.105C17 14.4323 17.27 14.7001 17.6 14.7001C17.93 14.7001 18.2 14.4323 18.2 14.105L18.2 14.1Z" fill="#001325" fill-opacity="0.92"/>
<path fill-rule="evenodd" clip-rule="evenodd" d="M19.96 9.6H15.61V4C15.61 3.72 15.5 3.47 15.32 3.29C15.14 3.11 14.89 3 14.61 3H4C3.86 3 3.72999 3.02 3.60999 3.08C3.36999 3.18 3.18 3.37 3.08 3.61C3.03 3.73 3 3.86 3 4V14.22C3 14.36 3.03 14.48 3.08 14.59C3.09 14.62 3.11 14.65 3.13 14.68C3.17 14.76 3.22 14.83 3.28 14.89C3.29 14.9 3.3 14.9125 3.31 14.925C3.32 14.9375 3.33 14.95 3.34 14.96C3.43 15.03 3.52 15.1 3.63 15.14C3.64 15.15 3.66 15.15 3.67 15.15C3.76 15.18 3.86 15.2 3.97 15.21H4.07C4.15 15.21 4.23 15.19 4.31 15.16C4.32498 15.155 4.34245 15.15 4.35992 15.145C4.37742 15.14 4.395 15.135 4.41 15.13C4.52 15.08 4.62 15.02 4.71 14.93L7.03995 12.34H8.87995L8.89995 17.39C8.89995 17.67 9.00995 17.92 9.18995 18.1C9.36995 18.28 9.61995 18.39 9.89995 18.39H16.95L19.28 20.72C19.37 20.81 19.48 20.88 19.58 20.92C19.595 20.925 19.6125 20.93 19.63 20.935C19.6475 20.94 19.665 20.945 19.68 20.95C19.76 20.97 19.84 20.99 19.92 21H20.03C20.13 21 20.23 20.98 20.33 20.94C20.335 20.94 20.3425 20.9375 20.35 20.935C20.3575 20.9325 20.365 20.93 20.37 20.93C20.48 20.89 20.57 20.82 20.66 20.75C20.67 20.74 20.68 20.7275 20.69 20.715C20.7 20.7025 20.71 20.69 20.72 20.68C20.78 20.62 20.83 20.55 20.87 20.47C20.88 20.455 20.8875 20.44 20.895 20.425C20.9025 20.41 20.91 20.395 20.92 20.38C20.96 20.27 21 20.15 21 20.01L20.98 10.6C20.96 10.05 20.51 9.6 19.96 9.6ZM6.41995 10.84L5.97995 11.28L4.5 13.01V4.5H14.11V10.84H6.41995ZM19.48 18.8L17.57 16.89H10.4L10.38 12.34H14.61C15.16 12.34 15.61 11.89 15.61 11.34V11.11H19.46L19.48 18.8Z" fill="#001325" fill-opacity="0.92"/>
</svg>
