<svg width="24" height="24" viewBox="0 0 24 24" fill="none" xmlns="http://www.w3.org/2000/svg">
<path d="M18 4.5V19.13L12.74 16.13L12 15.67L11.25 16.11L6 19.13V4.5H18ZM18.5 3H5.5C5.23478 3 4.98043 3.10536 4.79289 3.29289C4.60536 3.48043 4.5 3.73478 4.5 4V20C4.5 20.2652 4.60536 20.5196 4.79289 20.7071C4.98043 20.8946 5.23478 21 5.5 21C5.67658 21.0017 5.85 20.9532 6 20.86L12 17.4L18 20.86C18.15 20.9532 18.3234 21.0017 18.5 21C18.7652 21 19.0196 20.8946 19.2071 20.7071C19.3946 20.5196 19.5 20.2652 19.5 20V4C19.5 3.73478 19.3946 3.48043 19.2071 3.29289C19.0196 3.10536 18.7652 3 18.5 3Z" fill="#001325" fill-opacity="0.92"/>
<path d="M14.81 10.46H9.19C8.99109 10.46 8.80032 10.381 8.65967 10.2403C8.51902 10.0997 8.44 9.90891 8.44 9.71C8.44 9.51109 8.51902 9.32032 8.65967 9.17967C8.80032 9.03902 8.99109 8.96 9.19 8.96H14.81C15.0089 8.96 15.1997 9.03902 15.3403 9.17967C15.481 9.32032 15.56 9.51109 15.56 9.71C15.56 9.90891 15.481 10.0997 15.3403 10.2403C15.1997 10.381 15.0089 10.46 14.81 10.46Z" fill="#001325" fill-opacity="0.92"/>
</svg>
