<svg width="24" height="24" viewBox="0 0 24 24" fill="none" xmlns="http://www.w3.org/2000/svg">
<path d="M18 4.5V19.13L12.74 16.13L12 15.67L11.25 16.11L6 19.13V4.5H18ZM18.5 3H5.5C5.23478 3 4.98043 3.10536 4.79289 3.29289C4.60536 3.48043 4.5 3.73478 4.5 4V20C4.5 20.2652 4.60536 20.5196 4.79289 20.7071C4.98043 20.8946 5.23478 21 5.5 21C5.67658 21.0017 5.85 20.9532 6 20.86L12 17.4L18 20.86C18.15 20.9532 18.3234 21.0017 18.5 21C18.7652 21 19.0196 20.8946 19.2071 20.7071C19.3946 20.5196 19.5 20.2652 19.5 20V4C19.5 3.73478 19.3946 3.48043 19.2071 3.29289C19.0196 3.10536 18.7652 3 18.5 3Z" fill="#001325" fill-opacity="0.92"/>
</svg>
