<svg width="24" height="24" viewBox="0 0 24 24" fill="none" xmlns="http://www.w3.org/2000/svg">
<path d="M18 4.5V19.13L12.74 16.1L12 15.67L11.25 16.1L6 19.13V4.5H18ZM18.5 3H5.5C4.95 3 4.5 3.45 4.5 4V20C4.5 20.58 4.98 21 5.5 21C5.67 21 5.84 20.96 6 20.86L12 17.4L18 20.86C18.16 20.95 18.33 21 18.5 21C19.02 21 19.5 20.58 19.5 20V4C19.5 3.44 19.05 3 18.5 3Z" fill="#001325" fill-opacity="0.92"/>
<path d="M14.5 9H12.75V7.25C12.75 6.84 12.41 6.5 12 6.5C11.59 6.5 11.25 6.84 11.25 7.25V9H9.5C9.09 9 8.75 9.34 8.75 9.75C8.75 10.16 9.09 10.5 9.5 10.5H11.25V12.25C11.25 12.66 11.59 13 12 13C12.41 13 12.75 12.66 12.75 12.25V10.5H14.5C14.91 10.5 15.25 10.16 15.25 9.75C15.25 9.34 14.91 9 14.5 9Z" fill="#001325" fill-opacity="0.92"/>
</svg>
