<svg width="24" height="24" viewBox="0 0 24 24" fill="none" xmlns="http://www.w3.org/2000/svg">
<path d="M18 4.5V19.13L12.74 16.13L12 15.67L11.25 16.11L6 19.13V4.5H18ZM18.5 3H5.5C5.23478 3 4.98043 3.10536 4.79289 3.29289C4.60536 3.48043 4.5 3.73478 4.5 4V20C4.5 20.2652 4.60536 20.5196 4.79289 20.7071C4.98043 20.8946 5.23478 21 5.5 21C5.67658 21.0017 5.85 20.9532 6 20.86L12 17.4L18 20.86C18.15 20.9532 18.3234 21.0017 18.5 21C18.7652 21 19.0196 20.8946 19.2071 20.7071C19.3946 20.5196 19.5 20.2652 19.5 20V4C19.5 3.73478 19.3946 3.48043 19.2071 3.29289C19.0196 3.10536 18.7652 3 18.5 3Z" fill="#001325" fill-opacity="0.92"/>
<path d="M15.78 7.14C15.6394 6.99955 15.4488 6.92066 15.25 6.92066C15.0512 6.92066 14.8606 6.99955 14.72 7.14L10.55 11.31L9.28 10.05C9.21105 9.97924 9.12864 9.92301 9.03761 9.88461C8.94659 9.84621 8.84879 9.82643 8.75 9.82643C8.65121 9.82643 8.55341 9.84621 8.46239 9.88461C8.37136 9.92301 8.28895 9.97924 8.22 10.05C8.07955 10.1906 8.00066 10.3812 8.00066 10.58C8.00066 10.7788 8.07955 10.9694 8.22 11.11L10 12.89C10.0692 12.9601 10.1518 13.0157 10.2428 13.0535C10.3338 13.0912 10.4315 13.1105 10.53 13.11C10.6285 13.1105 10.7262 13.0912 10.8172 13.0535C10.9082 13.0157 10.9908 12.9601 11.06 12.89L15.75 8.21C15.8928 8.07036 15.9757 7.88071 15.9813 7.68107C15.9869 7.48142 15.9147 7.28742 15.78 7.14Z" fill="#001325" fill-opacity="0.92"/>
</svg>
