<svg width="24" height="24" viewBox="0 0 24 24" fill="none" xmlns="http://www.w3.org/2000/svg">
<path d="M18.4734 19C18.313 19.0015 18.1561 18.9528 18.0248 18.8608C17.8935 18.7688 17.7944 18.6381 17.7413 18.4871C17.6882 18.336 17.6838 18.1721 17.7288 18.0184C17.7737 17.8648 17.8657 17.729 17.9919 17.6302C18.7969 16.9334 19.4362 16.0663 19.8632 15.092C20.2902 14.1176 20.4943 13.0606 20.4605 11.9976C20.4968 10.9363 20.296 9.88026 19.8725 8.90604C19.4491 7.93181 18.8137 7.06385 18.0124 6.36511C17.8541 6.23862 17.7524 6.05479 17.7294 5.85372C17.7063 5.65265 17.7639 5.45065 17.8895 5.29177C18.0181 5.13312 18.2041 5.03133 18.4072 5.00838C18.6104 4.98542 18.8144 5.04315 18.9753 5.1691C19.954 6.01311 20.7328 7.06347 21.2553 8.24435C21.7779 9.42524 22.0312 10.7072 21.9969 11.9976C22.0286 13.2942 21.7691 14.5813 21.2373 15.7647C20.7056 16.948 19.9152 17.9976 18.9241 18.8364C18.7959 18.9388 18.6375 18.9963 18.4734 19Z" fill="#001325" fill-opacity="0.92"/>
<path d="M16.1892 16.751C16.0799 16.7513 15.9719 16.7276 15.8728 16.6816C15.7737 16.6357 15.6859 16.5687 15.6156 16.4853C15.5489 16.4095 15.4978 16.3213 15.4652 16.2258C15.4327 16.1303 15.4194 16.0293 15.4261 15.9286C15.4327 15.828 15.4592 15.7296 15.5041 15.6392C15.5489 15.5488 15.6112 15.468 15.6873 15.4017C16.1359 14.9586 16.4869 14.427 16.7179 13.8409C16.949 13.2548 17.055 12.627 17.0291 11.9976C17.0563 11.3691 16.9519 10.7417 16.7226 10.1556C16.4934 9.56953 16.1443 9.03754 15.6975 8.59359C15.544 8.45803 15.4508 8.26718 15.4383 8.06301C15.4258 7.85884 15.4951 7.65809 15.6309 7.50491C15.7668 7.35173 15.958 7.25867 16.1626 7.24621C16.3672 7.23375 16.5683 7.30291 16.7218 7.43846C17.3276 8.03039 17.8042 8.741 18.1215 9.52562C18.4388 10.3102 18.59 11.1519 18.5656 11.9976C18.5938 12.8482 18.4414 13.695 18.1183 14.4825C17.7953 15.2701 17.3089 15.9805 16.6911 16.567C16.5538 16.6907 16.374 16.7566 16.1892 16.751Z" fill="#001325" fill-opacity="0.92"/>
<path d="M5.54677 19C5.37545 19.0017 5.20885 18.9439 5.0756 18.8364C4.08367 17.996 3.29284 16.9447 2.76111 15.7596C2.22938 14.5744 1.97024 13.2855 2.00272 11.9874C1.97485 10.6944 2.23622 9.41149 2.76779 8.23201C3.29936 7.05253 4.08776 6.00617 5.0756 5.1691C5.23452 5.04167 5.43765 4.98247 5.64031 5.00452C5.84297 5.02657 6.02855 5.12805 6.15623 5.28665C6.28391 5.44526 6.34323 5.64798 6.32114 5.85023C6.29905 6.05248 6.19736 6.23769 6.03843 6.36511C5.23157 7.06092 4.59038 7.92758 4.16157 8.90196C3.73276 9.87635 3.52713 10.9339 3.55964 11.9976C3.52433 13.0623 3.72762 14.1213 4.15469 15.0975C4.58176 16.0738 5.22183 16.9425 6.02819 17.6404C6.18715 17.7687 6.28915 17.9543 6.31215 18.157C6.33515 18.3598 6.2773 18.5634 6.15111 18.724C6.07657 18.8111 5.98387 18.8809 5.87949 18.9286C5.77511 18.9763 5.66156 19.0006 5.54677 19Z" fill="#001325" fill-opacity="0.92"/>
<path d="M7.83095 16.751C7.64681 16.7526 7.4684 16.6872 7.32905 16.567C6.71283 15.9793 6.22747 15.2687 5.90453 14.4814C5.58158 13.6942 5.42828 12.8479 5.45459 11.9976C5.4271 11.1506 5.57789 10.3072 5.89723 9.52188C6.21656 8.73658 6.69735 8.02684 7.30856 7.43846C7.38449 7.37187 7.47284 7.32088 7.56855 7.28842C7.66426 7.25597 7.76545 7.24268 7.86632 7.24933C7.96718 7.25598 8.06574 7.28243 8.15635 7.32716C8.24695 7.3719 8.32782 7.43404 8.39431 7.51002C8.52654 7.6642 8.59306 7.86389 8.57966 8.06638C8.56626 8.26888 8.474 8.4581 8.32261 8.59359C7.87486 9.03679 7.52505 9.56865 7.29571 10.1549C7.06638 10.7412 6.96259 11.3689 6.99103 11.9976C6.96564 12.6284 7.07179 13.2576 7.30277 13.8454C7.53375 14.4331 7.88452 14.9665 8.33285 15.4119C8.40867 15.4774 8.47071 15.5572 8.5154 15.6467C8.56009 15.7363 8.58654 15.8338 8.59321 15.9336C8.59987 16.0335 8.58663 16.1336 8.55425 16.2283C8.52187 16.323 8.47099 16.4103 8.40455 16.4853C8.33421 16.5687 8.2464 16.6357 8.14729 16.6816C8.04819 16.7276 7.94021 16.7513 7.83095 16.751Z" fill="#001325" fill-opacity="0.92"/>
<path d="M12.0101 10.6687C12.2739 10.6667 12.5323 10.7429 12.7526 10.8877C12.9729 11.0325 13.1452 11.2393 13.2476 11.482C13.3499 11.7246 13.3778 11.9921 13.3275 12.2506C13.2773 12.509 13.1513 12.7468 12.9655 12.9336C12.7797 13.1205 12.5425 13.2481 12.2839 13.3002C12.0253 13.3523 11.757 13.3266 11.5131 13.2263C11.2692 13.1261 11.0606 12.9557 10.9139 12.737C10.7671 12.5182 10.6887 12.2609 10.6887 11.9976C10.6846 11.8229 10.7158 11.649 10.7806 11.4866C10.8454 11.3242 10.9424 11.1765 11.0658 11.0524C11.1892 10.9283 11.3365 10.8303 11.4987 10.7644C11.661 10.6985 11.8349 10.6659 12.0101 10.6687ZM12.0101 9.13538C11.4428 9.13538 10.8883 9.30325 10.4167 9.61775C9.94504 9.93226 9.57744 10.3793 9.36036 10.9023C9.14329 11.4253 9.08649 12.0008 9.19715 12.556C9.30782 13.1113 9.58097 13.6213 9.98207 14.0216C10.3832 14.4219 10.8942 14.6945 11.4505 14.8049C12.0069 14.9153 12.5836 14.8587 13.1076 14.642C13.6317 14.4254 14.0796 14.0585 14.3947 13.5878C14.7099 13.1171 14.8781 12.5637 14.8781 11.9976C14.8822 11.6206 14.8108 11.2466 14.6682 10.8975C14.5255 10.5483 14.3144 10.2312 14.0472 9.96456C13.7801 9.69796 13.4623 9.48728 13.1125 9.34489C12.7626 9.2025 12.3878 9.13127 12.0101 9.13538Z" fill="#001325" fill-opacity="0.92"/>
</svg>
