<svg width="24" height="24" viewBox="0 0 24 24" fill="none" xmlns="http://www.w3.org/2000/svg">
<path d="M15.33 5.5L16.13 7.02L16.58 7.84H20.51V17.51H3.49V7.83H6.47L7.43 7.81L7.84 6.97L8.56 5.5H15.33ZM15.62 4H8.26C7.88 4 7.53 4.22 7.36 4.56L6.5 6.32C6.5 6.33 6.49 6.34 6.48 6.34H3C2.45 6.34 2 6.78 2 7.33L2 18.01C2 18.56 2.45 19 3 19H21C21.55 19 22 18.56 22 18.01V7.33C22 6.78 21.55 6.34 21 6.34H17.47C17.46 6.34 17.45 6.33 17.44 6.32L16.5 4.54C16.34 4.21 16 4 15.62 4Z" fill="#001325" fill-opacity="0.92"/>
<path d="M12 9.41176C13.4306 9.41176 14.5882 10.5694 14.5882 12C14.5882 13.4306 13.4306 14.5882 12 14.5882C10.5694 14.5882 9.41176 13.4306 9.41176 12C9.41176 10.5694 10.5788 9.41176 12 9.41176ZM12 8C9.78824 8 8 9.78824 8 12C8 14.2118 9.78824 16 12 16C14.2118 16 16 14.2118 16 12C16 9.78824 14.2118 8 12 8Z" fill="#001325" fill-opacity="0.92"/>
</svg>
