<svg width="24" height="24" viewBox="0 0 24 24" fill="none" xmlns="http://www.w3.org/2000/svg">
<path d="M21 5H3C2.73478 5 2.48043 5.10536 2.29289 5.29289C2.10536 5.48043 2 5.73478 2 6V18C2 18.2652 2.10536 18.5196 2.29289 18.7071C2.48043 18.8946 2.73478 19 3 19H21C21.2652 19 21.5196 18.8946 21.7071 18.7071C21.8946 18.5196 22 18.2652 22 18V6C22 5.73478 21.8946 5.48043 21.7071 5.29289C21.5196 5.10536 21.2652 5 21 5ZM20.5 17.5H3.5V10.9H20.5V17.5ZM3.5 9.4V6.5H20.5V9.4H3.5Z" fill="#001325" fill-opacity="0.92"/>
<path d="M12.55 14.91C12.9642 14.91 13.3 14.5742 13.3 14.16C13.3 13.7458 12.9642 13.41 12.55 13.41C12.1358 13.41 11.8 13.7458 11.8 14.16C11.8 14.5742 12.1358 14.91 12.55 14.91Z" fill="#001325" fill-opacity="0.92"/>
<path d="M15.05 14.91C15.4642 14.91 15.8 14.5742 15.8 14.16C15.8 13.7458 15.4642 13.41 15.05 13.41C14.6358 13.41 14.3 13.7458 14.3 14.16C14.3 14.5742 14.6358 14.91 15.05 14.91Z" fill="#001325" fill-opacity="0.92"/>
<path d="M17.55 14.91C17.9642 14.91 18.3 14.5742 18.3 14.16C18.3 13.7458 17.9642 13.41 17.55 13.41C17.1358 13.41 16.8 13.7458 16.8 14.16C16.8 14.5742 17.1358 14.91 17.55 14.91Z" fill="#001325" fill-opacity="0.92"/>
</svg>
