<svg width="24" height="24" viewBox="0 0 24 24" fill="none" xmlns="http://www.w3.org/2000/svg">
<path d="M18 16.25H15C14.8011 16.25 14.6103 16.171 14.4697 16.0303C14.329 15.8897 14.25 15.6989 14.25 15.5C14.25 15.3011 14.329 15.1103 14.4697 14.9697C14.6103 14.829 14.8011 14.75 15 14.75H18C18.1989 14.75 18.3897 14.829 18.5303 14.9697C18.671 15.1103 18.75 15.3011 18.75 15.5C18.75 15.6989 18.671 15.8897 18.5303 16.0303C18.3897 16.171 18.1989 16.25 18 16.25Z" fill="#001325" fill-opacity="0.92"/>
<path d="M21 5H3C2.73478 5 2.48043 5.10536 2.29289 5.29289C2.10536 5.48043 2 5.73478 2 6V18C2 18.2652 2.10536 18.5196 2.29289 18.7071C2.48043 18.8946 2.73478 19 3 19H21C21.2652 19 21.5196 18.8946 21.7071 18.7071C21.8946 18.5196 22 18.2652 22 18V6C22 5.73478 21.8946 5.48043 21.7071 5.29289C21.5196 5.10536 21.2652 5 21 5ZM20.5 17.5H3.5V11.4H20.5V17.5ZM3.5 9.9V6.5H20.5V9.9H3.5Z" fill="#001325" fill-opacity="0.92"/>
</svg>
