<svg width="24" height="24" viewBox="0 0 24 24" fill="none" xmlns="http://www.w3.org/2000/svg">
<path d="M20.12 6.17584H16.4C15.9912 5.37076 15.3674 4.69461 14.5978 4.22231C13.8283 3.75 12.9429 3.5 12.04 3.5C11.1371 3.5 10.2518 3.75 9.48219 4.22231C8.71262 4.69461 8.08885 5.37076 7.68001 6.17584H3.88001C3.64662 6.17584 3.42278 6.26855 3.25775 6.43359C3.09272 6.59862 3.00001 6.82245 3.00001 7.05584L3 19.63C3.00263 19.8617 3.09651 20.0829 3.26126 20.2458C3.426 20.4087 3.64833 20.5 3.88 20.5H20.12C20.3517 20.5 20.574 20.4087 20.7387 20.2458C20.9035 20.0829 20.9974 19.8617 21 19.63L21 7.05584C21 6.82245 20.9073 6.59862 20.7423 6.43359C20.5772 6.26855 20.3534 6.17584 20.12 6.17584ZM12 4.79584C12.5526 4.78805 13.0994 4.90863 13.5974 5.1481C14.0954 5.38757 14.5311 5.73938 14.87 6.17584H9.21001C9.54314 5.75279 9.96646 5.4094 10.4491 5.17066C10.9318 4.93193 11.4616 4.80388 12 4.79584ZM19.5 7.67584V13.4158H4.50001V7.67584H19.5ZM4.5 19.03L4.50001 14.9158H19.5L19.5 19.02L4.5 19.03Z" fill="#001325" fill-opacity="0.92"/>
<path d="M12 12.5C12.486 12.5 12.88 12.106 12.88 11.62C12.88 11.134 12.486 10.74 12 10.74C11.514 10.74 11.12 11.134 11.12 11.62C11.12 12.106 11.514 12.5 12 12.5Z" fill="#001325" fill-opacity="0.92"/>
</svg>
