<svg width="24" height="24" viewBox="0 0 24 24" fill="none" xmlns="http://www.w3.org/2000/svg">
<path d="M16 8.94H8C7.80109 8.94 7.61032 8.86098 7.46967 8.72033C7.32902 8.57968 7.25 8.38891 7.25 8.19C7.25 7.99109 7.32902 7.80032 7.46967 7.65967C7.61032 7.51902 7.80109 7.44 8 7.44H16C16.1989 7.44 16.3897 7.51902 16.5303 7.65967C16.671 7.80032 16.75 7.99109 16.75 8.19C16.75 8.38891 16.671 8.57968 16.5303 8.72033C16.3897 8.86098 16.1989 8.94 16 8.94Z" fill="#001325" fill-opacity="0.92"/>
<path d="M13 12.36H8C7.80109 12.36 7.61032 12.281 7.46967 12.1403C7.32902 11.9997 7.25 11.8089 7.25 11.61C7.25 11.4111 7.32902 11.2203 7.46967 11.0797C7.61032 10.939 7.80109 10.86 8 10.86H13C13.1989 10.86 13.3897 10.939 13.5303 11.0797C13.671 11.2203 13.75 11.4111 13.75 11.61C13.75 11.8089 13.671 11.9997 13.5303 12.1403C13.3897 12.281 13.1989 12.36 13 12.36Z" fill="#001325" fill-opacity="0.92"/>
<path d="M19.5 4.5V15.3H11.92L11.48 15.73L8.39 18.83V15.31H4.5V4.5H19.5ZM20 3H4C3.73478 3 3.48043 3.10536 3.29289 3.29289C3.10536 3.48043 3 3.73478 3 4V15.8C3 16.0652 3.10536 16.3196 3.29289 16.5071C3.48043 16.6946 3.73478 16.8 4 16.8H6.87V20C6.87 20.2652 6.97536 20.5196 7.16289 20.7071C7.35043 20.8946 7.60478 21 7.87 21C8.02525 21 8.17836 20.9639 8.31721 20.8944C8.45607 20.825 8.57685 20.7242 8.67 20.6L12.48 16.81H20C20.2652 16.81 20.5196 16.7046 20.7071 16.5171C20.8946 16.3296 21 16.0752 21 15.81V4C21 3.73478 20.8946 3.48043 20.7071 3.29289C20.5196 3.10536 20.2652 3 20 3Z" fill="#001325" fill-opacity="0.92"/>
</svg>
