<svg width="24" height="24" viewBox="0 0 24 24" fill="none" xmlns="http://www.w3.org/2000/svg">
<path d="M12.3 8.1C12.3 7.68214 12.6322 7.35 13.05 7.35C13.4679 7.35 13.8 7.68214 13.8 8.1C13.8 8.51786 13.4679 8.85 13.05 8.85C12.6322 8.85 12.3 8.51786 12.3 8.1Z" fill="#001325" fill-opacity="0.92"/>
<path d="M10.15 7.35C9.73217 7.35 9.40002 7.68214 9.40002 8.1C9.40002 8.51786 9.73217 8.85 10.15 8.85C10.5679 8.85 10.9 8.51786 10.9 8.1C10.9 7.68214 10.5572 7.35 10.15 7.35Z" fill="#001325" fill-opacity="0.92"/>
<path d="M6.48999 8.1C6.48999 7.68214 6.82213 7.35 7.23999 7.35C7.65785 7.35 7.98999 7.68214 7.98999 8.1C7.98999 8.51786 7.65785 8.85 7.23999 8.85C6.82213 8.85 6.48999 8.51786 6.48999 8.1Z" fill="#001325" fill-opacity="0.92"/>
<path fill-rule="evenodd" clip-rule="evenodd" d="M17.1921 8.69H19.9906C20.5403 8.69 20.99 9.13 21 9.69V20.01C21 20.15 20.96 20.27 20.92 20.38C20.91 20.395 20.9026 20.41 20.8951 20.425C20.8876 20.44 20.8801 20.455 20.8701 20.47C20.8301 20.55 20.7801 20.62 20.7202 20.68C20.7102 20.69 20.7002 20.7025 20.6902 20.715C20.6802 20.7275 20.6702 20.74 20.6602 20.75C20.5702 20.82 20.4803 20.89 20.3703 20.93C20.3654 20.93 20.3579 20.9325 20.3504 20.935C20.3429 20.9375 20.3354 20.94 20.3304 20.94C20.2304 20.98 20.1305 21 20.0305 21H19.9206C19.8406 20.99 19.7607 20.97 19.6807 20.95C19.6657 20.945 19.6483 20.94 19.6308 20.935C19.6133 20.93 19.5958 20.925 19.5808 20.92C19.4808 20.88 19.3709 20.81 19.281 20.72L16.5825 18.02H8.79678C8.24708 18.02 7.79733 17.57 7.79733 17.02V13.04H7.74736L4.70905 16.07C4.50916 16.27 4.2593 16.36 4.00944 16.36C3.48973 16.36 3 15.96 3 15.36V4C3 3.45 3.44975 3 3.99944 3H16.1927C16.7424 3 17.1921 3.45 17.1921 4V8.69ZM7.11771 11.54H7.73737V11.53H15.6929V4.5H4.49917V14.15L6.67796 11.98L7.11771 11.54ZM19.4908 18.8V10.18H17.1921V12.03C17.1921 12.58 16.7424 13.03 16.1927 13.03H9.2965V16.51H17.2021L19.4908 18.8Z" fill="#001325" fill-opacity="0.92"/>
</svg>
