<svg width="24" height="24" viewBox="0 0 24 24" fill="none" xmlns="http://www.w3.org/2000/svg">
<path d="M18.091 9.31256C17.8379 9.05799 17.4263 9.0568 17.1717 9.3099C16.9172 9.563 16.916 9.97456 17.1691 10.2291L17.7872 10.8508H11.19C10.831 10.8508 10.54 11.1418 10.54 11.5008C10.54 11.8598 10.831 12.1508 11.19 12.1508H17.7808L17.1704 12.7612C16.9165 13.0151 16.9166 13.4266 17.1704 13.6805C17.4242 13.9343 17.8358 13.9343 18.0896 13.6805L19.8096 11.9605C20.063 11.7071 20.0635 11.2966 19.811 11.0426L18.091 9.31256Z" fill="#001325" fill-opacity="0.92"/>
<path d="M9.87005 18.69C10.3782 18.69 10.7901 18.2781 10.7901 17.77C10.7901 17.2619 10.3782 16.85 9.87005 16.85C9.36195 16.85 8.95005 17.2619 8.95005 17.77C8.95005 18.2781 9.36195 18.69 9.87005 18.69Z" fill="#001325" fill-opacity="0.92"/>
<path fill-rule="evenodd" clip-rule="evenodd" d="M5.64628 4.50014C5.62751 4.4993 5.60875 4.50224 5.59114 4.5088C5.57353 4.51535 5.55741 4.52539 5.54376 4.53831C5.53011 4.55123 5.5192 4.56676 5.51168 4.58399C5.50445 4.60055 5.5005 4.61834 5.50003 4.63639L5.50004 19.3645C5.5005 19.3826 5.50446 19.4004 5.51169 19.4169C5.51921 19.4341 5.53012 19.4497 5.54377 19.4626C5.55742 19.4755 5.57353 19.4855 5.59115 19.4921C5.60877 19.4987 5.62752 19.5016 5.64629 19.5008C5.65753 19.5003 5.66879 19.5 5.68004 19.5H13.95L13.9669 19.5002C13.9866 19.5006 14.0062 19.4972 14.0246 19.4901C14.0429 19.4829 14.0597 19.4722 14.0739 19.4586C14.0882 19.445 14.0996 19.4287 14.1075 19.4107C14.1148 19.3941 14.1191 19.3764 14.12 19.3583L14.12 14.9809C14.12 14.5667 14.4558 14.2309 14.87 14.2309C15.2843 14.2309 15.62 14.5667 15.62 14.9809L15.62 19.37L15.6199 19.3865C15.6151 19.6032 15.5677 19.8168 15.4803 20.0152C15.393 20.2136 15.2674 20.3928 15.1108 20.5426C14.9541 20.6924 14.7695 20.8099 14.5675 20.8884C14.3684 20.9656 14.1563 21.0035 13.9429 21H5.69437C5.48092 21.0071 5.26807 20.9724 5.06782 20.8978C4.86148 20.821 4.67273 20.7035 4.5128 20.5521C4.35288 20.4008 4.22506 20.2188 4.13698 20.0171C4.04889 19.8153 4.00233 19.5978 4.00008 19.3777L4 19.37L4.00003 4.62323C4.00228 4.40308 4.04888 4.18562 4.13697 3.98385C4.22505 3.78207 4.35287 3.60009 4.51279 3.44876C4.67272 3.29744 4.86147 3.17987 5.06781 3.10305C5.26807 3.0285 5.48091 2.99382 5.69435 3.0009L13.9729 3.0009C14.1863 2.99736 14.3984 3.03526 14.5975 3.11255C14.7995 3.191 14.9841 3.30849 15.1408 3.45832C15.2974 3.60814 15.423 3.78735 15.5103 3.98572C15.5977 4.18409 15.6451 4.39773 15.6499 4.61442L15.65 4.6309V7.8809C15.65 8.29512 15.3143 8.6309 14.9 8.6309C14.4858 8.6309 14.15 8.29512 14.15 7.8809V4.6426C14.1491 4.62454 14.1448 4.6068 14.1375 4.59022C14.1296 4.57219 14.1182 4.5559 14.1039 4.54228C14.0897 4.52866 14.0729 4.51798 14.0545 4.51084C14.0362 4.50371 14.0166 4.50027 13.9969 4.50071L13.98 4.5009H5.68003C5.66878 4.5009 5.65753 4.50065 5.64628 4.50014Z" fill="#001325" fill-opacity="0.92"/>
</svg>
