<svg width="24" height="24" viewBox="0 0 24 24" fill="none" xmlns="http://www.w3.org/2000/svg">
<path d="M14.9288 19C14.7886 19.0008 14.6497 18.9736 14.5199 18.9201C14.3902 18.8665 14.2722 18.7875 14.1726 18.6878L8.31503 12.7666C8.21521 12.6665 8.13598 12.5474 8.08191 12.4162C8.02784 12.285 8 12.1443 8 12.0022C8 11.8601 8.02784 11.7194 8.08191 11.5882C8.13598 11.457 8.21521 11.3379 8.31503 11.2378L14.13 5.31661C14.2293 5.21624 14.3472 5.13661 14.477 5.08229C14.6067 5.02796 14.7458 5 14.8862 5C15.0266 5 15.1657 5.02796 15.2954 5.08229C15.4252 5.13661 15.5431 5.21624 15.6424 5.31661C15.7417 5.41699 15.8204 5.53616 15.8742 5.66731C15.9279 5.79846 15.9556 5.93903 15.9556 6.08099C15.9556 6.22295 15.9279 6.36351 15.8742 6.49466C15.8204 6.62582 15.7417 6.74498 15.6424 6.84536L10.5729 12.0022L15.685 17.159C15.7848 17.2591 15.864 17.3782 15.9181 17.5094C15.9722 17.6406 16 17.7813 16 17.9234C16 18.0655 15.9722 18.2062 15.9181 18.3374C15.864 18.4686 15.7848 18.5877 15.685 18.6878C15.5855 18.7875 15.4674 18.8665 15.3377 18.9201C15.2079 18.9736 15.069 19.0008 14.9288 19Z" fill="#001325" fill-opacity="0.92"/>
</svg>
