<svg width="24" height="24" viewBox="0 0 24 24" fill="none" xmlns="http://www.w3.org/2000/svg">
<path d="M15.9954 21.0042C15.8639 21.0049 15.7336 20.9797 15.6119 20.9299C15.4902 20.8802 15.3795 20.8068 15.2862 20.7141L7.29546 12.7142C7.20184 12.6212 7.12753 12.5106 7.07682 12.3887C7.02611 12.2669 7 12.1362 7 12.0042C7 11.8721 7.02611 11.7414 7.07682 11.6196C7.12753 11.4977 7.20184 11.3871 7.29546 11.2942L15.2862 3.29415C15.4743 3.10585 15.7294 3.00006 15.9954 3.00006C16.2614 3.00006 16.5165 3.10585 16.7045 3.29415C16.8926 3.48245 16.9983 3.73785 16.9983 4.00415C16.9983 4.27045 16.8926 4.52585 16.7045 4.71415L9.413 12.0042L16.7045 19.2942C16.7982 19.3871 16.8725 19.4977 16.9232 19.6196C16.9739 19.7414 17 19.8721 17 20.0042C17 20.1362 16.9739 20.2669 16.9232 20.3887C16.8725 20.5106 16.7982 20.6212 16.7045 20.7141C16.6112 20.8068 16.5005 20.8802 16.3788 20.9299C16.2571 20.9797 16.1268 21.0049 15.9954 21.0042Z" fill="#001325" fill-opacity="0.92"/>
</svg>
