<svg width="24" height="24" viewBox="0 0 24 24" fill="none" xmlns="http://www.w3.org/2000/svg">
<path d="M19.9907 16.9959C19.8591 16.9967 19.7287 16.9715 19.607 16.9218C19.4852 16.872 19.3744 16.7988 19.2811 16.7062L11.9951 9.41341L4.70906 16.7062C4.52086 16.8943 4.26561 17 3.99945 17C3.7333 17 3.47804 16.8943 3.28984 16.7062C3.10164 16.5181 2.99591 16.2629 2.99591 15.9969C2.99591 15.7309 3.10164 15.4757 3.28984 15.2876L11.2854 7.29551C11.3784 7.20187 11.4889 7.12755 11.6107 7.07683C11.7325 7.02611 11.8631 7 11.9951 7C12.127 7 12.2576 7.02611 12.3794 7.07683C12.5012 7.12755 12.6118 7.20187 12.7047 7.29551L20.7003 15.2876C20.794 15.3805 20.8683 15.491 20.919 15.6127C20.9698 15.7344 20.9959 15.865 20.9959 15.9969C20.9959 16.1288 20.9698 16.2594 20.919 16.3811C20.8683 16.5028 20.794 16.6133 20.7003 16.7062C20.6069 16.7988 20.4961 16.872 20.3744 16.9218C20.2526 16.9715 20.1222 16.9967 19.9907 16.9959Z" fill="#001325" fill-opacity="0.92"/>
</svg>
