<svg width="24" height="24" viewBox="0 0 24 24" fill="none" xmlns="http://www.w3.org/2000/svg">
<path fill-rule="evenodd" clip-rule="evenodd" d="M21 12C21 16.9706 16.9706 21 12 21C7.02944 21 3 16.9706 3 12C3 7.02944 7.02944 3 12 3C16.9706 3 21 7.02944 21 12ZM15.39 9.67L13.06 12L15.39 14.33C15.4608 14.3989 15.517 14.4814 15.5554 14.5724C15.5938 14.6634 15.6136 14.7612 15.6136 14.86C15.6136 14.9588 15.5938 15.0566 15.5554 15.1476C15.517 15.2386 15.4608 15.3211 15.39 15.39C15.3218 15.4615 15.2395 15.518 15.1482 15.5559C15.057 15.5938 14.9588 15.6122 14.86 15.61C14.7615 15.6105 14.6638 15.5912 14.5728 15.5535C14.4818 15.5157 14.3992 15.4601 14.33 15.39L12 13.06L9.67 15.39C9.60075 15.4601 9.5182 15.5157 9.42719 15.5535C9.33618 15.5912 9.23854 15.6105 9.14 15.61C9.04121 15.6122 8.94305 15.5938 8.85178 15.5559C8.76052 15.518 8.67817 15.4615 8.61 15.39C8.53924 15.3211 8.48301 15.2386 8.44461 15.1476C8.40621 15.0566 8.38643 14.9588 8.38643 14.86C8.38643 14.7612 8.40621 14.6634 8.44461 14.5724C8.48301 14.4814 8.53924 14.3989 8.61 14.33L10.94 12L8.61 9.67C8.47752 9.52782 8.4054 9.33978 8.40882 9.14548C8.41225 8.95117 8.49096 8.76579 8.62838 8.62838C8.76579 8.49096 8.95118 8.41225 9.14548 8.40882C9.33978 8.4054 9.52782 8.47752 9.67 8.61L12 10.94L14.33 8.61C14.4722 8.47752 14.6602 8.4054 14.8545 8.40882C15.0488 8.41225 15.2342 8.49096 15.3716 8.62838C15.509 8.76579 15.5877 8.95117 15.5912 9.14548C15.5946 9.33978 15.5225 9.52782 15.39 9.67Z" fill="#001325" fill-opacity="0.92"/>
</svg>
