<svg width="24" height="24" viewBox="0 0 24 24" fill="none" xmlns="http://www.w3.org/2000/svg">
<path fill-rule="evenodd" clip-rule="evenodd" d="M21 12C21 16.9706 16.9706 21 12 21C7.02944 21 3 16.9706 3 12C3 7.02944 7.02944 3 12 3C16.9706 3 21 7.02944 21 12ZM8.39999 12.75H15.6C15.7989 12.75 15.9897 12.671 16.1303 12.5303C16.271 12.3897 16.35 12.1989 16.35 12C16.35 11.8011 16.271 11.6103 16.1303 11.4697C15.9897 11.329 15.7989 11.25 15.6 11.25H8.39999C8.20108 11.25 8.01032 11.329 7.86966 11.4697C7.72901 11.6103 7.64999 11.8011 7.64999 12C7.64999 12.1989 7.72901 12.3897 7.86966 12.5303C8.01032 12.671 8.20108 12.75 8.39999 12.75Z" fill="#001325" fill-opacity="0.92"/>
</svg>
