<svg width="24" height="24" viewBox="0 0 24 24" fill="none" xmlns="http://www.w3.org/2000/svg">
<path fill-rule="evenodd" clip-rule="evenodd" d="M21 12C21 16.9706 16.9706 21 12 21C7.02944 21 3 16.9706 3 12C3 7.02944 7.02944 3 12 3C16.9706 3 21 7.02944 21 12ZM12.53 7.63L15.23 10.33C15.3041 10.4001 15.3632 10.4846 15.4036 10.5783C15.4439 10.672 15.4648 10.773 15.4648 10.875C15.4648 10.977 15.4439 11.078 15.4036 11.1717C15.3632 11.2654 15.3041 11.3499 15.23 11.42C15.0894 11.5605 14.8988 11.6393 14.7 11.6393C14.5012 11.6393 14.3106 11.5605 14.17 11.42L12.75 10V15.87C12.75 16.0689 12.671 16.2597 12.5303 16.4003C12.3897 16.541 12.1989 16.62 12 16.62C11.8011 16.62 11.6103 16.541 11.4697 16.4003C11.329 16.2597 11.25 16.0689 11.25 15.87V10L9.83 11.39C9.68782 11.5225 9.49978 11.5946 9.30548 11.5912C9.11118 11.5877 8.92579 11.509 8.78838 11.3716C8.65096 11.2342 8.57225 11.0488 8.56882 10.8545C8.5654 10.6602 8.63752 10.4722 8.77 10.33L11.47 7.63C11.5389 7.55924 11.6214 7.50301 11.7124 7.46461C11.8034 7.42621 11.9012 7.40643 12 7.40643C12.0988 7.40643 12.1966 7.42621 12.2876 7.46461C12.3786 7.50301 12.4611 7.55924 12.53 7.63Z" fill="#001325" fill-opacity="0.92"/>
</svg>
