<svg width="24" height="24" viewBox="0 0 24 24" fill="none" xmlns="http://www.w3.org/2000/svg">
<path d="M13.554 9.1931C13.7851 8.96427 14.1597 8.96427 14.3908 9.1931L16.0969 10.8826C16.2079 10.9924 16.2702 11.1415 16.2702 11.2969C16.2702 11.4523 16.2079 11.6013 16.0969 11.7112L14.3908 13.4006C14.1597 13.6295 13.7851 13.6295 13.554 13.4006C13.3229 13.1718 13.3229 12.8008 13.554 12.572L14.25 11.8828H8.72437L9.42036 12.572C9.65144 12.8008 9.65144 13.1718 9.42036 13.4006C9.18928 13.6295 8.81463 13.6295 8.58355 13.4006L6.87744 11.7112C6.76647 11.6013 6.70413 11.4523 6.70413 11.2969C6.70413 11.1415 6.76647 10.9924 6.87744 10.8826L8.58355 9.1931C8.81463 8.96427 9.18928 8.96427 9.42036 9.1931C9.65144 9.42192 9.65144 9.79292 9.42036 10.0217L8.72437 10.7109H14.25L13.554 10.0217C13.3229 9.79292 13.3229 9.42192 13.554 9.1931Z" fill="#001325" fill-opacity="0.92"/>
<path fill-rule="evenodd" clip-rule="evenodd" d="M14.6553 20.534C13.6971 20.8515 12.6716 21.0234 11.6055 21.0234C6.30053 21.0234 2 16.7649 2 11.5117C2 6.25854 6.30053 2 11.6055 2C16.9105 2 21.211 6.25854 21.211 11.5117C21.211 12.6663 21.0033 13.7728 20.6228 14.7966C20.6792 14.8469 20.7343 14.8988 20.788 14.9522C21.1747 15.337 21.4809 15.7936 21.6889 16.2958C21.8968 16.7981 22.0026 17.3361 22 17.8789C22 18.694 21.7559 19.4907 21.2986 20.1685C20.8413 20.8462 20.1913 21.3744 19.4309 21.6863C18.6704 21.9982 17.8336 22.0798 17.0263 21.9208C16.219 21.7618 15.4775 21.3693 14.8955 20.793C14.8115 20.7098 14.7314 20.6234 14.6553 20.534ZM3.47929 11.5117C3.47929 7.06755 7.11752 3.46484 11.6055 3.46484C16.0935 3.46484 19.7317 7.06755 19.7317 11.5117C19.7317 12.3849 19.5913 13.2256 19.3315 14.0129C18.8553 13.834 18.3491 13.7578 17.8382 13.7578C17.0151 13.7578 16.2105 13.9995 15.5261 14.4523C14.8417 14.9052 14.3083 15.5488 13.9933 16.3018C13.6783 17.0549 13.5959 17.8835 13.7565 18.6829C13.794 18.8696 13.8444 19.0528 13.907 19.2313C13.1773 19.4443 12.4049 19.5586 11.6055 19.5586C7.11752 19.5586 3.47929 15.9559 3.47929 11.5117ZM17.8382 15.0273C18.403 15.0273 18.9552 15.193 19.4251 15.5033C19.895 15.8136 20.2615 16.2548 20.4786 16.7711C20.6956 17.2875 20.7534 17.8559 20.6446 18.4047C20.5845 18.7078 20.4751 18.9975 20.3222 19.2629L16.3631 15.4482C16.8047 15.1792 17.3141 15.0273 17.8382 15.0273ZM15.4985 16.2503L19.5347 20.1393C19.2014 20.3825 18.8173 20.5522 18.4082 20.6346C17.8547 20.746 17.2803 20.6927 16.7574 20.4814C16.2345 20.27 15.7865 19.9101 15.4698 19.4469C15.1532 18.9838 14.9822 18.4382 14.9783 17.8789C14.9783 17.2921 15.1622 16.724 15.4985 16.2503Z" fill="#001325" fill-opacity="0.92"/>
</svg>
