<svg width="24" height="24" viewBox="0 0 24 24" fill="none" xmlns="http://www.w3.org/2000/svg">
<path fill-rule="evenodd" clip-rule="evenodd" d="M21 12C21 16.9706 16.9706 21 12 21C7.02944 21 3 16.9706 3 12C3 7.02944 7.02944 3 12 3C16.9706 3 21 7.02944 21 12ZM12.7422 11.2578H16.2578C16.6635 11.2578 17 11.5943 17 12C17 12.4057 16.6635 12.7422 16.2578 12.7422H12.7422V16.2578C12.7422 16.6635 12.4057 17 12 17C11.5943 17 11.2578 16.6635 11.2578 16.2578V12.7422H7.74219C7.33646 12.7422 7 12.4057 7 12C7 11.5943 7.33646 11.2578 7.74219 11.2578H11.2578V7.74219C11.2578 7.33646 11.5943 7 12 7C12.4057 7 12.7422 7.33646 12.7422 7.74219V11.2578Z" fill="#001325" fill-opacity="0.92"/>
</svg>
