<svg width="24" height="24" viewBox="0 0 24 24" fill="none" xmlns="http://www.w3.org/2000/svg">
<path d="M14.54 8.46066C14.7387 8.46066 14.9294 8.53955 15.07 8.68C15.2104 8.82062 15.2893 9.01125 15.2893 9.21C15.2893 9.40875 15.2104 9.59937 15.07 9.74L12.81 12L15.06 14.26C15.2004 14.4006 15.2793 14.5912 15.2793 14.79C15.2793 14.9887 15.2004 15.1794 15.06 15.32C14.9908 15.3901 14.9082 15.4457 14.8172 15.4835C14.7262 15.5212 14.6285 15.5405 14.53 15.54C14.4314 15.541 14.3336 15.5221 14.2425 15.4843C14.1514 15.4464 14.0689 15.3906 14 15.32L11.75 13.06L9.49 15.32C9.42075 15.3901 9.3382 15.4457 9.24719 15.4835C9.15618 15.5212 9.05854 15.5405 8.96 15.54C8.86138 15.541 8.76357 15.5221 8.67247 15.4843C8.58138 15.4464 8.4989 15.3906 8.43 15.32C8.35924 15.2511 8.30301 15.1686 8.26461 15.0776C8.22621 14.9866 8.20643 14.8888 8.20643 14.79C8.20643 14.6912 8.22621 14.5934 8.26461 14.5024C8.30301 14.4114 8.35924 14.3289 8.43 14.26L10.69 12L8.43 9.74C8.35924 9.67105 8.30301 9.58864 8.26461 9.49761C8.22621 9.40658 8.20643 9.30879 8.20643 9.21C8.20643 9.11121 8.22621 9.01341 8.26461 8.92239C8.30301 8.83136 8.35924 8.74895 8.43 8.68C8.57062 8.53955 8.76125 8.46066 8.96 8.46066C9.15875 8.46066 9.34937 8.53955 9.49 8.68L11.75 10.94L14.01 8.68C14.1506 8.53955 14.3412 8.46066 14.54 8.46066Z" fill="#001325" fill-opacity="0.92"/>
<path fill-rule="evenodd" clip-rule="evenodd" d="M6.99986 4.51677C8.47991 3.52784 10.22 3 12 3C14.3869 3 16.6761 3.94821 18.364 5.63604C20.0518 7.32387 21 9.61305 21 12C21 13.78 20.4722 15.5201 19.4832 17.0001C18.4943 18.4802 17.0887 19.6337 15.4441 20.3149C13.7996 20.9961 11.99 21.1743 10.2442 20.8271C8.49835 20.4798 6.89471 19.6226 5.63603 18.364C4.37736 17.1053 3.5202 15.5016 3.17293 13.7558C2.82566 12.01 3.00389 10.2004 3.68508 8.55585C4.36627 6.91131 5.51982 5.50571 6.99986 4.51677ZM7.83322 18.236C9.06659 19.0601 10.5166 19.5 12 19.5C13.9891 19.5 15.8968 18.7098 17.3033 17.3033C18.7098 15.8968 19.5 13.9891 19.5 12C19.5 10.5166 19.0601 9.06659 18.236 7.83322C17.4119 6.59985 16.2406 5.63856 14.8701 5.0709C13.4997 4.50325 11.9917 4.35472 10.5368 4.64411C9.08196 4.9335 7.74559 5.64781 6.6967 6.6967C5.6478 7.74559 4.9335 9.08196 4.64411 10.5368C4.35472 11.9917 4.50324 13.4997 5.0709 14.8701C5.63856 16.2406 6.59985 17.4119 7.83322 18.236Z" fill="#001325" fill-opacity="0.92"/>
</svg>
