<svg width="24" height="24" viewBox="0 0 24 24" fill="none" xmlns="http://www.w3.org/2000/svg">
<path d="M8.40793 11.25H15.6079C15.8068 11.25 15.9976 11.329 16.1383 11.4697C16.2789 11.6103 16.3579 11.8011 16.3579 12C16.3579 12.1989 16.2789 12.3897 16.1383 12.5303C15.9976 12.671 15.8068 12.75 15.6079 12.75H8.40793C8.20902 12.75 8.01825 12.671 7.8776 12.5303C7.73695 12.3897 7.65793 12.1989 7.65793 12C7.65793 11.8011 7.73695 11.6103 7.8776 11.4697C8.01825 11.329 8.20902 11.25 8.40793 11.25Z" fill="#001325" fill-opacity="0.92"/>
<path fill-rule="evenodd" clip-rule="evenodd" d="M6.29638 5.03807C7.90713 3.71844 9.92564 2.99818 12.0079 3.00001C13.1899 2.99831 14.3604 3.23073 15.452 3.68385C16.5436 4.13697 17.5347 4.80182 18.3679 5.64001C19.8394 7.11333 20.7545 9.05132 20.9573 11.1237C21.16 13.1961 20.6379 15.2747 19.4798 17.0053C18.3218 18.7359 16.5994 20.0113 14.6064 20.6143C12.6133 21.2174 10.4728 21.1106 8.54961 20.3123C6.62642 19.514 5.03955 18.0735 4.0594 16.2364C3.07925 14.3992 2.76648 12.2789 3.17438 10.237C3.58228 8.19504 4.68562 6.3577 6.29638 5.03807ZM14.8733 19.0378C15.7933 18.6279 16.6213 18.0369 17.3079 17.3C18.0448 16.6134 18.6358 15.7854 19.0457 14.8654C19.4557 13.9454 19.6761 12.9523 19.6939 11.9452C19.7116 10.9382 19.5264 9.93791 19.1492 9.00403C18.772 8.07015 18.2105 7.22181 17.4983 6.50963C16.7861 5.79744 15.9378 5.23599 15.0039 4.85878C14.07 4.48157 13.0697 4.29633 12.0627 4.31409C11.0557 4.33186 10.0625 4.55228 9.14256 4.9622C8.22256 5.37212 7.39456 5.96314 6.70794 6.70001C5.97107 7.38663 5.38005 8.21463 4.97013 9.13463C4.56021 10.0546 4.33979 11.0478 4.32202 12.0548C4.30425 13.0618 4.4895 14.0621 4.86671 14.996C5.24392 15.9299 5.80537 16.7782 6.51755 17.4904C7.22974 18.2026 8.07808 18.764 9.01196 19.1412C9.94584 19.5184 10.9461 19.7037 11.9532 19.6859C12.9602 19.6682 13.9533 19.4477 14.8733 19.0378Z" fill="#001325" fill-opacity="0.92"/>
</svg>
