<svg width="24" height="24" viewBox="0 0 24 24" fill="none" xmlns="http://www.w3.org/2000/svg">
<path d="M18.48 12.2274L16.5853 10.3326C16.5701 10.3147 16.5513 10.3003 16.53 10.2904C16.5087 10.2805 16.4856 10.2754 16.4621 10.2754C16.4386 10.2754 16.4155 10.2805 16.3942 10.2904C16.3729 10.3003 16.3541 10.3147 16.3389 10.3326L14.4442 12.2274C14.414 12.2537 14.3928 12.2889 14.3839 12.328C14.3749 12.3671 14.3786 12.4081 14.3944 12.4449C14.4102 12.4818 14.4373 12.5127 14.4718 12.5332C14.5063 12.5537 14.5464 12.5627 14.5863 12.5589H15.9884C15.9634 12.7679 15.919 12.974 15.8558 13.1747C15.6654 13.7945 15.3254 14.3578 14.8658 14.8151C14.4062 15.2723 13.8411 15.6094 13.2204 15.7967C12.5997 15.9839 11.9425 16.0155 11.3067 15.8887C10.6709 15.7619 10.0761 15.4805 9.57474 15.0695C9.45665 14.9752 9.30596 14.9318 9.15583 14.9487C9.00571 14.9656 8.86843 15.0414 8.77421 15.1595C8.67999 15.2776 8.63654 15.4282 8.65342 15.5784C8.67029 15.7285 8.74612 15.8658 8.86421 15.96C9.36282 16.3587 9.93152 16.6607 10.5411 16.8505C11.0323 17.0008 11.5431 17.0774 12.0568 17.0779C13.1509 17.0742 14.2152 16.7211 15.0945 16.0701C15.9739 15.4191 16.6223 14.5043 16.9453 13.4589C17.0411 13.1506 17.1046 12.8331 17.1347 12.5116H18.3474C18.3779 12.5067 18.4068 12.4944 18.4315 12.4757C18.4562 12.4571 18.4759 12.4327 18.489 12.4046C18.5021 12.3766 18.5081 12.3458 18.5065 12.3149C18.505 12.284 18.4959 12.2539 18.48 12.2274Z" fill="#001325" fill-opacity="0.92"/>
<path d="M8.03052 11.5263H9.36631C9.41908 11.5024 9.47916 11.5005 9.53335 11.5209C9.58754 11.5414 9.63139 11.5825 9.65526 11.6353C9.67913 11.688 9.68106 11.7481 9.66063 11.8023C9.6402 11.8565 9.59908 11.9003 9.54631 11.9242L7.65158 13.8189C7.61821 13.8503 7.57417 13.8677 7.52842 13.8677C7.48267 13.8677 7.43863 13.8503 7.40526 13.8189L5.51053 11.9242C5.48563 11.8966 5.46897 11.8625 5.46244 11.8259C5.45591 11.7893 5.45977 11.7516 5.47358 11.7171C5.48739 11.6826 5.51059 11.6526 5.54057 11.6306C5.57054 11.6086 5.60608 11.5955 5.64316 11.5926H6.93158C6.96546 11.2375 7.02884 10.8857 7.12105 10.5411C7.52284 9.24288 8.42197 8.15642 9.6221 7.51895C10.5031 7.05148 11.5016 6.85175 12.4947 6.94432C13.4878 7.0369 14.4321 7.41774 15.2116 8.04C15.3278 8.1346 15.402 8.2713 15.418 8.42034C15.434 8.56938 15.3904 8.7187 15.2968 8.83579C15.2514 8.89513 15.1946 8.94477 15.1297 8.98177C15.0648 9.01878 14.9931 9.0424 14.919 9.05123C14.8448 9.06006 14.7696 9.05393 14.6978 9.0332C14.626 9.01247 14.5591 8.97755 14.501 8.93052C13.9988 8.51968 13.4033 8.23853 12.767 8.11181C12.1306 7.9851 11.4728 8.0167 10.8516 8.20384C10.2303 8.39097 9.66447 8.72791 9.20395 9.18501C8.74343 9.64212 8.40229 10.2054 8.21052 10.8253C8.13273 11.054 8.07256 11.2884 8.03052 11.5263Z" fill="#001325" fill-opacity="0.92"/>
<path fill-rule="evenodd" clip-rule="evenodd" d="M12 3C10.22 3 8.47991 3.52784 6.99987 4.51677C5.51983 5.50571 4.36628 6.91131 3.68509 8.55585C3.0039 10.2004 2.82567 12.01 3.17294 13.7558C3.5202 15.5016 4.37737 17.1053 5.63604 18.364C6.89471 19.6226 8.49836 20.4798 10.2442 20.8271C11.99 21.1743 13.7996 20.9961 15.4442 20.3149C17.0887 19.6337 18.4943 18.4802 19.4832 17.0001C20.4722 15.5201 21 13.78 21 12C21 9.61305 20.0518 7.32386 18.364 5.63604C16.6761 3.94821 14.3869 3 12 3ZM12 4.42105C13.499 4.42105 14.9643 4.86555 16.2106 5.69833C17.457 6.53112 18.4284 7.71479 19.002 9.09966C19.5757 10.4845 19.7258 12.0084 19.4333 13.4786C19.1409 14.9487 18.4191 16.2992 17.3591 17.3591C16.2992 18.4191 14.9488 19.1409 13.4786 19.4333C12.0084 19.7257 10.4845 19.5757 9.09967 19.002C7.71479 18.4284 6.53112 17.457 5.69834 16.2106C4.86555 14.9643 4.42106 13.499 4.42106 12C4.42106 9.98994 5.21955 8.0622 6.64088 6.64087C8.06221 5.21955 9.98994 4.42105 12 4.42105Z" fill="#001325" fill-opacity="0.92"/>
</svg>
