<svg width="24" height="24" viewBox="0 0 24 24" fill="none" xmlns="http://www.w3.org/2000/svg">
<path fill-rule="evenodd" clip-rule="evenodd" d="M14.5533 11.314H14.9204C15.2067 11.314 15.4813 11.4201 15.6838 11.6089C15.8863 11.7978 16 12.0539 16 12.321V15.493C16 15.7601 15.8863 16.0162 15.6838 16.2051C15.4813 16.3939 15.2067 16.5 14.9204 16.5H9.07962C8.79329 16.5 8.51868 16.3939 8.31621 16.2051C8.11374 16.0162 8 15.7601 8 15.493V12.321C8 12.0539 8.11374 11.7978 8.31621 11.6089C8.51868 11.4201 8.79329 11.314 9.07962 11.314H9.44669V9.87399C9.44863 9.53099 9.52982 9.19242 9.68471 8.88132C9.83961 8.57023 10.0646 8.29394 10.3443 8.07127C10.624 7.8486 10.9519 7.68478 11.3056 7.59098C11.6593 7.49718 12.0306 7.47559 12.3941 7.5277C13.0048 7.63411 13.5558 7.93763 13.9506 8.38505C14.3454 8.83247 14.5588 9.39524 14.5533 9.97469V11.314ZM10.9724 9.4353C10.8985 9.57168 10.8568 9.72129 10.8502 9.87399V11.314H13.1498V10.015C13.1614 9.74997 13.0726 9.48962 12.8988 9.27968C12.7251 9.06973 12.4775 8.92361 12.1997 8.867C12.0386 8.83948 11.8729 8.84457 11.714 8.88191C11.5552 8.91925 11.4067 8.98799 11.2788 9.08346C11.1508 9.17893 11.0464 9.29891 10.9724 9.4353ZM9.4251 15.1808H14.5749V12.6432H9.4251V15.1808Z" fill="#001325" fill-opacity="0.92"/>
<path fill-rule="evenodd" clip-rule="evenodd" d="M10.6033 21.8974C11.0798 21.9618 11.5599 21.9961 12.0407 22C14.4379 21.988 16.7512 21.1163 18.5599 19.5434C20.3687 17.9705 21.5528 15.8009 21.897 13.4291C22.1804 11.4706 21.876 9.47212 21.0226 7.68668C20.1691 5.90124 18.8048 4.40918 17.1026 3.39945C15.4003 2.38973 13.4366 1.90776 11.4602 2.01458C9.48373 2.12141 7.58346 2.81222 6 3.99954C4.41654 5.18686 3.22113 6.81727 2.56515 8.68429C1.90917 10.5513 1.82214 12.571 2.31507 14.4875C2.808 16.404 3.85872 18.1312 5.33416 19.4502C6.80961 20.7693 8.64341 21.621 10.6033 21.8974ZM6.30403 5.80704C7.86024 4.35057 9.90905 3.53513 12.0407 3.52381L12.0304 3.54434C12.4313 3.52796 12.8329 3.54169 13.2317 3.5854C14.333 3.74145 15.3927 4.11309 16.3502 4.67906C17.3076 5.24503 18.1441 5.99422 18.8116 6.88374C19.4791 7.77327 19.9647 8.78567 20.2404 9.86301C20.5161 10.9403 20.5767 12.0615 20.4185 13.1622C20.2637 14.2638 19.8928 15.324 19.3271 16.282C18.7614 17.2399 18.012 18.0767 17.122 18.7443C16.2319 19.4119 15.2188 19.8972 14.1407 20.1723C13.0625 20.4474 11.9407 20.5069 10.8395 20.3474C8.73104 20.0335 6.81886 18.9354 5.48537 17.2726C4.15187 15.6099 3.49536 13.5052 3.64715 11.3794C3.79893 9.25366 4.74782 7.26352 6.30403 5.80704Z" fill="#001325" fill-opacity="0.92"/>
</svg>
