<svg width="24" height="24" viewBox="0 0 24 24" fill="none" xmlns="http://www.w3.org/2000/svg">
<path d="M12.2876 7.46461C12.3786 7.50301 12.4611 7.55924 12.53 7.63L15.23 10.36C15.3705 10.5006 15.4493 10.6912 15.4493 10.89C15.4493 11.0887 15.3705 11.2794 15.23 11.42C15.0894 11.5604 14.8988 11.6393 14.7 11.6393C14.5013 11.6393 14.3106 11.5604 14.17 11.42L12.75 10V15.87C12.75 16.0689 12.671 16.2597 12.5303 16.4003C12.3897 16.541 12.1989 16.62 12 16.62C11.8011 16.62 11.6103 16.541 11.4697 16.4003C11.329 16.2597 11.25 16.0689 11.25 15.87V10L9.83 11.39C9.68783 11.5225 9.49978 11.5946 9.30548 11.5912C9.11118 11.5877 8.92579 11.509 8.78838 11.3716C8.65097 11.2342 8.57226 11.0488 8.56883 10.8545C8.5654 10.6602 8.63752 10.4722 8.77 10.33L11.47 7.63C11.5389 7.55924 11.6214 7.50301 11.7124 7.46461C11.8034 7.42621 11.9012 7.40643 12 7.40643C12.0988 7.40643 12.1966 7.42621 12.2876 7.46461Z" fill="#001325" fill-opacity="0.92"/>
<path fill-rule="evenodd" clip-rule="evenodd" d="M6.99987 4.51677C8.47991 3.52784 10.22 3 12 3C14.387 3 16.6761 3.94821 18.364 5.63604C20.0518 7.32387 21 9.61305 21 12C21 13.78 20.4722 15.5201 19.4832 17.0001C18.4943 18.4802 17.0887 19.6337 15.4442 20.3149C13.7996 20.9961 11.99 21.1743 10.2442 20.8271C8.49836 20.4798 6.89472 19.6226 5.63604 18.364C4.37737 17.1053 3.5202 15.5016 3.17294 13.7558C2.82567 12.01 3.0039 10.2004 3.68509 8.55585C4.36628 6.91131 5.51983 5.50571 6.99987 4.51677ZM7.83323 18.236C9.0666 19.0601 10.5166 19.5 12 19.5C13.9891 19.5 15.8968 18.7098 17.3033 17.3033C18.7098 15.8968 19.5 13.9891 19.5 12C19.5 10.5166 19.0601 9.06659 18.236 7.83322C17.4119 6.59985 16.2406 5.63856 14.8701 5.0709C13.4997 4.50325 11.9917 4.35472 10.5368 4.64411C9.08197 4.9335 7.7456 5.64781 6.6967 6.6967C5.64781 7.74559 4.9335 9.08196 4.64411 10.5368C4.35473 11.9917 4.50325 13.4997 5.07091 14.8701C5.63856 16.2406 6.59986 17.4119 7.83323 18.236Z" fill="#001325" fill-opacity="0.92"/>
</svg>
