<svg width="24" height="24" viewBox="0 0 24 24" fill="none" xmlns="http://www.w3.org/2000/svg">
<path d="M11.54 11.36H10.42C10.4034 11.2532 10.3732 11.149 10.33 11.05C10.2867 10.956 10.2215 10.8737 10.14 10.81C10.0649 10.7369 9.97172 10.6851 9.87 10.66C9.7614 10.619 9.64608 10.5986 9.53 10.6C9.32715 10.5975 9.12836 10.6568 8.96 10.77C8.78776 10.8811 8.65754 11.0465 8.59 11.24C8.49652 11.4787 8.4523 11.7338 8.46 11.99C8.45036 12.2496 8.49463 12.5084 8.59 12.75C8.66423 12.9371 8.79319 13.0974 8.96 13.21C9.12666 13.3177 9.32159 13.3734 9.52 13.37C9.63277 13.386 9.74723 13.386 9.86 13.37C9.9547 13.3451 10.0432 13.3008 10.12 13.24C10.2747 13.1046 10.3802 12.9217 10.42 12.72H11.54C11.5201 12.9299 11.4589 13.1338 11.36 13.32C11.2598 13.5223 11.1244 13.7052 10.96 13.86C10.7791 14.0271 10.5689 14.1593 10.34 14.25C10.0702 14.3449 9.78599 14.3923 9.5 14.39C9.11293 14.397 8.73061 14.304 8.39 14.12C8.05928 13.9328 7.78872 13.6554 7.61 13.32C7.40476 12.9114 7.30832 12.4568 7.33 12C7.31239 11.5553 7.41242 11.1137 7.62 10.72C7.79592 10.3826 8.06717 10.1044 8.4 9.92C8.73478 9.72935 9.11481 9.63262 9.5 9.64C9.7615 9.6376 10.0216 9.67814 10.27 9.76C10.4945 9.83257 10.7044 9.94429 10.89 10.09C11.071 10.2391 11.2205 10.4226 11.33 10.63C11.4432 10.8588 11.5143 11.106 11.54 11.36Z" fill="#001325" fill-opacity="0.92"/>
<path d="M15.62 11.36H16.74C16.7143 11.106 16.6432 10.8588 16.53 10.63C16.4206 10.4226 16.271 10.2391 16.09 10.09C15.9053 9.943 15.6951 9.83115 15.47 9.76C15.2218 9.67742 14.9616 9.63687 14.7 9.64C14.315 9.63408 13.9353 9.73072 13.6 9.92C13.2672 10.1044 12.9959 10.3826 12.82 10.72C12.6167 11.1153 12.5169 11.5557 12.53 12C12.5114 12.4576 12.6113 12.9123 12.82 13.32C12.9923 13.6567 13.2601 13.935 13.59 14.12C13.9311 14.3027 14.3131 14.3957 14.7 14.39C14.9861 14.3942 15.2707 14.3468 15.54 14.25C15.7697 14.1608 15.9801 14.0284 16.16 13.86C16.3275 13.708 16.4635 13.5245 16.56 13.32C16.6589 13.1338 16.7201 12.9299 16.74 12.72H15.62C15.605 12.822 15.5711 12.9204 15.52 13.01C15.4678 13.0952 15.4039 13.1727 15.33 13.24C15.2485 13.2992 15.1571 13.3432 15.06 13.37C14.9506 13.386 14.8394 13.386 14.73 13.37C14.5282 13.3754 14.3295 13.3196 14.16 13.21C13.9932 13.0974 13.8642 12.9371 13.79 12.75C13.6946 12.5084 13.6504 12.2496 13.66 11.99C13.6523 11.7338 13.6965 11.4787 13.79 11.24C13.8625 11.0493 13.9916 10.8852 14.16 10.77C14.2931 10.6788 14.4463 10.6212 14.6065 10.602C14.7667 10.5829 14.9292 10.6028 15.08 10.66C15.1798 10.6899 15.2719 10.7411 15.35 10.81C15.5037 10.9545 15.5997 11.15 15.62 11.36Z" fill="#001325" fill-opacity="0.92"/>
<path fill-rule="evenodd" clip-rule="evenodd" d="M20 5H4C3.73478 5 3.48043 5.10536 3.29289 5.29289C3.10536 5.48043 3 5.73478 3 6V18C3 18.2652 3.10536 18.5196 3.29289 18.7071C3.48043 18.8946 3.73478 19 4 19H20C20.2652 19 20.5196 18.8946 20.7071 18.7071C20.8946 18.5196 21 18.2652 21 18V6C21 5.73478 20.8946 5.48043 20.7071 5.29289C20.5196 5.10536 20.2652 5 20 5ZM4.5 6.5H19.5V17.5H4.5V6.5Z" fill="#001325" fill-opacity="0.92"/>
</svg>
