<svg width="24" height="24" viewBox="0 0 24 24" fill="none" xmlns="http://www.w3.org/2000/svg">
<path fill-rule="evenodd" clip-rule="evenodd" d="M10.0555 9.08986C10.6311 8.70527 11.3078 8.5 12 8.5C12.9283 8.5 13.8185 8.86875 14.4749 9.52513C15.1313 10.1815 15.5 11.0717 15.5 12C15.5 12.6922 15.2947 13.3689 14.9101 13.9445C14.5256 14.5201 13.9789 14.9687 13.3394 15.2336C12.6999 15.4985 11.9961 15.5678 11.3172 15.4327C10.6383 15.2977 10.0146 14.9644 9.52513 14.4749C9.03564 13.9854 8.7023 13.3617 8.56725 12.6828C8.4322 12.0039 8.50151 11.3001 8.76642 10.6606C9.03133 10.0211 9.47993 9.47444 10.0555 9.08986ZM13.1111 10.3371C12.7822 10.1173 12.3956 10 12 10C11.4696 10 10.9609 10.2107 10.5858 10.5858C10.2107 10.9609 10 11.4696 10 12C10 12.3956 10.1173 12.7822 10.3371 13.1111C10.5568 13.44 10.8692 13.6964 11.2346 13.8478C11.6001 13.9991 12.0022 14.0387 12.3902 13.9616C12.7781 13.8844 13.1345 13.6939 13.4142 13.4142C13.6939 13.1345 13.8844 12.7781 13.9616 12.3902C14.0387 12.0022 13.9991 11.6001 13.8478 11.2346C13.6964 10.8692 13.44 10.5568 13.1111 10.3371Z" fill="#001325" fill-opacity="0.92"/>
<path fill-rule="evenodd" clip-rule="evenodd" d="M3 5H21C21.2652 5 21.5196 5.10536 21.7071 5.29289C21.8946 5.48043 22 5.73478 22 6V18C22 18.2652 21.8946 18.5196 21.7071 18.7071C21.5196 18.8946 21.2652 19 21 19H3C2.73478 19 2.48043 18.8946 2.29289 18.7071C2.10536 18.5196 2 18.2652 2 18V6C2 5.73478 2.10536 5.48043 2.29289 5.29289C2.48043 5.10536 2.73478 5 3 5ZM4.56066 16.4393C4.84196 16.7206 5 17.1022 5 17.5H19C19 17.1022 19.158 16.7206 19.4393 16.4393C19.7206 16.158 20.1022 16 20.5 16V8C20.1022 8 19.7206 7.84196 19.4393 7.56066C19.158 7.27936 19 6.89782 19 6.5H5C5 6.89782 4.84196 7.27936 4.56066 7.56066C4.27936 7.84196 3.89782 8 3.5 8V16C3.89782 16 4.27936 16.158 4.56066 16.4393Z" fill="#001325" fill-opacity="0.92"/>
</svg>
