<svg width="24" height="24" viewBox="0 0 24 24" fill="none" xmlns="http://www.w3.org/2000/svg">
<path fill-rule="evenodd" clip-rule="evenodd" d="M10.4895 3C9.1095 3 7.9895 4.12 7.9895 5.5C7.9895 6.17113 8.2544 6.78077 8.68528 7.23H4.99951C4.44951 7.23 3.99951 7.68 3.99951 8.23V10.23C3.99951 10.6088 4.21294 10.9401 4.52547 11.1097L3.14951 15.4493C2.76951 16.9468 3.10951 18.594 4.21951 19.6822C5.04951 20.4908 6.18951 21 7.43951 21H16.5595C17.8195 21 18.9595 20.5008 19.7795 19.6822C20.8895 18.594 21.2295 16.9468 20.8495 15.4493L19.4736 11.1097C19.7861 10.9401 19.9995 10.6088 19.9995 10.23V8.23C19.9995 7.67 19.5595 7.23 18.9995 7.23H15.3037C15.7346 6.78077 15.9995 6.17113 15.9995 5.5C15.9995 4.12 14.8795 3 13.4995 3C12.9346 3 12.4133 3.18767 11.9945 3.50402C11.5757 3.18767 11.0544 3 10.4895 3ZM10.4895 4.5C11.0395 4.5 11.4895 4.95 11.4895 5.5C11.4895 6.05 11.0395 6.5 10.4895 6.5C9.9395 6.5 9.4895 6.05 9.4895 5.5C9.4895 4.95 9.9395 4.5 10.4895 4.5ZM13.4995 6.5C13.2603 6.5 13.04 6.41488 12.8674 6.27344C12.9467 6.02986 12.9895 5.7699 12.9895 5.5C12.9895 5.2301 12.9467 4.97014 12.8674 4.72656C13.04 4.58512 13.2603 4.5 13.4995 4.5C14.0495 4.5 14.4995 4.95 14.4995 5.5C14.4995 6.05 14.0495 6.5 13.4995 6.5ZM18.4995 8.73V9.73H5.49951V8.73H18.4995ZM4.58951 15.8486L6.0568 11.23H17.9422L19.4095 15.8486C19.6595 16.8968 19.3995 17.9551 18.7295 18.614C18.1495 19.183 17.3795 19.5025 16.5595 19.5025H7.43951C6.61951 19.5025 5.84951 19.193 5.26951 18.614C4.59951 17.9551 4.33951 16.8968 4.58951 15.8486Z" fill="#001325" fill-opacity="0.92"/>
</svg>
