<svg width="24" height="24" viewBox="0 0 24 24" fill="none" xmlns="http://www.w3.org/2000/svg">
<path d="M21.1433 17.5531C20.9223 17.5531 20.7103 17.4652 20.5541 17.3089C20.3978 17.1525 20.31 16.9404 20.31 16.7193V3.94555C20.31 3.87184 20.2807 3.80115 20.2287 3.74903C20.1766 3.69691 20.1059 3.66762 20.0322 3.66762H7.23302C7.01202 3.66762 6.80007 3.57978 6.6438 3.42341C6.48753 3.26704 6.39973 3.05496 6.39973 2.83383C6.39973 2.61269 6.48753 2.40061 6.6438 2.24424C6.80007 2.08788 7.01202 2.00003 7.23302 2.00003H20.0322C20.289 1.99857 20.5436 2.04773 20.7814 2.14471C21.0192 2.24169 21.2356 2.38459 21.4182 2.56525C21.6008 2.74591 21.7461 2.96079 21.8457 3.19762C21.9453 3.43446 21.9973 3.6886 21.9988 3.94555V16.6748C22.005 16.7899 21.9873 16.905 21.9468 17.0129C21.9062 17.1208 21.8438 17.2191 21.7634 17.3016C21.6831 17.3841 21.5864 17.4491 21.4797 17.4924C21.373 17.5357 21.2584 17.5563 21.1433 17.5531Z" fill="#001325" fill-opacity="0.92"/>
<path fill-rule="evenodd" clip-rule="evenodd" d="M17.0991 5.79102H3.11104C2.81638 5.79102 2.53378 5.90815 2.32542 6.11664C2.11706 6.32513 2 6.6079 2 6.90275V20.8883C2 21.1831 2.11706 21.4659 2.32542 21.6744C2.53378 21.8829 2.81638 22 3.11104 22H17.0991C17.3938 22 17.6764 21.8829 17.8847 21.6744C18.0931 21.4659 18.2101 21.1831 18.2101 20.8883V6.90275C18.2101 6.6079 18.0931 6.32513 17.8847 6.11664C17.6764 5.90815 17.3938 5.79102 17.0991 5.79102ZM16.5436 7.45861V20.3213H3.68879V7.45861H16.5436Z" fill="#001325" fill-opacity="0.92"/>
</svg>
