<svg width="24" height="24" viewBox="0 0 24 24" fill="none" xmlns="http://www.w3.org/2000/svg">
<path d="M12.75 11.25H14.68C14.8789 11.25 15.0697 11.329 15.2104 11.4697C15.351 11.6103 15.43 11.8011 15.43 12C15.43 12.1989 15.351 12.3897 15.2104 12.5303C15.0697 12.671 14.8789 12.75 14.68 12.75H12.75V14.68C12.75 14.8789 12.671 15.0697 12.5304 15.2103C12.3897 15.351 12.1989 15.43 12 15.43C11.8011 15.43 11.6103 15.351 11.4697 15.2103C11.329 15.0697 11.25 14.8789 11.25 14.68V12.75H9.32002C9.12111 12.75 8.93035 12.671 8.78969 12.5303C8.64904 12.3897 8.57002 12.1989 8.57002 12C8.57002 11.8011 8.64904 11.6103 8.78969 11.4697C8.93035 11.329 9.12111 11.25 9.32002 11.25H11.25V9.32C11.25 9.12109 11.329 8.93033 11.4697 8.78967C11.6103 8.64902 11.8011 8.57 12 8.57C12.1989 8.57 12.3897 8.64902 12.5304 8.78967C12.671 8.93033 12.75 9.12109 12.75 9.32V11.25Z" fill="#001325" fill-opacity="0.92"/>
<path fill-rule="evenodd" clip-rule="evenodd" d="M3.00001 4.5H21C21.1374 4.49967 21.2735 4.52766 21.3996 4.58223C21.5257 4.63681 21.6392 4.71679 21.7331 4.8172C21.8269 4.9176 21.899 5.03627 21.945 5.16579C21.9909 5.29531 22.0096 5.43291 22 5.57V8.88C22.0043 9.08367 21.9462 9.28378 21.8336 9.45356C21.721 9.62333 21.5593 9.75467 21.37 9.83C20.9682 10.0325 20.6305 10.3426 20.3945 10.7258C20.1586 11.1089 20.0336 11.55 20.0336 12C20.0336 12.45 20.1586 12.8911 20.3945 13.2742C20.6305 13.6574 20.9682 13.9675 21.37 14.17C21.5593 14.2453 21.721 14.3767 21.8336 14.5464C21.9462 14.7162 22.0043 14.9163 22 15.12V18.43C22.0096 18.5671 21.9909 18.7047 21.945 18.8342C21.899 18.9637 21.8269 19.0824 21.7331 19.1828C21.6392 19.2832 21.5257 19.3632 21.3996 19.4178C21.2735 19.4723 21.1374 19.5003 21 19.5H3.00001C2.86259 19.5003 2.72657 19.4723 2.60044 19.4178C2.47432 19.3632 2.36079 19.2832 2.26696 19.1828C2.17312 19.0824 2.10099 18.9637 2.05506 18.8342C2.00913 18.7047 1.99039 18.5671 2.00001 18.43V15.11C2.00153 14.9089 2.06077 14.7125 2.17068 14.5441C2.28058 14.3757 2.43654 14.2424 2.62001 14.16C3.01666 13.9556 3.34936 13.6459 3.58163 13.2649C3.8139 12.8838 3.93677 12.4462 3.93677 12C3.93677 11.5538 3.8139 11.1162 3.58163 10.7351C3.34936 10.3541 3.01666 10.0444 2.62001 9.84C2.43654 9.75765 2.28058 9.62435 2.17068 9.45594C2.06077 9.28753 2.00153 9.0911 2.00001 8.89V5.57C1.99039 5.43291 2.00913 5.29531 2.05506 5.16579C2.10099 5.03627 2.17312 4.9176 2.26696 4.8172C2.36079 4.71679 2.47432 4.63681 2.60044 4.58223C2.72657 4.52766 2.86259 4.49967 3.00001 4.5ZM20.5 8.59V6H3.50001V8.61C4.09116 8.9567 4.58138 9.45195 4.92201 10.0466C5.26264 10.6413 5.44185 11.3147 5.44185 12C5.44185 12.6853 5.26264 13.3587 4.92201 13.9534C4.58138 14.5481 4.09116 15.0433 3.50001 15.39V18H20.5V15.41C19.9021 15.0639 19.4056 14.5667 19.0605 13.9682C18.7154 13.3696 18.5337 12.6909 18.5337 12C18.5337 11.3091 18.7154 10.6304 19.0605 10.0319C19.4056 9.43334 19.9021 8.9361 20.5 8.59Z" fill="#001325" fill-opacity="0.92"/>
</svg>
