<svg width="24" height="24" viewBox="0 0 24 24" fill="none" xmlns="http://www.w3.org/2000/svg">
<path d="M19.9998 7.58653C19.9696 7.22972 19.8057 6.89718 19.5405 6.6548C19.2752 6.41242 18.928 6.2779 18.5676 6.2779C18.2072 6.2779 17.86 6.41242 17.5947 6.6548C17.3295 6.89718 17.1655 7.22972 17.1354 7.58653C17.139 7.90554 17.2485 8.21445 17.447 8.46525L17.3063 8.53515L14.6832 10.6121L13.0249 8.19564C12.8908 8.01548 12.6997 7.88535 12.4822 7.82618C12.8114 7.76968 13.1099 7.59941 13.3251 7.34545C13.5402 7.09148 13.6582 6.77015 13.658 6.43819C13.66 6.16775 13.5846 5.90232 13.4407 5.67279C13.2967 5.44325 13.0901 5.25906 12.8449 5.14163C12.5997 5.0242 12.326 4.97837 12.0556 5.00948C11.7852 5.04058 11.5292 5.14734 11.3175 5.31733C11.1058 5.48732 10.9471 5.71354 10.8597 5.96969C10.7724 6.22583 10.76 6.50135 10.8241 6.76419C10.8882 7.02703 11.0261 7.26638 11.2218 7.45439C11.4175 7.6424 11.6628 7.77133 11.9294 7.82618C11.706 7.87862 11.5073 8.00548 11.3666 8.18566L9.66807 10.6121L7.10525 8.61504C6.95756 8.49878 6.77995 8.42612 6.59269 8.40534C6.7762 8.14729 6.86771 7.83572 6.85269 7.5201C6.83766 7.20448 6.71696 6.90289 6.50975 6.6632C6.30253 6.42351 6.02068 6.25945 5.70891 6.19707C5.39715 6.13468 5.07335 6.17754 4.7889 6.31885C4.50446 6.46016 4.27566 6.69181 4.13884 6.97705C4.00202 7.26228 3.965 7.58475 4.03367 7.89326C4.10233 8.20178 4.27275 8.47867 4.51787 8.67999C4.76299 8.8813 5.06876 8.99551 5.38665 9.00447H5.52736C5.48983 9.15869 5.48983 9.31957 5.52736 9.47379L6.61279 18.1212C6.64241 18.3648 6.76124 18.589 6.94661 18.7511C7.13197 18.9131 7.3709 19.0017 7.61782 19H16.844C17.0909 19.0017 17.3298 18.9131 17.5152 18.7511C17.7005 18.589 17.8194 18.3648 17.849 18.1212L18.9445 9.45382C18.9593 9.30142 18.9387 9.14768 18.8842 9.00447C19.2057 8.93119 19.492 8.75028 19.6951 8.4921C19.8982 8.23392 20.0058 7.91418 19.9998 7.58653ZM16.4018 17.4922H8.00978L7.12535 10.5023L8.7133 11.7804L9.97963 12.779L10.9043 11.4609L12.2208 9.64354L13.4671 11.4609L14.3817 12.789L15.658 11.7904L17.246 10.4723L16.4018 17.4922Z" fill="#001325" fill-opacity="0.92"/>
</svg>
