<svg width="24" height="24" viewBox="0 0 24 24" fill="none" xmlns="http://www.w3.org/2000/svg">
<path d="M12 2C10.0222 2 8.08879 2.58649 6.4443 3.6853C4.79981 4.78412 3.51809 6.3459 2.76121 8.17317C2.00433 10.0004 1.8063 12.0111 2.19215 13.9509C2.578 15.8907 3.53041 17.6725 4.92894 19.0711C6.32746 20.4696 8.10929 21.422 10.0491 21.8079C11.9889 22.1937 13.9996 21.9957 15.8268 21.2388C17.6541 20.4819 19.2159 19.2002 20.3147 17.5557C21.4135 15.9112 22 13.9778 22 12C22 9.34784 20.9464 6.8043 19.0711 4.92893C17.1957 3.05357 14.6522 2 12 2ZM3.68 12.7C5.56693 12.9558 7.3126 13.84 8.63527 15.2099C9.95794 16.5797 10.7804 18.3553 10.97 20.25C9.08239 19.9959 7.33575 19.1122 6.01276 17.7421C4.68977 16.3719 3.86785 14.5954 3.68 12.7ZM13.49 20.29C13.5319 18.3786 14.2185 16.5374 15.4383 15.0653C16.6581 13.5931 18.3397 12.5763 20.21 12.18C20.1699 14.0919 19.484 15.934 18.2638 17.4065C17.0437 18.879 15.3612 19.8953 13.49 20.29ZM12 3.5C14.0139 3.50171 15.9617 4.21841 17.4964 5.52237C19.0312 6.82633 20.053 8.63285 20.38 10.62C18.3719 10.9545 16.5137 11.894 15.0538 13.3128C13.5938 14.7316 12.6017 16.5622 12.21 18.56C11.6954 16.6192 10.6084 14.8782 9.09062 13.5637C7.57281 12.2492 5.69444 11.4221 3.7 11.19H3.54C3.7458 9.08745 4.7254 7.13634 6.28868 5.71535C7.85196 4.29436 9.88741 3.50483 12 3.5Z" fill="#001325" fill-opacity="0.92"/>
<path d="M14.48 9.26C14.1864 9.03668 13.8216 8.92775 13.4537 8.95351C13.0857 8.97926 12.7396 9.13796 12.48 9.4L12.03 9.85L11.57 9.4C11.3104 9.13796 10.9643 8.97926 10.5964 8.95351C10.2284 8.92775 9.8636 9.03668 9.57 9.26C9.41277 9.39065 9.28452 9.55267 9.19345 9.73569C9.10237 9.91871 9.05047 10.1187 9.04106 10.3229C9.03164 10.5271 9.06493 10.7311 9.13879 10.9217C9.21265 11.1123 9.32546 11.2854 9.47001 11.43L11.98 14L14.57 11.41C14.7133 11.2671 14.8253 11.096 14.8989 10.9075C14.9725 10.7191 15.0062 10.5174 14.9977 10.3152C14.9892 10.1131 14.9388 9.91486 14.8497 9.73321C14.7606 9.55156 14.6347 9.39041 14.48 9.26Z" fill="#001325" fill-opacity="0.92"/>
</svg>
