<svg width="24" height="24" viewBox="0 0 24 24" fill="none" xmlns="http://www.w3.org/2000/svg">
<path fill-rule="evenodd" clip-rule="evenodd" d="M19.5 10.0447C19.663 10.0005 19.831 9.97704 20 9.97492C20.5304 9.97492 21.0391 10.185 21.4142 10.559C21.7893 10.933 22 11.4402 22 11.9691V14.5217C22.003 15.0388 21.8045 15.5368 21.4463 15.9107C21.088 16.2847 20.5982 16.5052 20.08 16.5259C20.0848 16.5656 20.0848 16.6058 20.08 16.6456C19.6068 17.7121 18.9092 18.6647 18.0344 19.4388C17.1597 20.213 16.1282 20.7906 15.01 21.1325C14.9537 21.1422 14.8963 21.1422 14.84 21.1325C14.7206 21.3898 14.5303 21.608 14.2912 21.7616C14.0522 21.9152 13.7743 21.9979 13.49 22H12.49C12.0922 22 11.7106 21.8424 11.4293 21.5619C11.148 21.2814 10.99 20.901 10.99 20.5043C10.99 20.1077 11.148 19.7272 11.4293 19.4468C11.7106 19.1663 12.0922 19.0087 12.49 19.0087H13.49C13.7302 19.0076 13.9669 19.0652 14.1796 19.1764C14.3923 19.2877 14.5744 19.4492 14.71 19.6468C15.5914 19.3578 16.4025 18.8883 17.0914 18.2684C17.7802 17.6485 18.3315 16.892 18.71 16.0473C18.4874 15.8599 18.3085 15.6263 18.1858 15.3628C18.0632 15.0993 17.9998 14.8122 18 14.5217V10.0348C18 8.44806 17.3679 6.92636 16.2426 5.8044C15.1174 4.68244 13.5913 4.05213 12 4.05213C10.4087 4.05213 8.88258 4.68244 7.75736 5.8044C6.63214 6.92636 6 8.44806 6 10.0348V11.8694C6.00441 11.9025 6.00441 11.936 6 11.9691V14.5217C6 15.0506 5.78929 15.5578 5.41421 15.9318C5.03914 16.3058 4.53043 16.5159 4 16.5159C3.46957 16.5159 2.96086 16.3058 2.58579 15.9318C2.21071 15.5578 2 15.0506 2 14.5217V11.9691C2 11.4402 2.21071 10.933 2.58579 10.559C2.96086 10.185 3.46957 9.97492 4 9.97492C4.16901 9.97626 4.33712 9.99973 4.5 10.0447C4.42466 9.01674 4.56268 7.9843 4.90545 7.01189C5.24822 6.03948 5.78838 5.14798 6.49219 4.39305C7.196 3.63812 8.04834 3.03599 8.996 2.62425C9.94366 2.21251 10.9663 2 12 2C13.0337 2 14.0563 2.21251 15.004 2.62425C15.9517 3.03599 16.804 3.63812 17.5078 4.39305C18.2116 5.14798 18.7518 6.03948 19.0945 7.01189C19.4373 7.9843 19.5753 9.01674 19.5 10.0447ZM3.64645 14.8742C3.74021 14.9677 3.86739 15.0203 4 15.0203C4.13087 15.0177 4.25549 14.964 4.34711 14.8708C4.43872 14.7776 4.49003 14.6522 4.49 14.5217V11.9193C4.47993 11.7967 4.4239 11.6825 4.33307 11.5993C4.24225 11.5161 4.12331 11.4702 4 11.4706C3.86819 11.4731 3.7425 11.5265 3.64928 11.6194C3.55606 11.7124 3.50256 11.8377 3.5 11.9691V14.5217C3.5 14.6539 3.55268 14.7808 3.64645 14.8742ZM20.3636 14.8742C20.4573 14.7808 20.51 14.6539 20.51 14.5217V11.9691C20.5074 11.8377 20.4539 11.7124 20.3607 11.6194C20.2675 11.5265 20.1418 11.4731 20.01 11.4706C19.8824 11.4704 19.7596 11.5188 19.6666 11.6059C19.5737 11.693 19.5177 11.8122 19.51 11.9392V14.5217C19.51 14.6539 19.5627 14.7808 19.6564 14.8742C19.7502 14.9677 19.8774 15.0203 20.01 15.0203C20.1426 15.0203 20.2698 14.9677 20.3636 14.8742Z" fill="#001325" fill-opacity="0.92"/>
<path d="M15.2839 14.8658C15.3224 15.0612 15.2814 15.2638 15.17 15.4291C14.8252 15.9537 14.355 16.3845 13.8016 16.6826C13.2481 16.9807 12.629 17.1368 12 17.1368C11.371 17.1368 10.7519 16.9807 10.1985 16.6826C9.64506 16.3845 9.17477 15.9537 8.83001 15.4291C8.71862 15.2638 8.67764 15.0612 8.71608 14.8658C8.75453 14.6704 8.86925 14.4982 9.03501 14.3871C9.20077 14.276 9.40399 14.2352 9.59997 14.2735C9.79594 14.3118 9.96862 14.4262 10.08 14.5915C10.2863 14.9126 10.5702 15.1769 10.9057 15.3599C11.2413 15.5429 11.6176 15.6388 12 15.6388C12.3825 15.6388 12.7588 15.5429 13.0943 15.3599C13.4298 15.1769 13.7138 14.9126 13.92 14.5915C14.0314 14.4262 14.2041 14.3118 14.4001 14.2735C14.596 14.2352 14.7992 14.276 14.965 14.3871C15.1308 14.4982 15.2455 14.6704 15.2839 14.8658Z" fill="#001325" fill-opacity="0.92"/>
</svg>
