<svg width="24" height="24" viewBox="0 0 24 24" fill="none" xmlns="http://www.w3.org/2000/svg">
<path d="M9.94847 9.034C10.2164 9.01586 10.4815 9.09721 10.6926 9.26232C10.8065 9.35358 10.8999 9.4676 10.9668 9.59701C11.0337 9.72642 11.0726 9.86835 11.0809 10.0136C11.0893 10.1589 11.067 10.3044 11.0154 10.4405C10.9638 10.5767 10.8841 10.7006 10.7814 10.8042L8.94621 12.6407L7.11099 10.8042C7.00717 10.7019 6.92603 10.5791 6.87281 10.4437C6.81958 10.3083 6.79544 10.1633 6.80195 10.018C6.80846 9.87276 6.84546 9.73047 6.91059 9.60031C6.97571 9.47015 7.0675 9.35501 7.18006 9.26232C7.3912 9.09721 7.65634 9.01586 7.92423 9.034C8.19212 9.05214 8.44374 9.16848 8.63048 9.36053L8.91661 9.68462L9.24222 9.36053C9.42895 9.16848 9.68058 9.05214 9.94847 9.034Z" fill="#001325" fill-opacity="0.92"/>
<path fill-rule="evenodd" clip-rule="evenodd" d="M19.8688 8.06415L21.7139 10.8337C21.9001 11.1132 21.9996 11.4411 22 11.7765V15.0764C22 15.5322 21.8181 15.9693 21.4943 16.2916C21.1705 16.614 20.7313 16.795 20.2733 16.795H20.1746C20.1358 17.3926 19.87 17.953 19.4311 18.3626C18.9922 18.7721 18.4131 19 17.8115 19C17.21 19 16.6309 18.7721 16.192 18.3626C15.7531 17.953 15.4873 17.3926 15.4484 16.795H9.12383C9.08502 17.3926 8.81917 17.953 8.38027 18.3626C7.94137 18.7721 7.36233 19 6.76073 19C6.15914 19 5.58009 18.7721 5.14119 18.3626C4.7023 17.953 4.43644 17.3926 4.39763 16.795H3.09521C2.80475 16.795 2.52617 16.6802 2.32078 16.4757C2.11539 16.2713 2 15.994 2 15.7049V6.09995C1.99999 5.80992 2.11506 5.53162 2.32017 5.32562C2.52529 5.11962 2.80384 5.00259 3.09521 5H14.1756C14.467 5.00259 14.7456 5.11962 14.9507 5.32562C15.1558 5.53162 15.2709 5.80992 15.2708 6.09995V7.28829H18.4381C18.7225 7.28956 19.0021 7.36112 19.2518 7.49654C19.5015 7.63196 19.7135 7.82701 19.8688 8.06415ZM7.33494 17.3115C7.49535 17.1805 7.60463 16.9978 7.64381 16.795C7.66191 16.7373 7.67511 16.6782 7.68328 16.6182C7.69645 16.4937 7.68317 16.3677 7.6443 16.2486C7.60543 16.1295 7.54183 16.0198 7.45763 15.9267C7.37344 15.8336 7.27052 15.7592 7.15556 15.7083C7.04061 15.6573 6.91617 15.631 6.79033 15.631C6.66449 15.631 6.54006 15.6573 6.4251 15.7083C6.31014 15.7592 6.20723 15.8336 6.12303 15.9267C6.03883 16.0198 5.97524 16.1295 5.93636 16.2486C5.89749 16.3677 5.88421 16.4937 5.89739 16.6182C5.89253 16.6771 5.89253 16.7362 5.89739 16.795C5.93447 16.997 6.0418 17.1795 6.20056 17.3106C6.35933 17.4417 6.55939 17.513 6.76566 17.512C6.97312 17.5134 7.17453 17.4425 7.33494 17.3115ZM8.63049 15.1647H13.633L13.6231 6.64011H3.69709V15.1647H4.89097C5.10951 14.8791 5.39171 14.648 5.71533 14.4895C6.03895 14.331 6.39513 14.2495 6.7558 14.2514C7.11774 14.2502 7.4751 14.332 7.80019 14.4904C8.12529 14.6488 8.40939 14.8795 8.63049 15.1647ZM18.3858 17.3115C18.5462 17.1805 18.6554 16.9978 18.6946 16.795H18.6848C18.7062 16.7376 18.7227 16.6785 18.7341 16.6182C18.7473 16.4937 18.734 16.3677 18.6951 16.2486C18.6562 16.1295 18.5926 16.0198 18.5084 15.9267C18.4242 15.8336 18.3213 15.7592 18.2064 15.7083C18.0914 15.6573 17.967 15.631 17.8411 15.631C17.7153 15.631 17.5909 15.6573 17.4759 15.7083C17.361 15.7592 17.258 15.8336 17.1738 15.9267C17.0897 16.0198 17.0261 16.1295 16.9872 16.2486C16.9483 16.3677 16.935 16.4937 16.9482 16.6182C16.9433 16.6771 16.9433 16.7362 16.9482 16.795C16.9853 16.997 17.0926 17.1795 17.2514 17.3106C17.4101 17.4417 17.6102 17.513 17.8165 17.512C18.0239 17.5134 18.2253 17.4425 18.3858 17.3115ZM20.4576 15.25C20.5039 15.2039 20.5298 15.1415 20.5298 15.0764L20.4706 11.7765C20.4838 11.7316 20.4838 11.6839 20.4706 11.639L18.6749 8.8793C18.6548 8.84457 18.6261 8.81553 18.5916 8.79491C18.557 8.77428 18.5178 8.76277 18.4776 8.76144H15.3103V15.3219H15.8629C16.0804 14.9998 16.3742 14.7359 16.7183 14.5535C17.0624 14.371 17.4463 14.2756 17.8362 14.2756C18.2261 14.2756 18.61 14.371 18.9541 14.5535C19.2983 14.7359 19.592 14.9998 19.8096 15.3219H20.2832C20.3486 15.3219 20.4113 15.296 20.4576 15.25Z" fill="#001325" fill-opacity="0.92"/>
</svg>
