<svg width="24" height="24" viewBox="0 0 24 24" fill="none" xmlns="http://www.w3.org/2000/svg">
<path d="M7.12569 11.0105L9.55053 8.45702C9.557 8.44744 9.56665 8.44044 9.57779 8.43725C9.58893 8.43405 9.60084 8.43487 9.61144 8.43956C9.62203 8.44426 9.63062 8.45252 9.63571 8.46289C9.64079 8.47327 9.64205 8.4851 9.63924 8.49631L9.26467 10.3328C9.26319 10.34 9.26336 10.3475 9.26517 10.3546C9.26697 10.3618 9.27037 10.3684 9.2751 10.3741C9.27983 10.3798 9.28578 10.3843 9.29251 10.3873C9.29924 10.3904 9.30657 10.3919 9.31396 10.3918H10.9502C10.9586 10.3958 10.9656 10.4021 10.9705 10.4099C10.9754 10.4177 10.978 10.4267 10.978 10.436C10.978 10.4452 10.9754 10.4542 10.9705 10.462C10.9656 10.4698 10.9586 10.4761 10.9502 10.4801L7.99311 13.3577L7.91426 13.3086L8.53525 11.1578C8.54428 11.1486 8.54934 11.1363 8.54934 11.1234C8.54934 11.1106 8.54428 11.0982 8.53525 11.089H7.12569V11.0105Z" fill="#001325" fill-opacity="0.92"/>
<path fill-rule="evenodd" clip-rule="evenodd" d="M19.8709 8.06419L21.7141 10.8337C21.9002 11.1132 21.9996 11.4411 22 11.7765V15.0764C22 15.5322 21.8183 15.9693 21.4948 16.2916C21.1713 16.614 20.7325 16.795 20.275 16.795H20.1764C20.1377 17.3926 19.8721 17.953 19.4336 18.3626C18.9951 18.7721 18.4167 19 17.8157 19C17.2147 19 16.6362 18.7721 16.1977 18.3626C15.7593 17.953 15.4937 17.3926 15.4549 16.795H9.13652C9.09775 17.3926 8.83216 17.953 8.39369 18.3626C7.95522 18.7721 7.37675 19 6.77575 19C6.17475 19 5.59628 18.7721 5.15781 18.3626C4.71935 17.953 4.45376 17.3926 4.41498 16.795H3.09413C2.80395 16.795 2.52565 16.6802 2.32046 16.4757C2.11527 16.2713 2 15.994 2 15.7049V6.09999C1.99999 5.95472 2.02887 5.81088 2.08497 5.67678C2.14107 5.54268 2.22327 5.42099 2.32683 5.31872C2.43039 5.21645 2.55326 5.13563 2.68834 5.08094C2.82342 5.02624 2.96804 4.99875 3.11385 5.00004H14.1833C14.4744 5.00263 14.7527 5.11966 14.9576 5.32566C15.1625 5.53166 15.2775 5.80996 15.2775 6.09999V7.28833H18.4416C18.7257 7.2896 19.005 7.36115 19.2545 7.49658C19.504 7.632 19.7158 7.82704 19.8709 8.06419ZM7.33954 17.3115C7.49979 17.1805 7.60896 16.9978 7.6481 16.795C7.67964 16.7386 7.70603 16.6794 7.72696 16.6183C7.74012 16.4937 7.72685 16.3678 7.68802 16.2486C7.64918 16.1295 7.58565 16.0198 7.50154 15.9267C7.41742 15.8337 7.31461 15.7592 7.19977 15.7083C7.08492 15.6573 6.96061 15.631 6.83489 15.631C6.70918 15.631 6.58487 15.6573 6.47002 15.7083C6.35518 15.7592 6.25236 15.8337 6.16825 15.9267C6.08414 16.0198 6.0206 16.1295 5.98177 16.2486C5.94294 16.3678 5.92967 16.4937 5.94283 16.6183C5.93798 16.6771 5.93798 16.7362 5.94283 16.795C5.97852 16.9905 6.07998 17.168 6.23049 17.2983C6.381 17.4287 6.57158 17.504 6.77082 17.512C6.97808 17.5134 7.17929 17.4425 7.33954 17.3115ZM8.64367 15.1648H13.6313V6.64015H3.66585V15.1648H4.95712C5.17037 14.8857 5.44441 14.6585 5.75858 14.5003C6.07274 14.3421 6.41885 14.257 6.77082 14.2514C7.13241 14.2502 7.48942 14.332 7.81419 14.4904C8.13896 14.6488 8.42278 14.8795 8.64367 15.1648ZM18.3795 17.3115C18.5397 17.1805 18.6489 16.9978 18.688 16.795C18.7061 16.7373 18.7193 16.6782 18.7275 16.6183C18.7406 16.4937 18.7273 16.3678 18.6885 16.2486C18.6497 16.1295 18.5861 16.0198 18.502 15.9267C18.4179 15.8337 18.3151 15.7592 18.2003 15.7083C18.0854 15.6573 17.9611 15.631 17.8354 15.631C17.7097 15.631 17.5854 15.6573 17.4705 15.7083C17.3557 15.7592 17.2529 15.8337 17.1687 15.9267C17.0846 16.0198 17.0211 16.1295 16.9823 16.2486C16.9434 16.3678 16.9302 16.4937 16.9433 16.6183C16.9385 16.6771 16.9385 16.7362 16.9433 16.795C16.9804 16.997 17.0876 17.1795 17.2462 17.3106C17.4048 17.4417 17.6047 17.513 17.8107 17.512C18.018 17.5134 18.2192 17.4425 18.3795 17.3115ZM20.4493 15.25C20.4955 15.2039 20.5214 15.1415 20.5214 15.0764L20.5116 11.7765C20.5247 11.7316 20.5247 11.6839 20.5116 11.639L18.6683 8.87933C18.6482 8.8446 18.6196 8.81556 18.5851 8.79494C18.5506 8.77432 18.5114 8.7628 18.4712 8.76148H15.307V15.3219H15.859C16.0764 14.9998 16.3698 14.7359 16.7136 14.5535C17.0574 14.371 17.4409 14.2756 17.8305 14.2756C18.22 14.2756 18.6035 14.371 18.9473 14.5535C19.2911 14.7359 19.5845 14.9998 19.8019 15.3219H20.275C20.3404 15.3219 20.403 15.296 20.4493 15.25Z" fill="#001325" fill-opacity="0.92"/>
</svg>
