<svg width="24" height="24" viewBox="0 0 24 24" fill="none" xmlns="http://www.w3.org/2000/svg">
<path d="M13.1655 9.20048C12.7625 8.79483 12.4558 8.31042 12.2665 7.78049C12.2556 7.73569 12.2305 7.69519 12.1947 7.66447C12.159 7.63375 12.1143 7.61429 12.0666 7.60872C12.0189 7.60315 11.9706 7.61174 11.9282 7.63332C11.8858 7.6549 11.8513 7.68844 11.8294 7.7294C11.6149 8.26605 11.286 8.75397 10.8639 9.1621C10.4417 9.57022 9.93546 9.8896 9.3774 10.0999C9.33338 10.1163 9.29557 10.1451 9.26891 10.1825C9.24225 10.2198 9.22798 10.2641 9.22798 10.3093C9.22798 10.3546 9.24225 10.3988 9.26891 10.4362C9.29557 10.4736 9.33338 10.5024 9.3774 10.5188C9.93132 10.7029 10.4362 11.0016 10.8563 11.3936C11.2763 11.7856 11.6013 12.2613 11.8081 12.7871C11.8253 12.8293 11.8553 12.8655 11.8943 12.8911C11.9333 12.9166 11.9794 12.9303 12.0267 12.9303C12.0739 12.9303 12.12 12.9166 12.159 12.8911C12.198 12.8655 12.2281 12.8293 12.2452 12.7871C12.4449 12.2725 12.759 11.8058 13.1659 11.4194C13.5728 11.033 14.0626 10.7361 14.6013 10.5494C14.6453 10.533 14.6831 10.5042 14.7098 10.4669C14.7364 10.4295 14.7507 10.3853 14.7507 10.34C14.7507 10.2947 14.7364 10.2505 14.7098 10.2131C14.6831 10.1757 14.6453 10.147 14.6013 10.1305C14.0583 9.9234 13.5685 9.60612 13.1655 9.20048Z" fill="#001325" fill-opacity="0.92"/>
<path fill-rule="evenodd" clip-rule="evenodd" d="M6.43497 4H17.3305L22 9.02703L12 20L2 9.10877L6.43497 4ZM19.8252 9.00659L16.6269 5.49176H7.18124L4.12154 8.98616L12 17.7828L19.8252 9.00659Z" fill="#001325" fill-opacity="0.92"/>
</svg>
