<svg width="24" height="24" viewBox="0 0 24 24" fill="none" xmlns="http://www.w3.org/2000/svg">
<path d="M14.9597 6.49872C15.1572 6.49911 15.3473 6.42405 15.4909 6.28898C15.6323 6.14682 15.7116 5.95477 15.7116 5.75462C15.7116 5.55447 15.6323 5.36243 15.4909 5.22027L12.5442 2.22389C12.4033 2.08337 12.2123 2.00433 12.013 2.00415C11.9139 1.99247 11.8135 2.00553 11.7208 2.04214C11.628 2.07876 11.5459 2.13778 11.4817 2.2139L8.47484 5.21028C8.38392 5.27109 8.30742 5.35096 8.2507 5.44431C8.19399 5.53766 8.15842 5.64223 8.1465 5.75071C8.13457 5.85918 8.14657 5.96894 8.18166 6.07231C8.21675 6.17568 8.27408 6.27017 8.34964 6.34915C8.4252 6.42814 8.51716 6.48972 8.6191 6.52959C8.72104 6.56946 8.83048 6.58666 8.93979 6.57997C9.04909 6.57329 9.15561 6.54289 9.25189 6.4909C9.34817 6.43891 9.43189 6.36659 9.49719 6.27899L11.2412 4.56106V9.37525C11.2412 9.57392 11.3204 9.76446 11.4614 9.90494C11.6023 10.0454 11.7935 10.1243 11.9929 10.1243C12.1923 10.1243 12.3835 10.0454 12.5245 9.90494C12.6654 9.76446 12.7446 9.57392 12.7446 9.37525V4.57105L14.4185 6.27899C14.4887 6.35071 14.573 6.40724 14.6661 6.44505C14.7592 6.48285 14.8592 6.50113 14.9597 6.49872Z" fill="#001325" fill-opacity="0.92"/>
<path d="M21.7854 12.2418L18.7785 9.24541C18.6375 9.10513 18.4465 9.02633 18.2473 9.02633C18.048 9.02633 17.857 9.10513 17.716 9.24541C17.577 9.3888 17.4993 9.58039 17.4993 9.77976C17.4993 9.97914 17.577 10.1707 17.716 10.3141L19.44 12.052H15.2504C15.051 12.052 14.8598 12.1309 14.7188 12.2714C14.5779 12.4119 14.4987 12.6024 14.4987 12.8011C14.4987 12.9998 14.5779 13.1903 14.7188 13.3308C14.8598 13.4713 15.051 13.5502 15.2504 13.5502H19.4199L17.716 15.2082C17.6082 15.3118 17.5338 15.4452 17.5025 15.5912C17.4713 15.7372 17.4845 15.8892 17.5405 16.0276C17.5965 16.1661 17.6928 16.2847 17.8169 16.3683C17.941 16.4519 18.0874 16.4966 18.2372 16.4967C18.4347 16.497 18.6248 16.422 18.7684 16.2869L21.7753 13.3505C21.9164 13.2101 21.9957 13.0197 21.9958 12.8211C22.0075 12.7149 21.9946 12.6075 21.9581 12.5071C21.9216 12.4067 21.8625 12.3159 21.7854 12.2418Z" fill="#001325" fill-opacity="0.92"/>
<path d="M4.50574 12.0021H11.9528C12.0524 12.0008 12.1512 12.0192 12.2436 12.0562C12.3359 12.0933 12.42 12.1482 12.4909 12.2179C12.5617 12.2876 12.618 12.3706 12.6564 12.4622C12.6948 12.5537 12.7146 12.652 12.7146 12.7512V21.2509C12.7146 21.4496 12.6354 21.6401 12.4944 21.7806C12.3534 21.9211 12.1622 22 11.9628 22C11.7635 22 11.5723 21.9211 11.4313 21.7806C11.2903 21.6401 11.2111 21.4496 11.2111 21.2509V13.5003H4.55586L6.29986 15.1683C6.44063 15.3087 6.5197 15.4991 6.5197 15.6976C6.5197 15.8961 6.44063 16.0865 6.29986 16.227C6.15668 16.364 5.96709 16.4424 5.76864 16.4467C5.66765 16.4461 5.56779 16.4255 5.47487 16.386C5.38195 16.3466 5.29783 16.2891 5.2274 16.217L2.22051 13.2206C2.07949 13.0803 2.00018 12.8898 2 12.6912C2.00799 12.4923 2.0902 12.3036 2.23053 12.1619L5.23742 9.22543C5.38568 9.13424 5.56112 9.0972 5.73374 9.12064C5.90637 9.14408 6.06547 9.22655 6.18383 9.35394C6.3022 9.48133 6.37249 9.64573 6.38268 9.81905C6.39288 9.99237 6.34234 10.1638 6.23972 10.3041L4.50574 12.0021Z" fill="#001325" fill-opacity="0.92"/>
</svg>
