<svg width="24" height="24" viewBox="0 0 24 24" fill="none" xmlns="http://www.w3.org/2000/svg">
<path d="M20.23 16.9978C20.0311 16.9978 19.8403 16.9187 19.6997 16.778C19.559 16.6373 19.48 16.4464 19.48 16.2474V4.751C19.48 4.68466 19.4537 4.62103 19.4068 4.57412C19.3599 4.52721 19.2963 4.50086 19.23 4.50086H7.71C7.51109 4.50086 7.32032 4.4218 7.17967 4.28107C7.03902 4.14034 6.96 3.94947 6.96 3.75044C6.96 3.55142 7.03902 3.36055 7.17967 3.21982C7.32032 3.07909 7.51109 3.00003 7.71 3.00003H19.23C19.4611 2.99871 19.6903 3.04296 19.9043 3.13024C20.1183 3.21752 20.3131 3.34613 20.4774 3.50872C20.6418 3.67132 20.7725 3.86471 20.8622 4.07786C20.9519 4.29101 20.9987 4.51974 21 4.751V16.2073C21.0056 16.3109 20.9896 16.4145 20.9532 16.5116C20.9167 16.6087 20.8605 16.6972 20.7882 16.7714C20.7158 16.8457 20.6289 16.9042 20.5328 16.9431C20.4367 16.9821 20.3336 17.0007 20.23 16.9978Z" fill="#001325" fill-opacity="0.92"/>
<path d="M13.65 12.7354L11.38 13.4258C11.3455 13.433 11.3097 13.4309 11.2763 13.4197C11.2429 13.4086 11.213 13.3888 11.1896 13.3624C11.1663 13.336 11.1503 13.3039 11.1434 13.2694C11.1364 13.2348 11.1387 13.199 11.15 13.1657L11.71 12.065C11.1807 11.6456 10.5113 11.4441 9.83851 11.5017C9.16574 11.5594 8.54033 11.8718 8.09 12.3752C7.62162 12.9011 7.38072 13.5914 7.42008 14.2947C7.45945 14.998 7.77587 15.657 8.3 16.1273C8.8293 16.591 9.52011 16.8269 10.2223 16.7838C10.9245 16.7407 11.5813 16.4221 12.05 15.8972C12.2455 15.6773 12.4042 15.4273 12.52 15.1568C12.5484 15.0831 12.5915 15.016 12.6467 14.9595C12.7019 14.9031 12.768 14.8585 12.8411 14.8285C12.9141 14.7986 12.9924 14.7838 13.0714 14.7852C13.1503 14.7866 13.2281 14.8041 13.3 14.8366C13.3728 14.8661 13.4389 14.9099 13.4945 14.9654C13.5501 15.0208 13.5941 15.0868 13.6239 15.1595C13.6537 15.2322 13.6688 15.3101 13.6681 15.3887C13.6674 15.4672 13.6511 15.5449 13.62 15.617C13.4597 16.015 13.2294 16.3809 12.94 16.6976C12.449 17.2509 11.8087 17.6506 11.0961 17.8485C10.3835 18.0465 9.62895 18.0344 8.92309 17.8137C8.21722 17.5929 7.59008 17.1729 7.11702 16.6041C6.64397 16.0354 6.34513 15.342 6.2564 14.6074C6.16768 13.8728 6.29286 13.1282 6.61689 12.4631C6.94092 11.7979 7.45002 11.2405 8.08302 10.8579C8.71601 10.4753 9.44597 10.2837 10.1852 10.3061C10.9244 10.3286 11.6414 10.5641 12.25 10.9844L12.64 10.234C12.6527 10.1964 12.6769 10.1636 12.7092 10.1404C12.7415 10.1173 12.7803 10.1048 12.82 10.1048C12.8597 10.1048 12.8985 10.1173 12.9308 10.1404C12.9631 10.1636 12.9873 10.1964 13 10.234L13.78 12.4753C13.7893 12.5009 13.7933 12.5281 13.7918 12.5552C13.7903 12.5824 13.7832 12.609 13.771 12.6334C13.7588 12.6577 13.7418 12.6793 13.721 12.6969C13.7002 12.7144 13.676 12.7275 13.65 12.7354Z" fill="#001325" fill-opacity="0.92"/>
<path fill-rule="evenodd" clip-rule="evenodd" d="M16.59 6.41192H4C3.73478 6.41192 3.48043 6.51733 3.29289 6.70497C3.10536 6.89261 3 7.14711 3 7.41247V19.9994C3 20.2648 3.10536 20.5193 3.29289 20.7069C3.48043 20.8946 3.73478 21 4 21H16.59C16.8552 21 17.1096 20.8946 17.2971 20.7069C17.4846 20.5193 17.59 20.2648 17.59 19.9994V7.41247C17.59 7.14711 17.4846 6.89261 17.2971 6.70497C17.1096 6.51733 16.8552 6.41192 16.59 6.41192ZM16.09 7.91275V19.4892H4.52V7.91275H16.09Z" fill="#001325" fill-opacity="0.92"/>
</svg>
