<svg width="24" height="24" viewBox="0 0 24 24" fill="none" xmlns="http://www.w3.org/2000/svg">
<path d="M15.25 12.04H8.75C8.34 12.04 8 12.38 8 12.79C8 13.2 8.34 13.54 8.75 13.54H15.25C15.66 13.54 16 13.2 16 12.79C16 12.38 15.66 12.04 15.25 12.04Z" fill="#001325" fill-opacity="0.92"/>
<path d="M12.75 15.08H8.75C8.34 15.08 8 15.42 8 15.83C8 16.24 8.34 16.58 8.75 16.58H12.75C13.16 16.58 13.5 16.24 13.5 15.83C13.5 15.42 13.16 15.08 12.75 15.08Z" fill="#001325" fill-opacity="0.92"/>
<path fill-rule="evenodd" clip-rule="evenodd" d="M13.8 2.29L19.21 7.48C19.4 7.67 19.5 7.92 19.5 8.18V21C19.5 21.55 19.05 22 18.5 22H5.5C4.95 22 4.5 21.55 4.5 21V3C4.5 2.45 4.95 2 5.5 2H13.09C13.36 2 13.61 2.11 13.8 2.29ZM16.73 7.18L14.19 4.75V7.18H16.73ZM6 3.5V20.5H18V8.68H13.44C13.03 8.68 12.69 8.34 12.69 7.93V3.5H6Z" fill="#001325" fill-opacity="0.92"/>
</svg>
