<svg width="24" height="24" viewBox="0 0 24 24" fill="none" xmlns="http://www.w3.org/2000/svg">
<path fill-rule="evenodd" clip-rule="evenodd" d="M14.23 13.12H14.64C14.9052 13.12 15.1596 13.2254 15.3471 13.4129C15.5346 13.6004 15.64 13.8548 15.64 14.12V17.32C15.64 17.5852 15.5346 17.8396 15.3471 18.0271C15.1596 18.2146 14.9052 18.32 14.64 18.32H9.14C8.87478 18.32 8.62043 18.2146 8.43289 18.0271C8.24536 17.8396 8.14 17.5852 8.14 17.32V14.12C8.14 13.8548 8.24536 13.6004 8.43289 13.4129C8.62043 13.2254 8.87478 13.12 9.14 13.12H9.55V11.64C9.55131 11.3 9.62638 10.9644 9.77003 10.6562C9.91367 10.348 10.1225 10.0747 10.382 9.85511C10.6416 9.6355 10.9457 9.47482 11.2734 9.38416C11.601 9.2935 11.9445 9.27502 12.28 9.33C12.8349 9.43784 13.3342 9.7373 13.6907 10.176C14.0471 10.6147 14.238 11.1648 14.23 11.73V13.12ZM10.8551 11.1614C10.7861 11.3115 10.7503 11.4748 10.75 11.64V13.12H13.03V11.73C13.0389 11.4504 12.9499 11.1764 12.7783 10.9554C12.6066 10.7345 12.3632 10.5805 12.09 10.52C11.9246 10.4898 11.7545 10.4965 11.592 10.5397C11.4295 10.5829 11.2785 10.6616 11.15 10.77C11.0247 10.8778 10.9242 11.0113 10.8551 11.1614ZM9.34 17.12H14.44V14.32H9.34V17.12Z" fill="#001325" fill-opacity="0.92"/>
<path fill-rule="evenodd" clip-rule="evenodd" d="M15.9581 2.30528L19.1955 5.68423C19.3796 5.87078 19.4884 6.12287 19.5 6.38949V20.9474C19.5 21.2265 19.3931 21.4943 19.2027 21.6917C19.0124 21.8891 18.7543 22 18.4851 22H5.51488C5.24572 22 4.98758 21.8891 4.79725 21.6917C4.60693 21.4943 4.5 21.2265 4.5 20.9474V3.05265C4.5 2.77347 4.60693 2.50573 4.79725 2.30833C4.98758 2.11092 5.24572 2.00002 5.51488 2.00002H15.2375C15.371 1.99922 15.5035 2.02577 15.6271 2.07815C15.7508 2.13054 15.8632 2.20772 15.9581 2.30528ZM15.3593 6.55791H17.8863L15.1461 3.69475V6.33686C15.1486 6.39466 15.1719 6.4494 15.2113 6.49031C15.2508 6.53122 15.3035 6.55534 15.3593 6.55791ZM6.02233 3.57896V20.4211H17.9777V8.17896H15.3593C15.1207 8.17896 14.8845 8.13022 14.6641 8.03553C14.4437 7.94084 14.2434 7.80205 14.0747 7.62709C13.906 7.45212 13.7722 7.24441 13.6809 7.01581C13.5896 6.7872 13.5426 6.54219 13.5426 6.29475V3.57896H6.02233Z" fill="#001325" fill-opacity="0.92"/>
</svg>
