<svg width="24" height="24" viewBox="0 0 24 24" fill="none" xmlns="http://www.w3.org/2000/svg">
<path fill-rule="evenodd" clip-rule="evenodd" d="M13.44 8.68H19.24C19.33 8.68 19.42 8.66 19.5 8.63V21C19.5 21.55 19.05 22 18.5 22H5.5C4.95 22 4.5 21.55 4.5 21V3C4.5 2.45 4.95 2 5.5 2H12.72C12.717 2.01203 12.7131 2.02406 12.7091 2.03636C12.6998 2.06496 12.69 2.09504 12.69 2.13V7.93C12.69 8.34 13.03 8.68 13.44 8.68ZM8.75 16.58H12.75C13.16 16.58 13.5 16.24 13.5 15.83C13.5 15.42 13.16 15.08 12.75 15.08H8.75C8.34 15.08 8 15.41 8 15.83C8 16.25 8.34 16.58 8.75 16.58ZM8.75 13.54H15.25C15.66 13.54 16 13.2 16 12.79C16 12.38 15.66 12.04 15.25 12.04H8.75C8.34 12.04 8 12.37 8 12.79C8 13.21 8.34 13.54 8.75 13.54Z" fill="#001325" fill-opacity="0.92"/>
<path d="M14.19 2.67L18.9 7.18H14.19V2.67Z" fill="#001325" fill-opacity="0.92"/>
</svg>
