<svg width="24" height="24" viewBox="0 0 24 24" fill="none" xmlns="http://www.w3.org/2000/svg">
<path d="M11.71 3.12005L9.48003 5.45005C9.42462 5.50657 9.38723 5.57825 9.37257 5.65603C9.35792 5.73381 9.36668 5.81419 9.39773 5.88699C9.42877 5.95979 9.48072 6.02175 9.54699 6.06501C9.61327 6.10828 9.69089 6.13091 9.77003 6.13005H14.23C14.3092 6.13091 14.3868 6.10828 14.4531 6.06501C14.5193 6.02175 14.5713 5.95979 14.6023 5.88699C14.6334 5.81419 14.6421 5.73381 14.6275 5.65603C14.6128 5.57825 14.5754 5.50657 14.52 5.45005L12.29 3.12005C12.252 3.08195 12.2067 3.05173 12.157 3.03111C12.1072 3.01049 12.0539 2.99988 12 2.99988C11.9462 2.99988 11.8928 3.01049 11.8431 3.03111C11.7933 3.05173 11.7481 3.08195 11.71 3.12005Z" fill="#001325" fill-opacity="0.92"/>
<path d="M12.29 20.88L14.52 18.55C14.5754 18.4935 14.6128 18.4218 14.6275 18.344C14.6421 18.2663 14.6334 18.1859 14.6023 18.1131C14.5713 18.0403 14.5193 17.9783 14.4531 17.9351C14.3868 17.8918 14.3092 17.8692 14.23 17.87H9.77003C9.69089 17.8692 9.61327 17.8918 9.54699 17.9351C9.48072 17.9783 9.42877 18.0403 9.39773 18.1131C9.36668 18.1859 9.35792 18.2663 9.37257 18.344C9.38723 18.4218 9.42462 18.4935 9.48003 18.55L11.71 20.88C11.7481 20.9181 11.7933 20.9483 11.8431 20.969C11.8928 20.9896 11.9462 21.0002 12 21.0002C12.0539 21.0002 12.1072 20.9896 12.157 20.969C12.2067 20.9483 12.252 20.9181 12.29 20.88Z" fill="#001325" fill-opacity="0.92"/>
<path d="M4.75 12.77H19.25C19.4489 12.77 19.6397 12.691 19.7803 12.5503C19.921 12.4097 20 12.2189 20 12.02C20 11.8211 19.921 11.6303 19.7803 11.4897C19.6397 11.349 19.4489 11.27 19.25 11.27H4.75C4.55109 11.27 4.36032 11.349 4.21967 11.4897C4.07902 11.6303 4 11.8211 4 12.02C4 12.2189 4.07902 12.4097 4.21967 12.5503C4.36032 12.691 4.55109 12.77 4.75 12.77Z" fill="#001325" fill-opacity="0.92"/>
<path d="M19.1635 9.84998H4.83646C4.73138 9.86218 4.6249 9.852 4.52403 9.82013C4.42316 9.78826 4.33017 9.7354 4.25117 9.66504C4.17218 9.59468 4.10896 9.50841 4.06567 9.41188C4.02238 9.31536 4 9.21077 4 9.10498C4 8.99919 4.02238 8.8946 4.06567 8.79808C4.10896 8.70155 4.17218 8.61528 4.25117 8.54492C4.33017 8.47456 4.42316 8.42171 4.52403 8.38983C4.6249 8.35796 4.73138 8.34779 4.83646 8.35998H19.1635C19.2686 8.34779 19.3751 8.35796 19.476 8.38983C19.5768 8.42171 19.6698 8.47456 19.7488 8.54492C19.8278 8.61528 19.891 8.70155 19.9343 8.79808C19.9776 8.8946 20 8.99919 20 9.10498C20 9.21077 19.9776 9.31536 19.9343 9.41188C19.891 9.50841 19.8278 9.59468 19.7488 9.66504C19.6698 9.7354 19.5768 9.78826 19.476 9.82013C19.3751 9.852 19.2686 9.86218 19.1635 9.84998Z" fill="#001325" fill-opacity="0.92"/>
<path d="M4.75 15.6899H19.25C19.4489 15.6899 19.6397 15.6109 19.7803 15.4703C19.921 15.3296 20 15.1389 20 14.9399C20 14.741 19.921 14.5503 19.7803 14.4096C19.6397 14.269 19.4489 14.1899 19.25 14.1899H4.75C4.55109 14.1899 4.36032 14.269 4.21967 14.4096C4.07902 14.5503 4 14.741 4 14.9399C4 15.1389 4.07902 15.3296 4.21967 15.4703C4.36032 15.6109 4.55109 15.6899 4.75 15.6899Z" fill="#001325" fill-opacity="0.92"/>
</svg>
