<svg width="24" height="24" viewBox="0 0 24 24" fill="none" xmlns="http://www.w3.org/2000/svg">
<path d="M12.7205 15.7052L17.7236 10.6281C17.8586 10.4919 17.9491 10.3205 17.9839 10.1353C18.0188 9.95002 17.9966 9.75899 17.9199 9.58578C17.8433 9.41258 17.7156 9.26479 17.5527 9.16069C17.3898 9.05658 17.1987 9.00072 17.0032 9H6.99683C6.80128 9.00072 6.61024 9.05658 6.44731 9.16069C6.28438 9.26479 6.15671 9.41258 6.08006 9.58578C6.00342 9.75899 5.98117 9.95002 6.01606 10.1353C6.05094 10.3205 6.14144 10.4919 6.27637 10.6281L11.2795 15.7052C11.3729 15.7984 11.4848 15.8726 11.6086 15.9232C11.7324 15.9739 11.8655 16 12 16C12.1345 16 12.2676 15.9739 12.3914 15.9232C12.5152 15.8726 12.6271 15.7984 12.7205 15.7052Z" fill="#001325" fill-opacity="0.92"/>
</svg>
