<svg width="24" height="24" viewBox="0 0 24 24" fill="none" xmlns="http://www.w3.org/2000/svg">
<path d="M11.2371 9.34557L6.28324 14.377C6.14631 14.5116 6.05379 14.6822 6.01735 14.8674C5.9809 15.0526 6.00217 15.244 6.07845 15.4176C6.15474 15.5912 6.28264 15.7391 6.44603 15.8427C6.60942 15.9464 6.80099 16.0011 6.99659 16H17.0034C17.199 16.0011 17.3906 15.9464 17.554 15.8427C17.7174 15.7391 17.8453 15.5912 17.9215 15.4176C17.9978 15.244 18.0191 15.0526 17.9827 14.8674C17.9462 14.6822 17.8537 14.5116 17.7168 14.377L12.7629 9.34557C12.6699 9.23745 12.5534 9.15043 12.4215 9.0907C12.2896 9.03097 12.1457 9 12 9C11.8543 9 11.7104 9.03097 11.5785 9.0907C11.4466 9.15043 11.3301 9.23745 11.2371 9.34557Z" fill="#001325" fill-opacity="0.92"/>
</svg>
