<svg width="24" height="24" viewBox="0 0 24 24" fill="none" xmlns="http://www.w3.org/2000/svg">
<path d="M20.71 7.65L16.34 3.29C16.1526 3.10375 15.8992 2.99921 15.635 2.99921C15.3708 2.99921 15.1173 3.10375 14.93 3.29L3.28999 14.94C3.1973 15.0334 3.12398 15.1443 3.07421 15.2661C3.02445 15.3879 2.99923 15.5184 2.99999 15.65V20C2.99999 20.2652 3.10534 20.5196 3.29288 20.7071C3.48042 20.8946 3.73477 21 3.99999 21H8.39999C8.53159 21.0008 8.66206 20.9755 8.78389 20.9258C8.90573 20.876 9.01655 20.8027 9.10999 20.71L20.71 9.06C20.8962 8.87264 21.0008 8.61918 21.0008 8.355C21.0008 8.09081 20.8962 7.83736 20.71 7.65ZM8.18999 19.5H4.49999V15.85L12.82 7.52L16.41 11.12L16.49 11.17L8.18999 19.5ZM17.52 10.13C17.5105 10.1023 17.4931 10.078 17.47 10.06L13.88 6.46L15.64 4.71L19.29 8.36L17.52 10.13Z" fill="#001325" fill-opacity="0.92"/>
</svg>
