<svg width="24" height="24" viewBox="0 0 24 24" fill="none" xmlns="http://www.w3.org/2000/svg">
<path fill-rule="evenodd" clip-rule="evenodd" d="M15.9003 2.08095C16.0297 2.13382 16.147 2.211 16.2454 2.30801L20.1858 6.12731C20.2854 6.22275 20.3644 6.33631 20.4183 6.46142C20.4722 6.58653 20.5 6.72073 20.5 6.85626C20.5 6.9918 20.4722 7.12599 20.4183 7.2511C20.3644 7.37622 20.2854 7.48977 20.1858 7.58521L9.3204 18.1088C9.22116 18.204 9.10346 18.2793 8.97405 18.3304C8.84465 18.3815 8.70608 18.4073 8.5663 18.4066H4.56213C4.28044 18.4066 4.01029 18.2984 3.8111 18.1059C3.61192 17.9133 3.50002 17.6522 3.50002 17.3799V13.5811C3.49921 13.446 3.526 13.312 3.57886 13.187C3.63171 13.0619 3.70959 12.9481 3.80803 12.8522L14.7372 2.30801C14.8356 2.211 14.9529 2.13382 15.0823 2.08095C15.2117 2.02808 15.3508 2.00056 15.4913 2C15.6318 2.00056 15.7708 2.02808 15.9003 2.08095ZM5.09319 16.8871H8.34326L16.0436 9.37166L12.8572 6.29158L5.09319 13.807V16.8871ZM14.0149 5.21355L17.2013 8.29363L18.6776 6.86653L15.4913 3.78645L14.0149 5.21355Z" fill="#001325" fill-opacity="0.92"/>
<path d="M4.2966 20.46H19.6973C19.9085 20.46 20.1111 20.5411 20.2605 20.6855C20.4099 20.8299 20.4938 21.0258 20.4938 21.23C20.4938 21.4342 20.4099 21.6301 20.2605 21.7745C20.1111 21.9189 19.9085 22 19.6973 22H4.2966C4.08533 22 3.88272 21.9189 3.73333 21.7745C3.58394 21.6301 3.50002 21.4342 3.50002 21.23C3.50002 21.0258 3.58394 20.8299 3.73333 20.6855C3.88272 20.5411 4.08533 20.46 4.2966 20.46Z" fill="#001325" fill-opacity="0.92"/>
</svg>
