<svg width="24" height="24" viewBox="0 0 24 24" fill="none" xmlns="http://www.w3.org/2000/svg">
<path fill-rule="evenodd" clip-rule="evenodd" d="M5.75 4C5.28587 4 4.84075 4.18437 4.51256 4.51256C4.18437 4.84075 4 5.28587 4 5.75V18.25C4 18.7141 4.18437 19.1593 4.51256 19.4874C4.84075 19.8156 5.28587 20 5.75 20H18.25C18.7141 20 19.1592 19.8156 19.4874 19.4874C19.8156 19.1593 20 18.7141 20 18.25V13.13C20 12.6659 19.8156 12.2208 19.4874 11.8926C19.1592 11.5644 18.7141 11.38 18.25 11.38H12.75V5.75C12.75 5.28587 12.5656 4.84075 12.2374 4.51256C11.9092 4.18438 11.4641 4 11 4H5.75ZM11.25 5.75V11.38H5.5V5.75C5.5 5.6837 5.52634 5.62011 5.57322 5.57322C5.62011 5.52634 5.6837 5.5 5.75 5.5H11C11.0663 5.5 11.1299 5.52634 11.1768 5.57322C11.2237 5.62011 11.25 5.6837 11.25 5.75ZM11.25 12.88H5.5V18.25C5.5 18.3163 5.52634 18.3799 5.57322 18.4268C5.62011 18.4737 5.68369 18.5 5.75 18.5H11.25V12.88ZM12.75 12.88V18.5H18.25C18.3163 18.5 18.3799 18.4737 18.4268 18.4268C18.4737 18.3799 18.5 18.3163 18.5 18.25V13.13C18.5 13.0637 18.4737 13.0001 18.4268 12.9532C18.3799 12.9063 18.3163 12.88 18.25 12.88H12.75Z" fill="#001325" fill-opacity="0.92"/>
<path d="M19.0354 4.77661C19.2969 5.02261 19.3094 5.43397 19.0634 5.69542L14.7634 10.2654C14.5174 10.5269 14.106 10.5394 13.8446 10.2934C13.5831 10.0474 13.5706 9.63602 13.8166 9.37457L18.1166 4.80457C18.3626 4.54313 18.774 4.5306 19.0354 4.77661Z" fill="#001325" fill-opacity="0.92"/>
<path d="M14.68 6.84999C15.2213 6.84999 15.66 6.41123 15.66 5.86999C15.66 5.32876 15.2213 4.89 14.68 4.89C14.1388 4.89 13.7 5.32876 13.7 5.86999C13.7 6.41123 14.1388 6.84999 14.68 6.84999Z" fill="#001325" fill-opacity="0.92"/>
<path d="M18.32 10.2C18.8612 10.2 19.3 9.76124 19.3 9.22C19.3 8.67876 18.8612 8.24 18.32 8.24C17.7788 8.24 17.34 8.67876 17.34 9.22C17.34 9.76124 17.7788 10.2 18.32 10.2Z" fill="#001325" fill-opacity="0.92"/>
</svg>
