<svg width="24" height="24" viewBox="0 0 24 24" fill="none" xmlns="http://www.w3.org/2000/svg">
<path d="M3.77143 10.5189C3.56683 10.5189 3.37062 10.4376 3.22595 10.2929C3.08128 10.1482 3 9.95202 3 9.74743V3.77143C3 3.56683 3.08128 3.37062 3.22595 3.22595C3.37062 3.08128 3.56683 3 3.77143 3H9.74743C9.95025 2.99998 10.1449 3.07984 10.2893 3.2223C10.4337 3.36475 10.5162 3.55833 10.5189 3.76114C10.5189 3.9667 10.4379 4.16399 10.2935 4.31029C10.1492 4.4566 9.95296 4.54015 9.74743 4.54286H5.69621L9.45977 8.30641C9.76103 8.60767 9.76103 9.09611 9.45977 9.39737C9.1585 9.69864 8.67006 9.69864 8.3688 9.39737L4.54286 5.57143V9.74743C4.54286 9.95202 4.46158 10.1482 4.31691 10.2929C4.17224 10.4376 3.97602 10.5189 3.77143 10.5189Z" fill="#001325" fill-opacity="0.92"/>
<path d="M20.2286 10.5189C20.024 10.5189 19.8278 10.4376 19.6831 10.2929C19.5384 10.1482 19.4571 9.95202 19.4571 9.74742V5.57142L15.6312 9.39737C15.3299 9.69864 14.8415 9.69864 14.5402 9.39737C14.239 9.09611 14.239 8.60767 14.5402 8.30641L18.3038 4.54285H14.2526C14.0488 4.54019 13.8541 4.45806 13.71 4.31396C13.5659 4.16986 13.4838 3.97519 13.4811 3.77142C13.4838 3.56861 13.5663 3.37503 13.7107 3.23258C13.8551 3.09012 14.0497 3.01026 14.2526 3.01028H20.2286C20.4332 3.01028 20.6294 3.09156 20.7741 3.23623C20.9187 3.3809 21 3.57711 21 3.78171V9.74742C21 9.95202 20.9187 10.1482 20.7741 10.2929C20.6294 10.4376 20.4332 10.5189 20.2286 10.5189Z" fill="#001325" fill-opacity="0.92"/>
<path d="M3.77143 21H9.74743C9.95025 21 10.1449 20.9202 10.2893 20.7777C10.4337 20.6352 10.5162 20.4417 10.5189 20.2389C10.5189 20.0333 10.4379 19.836 10.2935 19.6897C10.1492 19.5434 9.95296 19.4598 9.74743 19.4571H5.57142L9.39737 15.6312C9.69864 15.3299 9.69864 14.8415 9.39737 14.5402C9.09611 14.239 8.60767 14.239 8.30641 14.5402L4.54286 18.3038V14.2526C4.54286 14.048 4.46158 13.8518 4.31691 13.7071C4.17224 13.5624 3.97602 13.4811 3.77143 13.4811C3.56683 13.4811 3.37062 13.5624 3.22595 13.7071C3.08128 13.8518 3 14.048 3 14.2526V20.2286C3 20.4332 3.08128 20.6294 3.22595 20.7741C3.37062 20.9187 3.56683 21 3.77143 21Z" fill="#001325" fill-opacity="0.92"/>
<path d="M14.6026 14.5402C14.9039 14.239 15.3923 14.239 15.6936 14.5402L19.4571 18.3038V14.2526C19.4571 14.048 19.5384 13.8518 19.6831 13.7071C19.8278 13.5624 20.024 13.4811 20.2286 13.4811C20.4332 13.4811 20.6294 13.5624 20.7741 13.7071C20.9187 13.8518 21 14.048 21 14.2526V20.2286C21 20.4332 20.9187 20.6294 20.7741 20.7741C20.6294 20.9187 20.4332 21 20.2286 21H14.2526C14.0497 21 13.8551 20.9202 13.7107 20.7777C13.5663 20.6352 13.4838 20.4417 13.4811 20.2389C13.4811 20.0333 13.5621 19.836 13.7065 19.6897C13.8508 19.5434 14.047 19.4598 14.2526 19.4571H18.4286L14.6026 15.6312C14.3014 15.3299 14.3014 14.8415 14.6026 14.5402Z" fill="#001325" fill-opacity="0.92"/>
</svg>
