<svg width="24" height="24" viewBox="0 0 24 24" fill="none" xmlns="http://www.w3.org/2000/svg">
<path d="M13.4664 9.53421C13.8301 9.50855 14.1906 9.61706 14.4808 9.83951C14.6358 9.97129 14.7619 10.1341 14.8511 10.3176C14.9404 10.5012 14.9908 10.7014 14.9991 10.9056C15.0075 11.1098 14.9736 11.3135 14.8997 11.5038C14.8258 11.6941 14.7134 11.8669 14.5697 12.0111L12.0889 14.5811L9.52905 12.0111C9.38455 11.8669 9.27167 11.6939 9.19771 11.503C9.12374 11.3122 9.09034 11.1078 9.09965 10.9032C9.10897 10.6985 9.1608 10.4981 9.25179 10.3148C9.34278 10.1316 9.47091 9.96969 9.62789 9.83951C9.91807 9.61706 10.2786 9.50855 10.6423 9.53421C11.006 9.55986 11.348 9.71794 11.6046 9.97897L12.0494 10.4272L12.504 9.97897C12.7606 9.71794 13.1027 9.55986 13.4664 9.53421Z" fill="#001325" fill-opacity="0.92"/>
<path fill-rule="evenodd" clip-rule="evenodd" d="M11.575 2.08968C11.7124 2.03051 11.8604 2.00001 12.0099 2.00003C12.1626 1.99894 12.314 2.02945 12.4546 2.08968L19.7982 5.22747C20.0063 5.31289 20.1843 5.45906 20.3094 5.64721C20.4344 5.83537 20.5008 6.0569 20.5 6.28336V13.0271C20.5051 14.5376 20.0841 16.0185 19.2862 17.2971C18.4882 18.5758 17.3461 19.5995 15.993 20.249L12.5238 21.8827C12.3703 21.9598 12.2012 22 12.0296 22C11.8581 22 11.6889 21.9598 11.5354 21.8827L8.06627 20.249C6.70205 19.6081 5.54769 18.5881 4.73882 17.3088C3.92994 16.0295 3.50017 14.5441 3.5 13.0271V6.28336C3.49967 6.05833 3.56511 5.83818 3.68815 5.6504C3.81119 5.46262 3.98639 5.31552 4.19186 5.22747L11.575 2.08968ZM19.0471 6.51247L12.0099 3.5241L4.98256 6.51247V13.0271C4.98487 14.2586 5.33454 15.4641 5.99078 16.5029C6.64702 17.5417 7.58279 18.3711 8.68894 18.8943L12.0099 20.4582L15.3407 18.8943C16.4454 18.3691 17.3798 17.5393 18.0358 16.5009C18.6917 15.4625 19.0424 14.2581 19.0471 13.0271V6.51247Z" fill="#001325" fill-opacity="0.92"/>
</svg>
