<svg width="24" height="24" viewBox="0 0 24 24" fill="none" xmlns="http://www.w3.org/2000/svg">
<path d="M21.8687 11.5474C21.683 11.2748 17.9692 4.822 11.6558 5.00377C11.3773 5.00377 5.99229 4.91288 2.09283 11.5474C1.99998 11.6383 1.99998 11.7292 1.99998 11.911V12.0927C1.99998 12.1836 1.99998 12.3654 2.09283 12.4563C2.27852 12.7289 5.89945 18.9999 12.0272 18.9999H12.3057C12.5842 18.9999 17.9692 19.0908 21.8687 12.4563C21.9615 12.3654 21.9615 12.2745 21.9615 12.0927V11.911C22.0544 11.8201 21.9615 11.6383 21.8687 11.5474ZM12.3057 17.6367C7.38496 17.7276 4.13541 13.0925 3.39265 12.0019C5.89945 7.91206 8.96331 6.82145 10.5417 6.5488H10.7274H11.1916C12.3057 6.5488 13.327 7.00322 14.1626 7.73029C14.9982 8.45737 15.4624 9.36621 15.5553 10.4568C15.6481 11.5474 15.2767 12.5472 14.6268 13.456C13.9769 14.274 12.9556 14.7284 11.9343 14.7284C11.1916 14.7284 10.4488 14.4557 9.89176 14.0013C9.24185 13.456 8.87047 12.7289 8.87047 11.911C8.77763 10.5477 9.70607 9.36621 11.0059 9.27533H11.0987C11.563 9.27533 11.9343 9.45709 12.2129 9.72975C12.5842 10.0024 12.7699 10.4568 12.7699 10.9112C12.7699 11.2748 12.7699 11.4565 12.6771 11.5474C12.4914 11.8201 12.3057 11.911 12.0272 11.911C11.9343 11.911 11.8415 11.8201 11.7486 11.8201C11.6558 11.7292 11.6558 11.6383 11.6558 11.6383C12.0272 11.6383 12.3986 11.3657 12.3986 10.9112C12.3986 10.4568 12.12 10.1842 11.6558 10.1842C11.2844 10.1842 11.0059 10.3659 10.7274 10.6386C10.4488 10.9112 10.356 11.2748 10.356 11.6383C10.356 12.0927 10.6345 12.5472 10.913 12.8198C11.2844 13.0925 11.6558 13.2742 12.12 13.2742C13.327 13.1833 14.3483 12.1836 14.2554 10.9112V10.8204C14.2554 10.0024 13.8841 9.27533 13.2342 8.73002C12.6771 8.18472 11.9343 7.91206 11.0987 7.91206C9.05616 8.00295 7.38496 9.82063 7.57065 11.8201C7.57065 11.8201 7.57065 11.8201 7.57065 11.911C7.57065 13.0925 8.12771 14.1831 9.05616 14.9101C9.89176 15.6372 10.913 16.0008 11.9343 16.0008H12.0272C13.4198 16.0008 14.8125 15.3646 15.741 14.274C16.5766 13.1833 17.0408 11.8201 16.9479 10.3659C16.9479 9.27533 16.4837 8.2756 15.8338 7.45764C17.7835 8.63914 19.3619 10.1842 20.5689 12.0019C17.1336 17.6367 12.5842 17.6367 12.3057 17.6367Z" fill="#001325" fill-opacity="0.92"/>
</svg>
