<svg width="24" height="24" viewBox="0 0 24 24" fill="none" xmlns="http://www.w3.org/2000/svg">
<path d="M21.9001 11.538C20.5294 9.2138 18.5693 7.28825 16.2158 5.95387C17.2006 7.05741 17.7876 8.45588 17.8841 9.92831C17.981 11.6229 17.4596 13.2953 16.4156 14.638C15.864 15.2884 15.1776 15.8125 14.4034 16.1743C13.6292 16.5362 12.7855 16.7273 11.9301 16.7345H11.7902C10.4508 16.721 9.16717 16.1992 8.20163 15.2758C7.23609 14.3524 6.66154 13.0971 6.5954 11.7665C6.5506 11.1759 6.62423 10.5823 6.81202 10.0202C6.99981 9.45808 7.29801 8.9387 7.68931 8.49219C8.08061 8.04569 8.55721 7.68096 9.09142 7.4192C9.62563 7.15743 10.2068 7.00384 10.8012 6.96735C11.7495 6.97639 12.6585 7.34568 13.342 7.9996C14.0254 8.65352 14.4317 9.54259 14.4775 10.4847C14.5146 10.8391 14.4785 11.1973 14.3713 11.5373C14.2642 11.8773 14.0882 12.1919 13.8543 12.4618C13.6204 12.7317 13.3334 12.9511 13.0111 13.1067C12.6888 13.2622 12.3379 13.3505 11.98 13.3662C11.4674 13.3721 10.9701 13.1919 10.5814 12.8595C10.3759 12.6936 10.2075 12.4868 10.087 12.2524C9.96661 12.018 9.89681 11.7611 9.88212 11.4982C9.87411 11.2938 9.90685 11.0899 9.97846 10.8981C10.0501 10.7064 10.1591 10.5306 10.2994 10.381C10.4396 10.2313 10.6082 10.1108 10.7955 10.0263C10.9828 9.94177 11.185 9.89496 11.3906 9.88856C11.4867 9.88457 11.5827 9.89979 11.6728 9.93333C11.7629 9.96686 11.8453 10.018 11.9151 10.0838C11.985 10.1496 12.0409 10.2286 12.0795 10.3163C12.1181 10.4039 12.1386 10.4984 12.1399 10.594C12.1439 10.6901 12.1286 10.786 12.095 10.8762C12.0614 10.9664 12.0101 11.049 11.9441 11.1192C11.8781 11.1895 11.7987 11.246 11.7106 11.2855C11.6224 11.325 11.5272 11.3466 11.4306 11.3492C11.4192 11.3491 11.4079 11.3514 11.3975 11.356C11.3871 11.3606 11.3778 11.3674 11.3702 11.3758C11.3626 11.3843 11.357 11.3943 11.3536 11.4051C11.3502 11.4159 11.3492 11.4274 11.3506 11.4386C11.3585 11.4979 11.3786 11.5549 11.4095 11.6062C11.4404 11.6574 11.4816 11.7019 11.5305 11.7367C11.6433 11.832 11.7827 11.8909 11.9301 11.9056C12.1107 11.8931 12.286 11.839 12.442 11.7476C12.598 11.6562 12.7306 11.53 12.8292 11.379C12.9158 11.2542 12.9763 11.1134 13.0072 10.9649C13.0381 10.8164 13.0387 10.6633 13.009 10.5145C12.9758 9.96929 12.7431 9.45499 12.3547 9.06874C11.9664 8.68249 11.4493 8.45101 10.9011 8.41802H10.8412C10.4389 8.44518 10.0463 8.55279 9.68687 8.73439C9.32742 8.91599 9.00851 9.16786 8.74922 9.47492C8.48992 9.78198 8.29559 10.1379 8.17784 10.5214C8.06009 10.9049 8.02135 11.3081 8.06394 11.7069C8.113 12.6786 8.53925 13.5934 9.25293 14.2587C9.96661 14.9241 10.912 15.288 11.8901 15.2739C12.5365 15.2764 13.1755 15.138 13.7623 14.8685C14.3491 14.599 14.8694 14.2049 15.2867 13.714C16.0977 12.6494 16.4982 11.331 16.4156 9.99786C16.3162 8.67131 15.7083 7.43343 14.7173 6.5401C14.2425 6.05303 13.6742 5.66575 13.0462 5.4012C12.4181 5.13664 11.743 5.00022 11.0609 5C10.7834 5.0123 10.5066 5.03883 10.2318 5.07949C8.31369 5.47693 4.84715 6.83818 2.07992 11.5578L2 11.6671V12.2037L2.07992 12.3428C2.22977 12.6111 5.88611 19 12.0699 19H12.3397C12.5694 19 17.974 19.0695 21.9201 12.3527L22 12.2136V11.6671L21.9001 11.538Z" fill="#001325" fill-opacity="0.92"/>
</svg>
