<svg width="24" height="24" viewBox="0 0 24 24" fill="none" xmlns="http://www.w3.org/2000/svg">
<path fill-rule="evenodd" clip-rule="evenodd" d="M10.01 9.73L16.57 6.94C16.88 6.79 17.21 7.12 17.07 7.44L14.28 13.99C14.22 14.11 14.13 14.2 14.01 14.26L7.44 17.07C7.12 17.21 6.79 16.89 6.94 16.57L9.74 10C9.79 9.88 9.89 9.78 10.01 9.73ZM10.87 12C10.87 12.62 11.37 13.13 12 13.13C12.63 13.13 13.13 12.63 13.13 12C13.13 11.38 12.62 10.87 12 10.87C11.38 10.87 10.87 11.37 10.87 12Z" fill="#001325" fill-opacity="0.92"/>
<path fill-rule="evenodd" clip-rule="evenodd" d="M2 12C2 6.48 6.48 2 12 2C17.52 2 22 6.48 22 12C22 17.52 17.52 22 12 22C6.48 22 2 17.52 2 12ZM20.5 12C20.5 7.31 16.69 3.5 12 3.5C7.31 3.5 3.5 7.31 3.5 12C3.5 16.69 7.31 20.5 12 20.5C16.69 20.5 20.5 16.69 20.5 12Z" fill="#001325" fill-opacity="0.92"/>
</svg>
