<svg width="24" height="24" viewBox="0 0 24 24" fill="none" xmlns="http://www.w3.org/2000/svg">
<path d="M10.87 12C10.87 11.38 11.37 10.87 12 10.87C12.63 10.87 13.13 11.37 13.13 12C13.13 12.62 12.62 13.13 12 13.13C11.38 13.13 10.87 12.63 10.87 12Z" fill="#001325" fill-opacity="0.92"/>
<path fill-rule="evenodd" clip-rule="evenodd" d="M2 12C2 6.48 6.48 2 12 2C17.52 2 22 6.48 22 12C22 17.52 17.52 22 12 22C6.48 22 2 17.52 2 12ZM14.27 13.98L17.06 7.43C17.21 7.12 16.88 6.79 16.57 6.94L10.01 9.73C9.89 9.78 9.8 9.88 9.74 10L6.93 16.56C6.78 16.88 7.11 17.21 7.43 17.06L14 14.25C14.12 14.19 14.21 14.1 14.27 13.98Z" fill="#001325" fill-opacity="0.92"/>
</svg>
