<svg width="24" height="24" viewBox="0 0 24 24" fill="none" xmlns="http://www.w3.org/2000/svg">
<path d="M12.1759 6.73697C12.9014 6.73697 16.6167 7.00331 20.2332 12.0984C19.1889 13.8238 16.5948 17.1125 12.033 17.2514C12.011 17.2514 11.967 17.2514 11.934 17.2514C11.9121 17.2514 11.8681 17.2514 11.8131 17.2514C11.0876 17.2514 7.37226 16.9851 3.75581 11.89C4.80008 10.1646 7.39425 6.87593 11.956 6.73697C11.978 6.73697 12.022 6.73697 12.055 6.73697C12.0769 6.73697 12.1209 6.73697 12.1759 6.73697ZM12.1759 5C12 5 11.9121 5.01158 11.9121 5.01158C6.15212 5.18528 3.10727 9.63193 2.15094 11.3457C1.9311 11.7395 1.95308 12.2258 2.2059 12.5964C6.29502 18.5947 10.7139 19 11.8241 19C12 19 12.0879 18.9884 12.0879 18.9884C17.8479 18.8147 20.8927 14.3681 21.8491 12.6543C22.0689 12.2605 22.0469 11.7742 21.7941 11.4036C17.705 5.40529 13.2861 5 12.1759 5Z" fill="#001325" fill-opacity="0.92"/>
<path d="M12.0055 10.6822C12.238 10.6822 12.4595 10.7383 12.6587 10.8505C12.9687 11.0187 13.2012 11.2991 13.3009 11.6355C13.4005 11.9607 13.3562 12.3084 13.1901 12.6112C12.9577 13.0374 12.5037 13.3065 12.0055 13.3065C11.773 13.3065 11.5516 13.2505 11.3523 13.1383C11.0423 12.9701 10.8099 12.6897 10.7102 12.3533C10.6106 12.028 10.6549 11.6804 10.8209 11.3776C11.0534 10.9514 11.5073 10.6822 12.0055 10.6822ZM12.0055 9C10.9427 9 9.9131 9.56075 9.37061 10.5589C8.57349 12.0056 9.1049 13.8336 10.5552 14.6299C11.0091 14.8766 11.5073 15 11.9945 15C13.0573 15 14.0869 14.4393 14.6294 13.4411C15.4265 11.9944 14.8951 10.1664 13.4448 9.37009C12.9909 9.12336 12.4927 9 12.0055 9Z" fill="#001325" fill-opacity="0.92"/>
</svg>
