<svg width="24" height="24" viewBox="0 0 24 24" fill="none" xmlns="http://www.w3.org/2000/svg">
<path d="M3 6.96774V17.0323C3 17.212 3.05206 17.3881 3.15035 17.541C3.24864 17.6939 3.38928 17.8175 3.5565 17.8978C3.72372 17.9782 3.91092 18.0122 4.09712 17.9961C4.28332 17.9799 4.46117 17.9143 4.61074 17.8065L11.5973 12.7742C11.7223 12.6841 11.8238 12.5672 11.8937 12.4328C11.9636 12.2984 12 12.1502 12 12V17.0323C12 17.212 12.0521 17.3881 12.1504 17.541C12.2486 17.6939 12.3893 17.8175 12.5565 17.8978C12.7237 17.9782 12.9109 18.0122 13.0971 17.9961C13.2833 17.9799 13.4612 17.9143 13.6107 17.8065L20.5973 12.7742C20.7223 12.6841 20.8238 12.5672 20.8937 12.4328C20.9636 12.2984 21 12.1502 21 12C21 11.8498 20.9636 11.7016 20.8937 11.5672C20.8238 11.4328 20.7223 11.3159 20.5973 11.2258L13.6107 6.19355C13.4612 6.08572 13.2833 6.02005 13.0971 6.00391C12.9109 5.98777 12.7237 6.02179 12.5565 6.10217C12.3893 6.18254 12.2486 6.30609 12.1504 6.45897C12.0521 6.61185 12 6.78802 12 6.96774V12C11.9984 11.8514 11.9613 11.7051 11.8915 11.5726C11.8217 11.44 11.721 11.3246 11.5973 11.2355L4.61074 6.19355C4.46117 6.08572 4.28332 6.02005 4.09712 6.00391C3.91092 5.98777 3.72372 6.02179 3.5565 6.10217C3.38928 6.18254 3.24864 6.30609 3.15035 6.45897C3.05206 6.61185 3 6.78802 3 6.96774ZM13.5101 7.93548L19.1577 12L13.5101 16.0645V7.93548ZM4.51007 7.93548L10.1577 12L4.51007 16.0645V7.93548Z" fill="#001325" fill-opacity="0.92"/>
</svg>
