<svg width="24" height="24" viewBox="0 0 24 24" fill="none" xmlns="http://www.w3.org/2000/svg">
<path fill-rule="evenodd" clip-rule="evenodd" d="M3.72973 6.6463H5.72432C6.03568 7.60517 6.90162 8.29436 7.93297 8.29436C8.96432 8.29436 9.83027 7.60517 10.1416 6.6463H20.2703C20.6692 6.6463 21 6.3067 21 5.89718C21 5.48766 20.6692 5.14806 20.2703 5.14806H10.1416C9.83027 4.19918 8.96432 3.5 7.93297 3.5C6.90162 3.5 6.03568 4.18919 5.72432 5.14806H3.72973C3.33081 5.14806 3 5.48766 3 5.89718C3 6.3067 3.33081 6.6463 3.72973 6.6463ZM7.93297 4.99824C8.41946 4.99824 8.80865 5.39777 8.80865 5.89718C8.80865 6.39659 8.41946 6.79612 7.93297 6.79612C7.44649 6.79612 7.0573 6.39659 7.0573 5.89718C7.0573 5.39777 7.45622 4.99824 7.93297 4.99824Z" fill="#001325" fill-opacity="0.92"/>
<path fill-rule="evenodd" clip-rule="evenodd" d="M20.2703 11.2509H18.2757C17.9643 10.292 17.0984 9.60282 16.067 9.60282C15.0357 9.60282 14.1697 10.292 13.8584 11.2509H3.72973C3.33081 11.2509 3 11.5905 3 12C3 12.4095 3.33081 12.7491 3.72973 12.7491H13.8584C14.1697 13.708 15.0357 14.3972 16.067 14.3972C17.0984 14.3972 17.9643 13.708 18.2757 12.7491H20.2703C20.6692 12.7491 21 12.4095 21 12C21 11.5905 20.6692 11.2509 20.2703 11.2509ZM16.067 12.8989C15.5805 12.8989 15.1914 12.4994 15.1914 12C15.1914 11.5006 15.5805 11.1011 16.067 11.1011C16.5535 11.1011 16.9427 11.5006 16.9427 12C16.9427 12.4994 16.5438 12.8989 16.067 12.8989Z" fill="#001325" fill-opacity="0.92"/>
<path fill-rule="evenodd" clip-rule="evenodd" d="M10.1416 17.3537H20.2703C20.6692 17.3537 21 17.6933 21 18.1028C21 18.5123 20.6692 18.8519 20.2703 18.8519H10.1416C9.83027 19.8108 8.96432 20.5 7.93297 20.5C6.90162 20.5 6.03568 19.8108 5.72432 18.8519H3.72973C3.33081 18.8519 3 18.5123 3 18.1028C3 17.6933 3.33081 17.3537 3.72973 17.3537H5.72432C6.03568 16.3948 6.90162 15.7056 7.93297 15.7056C8.96432 15.7056 9.83027 16.3948 10.1416 17.3537ZM7.0573 18.1028C7.0573 18.6022 7.44649 19.0018 7.93297 19.0018C8.41946 19.0018 8.80865 18.6022 8.80865 18.1028C8.80865 17.6034 8.41946 17.2039 7.93297 17.2039C7.44649 17.2039 7.0573 17.6034 7.0573 18.1028Z" fill="#001325" fill-opacity="0.92"/>
</svg>
