<svg width="24" height="24" viewBox="0 0 24 24" fill="none" xmlns="http://www.w3.org/2000/svg">
<path d="M16.5155 8.568C16.5182 8.77141 16.6 8.96574 16.7436 9.10959C16.8872 9.25344 17.0813 9.33543 17.2844 9.33809H21.2311C21.4351 9.33809 21.6306 9.25695 21.7748 9.11253C21.919 8.96811 22 8.77224 22 8.568V4.64566C22 4.44142 21.919 4.24555 21.7748 4.10113C21.6306 3.95671 21.4351 3.87557 21.2311 3.87557C21.0281 3.87823 20.834 3.96022 20.6904 4.10407C20.5468 4.24792 20.4649 4.44225 20.4623 4.64566V6.6479C19.0751 4.45801 16.8936 2.89276 14.3772 2.28179C11.8607 1.67082 9.20579 2.06182 6.97144 3.37245C5.83722 4.03113 4.84376 4.90732 4.04791 5.9509C3.25206 6.99448 2.66942 8.18498 2.33332 9.45429C1.99722 10.7236 1.91425 12.0468 2.08917 13.3483C2.26408 14.6497 2.69345 15.9039 3.3527 17.039C4.42125 18.8684 6.04138 20.3114 7.98023 21.1606C9.91907 22.0097 12.0768 22.2213 14.1432 21.7649C16.2097 21.3085 18.0785 20.2076 19.481 18.6205C20.8835 17.0334 21.7474 15.0417 21.9487 12.9318C21.9657 12.8277 21.9611 12.7212 21.9352 12.6189C21.9093 12.5166 21.8627 12.4207 21.7983 12.3372C21.7339 12.2537 21.653 12.1844 21.5607 12.1335C21.4684 12.0826 21.3667 12.0513 21.2618 12.0414C21.1569 12.0315 21.0511 12.0433 20.951 12.0761C20.8509 12.1089 20.7585 12.162 20.6797 12.232C20.6009 12.302 20.5373 12.3875 20.4928 12.4831C20.4484 12.5788 20.424 12.6826 20.4213 12.7881C20.2494 14.5727 19.5173 16.2568 18.3301 17.5986C17.1429 18.9404 15.5618 19.8708 13.8137 20.2564C12.0656 20.6419 10.2405 20.4627 8.60043 19.7444C6.96038 19.0262 5.58976 17.8058 4.68538 16.2586C4.12806 15.2976 3.76549 14.2358 3.61844 13.1342C3.47139 12.0326 3.54275 10.9127 3.82842 9.83878C4.1141 8.76483 4.60848 7.75786 5.28326 6.87556C5.95804 5.99325 6.79996 5.25294 7.7608 4.697C9.70624 3.57319 12.0167 3.26636 14.1873 3.84355C16.3579 4.42075 18.2122 5.83504 19.3449 7.77737H17.2946C17.191 7.77595 17.0882 7.79551 16.9924 7.83487C16.8966 7.87423 16.8096 7.93258 16.7369 8.00642C16.6641 8.08026 16.607 8.16807 16.5689 8.26457C16.5309 8.36107 16.5127 8.46428 16.5155 8.568Z" fill="#001325" fill-opacity="0.92"/>
<path d="M10.0161 9.55366V14.7697H8.75518V10.7345L7.59678 11.443V10.3546L8.84745 9.55366H10.0161Z" fill="#001325" fill-opacity="0.92"/>
<path d="M13.4093 14.9032C12.9927 14.912 12.5826 14.7978 12.2304 14.5747C11.89 14.3461 11.6258 14.0207 11.4718 13.6403C11.2837 13.1742 11.1929 12.6745 11.2053 12.172C11.1929 11.6728 11.2836 11.1764 11.4718 10.7139C11.6292 10.3411 11.8931 10.0232 12.2304 9.80009C12.5885 9.5918 12.9952 9.4821 13.4093 9.4821C13.8234 9.4821 14.2301 9.5918 14.5882 9.80009C14.9285 10.0198 15.1933 10.3388 15.3468 10.7139C15.535 11.1764 15.6258 11.6728 15.6134 12.172C15.6257 12.6745 15.535 13.1742 15.3468 13.6403C15.1904 14.0219 14.9269 14.35 14.5882 14.5849C14.233 14.8001 13.8244 14.9104 13.4093 14.9032ZM13.4093 13.8764C13.5459 13.8755 13.6796 13.8366 13.7954 13.7641C13.9112 13.6916 14.0047 13.5883 14.0654 13.4657C14.2643 13.0687 14.3528 12.6254 14.3217 12.1822C14.3303 11.8662 14.2888 11.5508 14.1987 11.2479C14.1523 11.0376 14.0412 10.8472 13.8809 10.7037C13.7541 10.5823 13.5847 10.5159 13.4093 10.5188C13.2727 10.5198 13.1391 10.5587 13.0232 10.6312C12.9074 10.7037 12.8139 10.807 12.7532 10.9296C12.5628 11.3182 12.4779 11.7503 12.5072 12.1822C12.4937 12.5039 12.5283 12.8257 12.6097 13.1372C12.6671 13.3482 12.7804 13.5398 12.9378 13.6916C13.0662 13.8092 13.2354 13.8719 13.4093 13.8662V13.8764Z" fill="#001325" fill-opacity="0.92"/>
</svg>
