<svg width="24" height="24" viewBox="0 0 24 24" fill="none" xmlns="http://www.w3.org/2000/svg">
<path d="M3.33827 10.2315C3.43647 10.3591 3.5741 10.4506 3.72973 10.4919L9.74268 10.4821C9.83887 10.4834 9.93435 10.4655 10.0235 10.4293C10.1126 10.393 10.1936 10.3393 10.2616 10.2713C10.3296 10.2033 10.3833 10.1223 10.4195 10.0332C10.4557 9.94408 10.4737 9.8486 10.4724 9.75241V3.72973C10.4699 3.53697 10.3922 3.35283 10.2559 3.21652C10.1196 3.08021 9.93543 3.00252 9.74268 3C9.54914 3 9.36353 3.07688 9.22668 3.21373C9.08983 3.35058 9.01295 3.53619 9.01295 3.72973V9.08106H3.72973C3.5741 9.12228 3.43647 9.21381 3.33827 9.3414C3.24008 9.46899 3.18684 9.62546 3.18684 9.78646C3.18684 9.94746 3.24008 10.1039 3.33827 10.2315Z" fill="#001325" fill-opacity="0.92"/>
<path d="M14.2573 10.4919H20.2702C20.4646 10.4893 20.6502 10.4103 20.7868 10.2719C20.9234 10.1335 21 9.94685 20.9999 9.75241C21.0012 9.65622 20.9833 9.56074 20.9471 9.47161C20.9108 9.38249 20.8571 9.30152 20.7891 9.2335C20.7211 9.16547 20.6401 9.11177 20.551 9.07556C20.4619 9.03935 20.3664 9.02137 20.2702 9.02268H14.987V3.72973C14.987 3.53619 14.9101 3.35058 14.7733 3.21373C14.6364 3.07688 14.4508 3 14.2573 3C14.0645 3.00252 13.8804 3.08021 13.744 3.21652C13.6077 3.35283 13.53 3.53697 13.5275 3.72973V9.76214C13.5262 9.85833 13.5442 9.95381 13.5804 10.0429C13.6166 10.1321 13.6703 10.213 13.7383 10.281C13.8064 10.3491 13.8873 10.4028 13.9765 10.439C14.0656 10.4752 14.1611 10.4932 14.2573 10.4919Z" fill="#001325" fill-opacity="0.92"/>
<path d="M9.75241 20.9999L9.74513 20.9999C9.93699 20.9968 10.1202 20.9191 10.2559 20.7834C10.3922 20.6471 10.4699 20.463 10.4724 20.2702V14.2475C10.4737 14.1513 10.4557 14.0559 10.4195 13.9667C10.3833 13.8776 10.3296 13.7966 10.2616 13.7286C10.1936 13.6606 10.1126 13.6069 10.0235 13.5707C9.93435 13.5345 9.83887 13.5165 9.74268 13.5178H3.72973C3.53619 13.5178 3.35058 13.5947 3.21373 13.7315C3.07688 13.8684 3 14.054 3 14.2475C3 14.4411 3.07688 14.6267 3.21373 14.7635C3.35058 14.9004 3.53619 14.9773 3.72973 14.9773H9.02268V20.2702C9.02268 20.4637 9.09956 20.6494 9.23641 20.7862C9.37155 20.9213 9.55423 20.998 9.74513 20.9999L9.74268 20.9999H9.75241Z" fill="#001325" fill-opacity="0.92"/>
<path d="M13.7343 20.7834C13.8706 20.9197 14.0548 20.9974 14.2475 20.9999C14.3442 21.0012 14.4401 20.9833 14.5298 20.9472C14.6194 20.9111 14.701 20.8576 14.7698 20.7897C14.8386 20.7218 14.8932 20.6409 14.9305 20.5517C14.9678 20.4626 14.987 20.3669 14.987 20.2702V14.9773H20.2702C20.3664 14.9786 20.4619 14.9606 20.551 14.9244C20.6401 14.8882 20.7211 14.8345 20.7891 14.7664C20.8571 14.6984 20.9108 14.6175 20.9471 14.5283C20.9833 14.4392 21.0012 14.3437 20.9999 14.2475C20.9974 14.0548 20.9197 13.8706 20.7834 13.7343C20.6471 13.598 20.463 13.5203 20.2702 13.5178H14.2475C14.1513 13.5165 14.0559 13.5345 13.9667 13.5707C13.8776 13.6069 13.7966 13.6606 13.7286 13.7286C13.6606 13.7966 13.6069 13.8776 13.5707 13.9667C13.5345 14.0559 13.5165 14.1513 13.5178 14.2475V20.2702C13.5203 20.463 13.598 20.6471 13.7343 20.7834Z" fill="#001325" fill-opacity="0.92"/>
</svg>
