<svg width="24" height="24" viewBox="0 0 24 24" fill="none" xmlns="http://www.w3.org/2000/svg">
<path d="M3.22595 10.2929C3.37062 10.4376 3.56683 10.5189 3.77143 10.5189C3.97602 10.5189 4.17224 10.4376 4.31691 10.2929C4.46158 10.1482 4.54286 9.95202 4.54286 9.74743V4.54286H9.74743C9.95296 4.54015 10.1492 4.4566 10.2935 4.31029C10.4379 4.16399 10.5189 3.9667 10.5189 3.76114C10.5162 3.55833 10.4337 3.36475 10.2893 3.2223C10.1449 3.07984 9.95026 2.99998 9.74743 3H3.77143C3.56683 3 3.37062 3.08128 3.22595 3.22595C3.08128 3.37062 3 3.56683 3 3.77143V9.74743C3 9.95202 3.08128 10.1482 3.22595 10.2929Z" fill="#001325" fill-opacity="0.92"/>
<path d="M19.6831 10.2929C19.8278 10.4376 20.024 10.5189 20.2286 10.5189C20.4332 10.5189 20.6294 10.4376 20.7741 10.2929C20.9187 10.1482 21 9.95202 21 9.74742V3.78171C21 3.57711 20.9187 3.3809 20.7741 3.23623C20.6294 3.09156 20.4332 3.01028 20.2286 3.01028H14.2526C14.0497 3.01026 13.8551 3.09012 13.7107 3.23258C13.5663 3.37503 13.4838 3.56862 13.4811 3.77142C13.4838 3.97519 13.5659 4.16986 13.71 4.31396C13.8541 4.45806 14.0488 4.54019 14.2526 4.54285H19.4571V9.74742C19.4571 9.95202 19.5384 10.1482 19.6831 10.2929Z" fill="#001325" fill-opacity="0.92"/>
<path d="M9.74743 21H3.77143C3.56683 21 3.37062 20.9187 3.22595 20.7741C3.08128 20.6294 3 20.4332 3 20.2286V14.2526C3 14.048 3.08128 13.8518 3.22595 13.7071C3.37062 13.5624 3.56683 13.4811 3.77143 13.4811C3.97602 13.4811 4.17224 13.5624 4.31691 13.7071C4.46158 13.8518 4.54286 14.048 4.54286 14.2526V19.4571H9.74743C9.95296 19.4598 10.1492 19.5434 10.2935 19.6897C10.4379 19.836 10.5189 20.0333 10.5189 20.2389C10.5162 20.4417 10.4337 20.6352 10.2893 20.7777C10.1449 20.9202 9.95026 21 9.74743 21Z" fill="#001325" fill-opacity="0.92"/>
<path d="M13.7107 20.7777C13.8551 20.9202 14.0497 21 14.2526 21H20.2286C20.4332 21 20.6294 20.9187 20.7741 20.7741C20.9187 20.6294 21 20.4332 21 20.2286V14.2526C21 14.048 20.9187 13.8518 20.7741 13.7071C20.6294 13.5624 20.4332 13.4811 20.2286 13.4811C20.024 13.4811 19.8278 13.5624 19.6831 13.7071C19.5384 13.8518 19.4571 14.048 19.4571 14.2526V19.4571H14.2526C14.047 19.4598 13.8508 19.5434 13.7065 19.6897C13.5621 19.836 13.4811 20.0333 13.4811 20.2389C13.4838 20.4417 13.5663 20.6352 13.7107 20.7777Z" fill="#001325" fill-opacity="0.92"/>
</svg>
