<svg width="24" height="24" viewBox="0 0 24 24" fill="none" xmlns="http://www.w3.org/2000/svg">
<path d="M18.2 15.6H16C15.8409 15.6 15.6883 15.5368 15.5757 15.4243C15.4632 15.3117 15.4 15.1591 15.4 15C15.4 14.8409 15.4632 14.6883 15.5757 14.5757C15.6883 14.4632 15.8409 14.4 16 14.4H18.2C18.3591 14.4 18.5117 14.4632 18.6243 14.5757C18.7368 14.6883 18.8 14.8409 18.8 15C18.8 15.1591 18.7368 15.3117 18.6243 15.4243C18.5117 15.5368 18.3591 15.6 18.2 15.6Z" fill="#001325" fill-opacity="0.92"/>
<path fill-rule="evenodd" clip-rule="evenodd" d="M3 4.5H21C21.2652 4.5 21.5196 4.60536 21.7071 4.79289C21.8946 4.98043 22 5.23478 22 5.5V18.5C22 18.7652 21.8946 19.0196 21.7071 19.2071C21.5196 19.3946 21.2652 19.5 21 19.5H3C2.73478 19.5 2.48043 19.3946 2.29289 19.2071C2.10536 19.0196 2 18.7652 2 18.5V5.5C2 5.23478 2.10536 4.98043 2.29289 4.79289C2.48043 4.60536 2.73478 4.5 3 4.5ZM8.4 6H3.5V10.9H5.74C5.64564 10.844 5.55834 10.7768 5.48 10.7C5.10687 10.2895 4.90012 9.75472 4.90012 9.2C4.90012 8.64528 5.10687 8.11047 5.48 7.7C5.67657 7.49915 5.91112 7.33938 6.17 7.23C6.40749 7.13047 6.6625 7.07947 6.92 7.08C7.0529 7.06471 7.18711 7.06471 7.32 7.08C7.45355 7.10266 7.58429 7.13954 7.71 7.19C7.96888 7.29938 8.20343 7.45915 8.4 7.66V6ZM6.3 9.87C6.83339 10.1254 7.41011 10.2781 8 10.32C7.9724 9.68274 7.80874 9.05877 7.52 8.49C7.44009 8.40981 7.34497 8.34639 7.24022 8.30345C7.13547 8.26052 7.0232 8.23895 6.91 8.24C6.79688 8.2395 6.68477 8.26133 6.58009 8.30423C6.47542 8.34713 6.38024 8.41026 6.3 8.49C6.12271 8.67598 6.02381 8.92306 6.02381 9.18C6.02381 9.43694 6.12271 9.68402 6.3 9.87ZM3.5 18H8.4L8.42 12.33L6.42 14.33C6.30784 14.4399 6.15705 14.5015 6 14.5015C5.84295 14.5015 5.69216 14.4399 5.58 14.33C5.52284 14.275 5.47736 14.2089 5.44631 14.1359C5.41525 14.0629 5.39924 13.9844 5.39924 13.905C5.39924 13.8256 5.41525 13.7471 5.44631 13.6741C5.47736 13.6011 5.52284 13.535 5.58 13.48L7 12.1H3.5V18ZM9.6 18H20.5V12.1H11.05L12.44 13.5C12.4972 13.555 12.5426 13.6211 12.5737 13.6941C12.6048 13.7671 12.6208 13.8456 12.6208 13.925C12.6208 14.0044 12.6048 14.0829 12.5737 14.1559C12.5426 14.2289 12.4972 14.295 12.44 14.35C12.3278 14.4599 12.1771 14.5215 12.02 14.5215C11.8629 14.5215 11.7122 14.4599 11.6 14.35L9.6 12.35V18ZM10.46 8.49C10.1955 9.06654 10.0395 9.68691 10 10.32C10.585 10.2796 11.1561 10.1233 11.68 9.86C11.8544 9.67454 11.9515 9.42956 11.9515 9.175C11.9515 8.92044 11.8544 8.67546 11.68 8.49C11.5998 8.41026 11.5046 8.34713 11.3999 8.30423C11.2952 8.26133 11.1831 8.2395 11.07 8.24C10.9568 8.23895 10.8445 8.26052 10.7398 8.30345C10.635 8.34639 10.5399 8.40981 10.46 8.49ZM12.33 10.9H20.48L20.5 6H9.61V7.67C9.80836 7.47129 10.0425 7.31183 10.3 7.2C10.8042 7.00009 11.3658 7.00009 11.87 7.2C12.0004 7.25277 12.1244 7.31985 12.24 7.4C12.3582 7.47541 12.4658 7.5662 12.56 7.67C12.6605 7.7684 12.7478 7.87931 12.82 8C13.0459 8.35579 13.1659 8.76854 13.1659 9.19C13.1659 9.61146 13.0459 10.0242 12.82 10.38C12.7452 10.4988 12.658 10.6094 12.56 10.71C12.4901 10.7811 12.413 10.8447 12.33 10.9Z" fill="#001325" fill-opacity="0.92"/>
</svg>
