<svg width="24" height="24" viewBox="0 0 24 24" fill="none" xmlns="http://www.w3.org/2000/svg">
<path d="M20 7.05H16.46C16.8059 6.55515 16.9718 5.95668 16.93 5.35435C16.8881 4.75202 16.6411 4.18224 16.23 3.74C16.0026 3.50594 15.7305 3.31989 15.4299 3.19283C15.1294 3.06578 14.8063 3.00032 14.48 3.00032C14.1537 3.00032 13.8306 3.06578 13.53 3.19283C13.2295 3.31989 12.9574 3.50594 12.73 3.74C12.3495 4.24118 12.0988 4.82857 12 5.45C11.9054 4.82558 11.6504 4.23638 11.26 3.74C11.0326 3.50594 10.7605 3.31989 10.4599 3.19283C10.1594 3.06578 9.83634 3.00032 9.51 3.00032C9.18366 3.00032 8.86064 3.06578 8.56005 3.19283C8.25946 3.31989 7.98741 3.50594 7.76 3.74C7.34893 4.18224 7.10188 4.75202 7.06003 5.35435C7.01817 5.95668 7.18405 6.55515 7.53 7.05H4C3.73478 7.05 3.48043 7.15535 3.29289 7.34289C3.10535 7.53043 3 7.78478 3 8.05V11C2.99875 11.2488 3.09027 11.4891 3.25669 11.674C3.42311 11.8589 3.65247 11.9751 3.9 12V20C3.9 20.2652 4.00535 20.5196 4.19289 20.7071C4.38043 20.8946 4.63478 21 4.9 21H19.1C19.3652 21 19.6196 20.8946 19.8071 20.7071C19.9946 20.5196 20.1 20.2652 20.1 20V12C20.3475 11.9751 20.5769 11.8589 20.7433 11.674C20.9097 11.4891 21.0012 11.2488 21 11V8.05C21 7.78478 20.8946 7.53043 20.7071 7.34289C20.5196 7.15535 20.2652 7.05 20 7.05ZM13.81 4.78C13.8965 4.68983 14.0006 4.61844 14.1159 4.57027C14.2311 4.5221 14.3551 4.49818 14.48 4.5C14.7305 4.50608 14.9696 4.60601 15.15 4.78C15.3369 4.98901 15.4403 5.25958 15.4403 5.54C15.4403 5.82041 15.3369 6.09099 15.15 6.3C14.5644 6.58637 13.9299 6.75941 13.28 6.81C13.334 6.1071 13.5135 5.41957 13.81 4.78ZM8.81 4.78C8.99036 4.60601 9.22947 4.50608 9.48 4.5C9.60491 4.49818 9.72887 4.5221 9.84414 4.57027C9.95941 4.61844 10.0635 4.68983 10.15 4.78C10.4599 5.40404 10.6402 6.08438 10.68 6.78C10.0315 6.7282 9.39782 6.55877 8.81 6.28C8.63598 6.0666 8.54431 5.79784 8.55165 5.52257C8.55899 5.24731 8.62485 4.98382 8.81 4.78ZM4.5 10.5V8.55H11.25V10.5H4.5ZM11.25 19.5H5.4V12H11.25V19.5ZM18.6 19.5H12.75V12H18.6V19.5ZM19.5 9.39V10.5H12.75V8.55H19.5V9.39Z" fill="#001325" fill-opacity="0.92"/>
</svg>
