<svg width="24" height="24" viewBox="0 0 24 24" fill="none" xmlns="http://www.w3.org/2000/svg">
<path d="M20.0526 7.05236H16.4526C17.1158 6.10995 17.1158 4.60209 16.2632 3.75393C15.7895 3.28272 15.1263 3 14.5579 3C13.8947 3 13.3263 3.28272 12.8526 3.75393C12.4737 4.13089 12.2842 4.79058 12.0947 5.45026C11.9053 4.79058 11.7158 4.13089 11.3368 3.75393C10.8632 3.28272 10.2 3 9.63158 3C8.87368 3 8.21053 3.28272 7.73684 3.75393C6.88421 4.60209 6.78947 6.01571 7.54737 7.05236H3.94737C3.37895 7.05236 3 7.42932 3 7.99476V10.6335C3 11.1047 3.37895 11.5759 3.94737 11.5759V20.0576C3.94737 20.623 4.32632 21 4.89474 21H19.2C19.7684 21 20.1474 20.623 20.1474 20.0576V11.5759C20.6211 11.5759 21 11.1047 21 10.6335V7.99476C21 7.42932 20.6211 7.05236 20.0526 7.05236ZM13.7053 4.69634C13.8947 4.50785 14.1789 4.41361 14.4632 4.41361C14.7474 4.41361 15.0316 4.50785 15.2211 4.69634C15.6 5.16754 15.6 5.92147 15.2211 6.29843C14.9368 6.48691 14.0842 6.76963 13.2316 6.86387C13.3263 6.01571 13.5158 4.97906 13.7053 4.69634ZM8.77895 4.69634C8.96842 4.50785 9.25263 4.41361 9.53684 4.41361C9.82105 4.41361 10.1053 4.50785 10.2947 4.69634C10.5789 4.97906 10.7684 5.92147 10.8632 6.86387C10.0105 6.76963 9.06316 6.58115 8.77895 6.29843C8.4 5.92147 8.4 5.16754 8.77895 4.69634ZM18.7263 19.4921H5.36842V11.4817H8.77895V16.6649C8.77895 16.7592 8.77895 16.8534 8.87368 17.0419V17.1361C8.96842 17.2304 8.96842 17.3246 9.06316 17.4188C9.15789 17.5131 9.25263 17.5131 9.34737 17.6073C9.34737 17.6073 9.34737 17.6073 9.44211 17.6073C9.53684 17.6073 9.63158 17.6073 9.72632 17.6073C9.82105 17.6073 9.82105 17.6073 9.91579 17.6073H10.0105C10.1053 17.6073 10.2 17.5131 10.2947 17.5131L12.0947 16.4764L13.8947 17.5131C13.9895 17.5131 14.0842 17.6073 14.1789 17.6073H14.2737C14.3684 17.6073 14.3684 17.6073 14.4632 17.6073C14.5579 17.6073 14.6526 17.6073 14.7474 17.5131H14.8421C14.9368 17.5131 15.0316 17.4188 15.1263 17.3246C15.2211 17.2304 15.2211 17.1361 15.3158 17.0419V16.9476C15.3158 16.8534 15.4105 16.7592 15.4105 16.5707V11.3874H18.8211V19.4921H18.7263ZM10.2 11.4817H13.8V15.8168L12.6632 15.1571L12 14.8743L11.3368 15.2513L10.2947 15.911L10.2 11.4817ZM19.5789 10.0681H4.70526C4.61053 10.0681 4.51579 10.0681 4.42105 10.0681V8.46597H19.5789V10.0681Z" fill="#001325" fill-opacity="0.92"/>
</svg>
