<svg width="24" height="24" viewBox="0 0 24 24" fill="none" xmlns="http://www.w3.org/2000/svg">
<path d="M20 7.05004H16.46C16.806 6.5552 16.9718 5.95672 16.93 5.3544C16.8881 4.75207 16.6411 4.18228 16.23 3.74004C16.0026 3.50599 15.7306 3.31993 15.43 3.19288C15.1294 3.06583 14.8063 3.00037 14.48 3.00037C14.1537 3.00037 13.8307 3.06583 13.5301 3.19288C13.2295 3.31993 12.9574 3.50599 12.73 3.74004C12.3496 4.24122 12.0988 4.82862 12 5.45004C11.9054 4.82562 11.6505 4.23642 11.26 3.74004C11.0326 3.50599 10.7606 3.31993 10.46 3.19288C10.1594 3.06583 9.83635 3.00037 9.51001 3.00037C9.18367 3.00037 8.86065 3.06583 8.56006 3.19288C8.25947 3.31993 7.98742 3.50599 7.76001 3.74004C7.34895 4.18228 7.1019 4.75207 7.06004 5.3544C7.01819 5.95672 7.18406 6.5552 7.53001 7.05004H4.00001C3.7348 7.05004 3.48044 7.1554 3.29291 7.34294C3.10537 7.53047 3.00001 7.78483 3.00001 8.05004V11C2.99877 11.2488 3.09029 11.4891 3.25671 11.674C3.42312 11.8589 3.65249 11.9752 3.90001 12V20C3.90001 20.2653 4.00537 20.5196 4.19291 20.7071C4.38044 20.8947 4.6348 21 4.90001 21H19.1C19.3652 21 19.6196 20.8947 19.8071 20.7071C19.9947 20.5196 20.1 20.2653 20.1 20V12C20.3475 11.9752 20.5769 11.8589 20.7433 11.674C20.9097 11.4891 21.0013 11.2488 21 11V8.05004C21 7.78483 20.8947 7.53047 20.7071 7.34294C20.5196 7.1554 20.2652 7.05004 20 7.05004ZM13.81 4.78004C13.8965 4.68988 14.0006 4.61849 14.1159 4.57032C14.2311 4.52215 14.3551 4.49822 14.48 4.50004C14.7305 4.50613 14.9697 4.60605 15.15 4.78004C15.337 4.98905 15.4403 5.25963 15.4403 5.54004C15.4403 5.82046 15.337 6.09103 15.15 6.30004C14.5644 6.58642 13.9299 6.75946 13.28 6.81004C13.334 6.10715 13.5135 5.41961 13.81 4.78004ZM8.81001 4.78004C8.99037 4.60605 9.22948 4.50613 9.48001 4.50004C9.60493 4.49822 9.72888 4.52215 9.84415 4.57032C9.95942 4.61849 10.0635 4.68988 10.15 4.78004C10.4599 5.40409 10.6402 6.08443 10.68 6.78004C10.0315 6.72824 9.39784 6.55882 8.81001 6.28004C8.63599 6.06664 8.54432 5.79788 8.55166 5.52262C8.559 5.24736 8.62487 4.98387 8.81001 4.78004ZM18.6 19.5H5.40001V12H18.6V19.5ZM19.5 9.38004V10.5H4.50001V8.55004H19.5V9.38004Z" fill="#001325" fill-opacity="0.92"/>
</svg>
