<svg width="24" height="24" viewBox="0 0 24 24" fill="none" xmlns="http://www.w3.org/2000/svg">
<path d="M12 3C10.22 3 8.47991 3.52784 6.99987 4.51677C5.51983 5.50571 4.36628 6.91131 3.68509 8.55585C3.0039 10.2004 2.82567 12.01 3.17294 13.7558C3.5202 15.5016 4.37737 17.1053 5.63604 18.364C6.89472 19.6226 8.49836 20.4798 10.2442 20.8271C11.99 21.1743 13.7996 20.9961 15.4442 20.3149C17.0887 19.6337 18.4943 18.4802 19.4832 17.0001C20.4722 15.5201 21 13.78 21 12C20.9972 9.61391 20.0481 7.32635 18.3609 5.63913C16.6736 3.95191 14.3861 3.0028 12 3ZM12 19.4118C11.4918 19.4118 10.4647 18.0988 9.88236 15.6106H14.1176C13.5353 18.0988 12.5082 19.4118 12 19.4118ZM9.64941 14.0224C9.57587 13.3507 9.53699 12.6757 9.53294 12C9.53699 11.3243 9.57587 10.6493 9.64941 9.97765H14.3506C14.4241 10.6493 14.463 11.3243 14.4671 12C14.463 12.6757 14.4241 13.3507 14.3506 14.0224H9.64941ZM4.58824 12C4.59122 11.316 4.6874 10.6356 4.87412 9.97765H8.05059C7.89532 11.3214 7.89532 12.6786 8.05059 14.0224H4.87412C4.6874 13.3644 4.59122 12.684 4.58824 12ZM12 4.58824C12.5082 4.58824 13.5353 5.90118 14.1176 8.38941H9.88236C10.4647 5.90118 11.4918 4.58824 12 4.58824ZM15.9388 9.97765H19.1153C19.4965 11.2989 19.4965 12.7011 19.1153 14.0224H15.9388C16.0158 13.351 16.0547 12.6758 16.0553 12C16.0547 11.3242 16.0158 10.649 15.9388 9.97765ZM18.4694 8.38941H15.7059C15.4953 7.23254 15.1172 6.11253 14.5835 5.06471C16.2322 5.67682 17.6096 6.85525 18.4694 8.38941ZM9.41647 5.06471C8.88283 6.11253 8.50473 7.23254 8.29412 8.38941H5.53059C6.39042 6.85525 7.76776 5.67682 9.41647 5.06471ZM5.53059 15.6529H8.29412C8.50473 16.8098 8.88283 17.9298 9.41647 18.9776C7.7609 18.3549 6.38262 17.1607 5.53059 15.6106V15.6529ZM14.5835 18.9776C15.1172 17.9298 15.4953 16.8098 15.7059 15.6529H18.4694C17.6019 17.1712 16.2255 18.3338 14.5835 18.9353V18.9776Z" fill="#001325" fill-opacity="0.92"/>
</svg>
