<svg width="24" height="24" viewBox="0 0 24 24" fill="none" xmlns="http://www.w3.org/2000/svg">
<path d="M19.9412 3H4.05882C3.77801 3 3.50869 3.11155 3.31012 3.31012C3.11155 3.50869 3 3.77801 3 4.05882V19.9412C3 20.222 3.11155 20.4913 3.31012 20.6899C3.50869 20.8884 3.77801 21 4.05882 21H19.9412C20.222 21 20.4913 20.8884 20.6899 20.6899C20.8884 20.4913 21 20.222 21 19.9412V4.05882C21 3.77801 20.8884 3.50869 20.6899 3.31012C20.4913 3.11155 20.222 3 19.9412 3ZM19.4118 11.2059H12.7941V4.58824H19.4118V11.2059ZM11.2059 4.58824V11.2059H4.58824V4.58824H11.2059ZM4.58824 12.7941H11.2059V19.4118H4.58824V12.7941ZM12.7941 19.4118V12.7941H19.4118V19.4118H12.7941Z" fill="#001325" fill-opacity="0.92"/>
</svg>
