<svg width="24" height="24" viewBox="0 0 24 24" fill="none" xmlns="http://www.w3.org/2000/svg">
<path d="M20.2258 7.536H3.77419C3.3871 7.536 3 7.248 3 6.768C3 6.384 3.29032 6 3.77419 6H20.2258C20.6129 6 21 6.288 21 6.768C20.9032 7.152 20.6129 7.536 20.2258 7.536Z" fill="#001325" fill-opacity="0.92"/>
<path d="M20.2258 18H3.77419C3.3871 18 3 17.712 3 17.232C3 16.752 3.29032 16.464 3.77419 16.464H20.2258C20.6129 16.464 21 16.752 21 17.232C21 17.712 20.6129 18 20.2258 18Z" fill="#001325" fill-opacity="0.92"/>
<path d="M3.77419 12.816H20.2258C20.6129 12.816 21 12.528 21 12.048C21 11.568 20.6129 11.28 20.2258 11.28H3.77419C3.29032 11.28 3 11.568 3 12.048C3 12.528 3.3871 12.816 3.77419 12.816Z" fill="#001325" fill-opacity="0.92"/>
</svg>
