<svg width="24" height="24" viewBox="0 0 24 24" fill="none" xmlns="http://www.w3.org/2000/svg">
<path d="M20.2365 4.58447C19.2523 3.80626 18.0169 3.42426 16.7695 3.51247C15.5221 3.60068 14.3516 4.15282 13.4847 5.06193L11.9912 6.61105L10.4978 5.10438C9.63637 4.18898 8.46866 3.62895 7.22113 3.53289C5.97361 3.43683 4.73517 3.81158 3.74598 4.58447C3.22702 5.02223 2.80415 5.56427 2.50435 6.17605C2.20454 6.78783 2.03437 7.45592 2.00469 8.13773C1.97501 8.81954 2.08646 9.50011 2.33194 10.1361C2.57742 10.772 2.95155 11.3494 3.43047 11.8313L11.9912 20.5L20.531 11.8844C21.0198 11.4033 21.4029 10.8237 21.6553 10.1835C21.9077 9.5433 22.0237 8.85667 21.996 8.16823C21.9682 7.4798 21.7972 6.80496 21.4941 6.18754C21.191 5.57012 20.7625 5.02394 20.2365 4.58447Z" fill="#001325" fill-opacity="0.92"/>
</svg>
