<svg width="24" height="24" viewBox="0 0 24 24" fill="none" xmlns="http://www.w3.org/2000/svg">
<path d="M13.1306 15.22C13.5708 15.22 13.931 15.6 13.931 16.07V20.15C13.931 20.62 14.2911 21 14.7314 21H18.5933C19.0335 21 19.3937 20.62 19.3937 20.15V11.37C19.3937 10.9 19.7538 10.52 20.1941 10.52C20.9444 10.52 21.2846 9.54 20.7143 9.03L12.6103 3.18C12.2701 2.94 11.8299 2.94 11.4897 3.18L3.28569 9.03C2.71541 9.54 3.05557 10.52 3.80594 10.52C4.24616 10.52 4.60634 10.9 4.60634 11.37V20.15C4.60634 20.62 4.96652 21 5.40674 21H9.26865C9.70887 21 10.069 20.62 10.069 20.15V16.07C10.069 15.6 10.4292 15.22 10.8694 15.22H13.1306Z" fill="#001325" fill-opacity="0.92"/>
</svg>
