<svg width="24" height="24" viewBox="0 0 24 24" fill="none" xmlns="http://www.w3.org/2000/svg">
<path d="M15.27 8.95C15.27 9.64035 14.7104 10.2 14.02 10.2C13.3296 10.2 12.77 9.64035 12.77 8.95C12.77 8.25964 13.3296 7.7 14.02 7.7C14.7104 7.7 15.27 8.25964 15.27 8.95Z" fill="#001325" fill-opacity="0.92"/>
<path fill-rule="evenodd" clip-rule="evenodd" d="M4 4.75H20C20.2652 4.75 20.5196 4.85536 20.7071 5.04289C20.8946 5.23043 21 5.48478 21 5.75V18.25C21 18.5152 20.8946 18.7696 20.7071 18.9571C20.5196 19.1446 20.2652 19.25 20 19.25H4C3.73478 19.25 3.48043 19.1446 3.29289 18.9571C3.10536 18.7696 3 18.5152 3 18.25V5.75C3 5.48478 3.10536 5.23043 3.29289 5.04289C3.48043 4.85536 3.73478 4.75 4 4.75ZM19.5 15.31V6.25H4.5V13L7.94 8.93C8.02288 8.8312 8.1254 8.75072 8.24106 8.69367C8.35671 8.63662 8.48296 8.60424 8.6118 8.5986C8.74064 8.59296 8.86924 8.61417 8.98943 8.66089C9.10963 8.70762 9.2188 8.77883 9.31 8.87L13.94 13.6L15.19 12.32C15.2757 12.2315 15.3782 12.1612 15.4916 12.1131C15.605 12.065 15.7268 12.0401 15.85 12.04C15.9711 12.0379 16.0913 12.0607 16.2032 12.1072C16.315 12.1536 16.4161 12.2227 16.5 12.31L19.5 15.31ZM4.5 15.36V17.75L19.5 17.74V17.43L15.85 13.78L14.61 15.06C14.4269 15.2231 14.1902 15.3132 13.945 15.3132C13.6998 15.3132 13.4631 15.2231 13.28 15.06L8.68 10.36L4.5 15.36Z" fill="#001325" fill-opacity="0.92"/>
</svg>
