<svg width="24" height="24" viewBox="0 0 24 24" fill="none" xmlns="http://www.w3.org/2000/svg">
<path fill-rule="evenodd" clip-rule="evenodd" d="M6.58403 8.22648C6.20514 8.48005 5.75969 8.61539 5.304 8.61539C5.00143 8.61539 4.70183 8.5557 4.4223 8.43973C4.14276 8.32376 3.88877 8.15378 3.67483 7.93949C3.24274 7.50671 3 6.91974 3 6.3077C3 5.85128 3.13513 5.40511 3.38829 5.02561C3.64146 4.64611 4.0013 4.35033 4.4223 4.17566C4.8433 4.001 5.30656 3.9553 5.75349 4.04434C6.20042 4.13339 6.61095 4.35317 6.93317 4.67591C7.25539 4.99865 7.47483 5.40984 7.56373 5.85749C7.65263 6.30514 7.607 6.76914 7.43262 7.19082C7.25823 7.61249 6.96292 7.9729 6.58403 8.22648ZM5.78401 5.58816C5.64193 5.49307 5.47488 5.44231 5.304 5.44231C5.19054 5.44231 5.07819 5.4647 4.97336 5.50819C4.86854 5.55167 4.77329 5.61542 4.69306 5.69578C4.61283 5.77614 4.54919 5.87154 4.50577 5.97653C4.46235 6.08152 4.44 6.19405 4.44 6.3077C4.44 6.47886 4.49067 6.64617 4.58561 6.78848C4.68055 6.93079 4.81549 7.04171 4.97336 7.10721C5.13124 7.17271 5.30496 7.18985 5.47256 7.15646C5.64016 7.12306 5.79411 7.04065 5.91494 6.91962C6.03577 6.79859 6.11806 6.6444 6.1514 6.47653C6.18474 6.30866 6.16762 6.13466 6.10223 5.97653C6.03684 5.8184 5.9261 5.68325 5.78401 5.58816Z" fill="#001325" fill-opacity="0.92"/>
<path d="M9.336 7.02876H20.28C20.471 7.02876 20.6541 6.95278 20.7891 6.81754C20.9241 6.68229 21 6.49887 21 6.3076C21 6.11634 20.9241 5.93291 20.7891 5.79767C20.6541 5.66243 20.471 5.58645 20.28 5.58645H9.336C9.14505 5.58645 8.96191 5.66243 8.82689 5.79767C8.69186 5.93291 8.616 6.11634 8.616 6.3076C8.616 6.49887 8.69186 6.68229 8.82689 6.81754C8.96191 6.95278 9.14505 7.02876 9.336 7.02876Z" fill="#001325" fill-opacity="0.92"/>
<path d="M9.336 18.4135H20.28C20.471 18.4135 20.6541 18.3375 20.7891 18.2023C20.9241 18.067 21 17.8836 21 17.6923C21 17.5011 20.9241 17.3176 20.7891 17.1824C20.6541 17.0471 20.471 16.9712 20.28 16.9712H9.336C9.14505 16.9712 8.96191 17.0471 8.82689 17.1824C8.69186 17.3176 8.616 17.5011 8.616 17.6923C8.616 17.8836 8.69186 18.067 8.82689 18.2023C8.96191 18.3375 9.14505 18.4135 9.336 18.4135Z" fill="#001325" fill-opacity="0.92"/>
<path d="M20.28 12.7211H9.336C9.14505 12.7211 8.96191 12.6451 8.82689 12.5099C8.69186 12.3747 8.616 12.1912 8.616 12C8.616 11.8087 8.69186 11.6253 8.82689 11.49C8.96191 11.3548 9.14505 11.2788 9.336 11.2788H20.28C20.471 11.2788 20.6541 11.3548 20.7891 11.49C20.9241 11.6253 21 11.8087 21 12C21 12.1912 20.9241 12.3747 20.7891 12.5099C20.6541 12.6451 20.471 12.7211 20.28 12.7211Z" fill="#001325" fill-opacity="0.92"/>
<path fill-rule="evenodd" clip-rule="evenodd" d="M5.304 9.69226C4.84831 9.69226 4.40286 9.82761 4.02397 10.0812C3.64508 10.3348 3.34977 10.6952 3.17538 11.1168C3.001 11.5385 2.95537 12.0025 3.04427 12.4502C3.13317 12.8978 3.35261 13.309 3.67483 13.6317C3.99705 13.9545 4.40758 14.1743 4.85451 14.2633C5.30144 14.3524 5.7647 14.3067 6.1857 14.132C6.6067 13.9573 6.96654 13.6615 7.21971 13.282C7.47287 12.9025 7.608 12.4564 7.608 12C7.60927 11.6966 7.55054 11.3959 7.4352 11.1153C7.31987 10.8348 7.15021 10.5799 6.93601 10.3653C6.72181 10.1508 6.46731 9.98086 6.1872 9.86533C5.9071 9.74981 5.60692 9.69099 5.304 9.69226ZM5.304 12.8653C5.13312 12.8653 4.96607 12.8146 4.82399 12.7195C4.6819 12.6244 4.57116 12.4893 4.50577 12.3311C4.44037 12.173 4.42326 11.999 4.4566 11.8311C4.48994 11.6633 4.57223 11.5091 4.69306 11.388C4.81389 11.267 4.96784 11.1846 5.13544 11.1512C5.30304 11.1178 5.47676 11.1349 5.63464 11.2004C5.79251 11.2659 5.92745 11.3769 6.02239 11.5192C6.11733 11.6615 6.168 11.8288 6.168 12C6.168 12.2295 6.07697 12.4496 5.91494 12.6119C5.75291 12.7742 5.53315 12.8653 5.304 12.8653Z" fill="#001325" fill-opacity="0.92"/>
<path fill-rule="evenodd" clip-rule="evenodd" d="M4.02397 15.7735C4.40286 15.5199 4.84831 15.3846 5.304 15.3846C5.91506 15.3846 6.50109 15.6277 6.93317 16.0605C7.36526 16.4933 7.608 17.0803 7.608 17.6923C7.608 18.1487 7.47287 18.5949 7.21971 18.9744C6.96654 19.3539 6.6067 19.6497 6.1857 19.8243C5.7647 19.999 5.30144 20.0447 4.85451 19.9557C4.40758 19.8666 3.99705 19.6468 3.67483 19.3241C3.35261 19.0014 3.13317 18.5902 3.04427 18.1425C2.95537 17.6949 3.001 17.2309 3.17538 16.8092C3.34977 16.3875 3.64508 16.0271 4.02397 15.7735ZM4.82399 18.4118C4.96607 18.5069 5.13312 18.5577 5.304 18.5577C5.53315 18.5577 5.75291 18.4665 5.91494 18.3042C6.07697 18.1419 6.168 17.9218 6.168 17.6923C6.168 17.5211 6.11733 17.3538 6.02239 17.2115C5.92745 17.0692 5.79251 16.9583 5.63464 16.8928C5.47676 16.8273 5.30304 16.8102 5.13544 16.8435C4.96784 16.8769 4.81389 16.9594 4.69306 17.0804C4.57223 17.2014 4.48994 17.3556 4.4566 17.5235C4.42326 17.6913 4.44037 17.8653 4.50577 18.0235C4.57116 18.1816 4.6819 18.3168 4.82399 18.4118Z" fill="#001325" fill-opacity="0.92"/>
</svg>
