<svg width="24" height="24" viewBox="0 0 24 24" fill="none" xmlns="http://www.w3.org/2000/svg">
<path d="M6.26 13.91V10.27H7.14V13.2H8.66V13.91H6.26Z" fill="#001325" fill-opacity="0.92"/>
<path d="M10.19 10.27V13.91H9.31V10.27H10.19Z" fill="#001325" fill-opacity="0.92"/>
<path d="M12.58 12.94L11.77 10.27H10.77L12 13.91H13.16L14.39 10.27H13.39L12.58 12.94Z" fill="#001325" fill-opacity="0.92"/>
<path d="M15 13.91V10.27H17.53V11H15.88V11.74H17.4V12.46H15.88V13.21H17.53V13.92L15 13.91Z" fill="#001325" fill-opacity="0.92"/>
<path fill-rule="evenodd" clip-rule="evenodd" d="M4 5H20C20.2652 5 20.5196 5.10536 20.7071 5.29289C20.8946 5.48043 21 5.73478 21 6V18C21 18.2652 20.8946 18.5196 20.7071 18.7071C20.5196 18.8946 20.2652 19 20 19H4C3.73478 19 3.48043 18.8946 3.29289 18.7071C3.10536 18.5196 3 18.2652 3 18V6C3 5.73478 3.10536 5.48043 3.29289 5.29289C3.48043 5.10536 3.73478 5 4 5ZM19.5 17.5V6.5H4.5V17.5H19.5Z" fill="#001325" fill-opacity="0.92"/>
</svg>
