<svg width="24" height="24" viewBox="0 0 24 24" fill="none" xmlns="http://www.w3.org/2000/svg">
<path d="M11.9944 8.00215C12.5944 8.00215 13.1544 8.26252 13.5344 8.72318C13.9244 9.19385 14.0744 9.79471 13.9544 10.4156C13.8144 11.1767 13.1544 11.8276 12.4044 11.9678C12.2644 11.9979 12.1344 12.0079 11.9944 12.0079C11.3944 12.0079 10.8344 11.7475 10.4544 11.2868C10.0644 10.8162 9.91441 10.2153 10.0344 9.59442C10.1744 8.83333 10.8344 8.1824 11.5844 8.0422C11.7244 8.01216 11.8644 8.00215 11.9944 8.00215ZM11.9944 6.5C11.7744 6.5 11.5444 6.52003 11.3144 6.56009C9.94441 6.82046 8.81441 7.94206 8.56441 9.31402C8.14441 11.5572 9.83441 13.5 12.0044 13.5C12.2244 13.5 12.4544 13.48 12.6844 13.4399C14.0544 13.1795 15.1844 12.0579 15.4344 10.686C15.8544 8.44278 14.1544 6.5 11.9944 6.5Z" fill="#001325" fill-opacity="0.92"/>
<path d="M12.0046 3.50075C12.735 3.50075 13.4854 3.62081 14.2258 3.87094C16.8373 4.73137 18.5483 7.33267 18.5083 10.3442C18.4782 12.065 17.9079 13.5258 16.7372 14.8364L12.0046 20.2491L7.30188 14.8664C6.08118 13.4057 5.50085 11.925 5.50085 10.2241C5.50085 6.51226 8.42252 3.50075 12.0046 3.50075ZM12.0046 2C7.57203 2 4 5.66183 4 10.2141C4 12.3852 4.77044 14.1861 6.15122 15.8269L11.2541 21.6598C11.4542 21.8899 11.7344 22 12.0046 22C12.2847 22 12.5549 21.8899 12.755 21.6598L17.8579 15.8269C19.2487 14.2661 19.9691 12.4752 19.9991 10.3642C20.0491 6.78239 18.008 3.54077 14.6861 2.44022C13.7856 2.14007 12.875 2 12.0046 2Z" fill="#001325" fill-opacity="0.92"/>
</svg>
