<svg width="24" height="24" viewBox="0 0 24 24" fill="none" xmlns="http://www.w3.org/2000/svg">
<path d="M21 5H3C2.73478 5 2.48043 5.10536 2.29289 5.29289C2.10536 5.48043 2 5.73478 2 6V18C2 18.2652 2.10536 18.5196 2.29289 18.7071C2.48043 18.8946 2.73478 19 3 19H21C21.2652 19 21.5196 18.8946 21.7071 18.7071C21.8946 18.5196 22 18.2652 22 18V6C22 5.73478 21.8946 5.48043 21.7071 5.29289C21.5196 5.10536 21.2652 5 21 5ZM20.5 6.5V7.5L12.22 12.28C12.1828 12.3041 12.1394 12.3169 12.095 12.3169C12.0506 12.3169 12.0072 12.3041 11.97 12.28L3.5 7.37V6.5H20.5ZM3.5 17.5V9.1L11.22 13.56C11.487 13.7107 11.7884 13.7899 12.095 13.7899C12.4016 13.7899 12.703 13.7107 12.97 13.56L20.5 9.21V17.5H3.5Z" fill="#001325" fill-opacity="0.92"/>
</svg>
