<svg width="24" height="24" viewBox="0 0 24 24" fill="none" xmlns="http://www.w3.org/2000/svg">
<path d="M13.725 15.8868C13.8715 15.7907 14.0439 15.7395 14.2202 15.7394C14.4543 15.7394 14.679 15.8297 14.8455 15.9907C15.012 16.1517 15.1069 16.3704 15.1096 16.5994C15.1116 16.7719 15.0612 16.9411 14.9647 17.0854C14.8682 17.2298 14.73 17.3429 14.5677 17.4102C14.4054 17.4776 14.2262 17.4963 14.053 17.4639C13.8798 17.4314 13.7204 17.3494 13.595 17.2281C13.4696 17.1068 13.3839 16.9519 13.3487 16.7828C13.3136 16.6138 13.3306 16.4384 13.3976 16.2788C13.4646 16.1193 13.5786 15.9828 13.725 15.8868Z" fill="#001325" fill-opacity="0.92"/>
<path fill-rule="evenodd" clip-rule="evenodd" d="M3.0259 3H20.9777C21.2488 3 21.5089 3.10535 21.7006 3.29288C21.8923 3.48041 22 3.73475 22 3.99996V9.04973C22 9.31494 21.8923 9.56928 21.7006 9.75681C21.5089 9.94434 21.2488 10.0497 20.9777 10.0497H12.7276L18.5344 15.7294C18.6332 15.8219 18.71 15.9346 18.7593 16.0594C18.8084 16.1768 18.8327 16.3026 18.8308 16.4294C18.8325 16.5594 18.8082 16.6885 18.7593 16.8094C18.7076 16.933 18.6311 17.0452 18.5344 17.1394L14.8847 20.7092C14.6932 20.8955 14.4341 21 14.164 21C13.8939 21 13.6348 20.8955 13.4433 20.7092L2.30006 9.7797C2.20408 9.68508 2.12841 9.57264 2.07749 9.449C2.02658 9.32536 2.00145 9.19301 2.00359 9.05973C1.9988 9.04001 1.9988 9.01946 2.00359 8.99974V3.99996C2.00359 3.73475 2.11129 3.48041 2.30302 3.29288C2.49474 3.10535 2.75476 3 3.0259 3ZM14.1895 19.2893L17.1133 16.4294L10.5603 10.0497H4.71271L6.99247 12.3196L8.01478 11.4196C8.07089 11.364 8.13774 11.3198 8.21145 11.2897C8.28516 11.2595 8.36426 11.244 8.44415 11.244C8.52404 11.244 8.60314 11.2595 8.67685 11.2897C8.75056 11.3198 8.81741 11.364 8.87352 11.4196C8.9307 11.4754 8.97608 11.5416 9.00704 11.6145C9.03799 11.6875 9.05393 11.7656 9.05393 11.8446C9.05393 11.9236 9.03799 12.0018 9.00704 12.0747C8.97608 12.1476 8.9307 12.2139 8.87352 12.2696L7.91255 13.1496L9.34378 14.5695L11.2146 12.7696C11.331 12.659 11.4869 12.5972 11.6491 12.5972C11.8113 12.5972 11.9672 12.659 12.0836 12.7696C12.1408 12.8253 12.1861 12.8915 12.2171 12.9645C12.2481 13.0374 12.264 13.1156 12.264 13.1945C12.264 13.2735 12.2481 13.3517 12.2171 13.4246C12.1861 13.4976 12.1408 13.5638 12.0836 13.6195L10.223 15.4195L14.1895 19.2893ZM3.53705 8.54976H20.487L20.4461 4.49993H18.4832V7.05982C18.4832 7.21894 18.4186 7.37155 18.3036 7.48407C18.1886 7.59658 18.0325 7.65979 17.8699 7.65979C17.7898 7.66112 17.7103 7.64684 17.6359 7.61779C17.5615 7.58873 17.4938 7.54549 17.4367 7.49057C17.3796 7.43565 17.3343 7.37017 17.3033 7.29793C17.2724 7.22569 17.2565 7.14815 17.2565 7.06982V4.49993H14.5473V5.78988C14.5501 5.86819 14.5368 5.94624 14.5084 6.01949C14.4799 6.09273 14.4368 6.1597 14.3816 6.21648C14.3265 6.27327 14.2602 6.31873 14.1869 6.35021C14.1135 6.38169 14.0345 6.39857 13.9544 6.39985C13.7952 6.39994 13.6422 6.33948 13.5278 6.23125C13.4133 6.12302 13.3463 5.97551 13.341 5.81988V4.49993H10.6523V7.05982C10.6523 7.21894 10.5877 7.37155 10.4727 7.48407C10.3577 7.59658 10.2016 7.65979 10.039 7.65979C9.95889 7.66112 9.87936 7.64684 9.80499 7.61779C9.73063 7.58873 9.66293 7.54549 9.60583 7.49057C9.54873 7.43565 9.50339 7.37017 9.47244 7.29793C9.44149 7.22569 9.42556 7.14815 9.42557 7.06982V4.49993H6.696V5.78988C6.69872 5.86819 6.68547 5.94624 6.65702 6.01949C6.62858 6.09273 6.58549 6.1597 6.5303 6.21648C6.4751 6.27327 6.40889 6.31873 6.33554 6.35021C6.26218 6.38169 6.18315 6.39857 6.10306 6.39985C5.94386 6.39994 5.79086 6.33948 5.6764 6.23125C5.56194 6.12302 5.49498 5.97551 5.48967 5.81988V4.49993H3.53705V8.54976Z" fill="#001325" fill-opacity="0.92"/>
</svg>
