<svg width="24" height="24" viewBox="0 0 24 24" fill="none" xmlns="http://www.w3.org/2000/svg">
<path d="M11.76 18.27C11.76 18.8223 11.3123 19.27 10.76 19.27C10.2077 19.27 9.76001 18.8223 9.76001 18.27C9.76001 17.7177 10.2077 17.27 10.76 17.27C11.3123 17.27 11.76 17.7177 11.76 18.27Z" fill="#001325" fill-opacity="0.92"/>
<path fill-rule="evenodd" clip-rule="evenodd" d="M17.51 6H20C20.2652 6 20.5196 6.10536 20.7071 6.29289C20.8946 6.48043 21 6.73478 21 7V14C21 14.2652 20.8946 14.5196 20.7071 14.7071C20.5196 14.8946 20.2652 15 20 15H17.5V21C17.5 21.2652 17.3946 21.5196 17.2071 21.7071C17.0196 21.8946 16.7652 22 16.5 22H5C4.73478 22 4.48043 21.8946 4.29289 21.7071C4.10536 21.5196 4 21.2652 4 21V3C4 2.73478 4.10536 2.48043 4.29289 2.29289C4.48043 2.10536 4.73478 2 5 2H16.51C16.7752 2 17.0296 2.10536 17.2171 2.29289C17.4046 2.48043 17.51 2.73478 17.51 3V6ZM5.51 20.5H16V15H10.5C10.2348 15 9.98043 14.8946 9.79289 14.7071C9.60536 14.5196 9.5 14.2652 9.5 14V7C9.5 6.73478 9.60536 6.48043 9.79289 6.29289C9.98043 6.10536 10.2348 6 10.5 6H16V3.5H5.51V20.5ZM17.29 11H19.52V10H17.29C17.1653 10 17.0458 10.0495 16.9577 10.1377C16.8695 10.2258 16.82 10.3453 16.82 10.47V10.53C16.82 10.6547 16.8695 10.7742 16.9577 10.8623C17.0458 10.9505 17.1653 11 17.29 11ZM17.29 8.5H19.52L19.51 7.55H11V13.55H19.54V12.55H17.31C16.7796 12.55 16.2709 12.3393 15.8958 11.9642C15.5207 11.5891 15.31 11.0804 15.31 10.55V10.49C15.313 10.207 15.3761 9.92778 15.495 9.67092C15.614 9.41407 15.7861 9.18539 16 9C16.3568 8.68518 16.8142 8.5079 17.29 8.5Z" fill="#001325" fill-opacity="0.92"/>
</svg>
