<svg width="24" height="24" viewBox="0 0 24 24" fill="none" xmlns="http://www.w3.org/2000/svg">
<path d="M3.76 22H13.25C13.7124 22 14.156 21.817 14.4839 21.491C14.8118 21.1649 14.9974 20.7224 15 20.26V15.68C15 15.4811 14.921 15.2903 14.7803 15.1497C14.6397 15.009 14.4489 14.93 14.25 14.93C14.0511 14.93 13.8603 15.009 13.7197 15.1497C13.579 15.2903 13.5 15.4811 13.5 15.68V20.26C13.5 20.3263 13.4737 20.3899 13.4268 20.4368C13.3799 20.4837 13.3163 20.51 13.25 20.51H3.76C3.6937 20.51 3.63011 20.4837 3.58322 20.4368C3.53634 20.3899 3.51 20.3263 3.51 20.26V3.76C3.51 3.6937 3.53634 3.63011 3.58322 3.58322C3.63011 3.53634 3.6937 3.51 3.76 3.51H13.25C13.3163 3.51 13.3799 3.53634 13.4268 3.58322C13.4737 3.63011 13.5 3.6937 13.5 3.76V5.33C13.5 5.52891 13.579 5.71968 13.7197 5.86033C13.8603 6.00098 14.0511 6.08 14.25 6.08C14.4489 6.08 14.6397 6.00098 14.7803 5.86033C14.921 5.71968 15 5.52891 15 5.33V3.75C15 3.52019 14.9547 3.29262 14.8668 3.0803C14.7788 2.86798 14.6499 2.67507 14.4874 2.51256C14.3249 2.35006 14.132 2.22116 13.9197 2.13321C13.7074 2.04527 13.4798 2 13.25 2H3.76C3.29322 2 2.84556 2.18543 2.51549 2.51549C2.18543 2.84556 2 3.29322 2 3.76V20.26C2.00527 20.7233 2.19302 21.1658 2.52251 21.4916C2.85201 21.8173 3.29666 22 3.76 22Z" fill="#001325" fill-opacity="0.92"/>
<path d="M9.65998 18.01C9.65998 18.507 9.25704 18.91 8.75998 18.91C8.26293 18.91 7.85999 18.507 7.85999 18.01C7.85999 17.5129 8.26293 17.11 8.75998 17.11C9.25704 17.11 9.65998 17.5129 9.65998 18.01Z" fill="#001325" fill-opacity="0.92"/>
<path d="M19.68 15C19.5557 14.9994 19.4347 14.9602 19.3336 14.8878C19.2326 14.8155 19.1565 14.7135 19.1159 14.5961C19.0753 14.4786 19.0721 14.3515 19.1069 14.2321C19.1417 14.1128 19.2126 14.0072 19.31 13.93C19.795 13.5028 20.18 12.974 20.4375 12.3812C20.6951 11.7883 20.8188 11.1461 20.8 10.5C20.8221 9.85443 20.7009 9.21197 20.445 8.61888C20.1891 8.02579 19.8049 7.4968 19.32 7.07C19.1951 6.96979 19.1146 6.8245 19.0959 6.66548C19.0772 6.50645 19.1218 6.34645 19.22 6.22C19.3231 6.0988 19.4688 6.02186 19.627 6.00511C19.7852 5.98836 19.9438 6.03307 20.07 6.13C20.6951 6.67011 21.1925 7.34229 21.5263 8.09801C21.8601 8.85373 22.0219 9.67414 22 10.5C22.0209 11.3291 21.8567 12.1524 21.5194 12.9101C21.1821 13.6678 20.6801 14.3407 20.05 14.88C19.9442 14.9614 19.8135 15.0038 19.68 15Z" fill="#001325" fill-opacity="0.92"/>
<path d="M17.4814 13.5456C17.5592 13.5819 17.6441 13.6005 17.73 13.6C17.869 13.6114 18.0075 13.5724 18.12 13.49C18.5189 13.1114 18.8337 12.6531 19.0439 12.1448C19.2541 11.6366 19.355 11.0898 19.34 10.54C19.3561 9.99245 19.2567 9.44766 19.0482 8.9411C18.8397 8.43454 18.5269 7.97759 18.13 7.59999C18.0719 7.5475 18.0039 7.5071 17.93 7.48116C17.856 7.45523 17.7777 7.44426 17.6995 7.44892C17.6213 7.45357 17.5449 7.47375 17.4745 7.50827C17.4042 7.5428 17.3415 7.59097 17.29 7.64999C17.2372 7.70896 17.1966 7.77779 17.1706 7.85252C17.1445 7.92725 17.1335 8.00639 17.1381 8.0854C17.1427 8.16441 17.163 8.24172 17.1976 8.31287C17.2323 8.38402 17.2807 8.44762 17.34 8.5C17.603 8.76097 17.8097 9.0731 17.9473 9.4171C18.0849 9.76109 18.1505 10.1296 18.14 10.5C18.1562 10.8785 18.0934 11.2562 17.9557 11.6092C17.818 11.9621 17.6083 12.2825 17.34 12.55C17.2803 12.6008 17.2313 12.663 17.1959 12.7329C17.1604 12.8029 17.1393 12.8792 17.1337 12.9574C17.1281 13.0356 17.1382 13.1141 17.1633 13.1884C17.1884 13.2627 17.2281 13.3312 17.28 13.39C17.3348 13.4561 17.4036 13.5093 17.4814 13.5456Z" fill="#001325" fill-opacity="0.92"/>
<path d="M15.64 12.55C15.5537 12.5499 15.4684 12.5322 15.3892 12.4978C15.3101 12.4634 15.2389 12.4131 15.18 12.35C15.0771 12.2285 15.0258 12.0716 15.037 11.9128C15.0482 11.754 15.121 11.6058 15.24 11.5C15.3701 11.3694 15.4712 11.2129 15.5367 11.0406C15.6022 10.8682 15.6306 10.684 15.62 10.5C15.6287 10.3162 15.5995 10.1325 15.5341 9.96044C15.4687 9.78839 15.3686 9.63165 15.24 9.5C15.1206 9.39392 15.0483 9.24476 15.039 9.08536C15.0296 8.92595 15.0839 8.76935 15.19 8.65C15.2961 8.53065 15.4452 8.45834 15.6046 8.44896C15.764 8.43958 15.9207 8.49392 16.04 8.6C16.2956 8.84457 16.4971 9.14002 16.6315 9.46729C16.7658 9.79456 16.83 10.1464 16.82 10.5C16.8264 10.8583 16.7566 11.2138 16.6152 11.5431C16.4738 11.8724 16.2641 12.1679 16 12.41C15.8999 12.4971 15.7726 12.5467 15.64 12.55Z" fill="#001325" fill-opacity="0.92"/>
<path fill-rule="evenodd" clip-rule="evenodd" d="M6.83 9.34999C7.00464 9.43312 7.14825 9.56973 7.24 9.73999V9.75999C7.33803 9.943 7.38933 10.1474 7.38933 10.355C7.38933 10.5626 7.33803 10.767 7.24 10.95C7.14105 11.1182 6.99505 11.2538 6.82 11.34C6.6171 11.4364 6.39458 11.4843 6.17 11.48H5.63V12.48H4.84V9.19999H6.19C6.4127 9.19389 6.63319 9.24557 6.83 9.34999ZM6.32 10.77C6.39646 10.73 6.46175 10.6715 6.51 10.6C6.54416 10.5178 6.55789 10.4286 6.55 10.34C6.5513 10.2465 6.53075 10.1541 6.49 10.07C6.44175 9.99844 6.37646 9.94001 6.3 9.89999C6.20596 9.85712 6.10329 9.83659 6 9.83999H5.63V10.84H6.02C6.12457 10.8452 6.22851 10.8209 6.32 10.77Z" fill="#001325" fill-opacity="0.92"/>
<path fill-rule="evenodd" clip-rule="evenodd" d="M8.34999 9.2L7.23999 12.48H8.08999L8.30999 11.79H9.43999L9.64999 12.48H10.5L9.39999 9.2H8.34999ZM8.49999 11.2L8.85999 10L9.22999 11.16L8.49999 11.2Z" fill="#001325" fill-opacity="0.92"/>
<path d="M11.96 10.57L12.66 9.2H13.54L12.34 11.38V12.48H11.56V11.38L10.36 9.2H11.24L11.94 10.57H11.96Z" fill="#001325" fill-opacity="0.92"/>
</svg>
