<svg width="24" height="24" viewBox="0 0 24 24" fill="none" xmlns="http://www.w3.org/2000/svg">
<path d="M12 19.27C12.5523 19.27 13 18.8223 13 18.27C13 17.7177 12.5523 17.27 12 17.27C11.4477 17.27 11 17.7177 11 18.27C11 18.8223 11.4477 19.27 12 19.27Z" fill="#001325" fill-opacity="0.92"/>
<path fill-rule="evenodd" clip-rule="evenodd" d="M14.14 10.84H14.67C14.7155 10.8413 14.7604 10.8517 14.8018 10.8706C14.8432 10.8895 14.8804 10.9165 14.9112 10.9501C14.942 10.9837 14.9657 11.0231 14.981 11.0661C14.9962 11.109 15.0027 11.1545 15 11.2V11.86C15 11.9485 14.9656 12.0335 14.904 12.097C14.8424 12.1604 14.7584 12.1974 14.67 12.2H9.33C9.24157 12.1974 9.15764 12.1604 9.09602 12.097C9.03441 12.0335 8.99996 11.9485 9 11.86V11.2C8.99996 11.1115 9.03441 11.0265 9.09602 10.9631C9.15764 10.8996 9.24157 10.8626 9.33 10.86H9.83V8.61H9.34C9.26786 8.61119 9.19731 8.5887 9.13917 8.54598C9.08102 8.50325 9.03848 8.44265 9.01806 8.37344C8.99764 8.30424 9.00047 8.23025 9.0261 8.16281C9.05173 8.09536 9.09877 8.03817 9.16 8L11.82 6.23C11.8736 6.19515 11.9361 6.17659 12 6.17659C12.0639 6.17659 12.1264 6.19515 12.18 6.23L14.84 8C14.8929 8.04101 14.932 8.09711 14.9523 8.16088C14.9725 8.22465 14.9729 8.29306 14.9534 8.35705C14.9339 8.42104 14.8953 8.47759 14.8429 8.51919C14.7906 8.5608 14.7268 8.58549 14.66 8.59H14.14V10.84ZM12.42 10.84H13.27V8.59H12.42V10.84ZM11.55 8.59H10.7V10.84H11.55V8.59Z" fill="#001325" fill-opacity="0.92"/>
<path fill-rule="evenodd" clip-rule="evenodd" d="M17.5 2H6.5C6.23478 2 5.98043 2.10536 5.79289 2.29289C5.60536 2.48043 5.5 2.73478 5.5 3V21C5.5 21.2652 5.60536 21.5196 5.79289 21.7071C5.98043 21.8946 6.23478 22 6.5 22H17.5C17.7652 22 18.0196 21.8946 18.2071 21.7071C18.3946 21.5196 18.5 21.2652 18.5 21V3C18.5 2.73478 18.3946 2.48043 18.2071 2.29289C18.0196 2.10536 17.7652 2 17.5 2ZM17 3.5V20.5H7V3.5H17Z" fill="#001325" fill-opacity="0.92"/>
</svg>
