<svg width="24" height="24" viewBox="0 0 24 24" fill="none" xmlns="http://www.w3.org/2000/svg">
<path d="M4.96972 21.9999H14.1942C14.4545 22.0029 14.7128 21.9571 14.9545 21.8651C15.1961 21.7731 15.4164 21.6367 15.6026 21.4638C15.7889 21.2908 15.9375 21.0846 16.04 20.8569C16.1425 20.6293 16.1969 20.3847 16.2 20.137V15.6914C16.2 15.4641 16.1051 15.246 15.9362 15.0853C15.7672 14.9246 15.5381 14.8342 15.2992 14.8342C15.0603 14.8342 14.8312 14.9246 14.6623 15.0853C14.4933 15.246 14.3984 15.4641 14.3984 15.6914V20.137C14.3984 20.217 14.3023 20.2856 14.1942 20.2856H4.96972C4.86163 20.2856 4.76554 20.217 4.76554 20.137V3.86297C4.76554 3.78297 4.86163 3.7144 4.96972 3.7144L14.2303 3.7144C14.3384 3.7144 14.4345 3.78297 14.4345 3.86297V7.57721C14.4345 7.80453 14.5294 8.02255 14.6983 8.18329C14.8672 8.34403 15.0963 8.43434 15.3352 8.43434C15.5741 8.43434 15.8033 8.34403 15.9722 8.18329C16.1411 8.02255 16.236 7.80453 16.236 7.57721V3.86297C16.2329 3.61533 16.1785 3.37071 16.076 3.14307C15.9735 2.91543 15.8249 2.70923 15.6387 2.53624C15.4524 2.36326 15.2322 2.22688 14.9905 2.1349C14.7489 2.04291 14.4905 1.99712 14.2303 2.00014L4.96972 2.00014C4.45035 2.0031 3.95296 2.19995 3.58458 2.54834C3.2162 2.89673 3.00629 3.3688 3 3.86297V20.137C3.00629 20.6312 3.2162 21.1033 3.58458 21.4517C3.95296 21.8001 4.45035 21.9969 4.96972 21.9999Z" fill="#001325" fill-opacity="0.92"/>
<path d="M20.7757 11.1886L18.6619 9.21147C18.5154 9.07204 18.3166 8.99371 18.1094 8.99371C17.9022 8.99371 17.7035 9.07204 17.5569 9.21147C17.4104 9.35089 17.3281 9.54 17.3281 9.73717C17.3281 9.93435 17.4104 10.1235 17.5569 10.2629L18.3016 10.96H10.3747C10.1676 10.96 9.96904 11.0383 9.82263 11.1776C9.67623 11.3169 9.59398 11.5058 9.59398 11.7029C9.59398 11.8999 9.67623 12.0888 9.82263 12.2281C9.96904 12.3674 10.1676 12.4457 10.3747 12.4457H18.3016L17.5689 13.1543C17.4948 13.2225 17.4359 13.3042 17.3957 13.3945C17.3554 13.4848 17.3347 13.5819 17.3347 13.68C17.3347 13.7781 17.3554 13.8752 17.3957 13.9655C17.4359 14.0558 17.4948 14.1375 17.5689 14.2057C17.7163 14.3439 17.9145 14.4218 18.1214 14.4228C18.3273 14.4173 18.5239 14.34 18.6739 14.2057L20.7757 12.24C20.9196 12.0992 21 11.9106 21 11.7143C21 11.518 20.9196 11.3294 20.7757 11.1886Z" fill="#001325" fill-opacity="0.92"/>
<path d="M9.94205 19.3599C10.5523 19.3599 11.047 18.8892 11.047 18.3085C11.047 17.7278 10.5523 17.2571 9.94205 17.2571C9.33179 17.2571 8.83708 17.7278 8.83708 18.3085C8.83708 18.8892 9.33179 19.3599 9.94205 19.3599Z" fill="#001325" fill-opacity="0.92"/>
</svg>
