<svg width="24" height="24" viewBox="0 0 24 24" fill="none" xmlns="http://www.w3.org/2000/svg">
<path d="M5.1 14.1C6.2598 14.1 7.2 13.1598 7.2 12C7.2 10.8402 6.2598 9.90002 5.1 9.90002C3.9402 9.90002 3 10.8402 3 12C3 13.1598 3.9402 14.1 5.1 14.1Z" fill="#001325" fill-opacity="0.92"/>
<path d="M18.9 14.1C20.0598 14.1 21 13.1598 21 12C21 10.8402 20.0598 9.90002 18.9 9.90002C17.7402 9.90002 16.8 10.8402 16.8 12C16.8 13.1598 17.7402 14.1 18.9 14.1Z" fill="#001325" fill-opacity="0.92"/>
<path d="M14.1 12C14.1 13.1598 13.1598 14.1 12 14.1C10.8402 14.1 9.89999 13.1598 9.89999 12C9.89999 10.8402 10.8402 9.90002 12 9.90002C13.1598 9.90002 14.1 10.8402 14.1 12Z" fill="#001325" fill-opacity="0.92"/>
</svg>
