<svg width="24" height="24" viewBox="0 0 24 24" fill="none" xmlns="http://www.w3.org/2000/svg">
<path d="M12 7.20999C13.1598 7.20999 14.1 6.26979 14.1 5.10999C14.1 3.9502 13.1598 3.00999 12 3.00999C10.8402 3.00999 9.89999 3.9502 9.89999 5.10999C9.89999 6.26979 10.8402 7.20999 12 7.20999Z" fill="#001325" fill-opacity="0.92"/>
<path d="M12 21.01C13.1598 21.01 14.1 20.0698 14.1 18.91C14.1 17.7502 13.1598 16.81 12 16.81C10.8402 16.81 9.89999 17.7502 9.89999 18.91C9.89999 20.0698 10.8402 21.01 12 21.01Z" fill="#001325" fill-opacity="0.92"/>
<path d="M14.1 12.01C14.1 13.1698 13.1598 14.11 12 14.11C10.8402 14.11 9.89999 13.1698 9.89999 12.01C9.89999 10.8502 10.8402 9.91 12 9.91C13.1598 9.91 14.1 10.8502 14.1 12.01Z" fill="#001325" fill-opacity="0.92"/>
</svg>
