<svg width="24" height="24" viewBox="0 0 24 24" fill="none" xmlns="http://www.w3.org/2000/svg">
<path d="M19.37 11.41C19.1998 11.4076 19.0354 11.3481 18.903 11.2412C18.7707 11.1342 18.6781 10.9859 18.64 10.82C18.29 9.255 17.4204 7.8546 16.173 6.84683C14.9255 5.83906 13.3736 5.28329 11.77 5.27C11.5768 5.26004 11.3832 5.26004 11.19 5.27C10.9911 5.28724 10.7935 5.22476 10.6406 5.0963C10.4878 4.96783 10.3922 4.78392 10.375 4.585C10.3578 4.38609 10.4203 4.18848 10.5487 4.03564C10.6772 3.88279 10.8611 3.78724 11.06 3.77H11.77C13.7162 3.78409 15.6001 4.4571 17.1147 5.67929C18.6293 6.90148 19.6851 8.60075 20.11 10.5C20.1487 10.6947 20.1097 10.8968 20.0013 11.0632C19.8929 11.2295 19.7238 11.3468 19.53 11.39L19.37 11.41Z" fill="#001325" fill-opacity="0.92"/>
<path fill-rule="evenodd" clip-rule="evenodd" d="M6.07523 3.9645C6.29261 3.87677 6.52564 3.8344 6.76 3.84L6.75 3.81C6.98206 3.80572 7.21256 3.84874 7.42746 3.93642C7.64236 4.0241 7.83716 4.15461 8 4.32C8.16903 4.49834 8.30042 4.70891 8.38633 4.93913C8.47223 5.16935 8.51089 5.41451 8.5 5.66C8.51324 5.90573 8.47568 6.15155 8.38965 6.38211C8.30362 6.61266 8.17097 6.82301 8 7C7.8283 7.15003 7.62848 7.26442 7.41217 7.33652C7.19586 7.40863 6.96737 7.437 6.74 7.42C6.50636 7.42014 6.27509 7.37322 6.05997 7.28205C5.84486 7.19088 5.6503 7.05732 5.48792 6.88934C5.32554 6.72135 5.19865 6.52239 5.11482 6.30431C5.03099 6.08623 4.99194 5.8535 5 5.62C4.99175 5.38572 5.03148 5.15223 5.11676 4.93386C5.20203 4.7155 5.33103 4.51687 5.49586 4.35017C5.66068 4.18348 5.85784 4.05223 6.07523 3.9645ZM6.93 5.37C6.88328 5.32867 6.82231 5.30715 6.76 5.31V5.34C6.67 5.34 6.5 5.47 6.51 5.65C6.52 5.83 6.56 6 6.75 6C6.7846 5.99829 6.81847 5.9894 6.84945 5.97391C6.88044 5.95842 6.90787 5.93665 6.93 5.91C6.98548 5.8392 7.01065 5.74931 7 5.66C7 5.49 6.93 5.37 6.93 5.37Z" fill="#001325" fill-opacity="0.92"/>
<path fill-rule="evenodd" clip-rule="evenodd" d="M16.5573 12.3384C16.7737 12.2493 17.006 12.2056 17.24 12.21V12.2C17.4721 12.1957 17.7026 12.2387 17.9175 12.3264C18.1324 12.4141 18.3272 12.5446 18.49 12.71C18.8137 13.0613 18.9924 13.5223 18.99 14V14.04C18.9975 14.5187 18.8181 14.9814 18.49 15.33C18.3263 15.4949 18.1315 15.6257 17.917 15.715C17.7025 15.8042 17.4724 15.8501 17.24 15.85C17.0064 15.8501 16.7751 15.8032 16.56 15.712C16.3449 15.6209 16.1503 15.4873 15.9879 15.3193C15.8255 15.1514 15.6986 14.9524 15.6148 14.7343C15.531 14.5162 15.4919 14.2835 15.5 14.05V14C15.489 13.7662 15.5261 13.5327 15.609 13.3139C15.6919 13.0951 15.8188 12.8956 15.982 12.7278C16.1451 12.56 16.3409 12.4275 16.5573 12.3384ZM17.3314 13.7218C17.3021 13.7114 17.271 13.7074 17.24 13.71C17.15 13.71 17 13.84 17 14.02C17 14.2 17.04 14.37 17.24 14.37C17.3023 14.3728 17.3633 14.3513 17.41 14.31C17.4681 14.2402 17.4968 14.1506 17.49 14.06C17.49 13.88 17.41 13.77 17.41 13.77C17.3875 13.7486 17.3607 13.7321 17.3314 13.7218Z" fill="#001325" fill-opacity="0.92"/>
<path d="M11.07 20.94H11.13C11.3208 20.9356 11.5031 20.8606 11.6417 20.7294C11.7803 20.5982 11.8652 20.4202 11.88 20.23C11.8939 20.0315 11.8294 19.8355 11.7004 19.6841C11.5714 19.5327 11.3881 19.4378 11.19 19.42C9.88809 19.3043 8.64373 18.83 7.59514 18.0497C6.54655 17.2695 5.73478 16.2138 5.25 15C5.17441 14.8143 5.02817 14.6663 4.84345 14.5885C4.65872 14.5107 4.45065 14.5094 4.265 14.585C4.07935 14.6606 3.93133 14.8068 3.8535 14.9915C3.77567 15.1763 3.77441 15.3843 3.85 15.57C4.43242 17.0497 5.41732 18.3368 6.69328 19.2859C7.96923 20.2349 9.48531 20.8079 11.07 20.94Z" fill="#001325" fill-opacity="0.92"/>
<path d="M14 20.93H13.91C13.8125 20.9189 13.7183 20.8885 13.6326 20.8406C13.547 20.7927 13.4718 20.7283 13.4113 20.651C13.3508 20.5738 13.3063 20.4853 13.2803 20.3907C13.2543 20.2961 13.2474 20.1973 13.26 20.1C13.26 19.0391 13.6814 18.0217 14.4316 17.2716C15.1817 16.5214 16.1991 16.1 17.26 16.1C18.3209 16.1 19.3383 16.5214 20.0884 17.2716C20.8386 18.0217 21.26 19.0391 21.26 20.1C21.2842 20.2026 21.2864 20.3092 21.2666 20.4128C21.2468 20.5164 21.2053 20.6146 21.145 20.7011C21.0847 20.7875 21.0068 20.8603 20.9164 20.9147C20.826 20.969 20.7252 21.0036 20.6205 21.0164C20.5158 21.0291 20.4096 21.0196 20.3089 20.9885C20.2081 20.9575 20.115 20.9055 20.0357 20.836C19.9564 20.7665 19.8926 20.6811 19.8486 20.5853C19.8045 20.4895 19.7811 20.3854 19.78 20.28C19.6873 19.6835 19.3844 19.1398 18.9259 18.747C18.4675 18.3543 17.8837 18.1385 17.28 18.1385C16.6763 18.1385 16.0925 18.3543 15.6341 18.747C15.1756 19.1398 14.8727 19.6835 14.78 20.28C14.753 20.4655 14.6584 20.6344 14.5145 20.7544C14.3705 20.8743 14.1873 20.9369 14 20.93Z" fill="#001325" fill-opacity="0.92"/>
<path d="M3.41 12.53H3.5C3.68767 12.5364 3.87089 12.4721 4.01346 12.3499C4.15603 12.2277 4.24758 12.0564 4.27 11.87C4.36269 11.2735 4.66562 10.7298 5.12408 10.337C5.58255 9.94431 6.16633 9.72846 6.77 9.72846C7.37368 9.72846 7.95746 9.94431 8.41592 10.337C8.87438 10.7298 9.17731 11.2735 9.27 11.87C9.29387 12.0676 9.39525 12.2476 9.55185 12.3704C9.70844 12.4933 9.90741 12.5489 10.105 12.525C10.3026 12.5011 10.4826 12.3997 10.6054 12.2432C10.7283 12.0866 10.7839 11.8876 10.76 11.69C10.76 10.6291 10.3386 9.61172 9.58843 8.86158C8.83828 8.11143 7.82087 7.69 6.76 7.69C5.69914 7.69 4.68172 8.11143 3.93157 8.86158C3.18143 9.61172 2.76 10.6291 2.76 11.69C2.74739 11.7879 2.7542 11.8872 2.78006 11.9825C2.80592 12.0777 2.85031 12.1669 2.91069 12.2449C2.97107 12.3229 3.04626 12.3883 3.13194 12.4372C3.21762 12.4861 3.31211 12.5177 3.41 12.53Z" fill="#001325" fill-opacity="0.92"/>
</svg>
