<svg width="24" height="24" viewBox="0 0 24 24" fill="none" xmlns="http://www.w3.org/2000/svg">
<path fill-rule="evenodd" clip-rule="evenodd" d="M16.6 4.8H20C20.2652 4.8 20.5196 4.90536 20.7071 5.0929C20.8946 5.28043 21 5.53479 21 5.8V18.2C21 18.4652 20.8946 18.7196 20.7071 18.9071C20.5196 19.0946 20.2652 19.2 20 19.2H16.6C16.3348 19.2 16.0804 19.0946 15.8929 18.9071C15.7054 18.7196 15.6 18.4652 15.6 18.2V5.8C15.6 5.53479 15.7054 5.28043 15.8929 5.0929C16.0804 4.90536 16.3348 4.8 16.6 4.8ZM19.5 17.7V6.3H17.1V17.7H19.5Z" fill="#001325" fill-opacity="0.92"/>
<path fill-rule="evenodd" clip-rule="evenodd" d="M3.29289 5.2029C3.48043 5.01536 3.73478 4.91001 4 4.91001C4.2175 4.90202 4.43167 4.96522 4.61 5.09001L13.61 11.17C13.7461 11.2615 13.8577 11.385 13.9348 11.5298C14.0119 11.6745 14.0522 11.836 14.0522 12C14.0522 12.164 14.0119 12.3255 13.9348 12.4702C13.8577 12.615 13.7461 12.7385 13.61 12.83L4.56 18.91C4.40949 19.0117 4.23411 19.0706 4.05269 19.0801C3.87127 19.0897 3.69067 19.0497 3.53029 18.9643C3.36991 18.879 3.2358 18.7516 3.14238 18.5958C3.04895 18.44 2.99973 18.2617 3 18.08V5.91001C3 5.64479 3.10536 5.39044 3.29289 5.2029ZM12.15 12L4.5 6.85001V17.15L12.15 12Z" fill="#001325" fill-opacity="0.92"/>
</svg>
