<svg width="24" height="24" viewBox="0 0 24 24" fill="none" xmlns="http://www.w3.org/2000/svg">
<path fill-rule="evenodd" clip-rule="evenodd" d="M19.4392 15.0367L20.5 17.1153V17.4271C20.5 17.8428 20.0757 18.2585 19.5452 18.2585H4.16303C3.63261 18.0507 3.42044 17.635 3.52652 17.1153L4.58736 15.0367V10.3599C4.58736 7.03412 6.92122 4.12409 10.2098 3.29265C10.422 2.66907 10.8463 2.25335 11.4828 2.04549C12.4376 1.83764 13.4984 2.35728 13.8167 3.29265C17.1053 4.33195 19.4392 7.24198 19.4392 10.6717V15.0367ZM6.07254 15.6603L5.54212 16.6996L18.5905 16.5957L18.0601 15.5564C17.954 15.3485 17.954 15.1406 17.954 14.9328V10.5677C17.954 7.44984 15.514 4.8516 12.3315 4.53981H12.1193C8.83073 4.53981 6.28471 7.13805 6.28471 10.2559V14.9328C6.28471 15.2446 6.17863 15.4524 6.07254 15.6603Z" fill="#001325" fill-opacity="0.92"/>
<path d="M9.89157 19.9214C9.89157 19.8175 9.99765 19.7135 10.1037 19.7135H13.9228C14.0289 19.7135 14.1349 19.8175 14.1349 19.9214C14.1349 21.0646 13.1802 22 12.0133 22C10.8463 22 9.89157 21.0646 9.89157 19.9214Z" fill="#001325" fill-opacity="0.92"/>
</svg>
