<svg width="24" height="24" viewBox="0 0 24 24" fill="none" xmlns="http://www.w3.org/2000/svg">
<path d="M16.901 4.76918C17.4191 3.74508 15.7351 4.03913 15.7351 4.03913C15.1273 4.03913 14.8583 4.78946 14.7287 5.00239L12.9053 8.6628C12.5565 9.26104 11.4305 11.8568 11.0519 12.4348C11.022 11.8568 11.0519 10.6806 11.0718 10.4068C11.1416 9.3016 11.2213 8.47015 11.3309 7.44605C11.4206 6.66529 11.58 5.77301 11.4206 4.99225C11.3209 4.50555 11.1615 4.46499 10.4739 4.39401C9.75651 4.32304 9.25829 5.3877 9.02911 5.88454C8.15224 7.72996 7.17573 9.54495 6.39851 11.4309C6.16933 11.9785 5.88036 12.5361 5.65118 13.0837C5.37218 13.7428 5.1131 14.3917 4.8042 15.0406C4.48534 15.7301 3.47894 17.9507 3.18997 18.6504C2.88108 19.4108 2.81133 20.0293 4.06684 19.9989C4.25616 19.9888 4.70456 20.0395 5.24264 19.4514C5.66114 18.985 5.75082 18.549 5.99993 17.9C6.89673 15.6085 7.52448 14.0875 8.50099 11.8162C8.60064 11.5932 8.81985 10.9544 9.03907 10.4474C9.02911 11.1572 8.90953 12.0089 8.86968 12.5767C8.71025 14.6351 8.59067 16.6224 8.42128 18.6605C8.40135 18.9343 8.3316 19.2587 8.45117 19.5224C8.58071 19.7759 8.87964 19.8468 9.13872 19.8772C10.1451 19.9989 10.2448 19.4919 10.5537 18.7923C10.8327 18.1636 11.0021 17.6567 11.2512 17.028C12.0184 15.0609 12.8355 13.1141 13.7323 11.2079C13.9615 10.7212 14.1907 10.2344 14.4398 9.75789C14.8981 8.87574 15.2768 8.04429 15.775 7.07088C16.1437 6.33069 16.5124 5.53979 16.901 4.76918Z" fill="#001325" fill-opacity="0.92"/>
<path d="M17.2507 19L14.559 16.2916C14.1816 15.9104 13.973 15.3788 14.0028 14.8371C14.0227 14.2954 14.271 13.7839 14.6882 13.4328C15.4232 12.8209 16.5257 12.861 17.2507 13.5331C17.9758 12.861 19.0882 12.8209 19.8133 13.4328C20.2305 13.7839 20.4788 14.2954 20.4986 14.8271C20.5185 15.3688 20.3199 15.9004 19.9424 16.2816L17.2507 19ZM17.2309 17.1543L19.0088 15.3688C19.1379 15.2384 19.1975 15.0779 19.1876 14.8973C19.1776 14.7167 19.0982 14.5563 18.9591 14.4359C18.7207 14.2353 18.3234 14.2754 18.0751 14.5262L17.2309 15.3788L16.3866 14.5262C16.1383 14.2754 15.741 14.2353 15.5026 14.4359C15.3636 14.5563 15.2841 14.7167 15.2742 14.8973C15.2642 15.0779 15.3338 15.2484 15.453 15.3688L17.2309 17.1543Z" fill="#001325" fill-opacity="0.92"/>
</svg>
