<svg width="24" height="24" viewBox="0 0 24 24" fill="none" xmlns="http://www.w3.org/2000/svg">
<path d="M11.23 21.23C11.23 21.66 11.58 22 12 22C17.51 22 22 17.51 22 12C22 6.49 17.51 2 12 2C6.49 2 2 6.49 2 12C2 14.03 2.61 15.99 3.75 17.66C4 18.01 4.47 18.1 4.82 17.86C5.17 17.62 5.26 17.14 5.02 16.79C4.05 15.38 3.54 13.72 3.54 12C3.54 7.33 7.33 3.54 12 3.54C16.67 3.54 20.46 7.34 20.46 12C20.46 16.66 16.67 20.46 12 20.46C11.57 20.46 11.23 20.81 11.23 21.23Z" fill="#001325" fill-opacity="0.92"/>
<path d="M8.81 21.46C8.88 21.49 8.96 21.5 9.04 21.5C9.36 21.5 9.67 21.29 9.77 20.97C9.9 20.56 9.67 20.13 9.27 20C8.36 19.71 7.75 19.3 6.99 18.69C6.66 18.43 6.18 18.48 5.91 18.81C5.65 19.14 5.7 19.62 6.03 19.89C6.9 20.59 7.68 21.1 8.81 21.46Z" fill="#001325" fill-opacity="0.92"/>
<path d="M12.2767 7.34794L10.9632 14.6745C10.9344 14.8331 10.9367 14.9596 10.9983 15.0439C11.0244 15.0877 11.0472 15.1221 11.076 15.1437C11.0816 15.1463 11.0902 15.1508 11.1019 15.1569C11.1443 15.179 11.2266 15.2218 11.344 15.2717C11.5415 15.3504 11.6198 15.4818 11.5788 15.666C11.5556 15.7803 11.4874 15.8574 11.3648 15.9007C11.28 15.9307 11.1441 15.9363 10.9632 15.9048L10.7474 15.8644L7.96149 15.3642L7.81226 15.3321C7.66303 15.3 7.55152 15.2546 7.48381 15.1831C7.4161 15.1115 7.38611 15.0267 7.40326 14.9252C7.43813 14.7538 7.5407 14.6539 7.71431 14.6349L7.7676 14.6281C7.87907 14.6137 7.95031 14.6045 7.96668 14.5988C7.98554 14.5921 8.01992 14.5693 8.05097 14.5371C8.1164 14.4822 8.15574 14.3834 8.18784 14.2342L9.30877 7.98333C9.33145 7.83743 9.3325 7.72039 9.28699 7.65163C9.27365 7.61392 9.2509 7.57954 9.22538 7.56734C9.20928 7.55182 9.12938 7.50582 8.99844 7.43543C8.84198 7.35285 8.77647 7.22752 8.81133 7.0561C8.82848 6.95458 8.88724 6.88078 8.9782 6.83803C9.06915 6.79527 9.19562 6.793 9.34151 6.81567L12.2767 7.34794Z" fill="#001325" fill-opacity="0.92"/>
<path d="M11.8637 12.691L11.9782 12.0248C12.1646 12.0119 12.2971 11.9969 12.382 11.9669C12.4668 11.9369 12.5384 11.8692 12.616 11.7887C12.7335 11.6411 12.8089 11.4342 12.8609 11.1612L13.2172 9.16858C13.2548 8.97497 13.2647 8.82298 13.2503 8.72203C13.2358 8.62108 13.1991 8.51737 13.1248 8.42699C13.0243 8.2928 12.88 8.1847 12.6764 8.11878L12.797 7.43977C13.6569 7.59192 14.2677 7.78967 14.6483 8.02635C15.0833 8.29684 15.4091 8.64837 15.6068 9.0876C15.8172 9.53293 15.8707 10.0443 15.7639 10.6124C15.6522 11.2565 15.4144 11.7541 15.0635 12.1115C14.7092 12.4595 14.2611 12.6921 13.7125 12.7905C13.271 12.8618 12.6475 12.8382 11.8637 12.691Z" fill="#001325" fill-opacity="0.92"/>
<path d="M16.4113 14.4244L16.0569 13.1815L15.2974 14.2136L14.0282 14.1637L14.7714 15.2162L14.341 16.429L15.5517 16.0434L16.5655 16.8412L16.5677 15.5571L17.6269 14.8327L16.4113 14.4244Z" fill="#001325" fill-opacity="0.92"/>
</svg>
