<svg width="24" height="24" viewBox="0 0 24 24" fill="none" xmlns="http://www.w3.org/2000/svg">
<path d="M20.8182 12.8243V12.7644C20.7046 12.5185 20.6458 12.2509 20.6458 11.98C20.6458 11.7091 20.7046 11.4415 20.8182 11.1957C20.9977 10.8272 21.0461 10.4084 20.9553 10.0086C20.8646 9.60884 20.6401 9.25211 20.3192 8.99752H20.2493C20.0431 8.82563 19.8753 8.61229 19.7566 8.37132C19.638 8.13035 19.5713 7.86713 19.5607 7.59869V7.4688C19.5519 7.07694 19.4141 6.69896 19.1687 6.3936C18.9232 6.08824 18.5839 5.87261 18.2035 5.78022H18.0538C17.7995 5.71665 17.5614 5.60015 17.355 5.43833C17.1487 5.27651 16.9787 5.07298 16.8562 4.84101L16.7863 4.71112C16.6056 4.3719 16.321 4.09961 15.9744 3.93417C15.6277 3.76874 15.2372 3.71887 14.8602 3.79189H14.6606C14.4082 3.84097 14.1483 3.83701 13.8975 3.78025C13.6467 3.72349 13.4104 3.61517 13.2036 3.46217L13.0539 3.35226C12.7447 3.12347 12.3705 3 11.986 3C11.6016 3 11.2273 3.12347 10.9182 3.35226L10.7685 3.46217C10.5618 3.61938 10.3242 3.73094 10.0714 3.78949C9.81849 3.84805 9.55609 3.85227 9.30147 3.80188H9.11186C8.73373 3.72972 8.34246 3.78107 7.99569 3.94836C7.64892 4.11565 7.365 4.39005 7.18575 4.7311L7.1159 4.851C6.99948 5.09375 6.83229 5.30861 6.62566 5.481C6.41904 5.65339 6.1778 5.77929 5.91832 5.85016H5.76862C5.3892 5.94641 5.05186 6.16476 4.80845 6.47164C4.56504 6.77852 4.42904 7.15694 4.42135 7.54874V7.62867C4.41168 7.893 4.34516 8.15213 4.22632 8.38836C4.10748 8.6246 3.93912 8.83238 3.73274 8.99752H3.66288C3.35723 9.25002 3.14354 9.59661 3.0551 9.98334C2.96665 10.3701 3.00841 10.7752 3.17387 11.1357V11.1957C3.28745 11.4415 3.34627 11.7091 3.34627 11.98C3.34627 12.2509 3.28745 12.5185 3.17387 12.7644V12.8243C3.00021 13.189 2.955 13.6018 3.04561 13.9955C3.13622 14.3892 3.35731 14.7406 3.67286 14.9925L3.74272 15.0524C3.94893 15.2243 4.11678 15.4377 4.2354 15.6786C4.35403 15.9196 4.42078 16.1828 4.43133 16.4513V16.5312C4.44009 16.9231 4.57791 17.301 4.82335 17.6064C5.06879 17.9118 5.40812 18.1274 5.78858 18.2198H5.93828C6.19258 18.2834 6.43065 18.3998 6.63699 18.5617C6.84333 18.7235 7.01331 18.927 7.13586 19.159L7.20571 19.2889C7.3882 19.6289 7.67456 19.9016 8.02291 20.0669C8.37127 20.2323 8.76335 20.2818 9.1418 20.2081H9.33141C9.58384 20.159 9.84371 20.163 10.0945 20.2198C10.3453 20.2765 10.5817 20.3848 10.7885 20.5378L10.9382 20.6477C11.2473 20.8765 11.6216 21 12.006 21C12.3904 21 12.7647 20.8765 13.0738 20.6477L13.2235 20.5378C13.4302 20.3806 13.6678 20.2691 13.9207 20.2105C14.1735 20.1519 14.4359 20.1477 14.6906 20.1981H14.8802C15.2583 20.2703 15.6496 20.2189 15.9963 20.0516C16.3431 19.8843 16.627 19.61 16.8063 19.2689L16.8761 19.149C16.9926 18.9062 17.1597 18.6914 17.3664 18.519C17.573 18.3466 17.8142 18.2207 18.0737 18.1498H18.2234C18.6028 18.0536 18.9402 17.8352 19.1836 17.5284C19.427 17.2215 19.563 16.8431 19.5707 16.4513V16.3713C19.5748 16.1027 19.6378 15.8382 19.755 15.5965C19.8722 15.3549 20.041 15.1419 20.2493 14.9725L20.3192 14.9126C20.6156 14.6645 20.8242 14.3273 20.9141 13.9512C21.004 13.575 20.9703 13.1798 20.8182 12.8243ZM9.75056 7.49878C9.99532 7.49878 10.2346 7.57144 10.4381 7.70758C10.6416 7.84372 10.8002 8.03722 10.8939 8.26361C10.9875 8.49 11.012 8.73911 10.9643 8.97945C10.9165 9.21978 10.7987 9.44054 10.6256 9.61382C10.4525 9.78709 10.232 9.90509 9.99199 9.95289C9.75194 10.0007 9.50312 9.97616 9.27699 9.88239C9.05087 9.78861 8.8576 9.62981 8.72162 9.42607C8.58565 9.22232 8.51307 8.98278 8.51307 8.73774C8.51307 8.40915 8.64345 8.09401 8.87552 7.86166C9.1076 7.62931 9.42236 7.49878 9.75056 7.49878ZM14.2415 16.4912C13.9967 16.4912 13.7575 16.4186 13.554 16.2824C13.3505 16.1463 13.1918 15.9528 13.0982 15.7264C13.0045 15.5 12.98 15.2509 13.0278 15.0106C13.0755 14.7702 13.1934 14.5495 13.3664 14.3762C13.5395 14.2029 13.76 14.0849 14.0001 14.0371C14.2401 13.9893 14.4889 14.0138 14.715 14.1076C14.9412 14.2014 15.1344 14.3602 15.2704 14.5639C15.4064 14.7677 15.479 15.0072 15.479 15.2523C15.479 15.5809 15.3486 15.896 15.1165 16.1283C14.8844 16.3607 14.5697 16.4912 14.2415 16.4912ZM15.439 9.42716L9.39129 15.4221C9.27745 15.5288 9.12806 15.5894 8.97214 15.592C8.89224 15.5922 8.81311 15.5764 8.73941 15.5455C8.66572 15.5146 8.59893 15.4693 8.54301 15.4121C8.48749 15.3573 8.4434 15.292 8.41331 15.2199C8.38322 15.1479 8.36773 15.0706 8.36773 14.9925C8.36773 14.9144 8.38322 14.8371 8.41331 14.7651C8.4434 14.693 8.48749 14.6277 8.54301 14.5728L14.5908 8.57787C14.6464 8.52198 14.7125 8.47764 14.7853 8.44738C14.8581 8.41712 14.9361 8.40155 15.0149 8.40155C15.0937 8.40155 15.1718 8.41712 15.2445 8.44738C15.3173 8.47764 15.3834 8.52198 15.439 8.57787C15.4961 8.63287 15.5415 8.69882 15.5725 8.77179C15.6035 8.84475 15.6194 8.92323 15.6194 9.00252C15.6194 9.08181 15.6035 9.16028 15.5725 9.23324C15.5415 9.30621 15.4961 9.37216 15.439 9.42716Z" fill="#001325" fill-opacity="0.92"/>
</svg>
