<svg width="24" height="24" viewBox="0 0 24 24" fill="none" xmlns="http://www.w3.org/2000/svg">
<path d="M8.4477 15.52C8.58779 15.67 8.78792 15.74 8.97804 15.74C9.16817 15.74 9.35829 15.67 9.50839 15.52L15.5723 9.54C15.8625 9.25 15.8625 8.78 15.5723 8.49C15.2821 8.19 14.8018 8.19 14.5116 8.48L8.4477 14.46C8.15751 14.75 8.15751 15.22 8.4477 15.52Z" fill="#001325" fill-opacity="0.92"/>
<path d="M9.75855 9.98C10.4438 9.98 10.9994 9.42483 10.9994 8.74C10.9994 8.05517 10.4438 7.5 9.75855 7.5C9.07327 7.5 8.51775 8.05517 8.51775 8.74C8.51775 9.42483 9.07327 9.98 9.75855 9.98Z" fill="#001325" fill-opacity="0.92"/>
<path d="M15.5023 15.26C15.5023 15.9448 14.9467 16.5 14.2615 16.5C13.5762 16.5 13.0207 15.9448 13.0207 15.26C13.0207 14.5752 13.5762 14.02 14.2615 14.02C14.9467 14.02 15.5023 14.5752 15.5023 15.26Z" fill="#001325" fill-opacity="0.92"/>
<path fill-rule="evenodd" clip-rule="evenodd" d="M10.9293 3.35C11.2495 3.12 11.6198 3 12 3C12.3702 3 12.7505 3.12 13.0707 3.35L13.2108 3.47C13.541 3.7 13.9313 3.83 14.3215 3.83C14.4416 3.83 14.5617 3.81 14.6817 3.79L14.8719 3.75C14.9919 3.73 15.102 3.72 15.2221 3.72C15.8825 3.72 16.4929 4.08 16.8131 4.68L16.8832 4.8C17.1333 5.27 17.5636 5.61 18.0839 5.74L18.234 5.78C19.0145 5.97 19.5749 6.66 19.5949 7.47V7.55C19.6149 8.1 19.8651 8.61 20.2854 8.95L20.3454 8.99C20.9758 9.51 21.176 10.39 20.8357 11.13L20.8057 11.19C20.5756 11.69 20.5756 12.26 20.8057 12.76L20.8357 12.82C21.176 13.56 20.9758 14.44 20.3454 14.96L20.2754 15.02C19.8551 15.37 19.6049 15.88 19.5949 16.42V16.5C19.5749 17.31 19.0145 18 18.234 18.2L18.0839 18.24C17.5636 18.37 17.1333 18.72 16.8832 19.19L16.8231 19.31C16.5129 19.91 15.8925 20.27 15.2321 20.27C15.122 20.27 15.0019 20.26 14.8919 20.24L14.7018 20.2C14.5817 20.18 14.4616 20.17 14.3415 20.17C13.9413 20.17 13.551 20.3 13.2308 20.54L13.0807 20.65C12.7605 20.88 12.3903 21 12.01 21C11.6298 21 11.2595 20.88 10.9393 20.65L10.7892 20.54C10.459 20.31 10.0687 20.18 9.6785 20.18C9.55842 20.18 9.43834 20.2 9.31826 20.22L9.12814 20.26C9.00806 20.28 8.89799 20.29 8.77791 20.29C8.11748 20.29 7.50709 19.93 7.18688 19.33L7.12684 19.21C6.87668 18.74 6.4464 18.4 5.92606 18.27L5.77596 18.23C4.99546 18.04 4.43509 17.35 4.41508 16.54V16.46C4.39507 15.91 4.14491 15.4 3.72463 15.06L3.65459 15C3.02418 14.48 2.82405 13.6 3.16427 12.86L3.19429 12.8C3.42444 12.3 3.42444 11.73 3.19429 11.23L3.16427 11.17C2.82405 10.43 3.02418 9.55 3.65459 9.03L3.72463 8.97C4.14491 8.62 4.39507 8.11 4.40508 7.57V7.49C4.42509 6.68 4.98545 5.99 5.76596 5.79L5.91605 5.76C6.43639 5.63 6.86667 5.28 7.11683 4.81L7.18688 4.69C7.49708 4.09 8.11748 3.73 8.77791 3.73C8.88798 3.73 9.00806 3.74 9.11813 3.76L9.30826 3.8C9.42833 3.82 9.54841 3.83 9.66849 3.83C10.0587 3.83 10.449 3.7 10.7792 3.46L10.9293 3.35ZM12.1801 4.56C12.1101 4.51 12.04 4.5 12 4.5C11.95 4.5 11.8899 4.51 11.8199 4.58L11.6698 4.69C11.0994 5.12 10.389 5.35 9.66849 5.35C9.45835 5.35 9.23821 5.33 9.02807 5.29L8.83795 5.25C8.81794 5.24 8.79792 5.24 8.77791 5.24C8.66784 5.24 8.56778 5.3 8.51774 5.4L8.4577 5.52C8.01742 6.37 7.22691 6.99 6.2963 7.22L6.1462 7.26C6.02613 7.29 5.92606 7.41 5.92606 7.54V7.62C5.89604 8.6 5.44575 9.52 4.69526 10.14L4.62522 10.2C4.52515 10.28 4.48513 10.43 4.54517 10.55L4.57519 10.61C4.98545 11.5 4.98545 12.53 4.57519 13.43L4.54517 13.49C4.48513 13.61 4.52515 13.75 4.62522 13.84L4.69526 13.9C5.44575 14.52 5.89604 15.43 5.92606 16.41V16.49C5.93607 16.62 6.02613 16.74 6.15621 16.77L6.30631 16.81C7.23691 17.05 8.02743 17.66 8.47772 18.51L8.53776 18.63C8.58779 18.73 8.68785 18.79 8.79792 18.79C8.80793 18.79 8.81794 18.7875 8.82794 18.785C8.83794 18.7825 8.84796 18.78 8.85796 18.78L9.0681 18.72C9.27824 18.68 9.49838 18.66 9.71852 18.66C10.439 18.66 11.1294 18.88 11.7098 19.31L11.8599 19.42C11.93 19.47 12 19.48 12.04 19.48C12.0901 19.48 12.1501 19.47 12.2201 19.42L12.3702 19.31C12.9406 18.88 13.6511 18.65 14.3715 18.65C14.5817 18.65 14.8018 18.67 15.012 18.71L15.2021 18.75C15.2221 18.76 15.2421 18.76 15.2621 18.76C15.3722 18.76 15.4723 18.7 15.5223 18.6L15.5823 18.48C16.0226 17.63 16.8131 17.01 17.7437 16.78L17.8938 16.74C18.0139 16.71 18.114 16.59 18.114 16.46V16.38C18.144 15.4 18.5943 14.48 19.3448 13.86L19.4148 13.8C19.5149 13.72 19.5549 13.57 19.4949 13.45L19.4648 13.39C19.0546 12.5 19.0546 11.47 19.4648 10.57L19.4949 10.51C19.5549 10.39 19.5149 10.25 19.4148 10.16L19.3448 10.1C18.5943 9.48 18.144 8.57 18.114 7.59V7.51C18.104 7.38 18.0139 7.26 17.8838 7.23L17.7337 7.19C16.8031 6.95 16.0126 6.34 15.5623 5.49L15.4923 5.37C15.4422 5.27 15.3422 5.21 15.2321 5.21C15.2221 5.21 15.2121 5.2125 15.2021 5.215C15.1921 5.2175 15.1821 5.22 15.1721 5.22L14.9819 5.26C14.7718 5.3 14.5517 5.32 14.3315 5.32C13.601 5.32 12.9106 5.1 12.3302 4.67L12.1801 4.56Z" fill="#001325" fill-opacity="0.92"/>
</svg>
