<svg width="24" height="24" viewBox="0 0 24 24" fill="none" xmlns="http://www.w3.org/2000/svg">
<path d="M20.7429 10.0051L14.0132 3.29442C13.8233 3.10686 13.567 3.00112 13.2995 3C13.0355 3.00376 12.7833 3.1093 12.5959 3.29442L9.77148 8.92893L5.85602 10.0051C5.67224 10.1944 5.56951 10.4474 5.56951 10.7107C5.56951 10.9739 5.67224 11.2269 5.85602 11.4162L8.70085 14.2386L3.19474 19.7513C3.06933 19.8909 3 20.0716 3 20.2589C3 20.4462 3.06933 20.6269 3.19474 20.7665C3.26448 20.8395 3.34827 20.8978 3.44111 20.9379C3.53395 20.978 3.63395 20.9992 3.73515 21C3.9169 20.9786 4.08592 20.8963 4.21439 20.7665L9.75109 15.2843L12.5653 18.0863C12.7527 18.2714 13.0049 18.377 13.2689 18.3807C13.5364 18.3796 13.7927 18.2739 13.9826 18.0863L15.0533 14.198L20.7123 11.3858C20.8914 11.2019 20.9941 10.9575 20.9998 10.7014C21.0054 10.4454 20.9137 10.1966 20.7429 10.0051ZM14.4109 12.8579C14.2193 12.9547 14.0504 13.0906 13.9151 13.2568C13.7799 13.423 13.6813 13.6157 13.6258 13.8223L12.9324 16.2995L10.8931 14.269L9.87345 13.2538L7.6812 11.0812L10.1793 10.401C10.3863 10.3411 10.5785 10.2388 10.7435 10.1007C10.9086 9.96255 11.0429 9.79169 11.1378 9.59899L13.483 4.91878L19.1115 10.5127L14.4109 12.8579Z" fill="#001325" fill-opacity="0.92"/>
</svg>
