<svg width="24" height="24" viewBox="0 0 24 24" fill="none" xmlns="http://www.w3.org/2000/svg">
<path fill-rule="evenodd" clip-rule="evenodd" d="M4 4.79999H7.4C7.66522 4.79999 7.91957 4.90534 8.10711 5.09288C8.29464 5.28042 8.4 5.53477 8.4 5.79999V18.2C8.4 18.4652 8.29464 18.7196 8.10711 18.9071C7.91957 19.0946 7.66522 19.2 7.4 19.2H4C3.73478 19.2 3.48043 19.0946 3.29289 18.9071C3.10536 18.7196 3 18.4652 3 18.2V5.79999C3 5.53477 3.10536 5.28042 3.29289 5.09288C3.48043 4.90534 3.73478 4.79999 4 4.79999ZM6.9 17.7V6.29999H4.5V17.7H6.9Z" fill="#001325" fill-opacity="0.92"/>
<path fill-rule="evenodd" clip-rule="evenodd" d="M19.44 5.09C19.6044 4.97522 19.7995 4.91251 20 4.91V4.92C20.2652 4.92 20.5196 5.02536 20.7071 5.2129C20.8947 5.40043 21 5.65479 21 5.92V18.08C20.9948 18.254 20.9443 18.4235 20.8535 18.572C20.7626 18.7204 20.6347 18.8426 20.4822 18.9264C20.3296 19.0103 20.1579 19.0528 19.9839 19.05C19.8099 19.0471 19.6397 18.9988 19.49 18.91L10.44 12.83C10.3039 12.7385 10.1923 12.615 10.1152 12.4702C10.0381 12.3255 9.99777 12.164 9.99777 12C9.99777 11.836 10.0381 11.6745 10.1152 11.5298C10.1923 11.385 10.3039 11.2615 10.44 11.17L19.44 5.09ZM11.85 12L19.5 17.15V6.85L11.85 12Z" fill="#001325" fill-opacity="0.92"/>
</svg>
