<svg width="24" height="24" viewBox="0 0 24 24" fill="none" xmlns="http://www.w3.org/2000/svg">
<path d="M9.13395 15.2624C9.50799 15.2624 9.8112 14.9563 9.8112 14.5787C9.8112 14.2011 9.50799 13.895 9.13395 13.895C8.75992 13.895 8.4567 14.2011 8.4567 14.5787C8.4567 14.9563 8.75992 15.2624 9.13395 15.2624Z" fill="#001325" fill-opacity="0.92"/>
<path d="M9.8112 17.4323C9.8112 17.8099 9.50799 18.116 9.13395 18.116C8.75992 18.116 8.4567 17.8099 8.4567 17.4323C8.4567 17.0547 8.75992 16.7486 9.13395 16.7486C9.50799 16.7486 9.8112 17.0547 9.8112 17.4323Z" fill="#001325" fill-opacity="0.92"/>
<path d="M14.6894 15.1732H11.4307C11.2745 15.1732 11.1247 15.1106 11.0143 14.9991C10.9039 14.8876 10.8418 14.7364 10.8418 14.5787C10.8418 14.421 10.9039 14.2698 11.0143 14.1583C11.1247 14.0469 11.2745 13.9842 11.4307 13.9842H14.6894C14.7663 13.9842 14.8424 13.9996 14.9133 14.0296C14.9842 14.0596 15.0485 14.1036 15.1024 14.1589C15.1563 14.2143 15.1987 14.2799 15.2272 14.352C15.2558 14.424 15.2698 14.5011 15.2685 14.5787C15.2698 14.6563 15.2558 14.7334 15.2272 14.8055C15.1987 14.8775 15.1563 14.9432 15.1024 14.9985C15.0485 15.0538 14.9842 15.0978 14.9133 15.1278C14.8424 15.1578 14.7663 15.1732 14.6894 15.1732Z" fill="#001325" fill-opacity="0.92"/>
<path d="M11.4307 18.0268H14.6894C14.8456 18.0268 14.9954 17.9641 15.1058 17.8527C15.2162 17.7412 15.2783 17.59 15.2783 17.4323C15.2783 17.2746 15.2162 17.1234 15.1058 17.0119C14.9954 16.9004 14.8456 16.8378 14.6894 16.8378H11.4307C11.2745 16.8378 11.1247 16.9004 11.0143 17.0119C10.9039 17.1234 10.8418 17.2746 10.8418 17.4323C10.8418 17.59 10.9039 17.7412 11.0143 17.8527C11.1247 17.9641 11.2745 18.0268 11.4307 18.0268Z" fill="#001325" fill-opacity="0.92"/>
<path fill-rule="evenodd" clip-rule="evenodd" d="M18.2327 10.0507H16.78V7.32589C16.8228 6.12118 16.4498 4.93887 15.7247 3.98103C14.9997 3.02319 13.9676 2.34929 12.8048 2.07453C12.1062 1.94611 11.3875 1.98404 10.7059 2.18529C10.0244 2.38653 9.39873 2.74555 8.87876 3.23379C8.34988 3.73124 7.9293 4.3343 7.64373 5.00467C7.35817 5.67503 7.21386 6.39803 7.21999 7.12773V10.1002H5.76734C5.16601 10.1002 4.58931 10.3413 4.1641 10.7706C3.7389 11.1998 3.50002 11.782 3.50002 12.389V19.7112C3.49872 20.0121 3.55648 20.3103 3.66996 20.5886C3.78345 20.8669 3.95041 21.1197 4.16121 21.3325C4.37201 21.5453 4.62247 21.7139 4.89814 21.8284C5.17381 21.943 5.46923 22.0013 5.76734 22H18.2327C18.5308 22.0013 18.8262 21.943 19.1019 21.8284C19.3775 21.7139 19.628 21.5453 19.8388 21.3325C20.0496 21.1197 20.2166 20.8669 20.33 20.5886C20.4435 20.3103 20.5013 20.0121 20.5 19.7112V12.3395C20.5 11.7324 20.2611 11.1503 19.8359 10.721C19.4107 10.2918 18.834 10.0507 18.2327 10.0507ZM8.69227 7.07818C8.69388 6.56451 8.80014 6.05666 9.00445 5.58621C9.20877 5.11575 9.50676 4.69276 9.87991 4.34351C10.2339 4.01192 10.6592 3.76775 11.1224 3.63021C11.5857 3.49267 12.0742 3.4655 12.5497 3.55085C13.3711 3.76068 14.095 4.25165 14.598 4.94005C15.101 5.62846 15.3518 6.47166 15.3077 7.32589V10.0507H8.69227V7.07818ZM19.0277 19.6616C19.0277 19.8745 18.9439 20.0786 18.7948 20.2291C18.6457 20.3796 18.4435 20.4642 18.2327 20.4642H5.76734C5.55648 20.4642 5.35426 20.3796 5.20516 20.2291C5.05607 20.0786 4.9723 19.8745 4.9723 19.6616V12.3395C4.9723 12.1266 5.05607 11.9225 5.20516 11.772C5.35426 11.6214 5.55648 11.5369 5.76734 11.5369H18.2327C18.4435 11.5369 18.6457 11.6214 18.7948 11.772C18.9439 11.9225 19.0277 12.1266 19.0277 12.3395V19.6616Z" fill="#001325" fill-opacity="0.92"/>
</svg>
