<svg width="24" height="24" viewBox="0 0 24 24" fill="none" xmlns="http://www.w3.org/2000/svg">
<path d="M12.8455 10.7641H14.3633C14.587 10.7641 14.8014 10.8486 14.9596 10.9992C15.1177 11.1497 15.2065 11.3539 15.2065 11.5668C15.2065 11.7798 15.1177 11.9839 14.9596 12.1345C14.8014 12.285 14.587 12.3696 14.3633 12.3696H12.9018V13.7611C12.9018 13.974 12.8129 14.1782 12.6548 14.3288C12.4967 14.4793 12.2822 14.5639 12.0586 14.5639C11.8349 14.5639 11.6204 14.4793 11.4623 14.3288C11.3042 14.1782 11.2153 13.974 11.2153 13.7611V12.3696H9.75379C9.53016 12.3696 9.31568 12.285 9.15755 12.1345C8.99942 11.9839 8.91058 11.7798 8.91058 11.5668C8.91058 11.3539 8.99942 11.1497 9.15755 10.9992C9.31568 10.8486 9.53016 10.7641 9.75379 10.7641H11.1591V9.37255C11.1591 9.15964 11.248 8.95545 11.4061 8.8049C11.5642 8.65435 11.7787 8.56977 12.0023 8.56977C12.226 8.56977 12.4404 8.65435 12.5986 8.8049C12.7567 8.95545 12.8455 9.15964 12.8455 9.37255V10.7641Z" fill="#001325" fill-opacity="0.92"/>
<path fill-rule="evenodd" clip-rule="evenodd" d="M20.9965 11.4384V11.6525C21.0633 14.0263 20.1606 16.3323 18.4782 18.0855C18.3095 18.2567 18.1296 18.4066 17.9498 18.5564L19.4788 20.162C19.6267 20.3207 19.7036 20.5282 19.6931 20.7402C19.6826 20.9522 19.5855 21.1518 19.4226 21.2966C19.2638 21.4286 19.0599 21.5009 18.8492 21.5C18.733 21.5007 18.6179 21.4781 18.5114 21.4339C18.4049 21.3896 18.3093 21.3247 18.2308 21.2431L16.5669 19.4984C15.1728 20.243 13.6009 20.6337 12.0023 20.633C10.7883 20.634 9.58667 20.4011 8.46976 19.9482C7.35285 19.4952 6.3438 18.8317 5.50341 17.9976C4.66303 17.1635 4.0087 16.1761 3.57986 15.0948C3.15101 14.0135 2.95653 12.8607 3.00813 11.706V11.4812C3.00813 6.28985 6.77445 2.5007 12.0023 2.5007C13.1969 2.48607 14.3823 2.70133 15.4874 3.13357C16.5925 3.56582 17.5944 4.20613 18.4332 5.0161C20.1333 6.75748 21.0529 9.06153 20.9965 11.4384ZM14.9989 15.9016C15.2095 15.9031 15.4119 15.9795 15.5663 16.116L16.8255 17.4432L17.2639 17.0472C18.6653 15.5906 19.4119 13.6695 19.3439 11.6953V11.4812C19.4088 9.50551 18.6581 7.58423 17.2527 6.12929C16.5687 5.47134 15.7519 4.95197 14.8515 4.60246C13.9512 4.25295 12.9858 4.08052 12.0136 4.09557C7.69636 4.10627 4.69454 7.18897 4.69454 11.4705V11.6953C4.64908 12.6376 4.80414 13.579 5.15041 14.4629C5.49669 15.3468 6.02703 16.1549 6.70959 16.8387C7.39215 17.5225 8.21284 18.068 9.12237 18.4423C10.0319 18.8165 11.0115 19.0119 12.0023 19.0167C13.1737 19.0192 14.3292 18.7588 15.3752 18.2567L14.3183 17.1863C14.1919 17.026 14.133 16.8264 14.1534 16.6268C14.1737 16.4272 14.2718 16.2421 14.4283 16.1079C14.5847 15.9737 14.7883 15.9001 14.9989 15.9016Z" fill="#001325" fill-opacity="0.92"/>
</svg>
