<svg width="24" height="24" viewBox="0 0 24 24" fill="none" xmlns="http://www.w3.org/2000/svg">
<path d="M19.44 15C19.3636 15.0095 19.2864 15.0095 19.21 15C19.0223 14.9382 18.8666 14.8048 18.7767 14.6287C18.6868 14.4527 18.67 14.2483 18.73 14.06C19.1935 12.6508 19.2293 11.1358 18.8328 9.70628C18.4364 8.27674 17.6254 6.99664 16.5022 6.02749C15.379 5.05835 13.9939 4.44356 12.5217 4.2607C11.0495 4.07784 9.55616 4.33509 8.23 5.00001C8.05231 5.09018 7.84607 5.10607 7.65666 5.04419C7.46725 4.9823 7.31018 4.8477 7.22001 4.67001C7.12983 4.49231 7.11394 4.28607 7.17583 4.09666C7.23771 3.90725 7.37231 3.75018 7.55 3.66001C8.99042 2.93527 10.5991 2.61082 12.2078 2.72059C13.8166 2.83036 15.3663 3.37031 16.6949 4.284C18.0235 5.19768 19.0823 6.45154 19.7604 7.91445C20.4386 9.37737 20.7113 10.9956 20.55 12.6C20.4915 13.2361 20.3607 13.8635 20.16 14.47C20.1128 14.6239 20.0173 14.7586 19.8876 14.854C19.7579 14.9495 19.601 15.0006 19.44 15Z" fill="#001325" fill-opacity="0.92"/>
<path d="M13.48 9.73001H13.11C13.0592 9.50379 12.9714 9.28753 12.85 9.09002H13.52C13.6791 9.09002 13.8317 9.0268 13.9442 8.91428C14.0568 8.80176 14.12 8.64914 14.12 8.49002C14.12 8.33088 14.0568 8.17827 13.9442 8.06575C13.8317 7.95323 13.6791 7.89001 13.52 7.89001H9.63998C9.48085 7.89001 9.32824 7.95323 9.21571 8.06575C9.10319 8.17827 9.03998 8.33088 9.03998 8.49002C9.03998 8.64914 9.10319 8.80176 9.21571 8.91428C9.32824 9.0268 9.48085 9.09002 9.63998 9.09002H10.77C10.9867 9.09098 11.199 9.15109 11.3841 9.26388C11.5691 9.37667 11.7198 9.53784 11.82 9.73001H9.67998C9.60081 9.72866 9.52218 9.74326 9.44878 9.77293C9.37537 9.8026 9.30869 9.84675 9.2527 9.90273C9.19671 9.95872 9.15257 10.0254 9.12289 10.0988C9.09322 10.1722 9.07862 10.2508 9.07998 10.33C9.07998 10.4891 9.14319 10.6418 9.25571 10.7543C9.36824 10.8668 9.52085 10.93 9.67998 10.93H11.82C11.7152 11.1197 11.5617 11.2781 11.3754 11.3888C11.1891 11.4995 10.9767 11.5586 10.76 11.56H9.64998C9.57069 11.5449 9.48926 11.5449 9.40998 11.56C9.34287 11.5882 9.28177 11.6289 9.22998 11.68C9.19453 11.7134 9.16717 11.7544 9.14998 11.8C9.1279 11.819 9.11074 11.843 9.09998 11.87C9.06924 11.9429 9.05228 12.0209 9.04998 12.1V12.16C9.03965 12.2162 9.03965 12.2738 9.04998 12.33C9.07497 12.407 9.11981 12.4759 9.17998 12.53L12 15.33C12.055 15.3872 12.121 15.4326 12.1941 15.4637C12.2671 15.4948 12.3456 15.5108 12.425 15.5108C12.5043 15.5108 12.5829 15.4948 12.6559 15.4637C12.7289 15.4326 12.7949 15.3872 12.85 15.33C12.9605 15.2162 13.0224 15.0637 13.0224 14.905C13.0224 14.7463 12.9605 14.5939 12.85 14.48L11.1 12.73C11.5741 12.6616 12.0172 12.454 12.3732 12.1336C12.7292 11.8132 12.9822 11.3943 13.1 10.93H13.47C13.6291 10.93 13.7817 10.8668 13.8942 10.7543C14.0068 10.6418 14.07 10.4891 14.07 10.33C14.0713 10.2517 14.057 10.1739 14.028 10.1012C13.9989 10.0284 13.9557 9.96219 13.9007 9.90634C13.8458 9.85049 13.7803 9.80614 13.7081 9.77586C13.6359 9.74559 13.5583 9.73 13.48 9.73001Z" fill="#001325" fill-opacity="0.92"/>
<path d="M10.7 20.7C10.9965 20.715 11.2935 20.715 11.59 20.7C12.3242 20.7074 13.0565 20.6234 13.77 20.45C13.8729 20.4341 13.9713 20.3968 14.0591 20.3407C14.1468 20.2846 14.2219 20.2108 14.2795 20.1241C14.3372 20.0374 14.3761 19.9396 14.3939 19.837C14.4117 19.7344 14.4079 19.6293 14.3828 19.5282C14.3577 19.4271 14.3119 19.3324 14.2482 19.25C14.1845 19.1677 14.1043 19.0995 14.0128 19.0498C13.9213 19.0001 13.8204 18.97 13.7166 18.9615C13.6128 18.9529 13.5084 18.966 13.41 19C12.5747 19.2146 11.7091 19.2856 10.85 19.21C8.86953 19.0103 7.04872 18.0345 5.78569 16.496C4.52267 14.9575 3.9202 12.9815 4.11 11C4.12651 10.8986 4.12201 10.7949 4.09676 10.6952C4.07151 10.5956 4.02606 10.5023 3.96322 10.4209C3.90039 10.3396 3.82152 10.2721 3.73149 10.2225C3.64147 10.173 3.54222 10.1424 3.43991 10.1328C3.33759 10.1232 3.23439 10.1347 3.13671 10.1666C3.03903 10.1986 2.94896 10.2502 2.87208 10.3184C2.79519 10.3866 2.73315 10.4699 2.68978 10.5631C2.64642 10.6562 2.62267 10.7573 2.62 10.86C2.50402 12.0368 2.62105 13.2248 2.9644 14.3563C3.30776 15.4877 3.8707 16.5405 4.62107 17.4543C5.37144 18.3681 6.29453 19.1251 7.33758 19.682C8.38063 20.2389 9.5232 20.5849 10.7 20.7Z" fill="#001325" fill-opacity="0.92"/>
<path d="M6.13001 6.21997H5.51001V5.58997C5.51001 5.39105 5.431 5.20029 5.29034 5.05964C5.14969 4.91898 4.95893 4.83997 4.76001 4.83997C4.5611 4.83997 4.37034 4.91898 4.22968 5.05964C4.08903 5.20029 4.01001 5.39105 4.01001 5.58997V6.21997H3.39001C3.1911 6.21997 3.00034 6.29898 2.85968 6.43964C2.71903 6.58029 2.64001 6.77105 2.64001 6.96997C2.64001 7.16888 2.71903 7.35964 2.85968 7.5003C3.00034 7.64095 3.1911 7.71997 3.39001 7.71997H4.00001V8.33997C4.00001 8.53888 4.07903 8.72964 4.21968 8.8703C4.36034 9.01095 4.5511 9.08997 4.75001 9.08997C4.94893 9.08997 5.13969 9.01095 5.28034 8.8703C5.421 8.72964 5.50001 8.53888 5.50001 8.33997V7.71997H6.13001C6.32893 7.71997 6.51969 7.64095 6.66035 7.5003C6.801 7.35964 6.88001 7.16888 6.88001 6.96997C6.88001 6.77105 6.801 6.58029 6.66035 6.43964C6.51969 6.29898 6.32893 6.21997 6.13001 6.21997Z" fill="#001325" fill-opacity="0.92"/>
<path d="M18 17.05H18.62C18.8189 17.05 19.0097 17.1291 19.1503 17.2697C19.291 17.4104 19.37 17.6011 19.37 17.8C19.37 17.999 19.291 18.1897 19.1503 18.3304C19.0097 18.471 18.8189 18.55 18.62 18.55H18V19.17C18 19.369 17.921 19.5597 17.7803 19.7004C17.6397 19.841 17.4489 19.92 17.25 19.92C17.0511 19.92 16.8603 19.841 16.7197 19.7004C16.579 19.5597 16.5 19.369 16.5 19.17V18.55H15.87C15.6711 18.55 15.4803 18.471 15.3397 18.3304C15.199 18.1897 15.12 17.999 15.12 17.8C15.12 17.6011 15.199 17.4104 15.3397 17.2697C15.4803 17.1291 15.6711 17.05 15.87 17.05H16.5V16.42C16.5 16.2211 16.579 16.0304 16.7197 15.8897C16.8603 15.7491 17.0511 15.67 17.25 15.67C17.4489 15.67 17.6397 15.7491 17.7803 15.8897C17.921 16.0304 18 16.2211 18 16.42V17.05Z" fill="#001325" fill-opacity="0.92"/>
</svg>
