<svg width="24" height="24" viewBox="0 0 24 24" fill="none" xmlns="http://www.w3.org/2000/svg">
<path d="M11.7814 3.21533C12.0729 3.50244 12.0729 3.96794 11.7814 4.25505L10.6986 5.32177C14.7235 4.67487 18.6617 7.13794 19.7299 11.0999C20.8655 15.3115 18.3186 19.632 14.0409 20.7392C9.76524 21.8458 5.3912 19.3292 4.25546 15.1209C4.11091 14.5949 4.03414 14.0831 4.00149 13.5688C3.97561 13.161 4.28976 12.8098 4.70316 12.7843C5.11656 12.7588 5.47268 13.0686 5.49856 13.4763C5.52581 13.9056 5.58876 14.3178 5.70362 14.7353L5.7046 14.7389C6.62748 18.1617 10.1845 20.2078 13.6601 19.3082C17.1344 18.409 19.2026 14.9006 18.2803 11.4801C17.3711 8.10794 13.9051 6.07203 10.4791 6.87279L11.7814 8.15584C12.0729 8.44295 12.0729 8.90845 11.7814 9.19556C11.49 9.48267 11.0175 9.48267 10.726 9.19556L8.21858 6.72531C8.07862 6.58743 8 6.40043 8 6.20545C8 6.01046 8.07862 5.82346 8.21858 5.68558L10.726 3.21533C11.0175 2.92822 11.49 2.92822 11.7814 3.21533Z" fill="#001325" fill-opacity="0.92"/>
<path d="M7.18994 7.88C7.18994 8.29421 6.85416 8.63 6.43994 8.63C6.02573 8.63 5.68994 8.29421 5.68994 7.88C5.68994 7.46579 6.02573 7.13 6.43994 7.13C6.85416 7.13 7.18994 7.46579 7.18994 7.88Z" fill="#001325" fill-opacity="0.92"/>
<path d="M5.06006 11.5C5.47427 11.5 5.81006 11.1642 5.81006 10.75C5.81006 10.3358 5.47427 10 5.06006 10C4.64584 10 4.31006 10.3358 4.31006 10.75C4.31006 11.1642 4.64584 11.5 5.06006 11.5Z" fill="#001325" fill-opacity="0.92"/>
<path d="M10.25 11C9.97386 11 9.75 11.2239 9.75 11.5C9.75 11.7761 9.97386 12 10.25 12H11.1976C11.5944 12 11.9287 12.2051 12.1082 12.5H10.25C9.97386 12.5 9.75 12.7239 9.75 13C9.75 13.2761 9.97386 13.5 10.25 13.5H12.1082C11.9287 13.7949 11.5944 14 11.1976 14H10.25C10.1822 14 10.1176 14.0135 10.0586 14.0379C10.0005 14.062 9.94602 14.0974 9.89857 14.1443L9.89433 14.1486C9.84744 14.196 9.81198 14.2505 9.78794 14.3086C9.76349 14.3676 9.75 14.4322 9.75 14.5C9.75 14.5678 9.76349 14.6324 9.78794 14.6914L9.89665 14.8538L11.8964 16.8536C12.0917 17.0488 12.4083 17.0488 12.6036 16.8536C12.7988 16.6583 12.7988 16.3417 12.6036 16.1464L11.4428 14.9857C12.2801 14.8878 12.9764 14.2947 13.1857 13.5H13.75C14.0261 13.5 14.25 13.2761 14.25 13C14.25 12.7239 14.0261 12.5 13.75 12.5H13.1857C13.1388 12.3221 13.0676 12.1544 12.9759 12H13.75C14.0261 12 14.25 11.7761 14.25 11.5C14.25 11.2239 14.0261 11 13.75 11H10.25Z" fill="#001325" fill-opacity="0.92"/>
</svg>
