<svg width="24" height="24" viewBox="0 0 24 24" fill="none" xmlns="http://www.w3.org/2000/svg">
<path d="M7.71941 4.07445C9.03409 3.36432 10.5064 2.9949 12.0012 3.00005C13.7485 3.00378 15.457 3.51397 16.9191 4.46861C18.3812 5.42326 19.534 6.78124 20.2372 8.37749C20.9405 9.97374 21.164 11.7395 20.8805 13.4601C20.5971 15.1808 19.8189 16.7822 18.6405 18.0697C17.4622 19.3572 15.9344 20.2753 14.243 20.7125C12.5516 21.1497 10.7693 21.0871 9.11291 20.5324C7.45646 19.9776 5.99718 18.9545 4.91243 17.5876C3.82768 16.2206 3.16419 14.5686 3.00261 12.8323C2.98636 12.6402 3.04635 12.4493 3.16968 12.3009C3.29301 12.1525 3.4698 12.0584 3.662 12.0387C3.75706 12.0295 3.85302 12.0392 3.94426 12.0674C4.0355 12.0956 4.12018 12.1417 4.19334 12.203C4.26649 12.2643 4.32665 12.3395 4.37028 12.4243C4.41392 12.5091 4.44015 12.6018 4.44744 12.6968C4.60611 14.4813 5.3972 16.1509 6.67859 17.4056C7.95997 18.6603 9.64766 19.4178 11.4385 19.5422C13.2293 19.6665 15.0058 19.1494 16.4489 18.0839C17.892 17.0184 18.9071 15.4742 19.3119 13.7288C19.7166 11.9834 19.4844 10.1512 18.6571 8.56125C17.8297 6.97133 16.4614 5.72796 14.7979 5.05449C13.1345 4.38103 11.2849 4.32161 9.58149 4.88693C7.87808 5.45224 6.43247 6.60523 5.50439 8.13875H7.15284C7.34572 8.13875 7.5307 8.21522 7.66709 8.35134C7.80348 8.48745 7.8801 8.67206 7.8801 8.86456C7.8801 9.05705 7.80348 9.24167 7.66709 9.37778C7.5307 9.5139 7.34572 9.59036 7.15284 9.59036H3.74927C3.55639 9.59036 3.3714 9.5139 3.23502 9.37778C3.09863 9.24167 3.02201 9.05705 3.02201 8.86456V5.47747C3.02201 5.28497 3.09863 5.10036 3.23502 4.96425C3.3714 4.82813 3.55639 4.75166 3.74927 4.75166C3.94215 4.75166 4.12713 4.82813 4.26352 4.96425C4.3999 5.10036 4.47653 5.28497 4.47653 5.47747V7.06456C5.2897 5.8127 6.40473 4.78458 7.71941 4.07445Z" fill="#001325" fill-opacity="0.92"/>
<path d="M11.0316 8.79683L15.5503 11.7C15.6041 11.7324 15.6485 11.7782 15.679 11.8331C15.7096 11.8879 15.7251 11.9498 15.7241 12.0125C15.7231 12.0752 15.7057 12.1366 15.6735 12.1904C15.6412 12.2443 15.5954 12.2888 15.5406 12.3194L11.0316 15.2226C10.976 15.257 10.9122 15.2759 10.8468 15.2776C10.7815 15.2792 10.7169 15.2635 10.6596 15.2319C10.6024 15.2004 10.5545 15.1542 10.5211 15.0982C10.4876 15.0421 10.4697 14.9782 10.4691 14.9129V9.1065C10.4697 9.04125 10.4876 8.97731 10.5211 8.92126C10.5545 8.8652 10.6024 8.81904 10.6596 8.78752C10.7169 8.756 10.7815 8.74024 10.8468 8.74188C10.9122 8.74352 10.976 8.76248 11.0316 8.79683Z" fill="#001325" fill-opacity="0.92"/>
</svg>
