<svg width="24" height="24" viewBox="0 0 24 24" fill="none" xmlns="http://www.w3.org/2000/svg">
<path d="M6.6339 4.77756C8.36094 3.49486 10.4906 2.87207 12.6374 3.02189C14.7843 3.17172 16.8065 4.08427 18.3382 5.5944C19.8699 7.10453 20.8099 9.11249 20.9881 11.2549C21.0206 11.646 20.7296 11.9893 20.3381 12.0218C19.9466 12.0543 19.6029 11.7636 19.5704 11.3726C19.4204 9.56842 18.6288 7.8775 17.3389 6.60581C16.0491 5.33412 14.3461 4.56566 12.5383 4.43949C10.7304 4.31332 8.93703 4.83777 7.48268 5.91795C6.02834 6.99812 5.0091 8.56266 4.60939 10.3285C4.20969 12.0942 4.45593 13.9446 5.30356 15.5448C6.15119 17.1449 7.5442 18.3891 9.23053 19.0522C10.9169 19.7153 12.7851 19.7536 14.4972 19.16C16.2093 18.5663 17.6521 17.3801 18.5646 15.816C18.5766 15.7955 18.5894 15.7758 18.6031 15.7569H16.2107C15.8179 15.7569 15.4995 15.4388 15.4995 15.0464C15.4995 14.654 15.8179 14.3358 16.2107 14.3358H20.2887C20.6816 14.3358 21 14.654 21 15.0464V19.1201C21 19.5125 20.6816 19.8306 20.2887 19.8306C19.8959 19.8306 19.5774 19.5125 19.5774 19.1201V16.8834C18.489 18.5668 16.8663 19.8428 14.9636 20.5024C12.9305 21.2073 10.712 21.162 8.70947 20.3745C6.70696 19.5871 5.05275 18.1096 4.04619 16.2094C3.03964 14.3092 2.74723 12.1119 3.22187 10.015C3.69652 7.91816 4.90687 6.06027 6.6339 4.77756Z" fill="#001325" fill-opacity="0.92"/>
<path d="M13.2234 11.8632C13.2234 12.4649 12.7351 12.9527 12.1328 12.9527C11.5304 12.9527 11.0421 12.4649 11.0421 11.8632C11.0421 11.2615 11.5304 10.7737 12.1328 10.7737C12.7351 10.7737 13.2234 11.2615 13.2234 11.8632Z" fill="#001325" fill-opacity="0.92"/>
<path d="M15.4046 12.9527C16.007 12.9527 16.4953 12.4649 16.4953 11.8632C16.4953 11.2615 16.007 10.7737 15.4046 10.7737C14.8023 10.7737 14.314 11.2615 14.314 11.8632C14.314 12.4649 14.8023 12.9527 15.4046 12.9527Z" fill="#001325" fill-opacity="0.92"/>
<path d="M8.75657 10.3C9.01845 10.3 9.23075 10.5121 9.23075 10.7737V11.0522L9.44059 10.896C9.65059 10.7397 9.94767 10.7831 10.1041 10.9928C10.2606 11.2026 10.2172 11.4994 10.0072 11.6557L9.57532 11.9772L10.0404 12.2509C10.2661 12.3836 10.3413 12.674 10.2083 12.8994C10.0754 13.1248 9.78476 13.1999 9.55911 13.0671L9.23075 12.8739V13.2179C9.23075 13.4795 9.01845 13.6916 8.75657 13.6916C8.49469 13.6916 8.28239 13.4795 8.28239 13.2179V12.9395L8.07255 13.0957C7.86255 13.252 7.56547 13.2087 7.409 12.9989C7.25252 12.7891 7.29592 12.4923 7.50592 12.336L7.86385 12.0696L7.48218 11.845C7.25654 11.7123 7.18136 11.4219 7.31428 11.1965C7.44719 10.9711 7.73787 10.896 7.96351 11.0288L8.28239 11.2164V10.7737C8.28239 10.5121 8.49469 10.3 8.75657 10.3Z" fill="#001325" fill-opacity="0.92"/>
</svg>
