<svg width="24" height="24" viewBox="0 0 24 24" fill="none" xmlns="http://www.w3.org/2000/svg">
<path fill-rule="evenodd" clip-rule="evenodd" d="M11.6884 2.08858C11.7822 2.02994 11.8901 1.99929 12 2.00007C12.1089 1.99835 12.2161 2.02749 12.3098 2.08429C12.4035 2.14108 12.48 2.2233 12.5308 2.32184L14.3786 6.1529L18.5166 6.77633C18.6208 6.79586 18.7178 6.84372 18.7977 6.91487C18.8775 6.98601 18.9371 7.07783 18.9703 7.18069C19.0035 7.28354 19.009 7.39364 18.9862 7.49941C18.9635 7.60519 18.9133 7.70275 18.841 7.78186L15.8431 10.7984L16.5508 15.0116C16.5651 15.098 16.5608 15.1865 16.5383 15.271C16.5157 15.3555 16.4755 15.434 16.4203 15.501C16.3651 15.568 16.2963 15.6218 16.2187 15.6589C16.1411 15.6959 16.0565 15.7152 15.9709 15.7155C15.8748 15.7161 15.7802 15.6919 15.6957 15.6451L12 13.634L8.3043 15.6451C8.21982 15.6919 8.12516 15.7161 8.02909 15.7155C7.94346 15.7152 7.8589 15.6959 7.7813 15.6589C7.7037 15.6218 7.63492 15.568 7.57973 15.501C7.52455 15.434 7.48428 15.3555 7.46174 15.271C7.43919 15.1865 7.4349 15.098 7.44917 15.0116L8.15686 10.7984L5.15902 7.78186C5.0867 7.70275 5.03653 7.60519 5.01378 7.49941C4.99103 7.39364 4.99653 7.28354 5.02971 7.18069C5.06288 7.07783 5.12251 6.98601 5.20234 6.91487C5.28216 6.84372 5.37924 6.79586 5.48338 6.77633L9.62138 6.1529L11.4692 2.3319C11.5187 2.23148 11.5946 2.14721 11.6884 2.08858ZM13.0517 6.82661L12 4.63456L10.9483 6.82661L10.6043 7.54053L9.83762 7.65114L7.46883 8.03324L9.17908 9.71247L9.73933 10.2655L9.60173 11.0498L9.19874 13.443L11.312 12.3067L12 11.9447L12.688 12.3067L14.8013 13.443L14.3983 11.0398L14.2607 10.2555L14.8209 9.70242L16.5312 8.03324L14.1624 7.65114L13.3957 7.54053L13.0517 6.82661Z" fill="#001325" fill-opacity="0.92"/>
<path d="M11.4816 21.736C11.6193 21.8769 11.8053 21.9572 12 21.9598C12.1947 21.9572 12.3807 21.8769 12.5184 21.736C12.6561 21.5952 12.7346 21.4049 12.7372 21.2057V16.6506C12.7372 16.4506 12.6595 16.2588 12.5213 16.1173C12.383 15.9759 12.1955 15.8965 12 15.8965C11.8045 15.8965 11.617 15.9759 11.4787 16.1173C11.3405 16.2588 11.2628 16.4506 11.2628 16.6506V21.2057C11.2654 21.4049 11.3439 21.5952 11.4816 21.736Z" fill="#001325" fill-opacity="0.92"/>
<path d="M7.82235 21.7791C7.9606 21.9205 8.1481 22 8.34361 22C8.53833 21.9974 8.72436 21.9171 8.86206 21.7762C8.99976 21.6354 9.07824 21.4451 9.08079 21.2459V18.6415C9.08079 18.4415 9.00312 18.2497 8.86488 18.1083C8.72663 17.9668 8.53912 17.8874 8.34361 17.8874C8.1481 17.8874 7.9606 17.9668 7.82235 18.1083C7.68411 18.2497 7.60644 18.4415 7.60644 18.6415V21.2459C7.60644 21.4459 7.68411 21.6377 7.82235 21.7791Z" fill="#001325" fill-opacity="0.92"/>
<path d="M15.6564 22C15.4617 21.9974 15.2756 21.9171 15.1379 21.7762C15.0002 21.6354 14.9218 21.4451 14.9192 21.2459V18.6415C14.9192 18.5425 14.9383 18.4444 14.9753 18.3529C15.0124 18.2614 15.0667 18.1783 15.1351 18.1083C15.2036 18.0382 15.2848 17.9827 15.3743 17.9448C15.4637 17.9069 15.5596 17.8874 15.6564 17.8874C15.7532 17.8874 15.8491 17.9069 15.9385 17.9448C16.0279 17.9827 16.1092 18.0382 16.1776 18.1083C16.2461 18.1783 16.3004 18.2614 16.3374 18.3529C16.3745 18.4444 16.3936 18.5425 16.3936 18.6415V21.2459C16.3936 21.4459 16.3159 21.6377 16.1776 21.7791C16.0394 21.9205 15.8519 22 15.6564 22Z" fill="#001325" fill-opacity="0.92"/>
</svg>
