<svg width="24" height="24" viewBox="0 0 24 24" fill="none" xmlns="http://www.w3.org/2000/svg">
<path d="M19.9932 6C19.7743 6.00278 19.5622 6.07407 19.3892 6.20306L12.4027 11.2313C12.2776 11.3213 12.1761 11.4381 12.1063 11.5724C12.0364 11.7067 12 11.8547 12 12.0048V6.97663C12 6.79706 11.9479 6.62103 11.8496 6.46827C11.7513 6.31551 11.6107 6.19206 11.4435 6.11175C11.2763 6.03145 11.0891 5.99745 10.9029 6.01358C10.7167 6.0297 10.5388 6.09532 10.3892 6.20306L3.40268 11.2313C3.27765 11.3213 3.17617 11.4381 3.10628 11.5724C3.03639 11.7067 3 11.8547 3 12.0048C3 12.155 3.03639 12.303 3.10628 12.4373C3.17617 12.5715 3.27765 12.6883 3.40268 12.7784L10.3892 17.8066C10.5388 17.9144 10.7167 17.98 10.9029 17.9961C11.0891 18.0122 11.2763 17.9782 11.4435 17.8979C11.6107 17.8176 11.7513 17.6942 11.8496 17.5414C11.9479 17.3886 12 17.2126 12 17.033V12.0048C12.0015 12.1533 12.0387 12.2995 12.1085 12.4319C12.1783 12.5644 12.279 12.6797 12.4027 12.7687L19.3892 17.8066C19.5388 17.9144 19.7166 17.98 19.9028 17.9961C20.089 18.0122 20.2762 17.9782 20.4435 17.8979C20.6107 17.8176 20.7513 17.6942 20.8496 17.5414C20.9479 17.3886 20.9999 17.2126 20.9999 17.033V6.97663C21.0013 6.84884 20.9762 6.72206 20.9262 6.60362C20.8762 6.48519 20.8023 6.37744 20.7087 6.28663C20.6151 6.19581 20.5036 6.12372 20.3808 6.07452C20.258 6.02532 20.1263 5.99999 19.9932 6ZM10.4899 16.0661L4.84228 12.0048L10.4899 7.94359V16.0661ZM19.4899 16.0661L13.8423 12.0048L19.4899 7.94359V16.0661Z" fill="#001325" fill-opacity="0.92"/>
</svg>
