<svg width="24" height="24" viewBox="0 0 24 24" fill="none" xmlns="http://www.w3.org/2000/svg">
<path d="M18.7044 4.58953C20.1445 5.89618 21.1715 7.59497 21.6592 9.47718C22.0008 10.7427 22.0867 12.0636 21.9119 13.3627C21.7371 14.6618 21.3051 15.913 20.6411 17.0432C19.5708 18.8778 17.9436 20.3236 15.9956 21.1708C14.0477 22.0179 11.8804 22.2224 9.80831 21.7545C7.73624 21.2866 5.86723 20.1707 4.47258 18.5687C3.07793 16.9667 2.23021 14.9621 2.05248 12.8457C2.03439 12.637 2.09997 12.4296 2.23481 12.2692C2.36964 12.1088 2.56268 12.0085 2.77146 11.9904C2.98024 11.9724 3.18766 12.0379 3.34808 12.1727C3.50851 12.3075 3.6088 12.5005 3.62689 12.7093C3.75278 14.5103 4.45603 16.2228 5.63233 17.5926C6.80862 18.9624 8.39527 19.9166 10.1569 20.3136C11.9185 20.7107 13.7611 20.5293 15.4115 19.7965C17.0619 19.0637 18.432 17.8185 19.3186 16.2457C19.8728 15.2902 20.2306 14.2337 20.3712 13.1381C20.5118 12.0425 20.4322 10.9299 20.1372 9.86545C19.7196 8.25268 18.8315 6.80061 17.586 5.69402C16.3404 4.58743 14.7937 3.87636 13.1426 3.65132C11.4916 3.42628 9.81096 3.69744 8.31456 4.43029C6.81815 5.16314 5.57366 6.32454 4.73948 7.76668L4.687 7.85063H7.30053C7.50931 7.85063 7.70954 7.93355 7.85717 8.08115C8.0048 8.22875 8.08773 8.42893 8.08773 8.63767C8.08773 8.8464 8.0048 9.04659 7.85717 9.19419C7.70954 9.34179 7.50931 9.42471 7.30053 9.42471H2.78721C2.57927 9.42199 2.38062 9.3382 2.23357 9.19118C2.08653 9.04417 2.00272 8.84556 2 8.63767V4.12532C2 3.91658 2.08294 3.7164 2.23057 3.5688C2.3782 3.4212 2.57843 3.33828 2.78721 3.33828C2.99599 3.33828 3.19622 3.4212 3.34385 3.5688C3.49148 3.7164 3.57441 3.91658 3.57441 4.12532V6.62285C4.6183 4.98237 6.11876 3.68249 7.89146 2.88291C9.66415 2.08334 11.6319 1.8189 13.5528 2.12208C15.4738 2.42527 17.2643 3.28287 18.7044 4.58953Z" fill="#001325" fill-opacity="0.92"/>
<path d="M11.9713 14.4617H15.393C15.6018 14.4617 15.802 14.3788 15.9497 14.2312C16.0973 14.0836 16.1802 13.8834 16.1802 13.6747C16.1802 13.466 16.0973 13.2658 15.9497 13.1182C15.802 12.9706 15.6018 12.8877 15.393 12.8877H12.7585V9.09938C12.7585 8.89065 12.6756 8.69046 12.5279 8.54286C12.3803 8.39527 12.1801 8.31235 11.9713 8.31235C11.7625 8.31235 11.5623 8.39527 11.4147 8.54286C11.267 8.69046 11.1841 8.89065 11.1841 9.09938V13.6747C11.1827 13.7784 11.2021 13.8814 11.2411 13.9775C11.2802 14.0737 11.3381 14.161 11.4115 14.2344C11.4849 14.3077 11.5722 14.3656 11.6684 14.4047C11.7645 14.4438 11.8675 14.4631 11.9713 14.4617Z" fill="#001325" fill-opacity="0.92"/>
</svg>
