<svg width="24" height="24" viewBox="0 0 24 24" fill="none" xmlns="http://www.w3.org/2000/svg">
<path d="M10.4252 10.3884H12.4185C12.6178 10.3884 12.8088 10.4689 12.9497 10.6121C13.0906 10.7554 13.1698 10.9497 13.1698 11.1523C13.1698 11.3549 13.0906 11.5492 12.9497 11.6924C12.8088 11.8357 12.6178 11.9162 12.4185 11.9162H9.67394C9.57491 11.9176 9.47661 11.8987 9.38486 11.8608C9.2931 11.8229 9.20975 11.7667 9.13972 11.6955C9.06969 11.6243 9.0144 11.5395 8.97712 11.4462C8.93985 11.3529 8.92134 11.253 8.92268 11.1523V7.6994C8.92268 7.4968 9.00183 7.3025 9.14272 7.15923C9.28361 7.01597 9.47469 6.93549 9.67394 6.93549C9.87318 6.93549 10.0643 7.01597 10.2052 7.15923C10.346 7.3025 10.4252 7.4968 10.4252 7.6994V10.3884Z" fill="#001325" fill-opacity="0.92"/>
<path fill-rule="evenodd" clip-rule="evenodd" d="M16.2148 15.0737L21.7541 20.6961C21.8271 20.7636 21.8864 20.8451 21.9284 20.9359C21.9705 21.0267 21.9945 21.1251 21.9992 21.2253C22.0038 21.3256 21.989 21.4258 21.9555 21.5203C21.9221 21.6147 21.8706 21.7015 21.8042 21.7757C21.7348 21.8471 21.6521 21.9038 21.5609 21.9422C21.4698 21.9807 21.372 22.0003 21.2733 21.9998C21.1743 22.0021 21.076 21.9833 20.9846 21.9447C20.8932 21.9062 20.8107 21.8486 20.7424 21.7757L15.2132 16.1533C13.6784 17.5293 11.6812 18.2509 9.63677 18.1681C7.5923 18.0854 5.65786 17.2045 4.23561 15.7088C2.81336 14.2131 2.01272 12.2175 2.00015 10.137C1.98758 8.05644 2.76404 6.05102 4.16811 4.53763C5.57218 3.02424 7.49583 2.11931 9.53915 2.01098C11.5825 1.90265 13.5882 2.59925 15.1395 3.95595C16.6907 5.31266 17.6681 7.2251 17.8683 9.29567C18.0686 11.3663 17.4764 13.4357 16.2148 15.0737ZM6.54751 15.379C7.60339 16.0964 8.84477 16.4793 10.1147 16.4793C11.8167 16.4766 13.4483 15.7879 14.6519 14.564C15.8554 13.3402 16.5327 11.6811 16.5354 9.95039C16.5354 8.6591 16.1588 7.3968 15.4533 6.32313C14.7478 5.24946 13.745 4.41263 12.5718 3.91848C11.3985 3.42432 10.1075 3.29503 8.86205 3.54695C7.61655 3.79886 6.47249 4.42068 5.57454 5.33376C4.67659 6.24685 4.06508 7.41018 3.81733 8.67667C3.56959 9.94315 3.69674 11.2559 4.18271 12.4489C4.66868 13.6419 5.49163 14.6616 6.54751 15.379Z" fill="#001325" fill-opacity="0.92"/>
</svg>
