<svg width="24" height="24" viewBox="0 0 24 24" fill="none" xmlns="http://www.w3.org/2000/svg">
<path fill-rule="evenodd" clip-rule="evenodd" d="M9.45746 9.45441C10.1318 8.77928 11.0463 8.39999 11.9999 8.39999C12.9535 8.39999 13.868 8.77928 14.5423 9.45441C15.2166 10.1295 15.5954 11.0452 15.5954 12C15.5954 12.9548 15.2166 13.8704 14.5423 14.5456C13.868 15.2207 12.9535 15.6 11.9999 15.6C11.0463 15.6 10.1318 15.2207 9.45746 14.5456C8.78316 13.8704 8.40435 12.9548 8.40435 12C8.40435 11.0452 8.78316 10.1295 9.45746 9.45441ZM11.198 13.94C11.4519 14.0465 11.7246 14.1009 11.9999 14.1C12.2753 14.1 12.5481 14.0457 12.8025 13.9401C13.057 13.8346 13.2882 13.6799 13.483 13.4849C13.6777 13.2899 13.8322 13.0584 13.9376 12.8036C14.043 12.5488 14.0973 12.2758 14.0973 12C14.0973 11.7242 14.043 11.4511 13.9376 11.1964C13.8322 10.9416 13.6777 10.7101 13.483 10.5151C13.2882 10.3201 13.057 10.1654 12.8025 10.0598C12.5481 9.95431 12.2753 9.89999 11.9999 9.89999C11.4444 9.90262 10.9125 10.1247 10.5197 10.518C10.1269 10.9112 9.90512 11.4438 9.90249 12C9.90832 12.5553 10.1305 13.0863 10.5217 13.48C10.7142 13.6771 10.9441 13.8335 11.198 13.94Z" fill="#001325" fill-opacity="0.92"/>
<path fill-rule="evenodd" clip-rule="evenodd" d="M13.7063 3.03391C13.7397 3.01279 13.7782 3.00108 13.8177 3H13.8976C15.0021 3.24498 16.0518 3.69251 16.9937 4.32C17.028 4.34317 17.0559 4.37448 17.0751 4.41113C17.0943 4.44778 17.1041 4.48863 17.1036 4.53C17.0557 4.902 16.9969 5.274 16.9382 5.646C16.899 5.894 16.8599 6.142 16.8239 6.39C16.8258 6.47933 16.8535 6.56621 16.9038 6.64C16.9212 6.67038 16.9555 6.69512 16.9887 6.7191C17.032 6.75038 17.0736 6.78038 17.0736 6.82C17.133 6.92309 17.2191 7.00818 17.3229 7.06627C17.4266 7.12437 17.5441 7.1533 17.6629 7.15C17.7744 7.14665 17.885 7.12986 17.9925 7.1C18.2071 7.05524 18.4297 7.03051 18.6495 7.00609C18.9208 6.97596 19.188 6.94628 19.4307 6.88H19.4906C19.5301 6.88108 19.5686 6.89279 19.602 6.91391C19.6354 6.93503 19.6625 6.96477 19.6804 7C20.3052 7.95017 20.7489 9.00802 20.9888 10.12C21.0042 10.1642 21.0037 10.2125 20.9873 10.2563C20.9709 10.3002 20.9396 10.3369 20.8989 10.36L19.4107 11.44C19.3594 11.4669 19.3181 11.5096 19.2929 11.5618C19.2677 11.6141 19.26 11.673 19.2709 11.73C19.2859 11.8127 19.2859 11.8973 19.2709 11.98C19.2356 12.1375 19.2574 12.3025 19.3324 12.4454C19.4074 12.5883 19.5308 12.6998 19.6804 12.76C19.9336 12.923 20.1723 13.1042 20.4117 13.286C20.569 13.4054 20.7266 13.5251 20.8889 13.64C20.9322 13.6634 20.9659 13.7012 20.9841 13.7469C21.0024 13.7926 21.004 13.8432 20.9888 13.89C20.7306 15.0014 20.2702 16.0557 19.6305 17C19.5705 17.13 19.5206 17.13 19.4307 17.13H19.3608C18.7907 17.0271 18.2118 16.9416 17.6406 16.8573C17.6014 16.8516 17.5622 16.8458 17.5231 16.84C17.4472 16.8471 17.3747 16.8748 17.3133 16.92C17.2717 16.9524 17.2343 16.9956 17.1963 17.0396C17.1522 17.0905 17.1072 17.1424 17.0537 17.18C16.8239 17.35 16.774 17.57 16.8239 17.86C16.9118 18.292 16.9742 18.724 17.0365 19.156C17.0521 19.264 17.0676 19.372 17.0836 19.48C17.0848 19.5165 17.0773 19.5528 17.0616 19.5859C17.046 19.6189 17.0227 19.6478 16.9937 19.67C16.0361 20.3067 14.9643 20.7515 13.8376 20.98C13.7986 20.9761 13.7608 20.9644 13.7265 20.9455C13.6922 20.9266 13.662 20.9009 13.6379 20.87C13.2717 20.39 12.9121 19.9 12.5592 19.4C12.5345 19.3552 12.4984 19.3176 12.4546 19.2913C12.4107 19.265 12.3607 19.2507 12.3095 19.25H11.8301C11.7108 19.2599 11.5963 19.3012 11.4981 19.3697C11.3998 19.4382 11.3215 19.5314 11.2708 19.64C11.1118 19.8845 10.9367 20.1193 10.7619 20.3536C10.6293 20.5313 10.4969 20.7088 10.3719 20.89C10.3513 20.9221 10.3233 20.9489 10.2903 20.968C10.2573 20.9871 10.2203 20.9981 10.1822 21H10.1122C9.00288 20.7611 7.94669 20.3205 6.99611 19.7C6.93618 19.66 6.85628 19.57 6.85628 19.57C6.93574 19.2677 6.97305 18.9569 7.00995 18.6497C7.04262 18.3776 7.07496 18.1083 7.13594 17.85C7.16434 17.7313 7.15981 17.6071 7.12285 17.4908C7.08588 17.3744 7.01789 17.2704 6.92619 17.19C6.85073 17.0918 6.754 17.0119 6.64329 16.9565C6.53258 16.9011 6.41076 16.8715 6.28699 16.87H6.02731C5.71436 16.95 5.38366 16.9944 5.05296 17.0389C4.88761 17.0611 4.72226 17.0833 4.55913 17.11H4.48921C4.45343 17.1096 4.41851 17.099 4.38846 17.0795C4.35842 17.0601 4.33449 17.0325 4.31942 17C3.69971 16.0689 3.25621 15.0317 3.01104 13.94C2.99517 13.8918 2.99644 13.8395 3.01465 13.7922C3.03285 13.7448 3.06686 13.7051 3.11092 13.68C3.38483 13.4841 3.66186 13.282 3.94028 13.0788C4.15931 12.919 4.37919 12.7585 4.59908 12.6C4.64695 12.5751 4.68547 12.5353 4.70888 12.4866C4.73228 12.438 4.73931 12.383 4.72892 12.33C4.71397 12.2138 4.71397 12.0962 4.72892 11.98C4.78884 11.69 4.659 11.52 4.40931 11.35C4.12583 11.1355 3.85427 10.9251 3.5846 10.7161C3.42673 10.5937 3.2695 10.4719 3.11092 10.35C3.07814 10.3216 3.05215 10.2862 3.03486 10.2464C3.01758 10.2066 3.00944 10.1634 3.01104 10.12C3.25646 8.99514 3.71777 7.92872 4.36936 6.98C4.39452 6.95184 4.42529 6.92928 4.4597 6.91378C4.49411 6.89828 4.53138 6.89017 4.56911 6.89C5.17836 6.97 5.79759 7.07 6.40684 7.17H6.5167C6.5565 7.16971 6.5956 7.1595 6.63047 7.1403C6.66535 7.12109 6.6949 7.0935 6.71645 7.06C6.80282 6.95365 6.89988 6.85647 7.0061 6.77C7.08873 6.71044 7.14926 6.62509 7.17819 6.52735C7.20711 6.42961 7.20279 6.32502 7.1659 6.23C7.09931 5.85666 7.04161 5.48332 6.9839 5.10998C6.95505 4.92332 6.92619 4.73666 6.89623 4.55C6.88373 4.50203 6.88778 4.45124 6.90772 4.40586C6.92766 4.36049 6.96233 4.32318 7.0061 4.3C7.9494 3.69537 8.99018 3.25892 10.0823 3.01H10.1722C10.2134 3.00925 10.2539 3.0201 10.2892 3.04131C10.3246 3.06253 10.3532 3.09326 10.3719 3.13C10.4459 3.2316 10.5208 3.3341 10.5962 3.4373C10.877 3.82167 11.165 4.21583 11.4406 4.61C11.5105 4.69 11.5704 4.75 11.6603 4.75H11.8601C11.9297 4.75947 12.0002 4.75947 12.0698 4.75C12.2342 4.74064 12.3928 4.68627 12.5285 4.59281C12.6641 4.49935 12.7715 4.37039 12.8389 4.22C12.9841 3.9734 13.1573 3.74679 13.3307 3.51995C13.4315 3.38804 13.5324 3.25605 13.6279 3.12C13.6458 3.08477 13.6729 3.05503 13.7063 3.03391ZM15.5056 5.17C15.1324 4.97014 14.7411 4.80608 14.337 4.68L14.1572 4.74C14.0773 4.85 13.9974 4.96 13.9375 5.06C13.7466 5.42812 13.4605 5.73826 13.1092 5.9581C12.7579 6.17795 12.3541 6.29947 11.94 6.31C11.837 6.31991 11.7333 6.31991 11.6304 6.31H11.5305C11.2461 6.30926 10.9663 6.23866 10.7156 6.10441C10.4648 5.97017 10.2508 5.77636 10.0923 5.54C9.94246 5.32 9.78266 5.1 9.62286 4.89L9.52298 4.75C9.12022 4.87968 8.72928 5.04361 8.35443 5.24C8.36941 5.3375 8.39282 5.435 8.41623 5.5325C8.45524 5.695 8.49425 5.8575 8.49425 6.02C8.57205 6.38922 8.54393 6.77295 8.41315 7.12685C8.28237 7.48076 8.05426 7.7904 7.75517 8.02V8.08C7.59222 8.27398 7.38891 8.42997 7.15946 8.53706C6.93001 8.64416 6.67997 8.69976 6.42681 8.7H6.10721L5.10845 8.54C4.91052 8.91794 4.74674 9.31285 4.61905 9.72C4.80882 9.86 4.98859 9.99 5.17836 10.11C5.51948 10.3117 5.79518 10.6077 5.97236 10.9625C6.14953 11.3173 6.22063 11.7157 6.17712 12.11C6.21687 12.4275 6.16791 12.7498 6.03567 13.0411C5.90343 13.3324 5.69309 13.5812 5.42805 13.76L4.67898 14.31C4.81092 14.7124 4.97457 15.1036 5.16837 15.48C5.33682 15.4624 5.50374 15.4323 5.66775 15.39C5.86736 15.3427 6.07187 15.3192 6.277 15.32C6.60822 15.3223 6.9352 15.3948 7.23644 15.5327C7.53769 15.6706 7.80637 15.8707 8.02483 16.12C8.27938 16.379 8.46489 16.6978 8.56436 17.0473C8.66383 17.3967 8.67406 17.7656 8.59413 18.12L8.47428 18.83C8.8537 19.024 9.24776 19.1878 9.65282 19.32C9.77267 19.16 9.89252 18.99 10.0024 18.82C10.1882 18.4916 10.4585 18.2191 10.7852 18.0309C11.112 17.8427 11.4832 17.7457 11.8601 17.75H12.3395C12.6309 17.7488 12.918 17.8193 13.1758 17.9553C13.4336 18.0913 13.654 18.2887 13.8177 18.53L14.367 19.31C14.7736 19.1822 15.168 19.0182 15.5455 18.82L15.4257 18.14C15.3287 17.7515 15.347 17.3431 15.4783 16.9648C15.6096 16.5865 15.8481 16.2547 16.1648 16.01C16.2585 15.9037 16.3622 15.8066 16.4744 15.72C16.7944 15.4706 17.1875 15.3336 17.593 15.33H17.8227L18.8215 15.48C19.0193 15.1055 19.1831 14.7139 19.3109 14.31C19.2556 14.272 19.2027 14.2339 19.151 14.1967C19.0531 14.1263 18.9594 14.0589 18.8614 14C18.4963 13.7842 18.2035 13.4646 18.0203 13.0817C17.8372 12.6989 17.7718 12.2701 17.8327 11.85C17.8014 11.5337 17.8554 11.2148 17.9888 10.9264C18.1223 10.638 18.3305 10.3906 18.5917 10.21L19.3608 9.65C19.2269 9.24837 19.0633 8.85728 18.8714 8.48C18.7032 8.49937 18.5364 8.52944 18.372 8.57C18.159 8.61947 17.9414 8.64628 17.7228 8.65C17.3881 8.65592 17.0568 8.58191 16.7563 8.43409C16.4558 8.28628 16.1948 8.06891 15.995 7.8C15.8614 7.69023 15.7437 7.56233 15.6454 7.42C15.4064 7.05376 15.3071 6.61355 15.3657 6.18C15.4057 5.87 15.4556 5.55 15.5056 5.24V5.17Z" fill="#001325" fill-opacity="0.92"/>
</svg>
