<svg width="24" height="24" viewBox="0 0 24 24" fill="none" xmlns="http://www.w3.org/2000/svg">
<path d="M19.0161 4.5445L19.7333 3.77298C19.7555 3.76387 19.7795 3.76002 19.8035 3.76172C19.8274 3.76342 19.8507 3.77063 19.8713 3.78278C19.892 3.79494 19.9096 3.8117 19.9226 3.83176C19.9357 3.85181 19.9438 3.87461 19.9465 3.89835V6.33827C19.9478 6.35981 19.9449 6.38139 19.9378 6.40178C19.9307 6.42217 19.9196 6.44097 19.9052 6.4571C19.8908 6.47323 19.8733 6.48636 19.8538 6.49576C19.8343 6.50516 19.8131 6.51063 19.7915 6.51186H17.5236C17.4892 6.51101 17.4557 6.50003 17.4275 6.4803C17.3994 6.46057 17.3777 6.43297 17.3652 6.40099C17.3528 6.369 17.3502 6.33407 17.3576 6.3006C17.3651 6.26712 17.3824 6.23661 17.4073 6.2129L17.9694 5.60533C11.6214 0.976242 6.62048 5.02669 5.96144 5.60533L6.53325 6.2129C6.55815 6.23661 6.57544 6.26712 6.58293 6.3006C6.59042 6.33407 6.58777 6.369 6.57533 6.40099C6.56289 6.43297 6.54121 6.46057 6.51302 6.4803C6.48483 6.50003 6.45141 6.51101 6.41695 6.51186H4.15879C4.13631 6.5119 4.11407 6.50736 4.09342 6.49852C4.07277 6.48969 4.05416 6.47674 4.03872 6.46048C4.02329 6.44422 4.01136 6.42499 4.00368 6.40397C3.99599 6.38295 3.99271 6.36059 3.99403 6.33827V3.89835C3.99209 3.86516 4.00034 3.83217 4.01768 3.80375C4.03502 3.77533 4.06063 3.75283 4.09112 3.73923C4.1216 3.72563 4.15553 3.72158 4.18838 3.7276C4.22124 3.73363 4.25148 3.74946 4.27509 3.77298L5.00197 4.53485C5.74823 3.89835 11.6892 -0.788597 18.9095 4.4577L19.0161 4.5445Z" fill="#001325" fill-opacity="0.92"/>
<path d="M12.639 18.5089C12.639 18.9084 12.3136 19.2322 11.9121 19.2322C11.5107 19.2322 11.1853 18.9084 11.1853 18.5089C11.1853 18.1094 11.5107 17.7856 11.9121 17.7856C12.3136 17.7856 12.639 18.1094 12.639 18.5089Z" fill="#001325" fill-opacity="0.92"/>
<path fill-rule="evenodd" clip-rule="evenodd" d="M15.7016 7.08084L8.26808 7.05191C8.01104 7.05191 7.76452 7.15351 7.58277 7.33437C7.40102 7.51523 7.29891 7.76053 7.29891 8.0163V21.0356C7.29891 21.2914 7.40102 21.5367 7.58277 21.7175C7.76452 21.8984 8.01104 22 8.26808 22H15.7016C15.9586 22 16.2051 21.8984 16.3869 21.7175C16.5687 21.5367 16.6708 21.2914 16.6708 21.0356V8.04523C16.6708 7.78946 16.5687 7.54416 16.3869 7.3633C16.2051 7.18245 15.9586 7.08084 15.7016 7.08084ZM15.2461 8.4985V20.5534H8.72359V8.4985H15.2461Z" fill="#001325" fill-opacity="0.92"/>
<path d="M5.26365 16.3679C5.10343 16.3684 4.94766 16.3155 4.82118 16.2176C4.69471 16.1197 4.60482 15.9825 4.56585 15.8279L3.03456 10.2344C2.95965 9.92526 3.00754 9.59926 3.16823 9.32438C3.32892 9.04949 3.59003 8.84692 3.89712 8.75889L5.06981 8.4985C5.25744 8.45514 5.4547 8.48767 5.61825 8.58893C5.78179 8.69019 5.89826 8.85191 5.94207 9.03856C5.9664 9.13111 5.97153 9.22763 5.95713 9.32222C5.94273 9.4168 5.90911 9.50748 5.85832 9.5887C5.80753 9.66993 5.74063 9.74 5.66172 9.79465C5.5828 9.84929 5.49352 9.88735 5.39933 9.90651L4.5077 10.1187L5.97114 15.4518C5.99606 15.5436 6.00254 15.6394 5.9902 15.7337C5.97786 15.828 5.94695 15.919 5.89924 16.0014C5.85153 16.0838 5.78795 16.1561 5.71215 16.214C5.63635 16.2719 5.54981 16.3144 5.45748 16.339C5.39482 16.3588 5.32939 16.3686 5.26365 16.3679Z" fill="#001325" fill-opacity="0.92"/>
<path d="M18.7641 16.368C18.7031 16.3772 18.641 16.3772 18.58 16.368C18.4877 16.3433 18.4011 16.3009 18.3253 16.2429C18.2495 16.185 18.186 16.1128 18.1382 16.0303C18.0905 15.9479 18.0596 15.857 18.0473 15.7627C18.0349 15.6683 18.0414 15.5725 18.0663 15.4807L19.491 10.1283L18.5994 9.91617C18.5052 9.89701 18.4159 9.85894 18.337 9.8043C18.2581 9.74966 18.1912 9.67958 18.1404 9.59836C18.0896 9.51713 18.056 9.42646 18.0416 9.33187C18.0272 9.23728 18.0323 9.14076 18.0567 9.04821C18.1005 8.86156 18.2169 8.69984 18.3805 8.59858C18.544 8.49732 18.7413 8.4648 18.9289 8.50815L20.0725 8.77818C20.3806 8.85814 20.646 9.05291 20.8138 9.32219C20.9816 9.59146 21.0389 9.91462 20.9738 10.2248L19.4329 15.8279C19.3924 15.9764 19.3061 16.1084 19.1861 16.2053C19.0661 16.3022 18.9185 16.3591 18.7641 16.368Z" fill="#001325" fill-opacity="0.92"/>
</svg>
