<svg width="24" height="24" viewBox="0 0 24 24" fill="none" xmlns="http://www.w3.org/2000/svg">
<path d="M12.4787 3.20813L14.7097 5.50447C14.7721 5.57318 14.8207 5.65451 14.8524 5.74352C14.8841 5.83252 14.8982 5.92736 14.894 6.02229C14.8898 6.11722 14.8673 6.21025 14.8278 6.29577C14.7884 6.38129 14.7328 6.4575 14.6645 6.51979C14.5375 6.65307 14.3653 6.72792 14.1858 6.72792C14.0063 6.72792 13.8341 6.65307 13.7071 6.51979L12.6774 5.43805V13.9781C12.6774 14.1669 12.606 14.3479 12.479 14.4814C12.352 14.6148 12.1796 14.6898 12 14.6898C11.8203 14.6898 11.648 14.6148 11.521 14.4814C11.3939 14.3479 11.3226 14.1669 11.3226 13.9781V5.43805L10.2929 6.55775C10.1639 6.68791 9.99302 6.76242 9.81418 6.76651C9.72286 6.76049 9.63357 6.73559 9.55143 6.69326C9.46928 6.65092 9.39589 6.59198 9.33547 6.51979C9.27156 6.45437 9.22077 6.37616 9.18609 6.28979C9.1514 6.20342 9.13354 6.11062 9.13354 6.01688C9.13354 5.92313 9.1514 5.83033 9.18609 5.74396C9.22077 5.65759 9.27156 5.57938 9.33547 5.51396L11.5213 3.20813C11.6483 3.07486 11.8205 3 12 3C12.1795 3 12.3517 3.07486 12.4787 3.20813Z" fill="#001325" fill-opacity="0.92"/>
<path d="M6.58065 21H17.4194C17.8347 20.9976 18.2327 20.8244 18.5281 20.5176C18.8236 20.2108 18.9929 19.7947 19 19.3584V9.4424C18.9976 9.00276 18.8303 8.58183 18.5344 8.27095C18.2385 7.96007 17.8378 7.78432 17.4194 7.78183H16.0284C15.8487 7.78183 15.6764 7.85681 15.5494 7.99027C15.4223 8.12374 15.351 8.30475 15.351 8.4935C15.351 8.68225 15.4223 8.86327 15.5494 8.99673C15.6764 9.1302 15.8487 9.20518 16.0284 9.20518H17.4194C17.4792 9.20518 17.5367 9.23017 17.579 9.27466C17.6214 9.31915 17.6452 9.37948 17.6452 9.4424V19.3584C17.6452 19.4213 17.6214 19.4817 17.579 19.5261C17.5367 19.5706 17.4792 19.5956 17.4194 19.5956H6.58065C6.52076 19.5956 6.46332 19.5706 6.42098 19.5261C6.37863 19.4817 6.35484 19.4213 6.35484 19.3584V9.4424C6.35484 9.37948 6.37863 9.31915 6.42098 9.27466C6.46332 9.23017 6.52076 9.20518 6.58065 9.20518H8.3871C8.56676 9.20518 8.73906 9.1302 8.8661 8.99673C8.99315 8.86327 9.06452 8.68225 9.06452 8.4935C9.06452 8.30475 8.99315 8.12374 8.8661 7.99027C8.73906 7.85681 8.56676 7.78183 8.3871 7.78183H6.58065C6.16216 7.78432 5.7615 7.96007 5.46558 8.27095C5.16966 8.58183 5.00237 9.00276 5 9.4424V19.3394C5.00237 19.7791 5.16966 20.2 5.46558 20.5109C5.7615 20.8218 6.16216 20.9975 6.58065 21Z" fill="#001325" fill-opacity="0.92"/>
</svg>
