<svg width="24" height="24" viewBox="0 0 24 24" fill="none" xmlns="http://www.w3.org/2000/svg">
<path d="M13.5507 5.24495L19.3156 11.1543L13.5507 17.0435V15.1006C13.5481 14.7009 13.3893 14.3183 13.1088 14.0357C12.8283 13.7531 12.4487 13.5932 12.052 13.5905C11.9757 13.5806 11.8985 13.5806 11.8222 13.5905C9.01523 14.0146 6.44666 15.4227 4.56856 17.567C4.89827 12.9563 7.56594 10.0369 12.3917 8.87915C12.7203 8.80026 13.0131 8.61254 13.2233 8.34605C13.4334 8.07956 13.5487 7.74972 13.5507 7.40936V5.24495ZM13.0212 3C12.7562 3 12.502 3.10606 12.3147 3.29486C12.1273 3.48365 12.022 3.73971 12.022 4.0067V7.42949C8.85481 8.18452 2.10073 10.7113 3.09985 20.5166C3.11245 20.651 3.17512 20.7756 3.27523 20.8652C3.37535 20.9549 3.50547 21.003 3.63938 20.9999C3.73072 21.0008 3.82065 20.9771 3.89975 20.931C3.97885 20.885 4.04421 20.8183 4.08898 20.7381C4.89991 19.2534 6.03567 17.9741 7.41015 16.9974C8.78464 16.0206 10.3618 15.372 12.022 15.1006V18.2918C12.022 18.5588 12.1273 18.8149 12.3147 19.0037C12.502 19.1925 12.7562 19.2985 13.0212 19.2985C13.2847 19.2947 13.5361 19.1862 13.7205 18.9965L20.7144 11.859C20.8975 11.6708 21 11.4178 21 11.1543C21 10.8908 20.8975 10.6378 20.7144 10.4496L13.7205 3.30201C13.5361 3.11233 13.2847 3.00378 13.0212 3Z" fill="#001325" fill-opacity="0.92"/>
</svg>
