<svg width="24" height="24" viewBox="0 0 24 24" fill="none" xmlns="http://www.w3.org/2000/svg">
<path d="M18.1092 5.29401L16.8736 3.07818C16.8545 3.05382 16.8301 3.03412 16.8023 3.02058C16.7745 3.00704 16.744 3 16.7131 3C16.6822 3 16.6517 3.00704 16.6239 3.02058C16.5961 3.03412 16.5717 3.05382 16.5526 3.07818L15.317 5.29401C15.287 5.34718 15.2465 5.39365 15.198 5.43057C15.1495 5.4675 15.094 5.4941 15.0349 5.50876L12.5832 6.02611C12.5494 6.03278 12.5181 6.04831 12.4923 6.07111C12.4664 6.09391 12.4471 6.12317 12.4362 6.15591C12.4254 6.18865 12.4233 6.2237 12.4303 6.25748C12.4374 6.29127 12.4532 6.32258 12.4762 6.34823L14.1398 8.24193C14.1811 8.2878 14.212 8.34207 14.2305 8.40103C14.249 8.45999 14.2546 8.52226 14.2468 8.58358L13.9744 11.1215C13.9706 11.1566 13.9762 11.192 13.9908 11.2241C14.0054 11.2562 14.0284 11.2837 14.0574 11.3037C14.0863 11.3237 14.1201 11.3355 14.1552 11.3378C14.1902 11.3401 14.2253 11.3328 14.2566 11.3168L16.5234 10.2625C16.5786 10.2383 16.6383 10.2259 16.6985 10.2259C16.7588 10.2259 16.8184 10.2383 16.8736 10.2625L19.1794 11.307C19.2103 11.3207 19.2442 11.326 19.2778 11.3226C19.3114 11.3191 19.3435 11.3069 19.371 11.2872C19.3985 11.2675 19.4204 11.241 19.4346 11.2102C19.4487 11.1795 19.4547 11.1455 19.4518 11.1118L19.1794 8.57382C19.1696 8.51244 19.1741 8.44961 19.1927 8.39031C19.2113 8.33101 19.2434 8.27687 19.2864 8.23217L20.9501 6.33847C20.9731 6.31282 20.9889 6.2815 20.9959 6.24772C21.0029 6.21394 21.0009 6.17889 20.99 6.14615C20.9791 6.11341 20.9598 6.08415 20.934 6.06135C20.9082 6.03855 20.8768 6.02302 20.843 6.01635L18.3914 5.499C18.3322 5.4878 18.2762 5.46362 18.2274 5.42818C18.1787 5.39274 18.1383 5.34692 18.1092 5.29401Z" fill="#001325" fill-opacity="0.92"/>
<path d="M6.81394 11.0142H9.66451C9.91744 11.0065 10.1575 10.9003 10.3337 10.7181C10.5098 10.5359 10.6083 10.2919 10.6082 10.038V7.15842C10.6082 6.14618 10.2074 5.17539 9.49405 4.45962C8.78066 3.74386 7.81309 3.34174 6.80421 3.34174C6.30091 3.343 5.80283 3.44421 5.3387 3.63952C4.87457 3.83483 4.45356 4.12038 4.09994 4.47971C3.74632 4.83905 3.46709 5.26506 3.27834 5.73318C3.08959 6.2013 2.99506 6.70228 3.0002 7.20723C3.00147 7.70845 3.10113 8.2045 3.29348 8.66707C3.48583 9.12964 3.7671 9.54967 4.12124 9.90318C4.47538 10.2567 4.89545 10.5367 5.35746 10.7274C5.81948 10.918 6.31439 11.0154 6.81394 11.0142Z" fill="#001325" fill-opacity="0.92"/>
<path d="M10.6277 14.3428V17.1833C10.6277 18.1939 10.2282 19.1632 9.51694 19.8787C8.80566 20.5941 7.84059 20.9974 6.83339 21C5.82529 21 4.85819 20.5995 4.14353 19.8862C3.42887 19.1728 3.0248 18.2045 3.01965 17.1931C3.01965 16.1799 3.42012 15.2081 4.13323 14.4908C4.84634 13.7735 5.81388 13.3692 6.82366 13.3666H9.65478C9.91281 13.3666 10.1603 13.4695 10.3427 13.6525C10.5252 13.8356 10.6277 14.0839 10.6277 14.3428Z" fill="#001325" fill-opacity="0.92"/>
<path d="M12.914 17.1833V14.3428C12.914 14.0839 13.0165 13.8356 13.1989 13.6525C13.3814 13.4695 13.6288 13.3666 13.8869 13.3666H16.7374C17.7455 13.3718 18.7106 13.7772 19.4216 14.4942C20.1326 15.2113 20.5317 16.1816 20.5317 17.1931C20.5304 17.6943 20.4308 18.1903 20.2384 18.6529C20.0461 19.1155 19.7648 19.5355 19.4107 19.889C19.0565 20.2425 18.6365 20.5226 18.1744 20.7132C17.7124 20.9038 17.2175 21.0013 16.718 21C15.7099 20.9974 14.7438 20.5945 14.031 19.8793C13.3181 19.1641 12.9165 18.1948 12.914 17.1833Z" fill="#001325" fill-opacity="0.92"/>
</svg>
