<svg width="24" height="24" viewBox="0 0 24 24" fill="none" xmlns="http://www.w3.org/2000/svg">
<path fill-rule="evenodd" clip-rule="evenodd" d="M6.97454 3H7.00512C9.20638 3 10.9898 4.79028 11 7V9.97698C11 10.5396 10.5414 11 9.9809 11H6.98474C4.78347 11 3.00004 9.21995 3.00004 7.01023C2.98985 4.80051 4.77328 3 6.97454 3ZM9.46115 7C9.46115 5.63939 8.36052 4.53453 7.00512 4.53453C5.62933 4.54476 4.5287 5.64962 4.51851 7C4.51851 8.36061 5.61914 9.46547 6.97454 9.46547H9.46115V7Z" fill="#001325" fill-opacity="0.92"/>
<path fill-rule="evenodd" clip-rule="evenodd" d="M16.5858 3.09357C16.6147 3.02807 16.6824 3 16.75 3C16.8176 3 16.8853 3.02807 16.9046 3.07485L18.1315 5.19883C18.1894 5.31111 18.2957 5.37661 18.4116 5.40468L20.8461 5.90058C20.991 5.92866 21.049 6.10643 20.9524 6.20936L19.2811 8.02456C19.2038 8.10877 19.1652 8.23041 19.1748 8.35205L19.455 10.7848C19.4647 10.8971 19.3681 10.9906 19.2618 10.9906C19.2425 10.9906 19.2135 10.9813 19.1845 10.9719L16.9239 9.97076C16.8659 9.94269 16.808 9.93333 16.75 9.93333C16.692 9.93333 16.6341 9.94269 16.5761 9.97076L14.3252 10.9813C14.3058 10.9906 14.2769 11 14.2479 11C14.1416 11 14.045 10.9064 14.0547 10.7942L14.3252 8.3614C14.3445 8.23977 14.3058 8.12749 14.2189 8.03392L12.5476 6.22807C12.451 6.11579 12.509 5.94737 12.6539 5.9193L15.0787 5.42339C15.1946 5.39532 15.3009 5.32047 15.3589 5.21754L16.5858 3.09357ZM16.8853 5.90058L16.75 5.67602L16.6244 5.90058C16.3636 6.35906 15.9095 6.67719 15.3782 6.78947L15.069 6.85497L15.3106 7.1076C15.668 7.49123 15.8419 8.00585 15.7839 8.52047L15.7549 8.81988L15.9965 8.7076C16.238 8.59532 16.5085 8.53918 16.779 8.53918C17.0495 8.53918 17.3103 8.59532 17.5615 8.7076L17.803 8.81053L17.7644 8.51111C17.7064 7.99649 17.8706 7.48187 18.2281 7.09825L18.4503 6.85497L18.1411 6.78947C17.6098 6.67719 17.1461 6.35906 16.8853 5.90058Z" fill="#001325" fill-opacity="0.92"/>
<path fill-rule="evenodd" clip-rule="evenodd" d="M9.97067 13H6.97452C4.77327 13 2.98985 14.8028 3.00004 17.0051C3.00004 19.2177 4.78346 21 6.98471 21H7.02548C9.22673 21 11.0101 19.1972 11 16.9949V14.0141C10.9898 13.4609 10.5312 13 9.97067 13ZM9.46112 14.5365V17.0051C9.46112 17.6607 9.20635 18.2855 8.74775 18.7465C8.28916 19.2177 7.66751 19.4738 6.98471 19.4738C5.62931 19.4738 4.52869 18.3675 4.52869 17.0154C4.52869 16.3598 4.78346 15.735 5.24206 15.274C5.70065 14.8028 6.3223 14.5467 6.97452 14.5467L9.46112 14.5365Z" fill="#001325" fill-opacity="0.92"/>
<path fill-rule="evenodd" clip-rule="evenodd" d="M13 14.023C13 13.4604 13.4586 13 14.0191 13L17.0255 13.0102C19.2268 13.0102 21 14.8005 21 17.0102C21 19.2097 19.2166 21 17.0153 21H16.9745C14.7732 21 13 19.2097 13 17V14.023ZM17.0153 14.5345H14.5287V16.9898C14.5287 17.6445 14.7834 18.2583 15.242 18.7289C15.7006 19.1995 16.3223 19.4552 16.9745 19.4552C18.3605 19.4552 19.4611 18.3606 19.4611 17C19.4611 16.3453 19.2064 15.7315 18.7478 15.2609C18.2892 14.7903 17.6675 14.5345 17.0153 14.5345Z" fill="#001325" fill-opacity="0.92"/>
</svg>
