<svg width="24" height="24" viewBox="0 0 24 24" fill="none" xmlns="http://www.w3.org/2000/svg">
<path d="M20.2209 6.93051L16.9574 6.29918V4.94229C16.9574 4.69238 16.8566 4.4527 16.6771 4.27599C16.4976 4.09928 16.2542 4 16.0004 4H7.99963C7.74581 4 7.50238 4.09928 7.32291 4.27599C7.14343 4.4527 7.0426 4.69238 7.0426 4.94229V6.29918L3.77913 6.93051C3.53279 6.97639 3.31458 7.11562 3.1714 7.31826C3.02823 7.5209 2.97154 7.77077 3.01351 8.01413L4.74573 17.8893C4.77449 18.0078 4.81957 18.122 4.87972 18.2285L4.95628 18.3133C5.00316 18.3763 5.05782 18.4332 5.11897 18.4829L5.23382 18.5489L5.43479 18.6337H5.57835C5.67632 18.6525 5.77705 18.6525 5.87502 18.6337L7.0426 18.417V19.0577C7.0426 19.3076 7.14343 19.5473 7.32291 19.724C7.50238 19.9007 7.74581 20 7.99963 20H16.0004C16.2542 20 16.4976 19.9007 16.6771 19.724C16.8566 19.5473 16.9574 19.3076 16.9574 19.0577V18.417L18.125 18.6337C18.2229 18.6525 18.3237 18.6525 18.4217 18.6337H18.5652L18.7662 18.5489L18.881 18.4829C18.9422 18.4332 18.9968 18.3763 19.0437 18.3133L19.1203 18.2285C19.1804 18.122 19.2255 18.0078 19.2543 17.8893L20.9865 8.01413C21.0285 7.77077 20.9718 7.5209 20.8286 7.31826C20.6854 7.11562 20.4672 6.97639 20.2209 6.93051ZM6.08557 17.1731L4.51605 8.24028L7.0426 7.75029V17.0035L6.08557 17.1731ZM15.5219 18.6054H8.47814V5.41343H15.5219V18.6054ZM17.9144 17.1731L16.9574 16.9941V7.74087L19.484 8.24028L17.9144 17.1731Z" fill="#001325" fill-opacity="0.92"/>
</svg>
