<svg width="24" height="24" viewBox="0 0 24 24" fill="none" xmlns="http://www.w3.org/2000/svg">
<path d="M12 3C10.22 3 8.47991 3.52784 6.99987 4.51677C5.51983 5.50571 4.36628 6.91131 3.68509 8.55585C3.0039 10.2004 2.82567 12.01 3.17294 13.7558C3.5202 15.5016 4.37737 17.1053 5.63604 18.364C6.89472 19.6226 8.49836 20.4798 10.2442 20.8271C11.99 21.1743 13.7996 20.9961 15.4442 20.3149C17.0887 19.6337 18.4943 18.4802 19.4832 17.0001C20.4722 15.5201 21 13.78 21 12C21 9.61305 20.0518 7.32387 18.364 5.63604C16.6761 3.94821 14.387 3 12 3ZM17.69 8.7C17.3965 9.13503 17.0313 9.51712 16.61 9.83V10C16.5955 11.6422 15.9923 13.2248 14.91 14.46C14.299 15.1588 13.5435 15.7165 12.6957 16.0946C11.8479 16.4728 10.9282 16.6623 10 16.65C8.74215 16.6638 7.50669 16.3168 6.44 15.65C6.39748 15.6215 6.36568 15.5796 6.34964 15.531C6.33361 15.4824 6.33425 15.4298 6.35147 15.3816C6.36869 15.3334 6.4015 15.2923 6.4447 15.2648C6.48791 15.2374 6.53904 15.2251 6.59 15.23C6.75651 15.2402 6.9235 15.2402 7.09 15.23C7.86178 15.2288 8.61874 15.018 9.28 14.62C8.88118 14.5144 8.51501 14.3109 8.21468 14.028C7.91434 13.7451 7.68932 13.3918 7.56 13C7.54855 12.9637 7.54715 12.9251 7.55595 12.8881C7.56476 12.8511 7.58344 12.8172 7.61 12.79C7.63582 12.7605 7.66846 12.7378 7.70506 12.7239C7.74167 12.71 7.78113 12.7052 7.82 12.71C7.49359 12.4869 7.22526 12.1889 7.03739 11.841C6.84952 11.4931 6.74755 11.1053 6.74 10.71C6.74192 10.6705 6.75282 10.6319 6.77188 10.5973C6.79095 10.5626 6.81766 10.5328 6.85 10.51C6.88528 10.4907 6.92482 10.4807 6.965 10.4807C7.00519 10.4807 7.04473 10.4907 7.08 10.51C7.13 10.51 7.2 10.51 7.26 10.58C6.96725 10.1975 6.79479 9.73658 6.76452 9.25585C6.73425 8.77511 6.84754 8.29622 7.09 7.88C7.10911 7.8478 7.1352 7.82029 7.16635 7.79952C7.19751 7.77875 7.23293 7.76525 7.27 7.76C7.30799 7.75881 7.34574 7.7663 7.3804 7.7819C7.41506 7.79749 7.4457 7.82078 7.47 7.85C7.99414 8.46961 8.63627 8.97878 9.35904 9.34789C10.0818 9.717 10.8708 9.93867 11.68 10C11.6752 9.92007 11.6752 9.83993 11.68 9.76C11.6863 9.2856 11.8302 8.82323 12.0942 8.42904C12.3582 8.03485 12.731 7.7258 13.1673 7.53942C13.6036 7.35304 14.0847 7.29734 14.552 7.37911C15.0193 7.46087 15.4529 7.67656 15.8 8C16.2501 7.90615 16.6823 7.74072 17.08 7.51C17.1188 7.48502 17.1639 7.47174 17.21 7.47174C17.2561 7.47174 17.3012 7.48502 17.34 7.51C17.3755 7.53978 17.4012 7.57957 17.4136 7.62418C17.4261 7.66879 17.4249 7.71613 17.41 7.76C17.3259 8.01709 17.1973 8.25741 17.03 8.47C17.159 8.44608 17.286 8.41266 17.41 8.37C17.4559 8.35232 17.506 8.34859 17.5541 8.35926C17.6021 8.36993 17.6459 8.39454 17.68 8.43C17.7086 8.4688 17.7248 8.5153 17.7266 8.56346C17.7284 8.61162 17.7156 8.65919 17.69 8.7Z" fill="#001325" fill-opacity="0.92"/>
</svg>
