<svg width="24" height="24" viewBox="0 0 24 24" fill="none" xmlns="http://www.w3.org/2000/svg">
<path d="M11.9903 3C9.93236 3.00443 7.93795 3.71249 6.3388 5.00641C4.73965 6.30033 3.63213 8.10213 3.20045 10.1121C2.76878 12.1221 3.03896 14.2192 3.96605 16.0545C4.89315 17.8898 6.4213 19.3527 8.29632 20.2C8.29632 19.8 8.86693 17.69 8.93701 17.37C9.09718 16.71 9.93808 13.16 9.93808 13.16C9.76598 12.7661 9.68063 12.3398 9.68781 11.91C9.68781 10.73 10.3685 9.86 11.2195 9.86C11.3675 9.85678 11.5146 9.88455 11.6512 9.94151C11.7878 9.99847 11.911 10.0834 12.0129 10.1907C12.1147 10.2981 12.1929 10.4256 12.2425 10.565C12.292 10.7043 12.3118 10.8525 12.3006 11C12.1483 11.955 11.9138 12.8952 11.5999 13.81C11.5528 13.9962 11.55 14.1908 11.5917 14.3783C11.6334 14.5657 11.7185 14.7408 11.8401 14.8895C11.9618 15.0383 12.1166 15.1565 12.2921 15.2347C12.4677 15.3129 12.6592 15.349 12.8512 15.34C14.3628 15.34 15.5141 13.76 15.5141 11.47C15.5273 11.0087 15.4445 10.5497 15.2707 10.1222C15.097 9.69457 14.8362 9.30772 14.5049 8.98615C14.1735 8.66458 13.7789 8.41531 13.346 8.25416C12.9132 8.093 12.4515 8.02348 11.9903 8.05C11.495 8.02835 11.0004 8.10733 10.5366 8.28217C10.0727 8.45702 9.64921 8.72408 9.29169 9.06719C8.93417 9.4103 8.65008 9.82232 8.45662 10.2783C8.26315 10.7343 8.16435 11.2248 8.16618 11.72C8.16747 12.4137 8.38821 13.0892 8.79685 13.65C8.82685 13.6814 8.84816 13.72 8.85869 13.7621C8.86922 13.8041 8.86861 13.8482 8.85692 13.89C8.78684 14.16 8.64669 14.73 8.61666 14.89C8.58663 15.05 8.48652 15 8.32635 15C7.78253 14.6484 7.33847 14.1629 7.03691 13.5902C6.73534 13.0174 6.58643 12.3768 6.60449 11.73C6.60449 9.06 8.54658 6.61 12.2005 6.61C12.8653 6.58191 13.5291 6.6865 14.1529 6.91767C14.7768 7.14884 15.3482 7.50193 15.8338 7.95632C16.3195 8.4107 16.7095 8.95724 16.9812 9.56399C17.2529 10.1707 17.4008 10.8255 17.4161 11.49C17.4161 14.41 15.5842 16.75 13.0314 16.75C12.6495 16.7607 12.2711 16.6746 11.9315 16.4997C11.5919 16.3249 11.3022 16.0669 11.0893 15.75C11.0893 15.75 10.6689 17.37 10.5588 17.75C10.4486 18.13 9.7679 20.22 9.55767 20.62C10.3469 20.859 11.1657 20.9869 11.9903 21C13.1735 21 14.3451 20.7672 15.4382 20.3149C16.5313 19.8626 17.5245 19.1997 18.3611 18.364C19.1977 17.5282 19.8614 16.5361 20.3142 15.4442C20.767 14.3522 21 13.1819 21 12C21 10.8181 20.767 9.64778 20.3142 8.55585C19.8614 7.46392 19.1977 6.47177 18.3611 5.63604C17.5245 4.80031 16.5313 4.13738 15.4382 3.68508C14.3451 3.23279 13.1735 3 11.9903 3Z" fill="#001325" fill-opacity="0.92"/>
</svg>
