<svg width="24" height="24" viewBox="0 0 24 24" fill="none" xmlns="http://www.w3.org/2000/svg">
<path d="M11.2134 10.288C11.2609 10.2869 11.3079 10.2979 11.35 10.32L13.79 11.73C13.8316 11.7535 13.8662 11.7877 13.8903 11.829C13.9144 11.8703 13.9271 11.9172 13.9271 11.965C13.9271 12.0128 13.9144 12.0597 13.8903 12.101C13.8662 12.1423 13.8316 12.1765 13.79 12.2L11.35 13.61C11.3091 13.6348 11.2624 13.6483 11.2146 13.6491C11.1668 13.6499 11.1196 13.638 11.0779 13.6146C11.0362 13.5912 11.0015 13.5572 10.9772 13.516C10.953 13.4747 10.9402 13.4278 10.94 13.38V10.56C10.9414 10.5125 10.9548 10.4661 10.979 10.4252C11.0032 10.3843 11.0374 10.3503 11.0784 10.3263C11.1195 10.3023 11.1659 10.2891 11.2134 10.288Z" fill="#001325" fill-opacity="0.92"/>
<path fill-rule="evenodd" clip-rule="evenodd" d="M6.99987 4.51677C8.47991 3.52784 10.22 3 12 3C14.387 3 16.6761 3.94821 18.364 5.63604C20.0518 7.32387 21 9.61305 21 12C21 13.78 20.4722 15.5201 19.4832 17.0001C18.4943 18.4802 17.0887 19.6337 15.4442 20.3149C13.7996 20.9961 11.99 21.1743 10.2442 20.8271C8.49836 20.4798 6.89472 19.6226 5.63604 18.364C4.37737 17.1053 3.5202 15.5016 3.17294 13.7558C2.82567 12.01 3.0039 10.2004 3.68509 8.55585C4.36628 6.91131 5.51983 5.50571 6.99987 4.51677ZM16.8439 15.7939C17.0208 15.617 17.1442 15.3939 17.2 15.15L17.22 15.12C17.3823 14.0881 17.4592 13.0446 17.45 12C17.4668 10.946 17.3966 9.89243 17.24 8.85C17.18 8.60813 17.0552 8.3872 16.879 8.21099C16.7028 8.03479 16.4819 7.90998 16.24 7.85C14.8328 7.68674 13.4166 7.61326 12 7.63C10.607 7.6131 9.21428 7.68323 7.83 7.84C7.58813 7.89998 7.3672 8.02479 7.191 8.20099C7.01479 8.3772 6.88998 8.59813 6.83 8.84C6.66618 9.88517 6.58925 10.9421 6.6 12C6.55268 13.0515 6.59282 14.1051 6.72 15.15C6.77686 15.3934 6.90063 15.616 7.07734 15.7927C7.25405 15.9694 7.47665 16.0931 7.72 16.15C9.12669 16.3205 10.5431 16.3973 11.96 16.38C13.3769 16.3975 14.7933 16.3207 16.2 16.15C16.4439 16.0942 16.667 15.9708 16.8439 15.7939Z" fill="#001325" fill-opacity="0.92"/>
</svg>
