<svg width="24" height="24" viewBox="0 0 24 24" fill="none" xmlns="http://www.w3.org/2000/svg">
<path d="M6.42851 6.48961V9.51726L6.45766 17.476L7.15709 16.7659C7.29895 16.684 7.46379 16.6528 7.62518 16.6774C7.78657 16.702 7.93517 16.7808 8.04715 16.9013C8.15914 17.0218 8.22803 17.177 8.24278 17.342C8.25754 17.507 8.2173 17.6723 8.12852 17.8113L6.18566 19.7837C6.04905 19.9222 5.86387 20 5.6708 20C5.47772 20 5.29255 19.9222 5.15594 19.7837L3.21307 17.8113C3.07664 17.6726 3 17.4846 3 17.2886C3 17.0926 3.07664 16.9046 3.21307 16.7659C3.28005 16.6961 3.36011 16.6407 3.44854 16.6028C3.53696 16.5649 3.63196 16.5454 3.72793 16.5454C3.8239 16.5454 3.9189 16.5649 4.00733 16.6028C4.09575 16.6407 4.17582 16.6961 4.24279 16.7659L4.94222 17.476V6.48961L4.24279 7.19968C4.11022 7.32303 3.93691 7.39147 3.75708 7.39147C3.57724 7.39147 3.40394 7.32303 3.27136 7.19968C3.13492 7.06099 3.05829 6.87299 3.05829 6.67699C3.05829 6.48098 3.13492 6.29298 3.27136 6.1543L5.21422 4.18188C5.34964 4.06449 5.52187 4 5.69994 4C5.87801 4 6.05024 4.06449 6.18566 4.18188L8.12852 6.1543C8.26496 6.29298 8.3416 6.48098 8.3416 6.67699C8.3416 6.87299 8.26496 7.06099 8.12852 7.19968C7.994 7.31898 7.82143 7.38472 7.6428 7.38472C7.46418 7.38472 7.29161 7.31898 7.15709 7.19968L6.42851 6.48961Z" fill="#001325" fill-opacity="0.92"/>
<path d="M10.6931 5.50339H20.2714C20.4647 5.50339 20.65 5.58132 20.7866 5.72003C20.9232 5.85874 21 6.04688 21 6.24304C21 6.43921 20.9232 6.62735 20.7866 6.76606C20.65 6.90477 20.4647 6.9827 20.2714 6.9827H10.6931C10.4999 6.9827 10.3146 6.90477 10.1779 6.76606C10.0413 6.62735 9.96453 6.43921 9.96453 6.24304C9.96453 6.04688 10.0413 5.85874 10.1779 5.72003C10.3146 5.58132 10.4999 5.50339 10.6931 5.50339Z" fill="#001325" fill-opacity="0.92"/>
<path d="M10.6931 11.2431H17.2211C17.4144 11.2431 17.5997 11.3211 17.7363 11.4598C17.8729 11.5985 17.9497 11.7866 17.9497 11.9828C17.9497 12.179 17.8729 12.3671 17.7363 12.5058C17.5997 12.6445 17.4144 12.7224 17.2211 12.7224H10.6931C10.4999 12.7224 10.3146 12.6445 10.1779 12.5058C10.0413 12.3671 9.96453 12.179 9.96453 11.9828C9.96453 11.7866 10.0413 11.5985 10.1779 11.4598C10.3146 11.3211 10.4999 11.2431 10.6931 11.2431Z" fill="#001325" fill-opacity="0.92"/>
<path d="M13.3063 16.9829H10.6931C10.4999 16.9829 10.3146 17.0608 10.1779 17.1995C10.0413 17.3382 9.96453 17.5263 9.96453 17.7225C9.96453 17.9187 10.0413 18.1068 10.1779 18.2455C10.3146 18.3842 10.4999 18.4622 10.6931 18.4622H13.3063C13.4995 18.4622 13.6848 18.3842 13.8214 18.2455C13.9581 18.1068 14.0348 17.9187 14.0348 17.7225C14.0348 17.5263 13.9581 17.3382 13.8214 17.1995C13.6848 17.0608 13.4995 16.9829 13.3063 16.9829Z" fill="#001325" fill-opacity="0.92"/>
</svg>
