<svg width="24" height="24" viewBox="0 0 24 24" fill="none" xmlns="http://www.w3.org/2000/svg">
<path d="M15.5303 10.0303C15.8232 9.73744 15.8232 9.26256 15.5303 8.96967C15.2374 8.67678 14.7626 8.67678 14.4697 8.96967L8.46967 14.9697C8.17678 15.2626 8.17678 15.7374 8.46967 16.0303C8.76256 16.3232 9.23744 16.3232 9.53033 16.0303L15.5303 10.0303Z" fill="#001325" fill-opacity="0.92"/>
<path d="M9.91383 7.0975C10.0954 7.5875 10.5089 8.3275 11.3965 8.6575C11.5276 8.7075 11.5377 8.8875 11.4066 8.9375C10.9224 9.1275 10.2366 9.5275 9.91383 10.3975C9.8634 10.5275 9.69193 10.5375 9.6415 10.4075C9.44987 9.9375 9.02625 9.2575 8.09834 8.9275C7.96722 8.8775 7.96722 8.6975 8.09834 8.6475C8.58247 8.4575 9.2784 8.0375 9.6415 7.0975C9.69193 6.9675 9.87348 6.9675 9.91383 7.0975Z" fill="#001325" fill-opacity="0.92"/>
<path d="M16.3966 15.6575C15.5104 15.3275 15.0975 14.5875 14.9162 14.0975C14.8658 13.9675 14.6845 13.9675 14.6342 14.0975C14.2716 15.0375 13.5767 15.4575 13.0933 15.6475C12.9624 15.6975 12.9724 15.8775 13.1034 15.9275C14.0299 16.2575 14.4529 16.9375 14.6443 17.4075C14.6946 17.5375 14.8658 17.5275 14.9162 17.3975C15.2384 16.5275 15.9233 16.1275 16.4067 15.9375C16.5376 15.8875 16.5276 15.7075 16.3966 15.6575Z" fill="#001325" fill-opacity="0.92"/>
<path fill-rule="evenodd" clip-rule="evenodd" d="M10.8099 2.39059C11.1699 2.1302 11.5799 2 11.9999 2C12.4199 2 12.8299 2.1302 13.1899 2.39059L13.3599 2.51077C13.7199 2.78117 14.1499 2.92138 14.5899 2.92138C14.7199 2.92138 14.8599 2.91137 14.9899 2.88132L15.1999 2.84126C15.3199 2.81122 15.4499 2.8012 15.5799 2.8012C16.3099 2.8012 16.9999 3.2018 17.3599 3.85278L17.4299 3.99299C17.6999 4.52379 18.1899 4.90436 18.7599 5.04457L18.9199 5.08463C19.7899 5.30496 20.4099 6.0661 20.4299 6.96745V7.05759C20.4499 7.65849 20.7199 8.22934 21.1899 8.60992L21.2699 8.68002C21.9699 9.26089 22.1999 10.2424 21.8199 11.0636L21.7899 11.1237C21.5399 11.6745 21.5399 12.3155 21.7899 12.8663L21.8199 12.9264C22.1899 13.7476 21.9699 14.7191 21.2699 15.2999L21.1899 15.3701C20.7199 15.7506 20.4499 16.3215 20.4299 16.9224V17.0125C20.4099 17.9039 19.7899 18.675 18.9199 18.8953L18.7499 18.9354C18.1799 19.0856 17.6999 19.4662 17.4199 19.987L17.3499 20.1272C16.9999 20.7982 16.3099 21.1988 15.5799 21.1988C15.4599 21.1988 15.3299 21.1888 15.1999 21.1587L14.9899 21.1187C14.8599 21.0886 14.7199 21.0786 14.5899 21.0786C14.1499 21.0786 13.7199 21.2188 13.3599 21.4892L13.1899 21.6094C12.8299 21.8698 12.4199 22 11.9999 22C11.5799 22 11.1599 21.8698 10.8099 21.6094L10.6399 21.4892C10.2799 21.2288 9.84994 21.0886 9.40994 21.0886C9.27994 21.0886 9.13994 21.0986 9.00994 21.1287L8.79994 21.1688C8.67994 21.1988 8.54994 21.2088 8.41994 21.2088C7.68994 21.2088 6.99994 20.7982 6.64994 20.1372L6.57994 19.997C6.30994 19.4662 5.81994 19.0856 5.24994 18.9454L5.07994 18.9054C4.20994 18.685 3.58994 17.9139 3.56994 17.0225V16.9324C3.54994 16.3315 3.27994 15.7606 2.80994 15.3801L2.72994 15.31C2.02994 14.7391 1.79994 13.7576 2.17994 12.9364L2.20994 12.8763C2.45994 12.3255 2.45994 11.6845 2.20994 11.1337L2.17994 11.0736C1.80994 10.2524 2.02994 9.28092 2.72994 8.70005L2.80994 8.62994C3.27994 8.24937 3.54994 7.67852 3.56994 7.07762V6.98748C3.59994 6.08613 4.20994 5.31497 5.07994 5.09464L5.24994 5.05458C5.81994 4.91437 6.29994 4.5338 6.57994 4.003L6.64994 3.87281C6.99994 3.2018 7.68994 2.8012 8.41994 2.8012C8.54994 2.8012 8.67994 2.81122 8.79994 2.84126L9.00994 2.88132C9.13994 2.91137 9.27994 2.92138 9.40994 2.92138C9.84994 2.92138 10.2799 2.78117 10.6399 2.51077L10.8099 2.39059ZM12.2999 3.6024C12.1899 3.52228 12.0699 3.50225 11.9999 3.50225C11.9299 3.50225 11.8099 3.52228 11.7099 3.6024L11.5399 3.72258C10.9199 4.18327 10.1899 4.42364 9.41994 4.42364C9.18994 4.42364 8.95994 4.39359 8.72994 4.35353L8.51994 4.31347C8.47994 4.30345 8.44994 4.30346 8.41994 4.30346C8.22994 4.30346 8.06994 4.41362 7.97994 4.57386L7.90994 4.71407C7.42994 5.61542 6.59994 6.2664 5.60994 6.51678L5.43994 6.55684C5.21994 6.61693 5.06994 6.80721 5.05994 7.02754V7.11768C5.02994 8.15924 4.54994 9.1307 3.74994 9.79169L3.66994 9.86179C3.48994 10.002 3.43994 10.2524 3.52994 10.4527L3.55994 10.5128C3.99994 11.4742 3.99994 12.5658 3.55994 13.5173L3.52994 13.5774C3.43994 13.7777 3.49994 14.028 3.66994 14.1683L3.74994 14.2384C4.55994 14.8994 5.02994 15.8708 5.05994 16.9124V17.0025C5.06994 17.2228 5.21994 17.4231 5.43994 17.4732L5.60994 17.5133C6.59994 17.7536 7.43994 18.4146 7.90994 19.316L7.97994 19.4562C8.06994 19.6264 8.22994 19.7266 8.41994 19.7266C8.45994 19.7266 8.48994 19.7266 8.51994 19.7166L8.70994 19.6665C8.93994 19.6164 9.16994 19.5964 9.39994 19.5964C10.1599 19.5964 10.9099 19.8468 11.5199 20.2974L11.6899 20.4176C11.7999 20.4977 11.9099 20.5178 11.9899 20.5178C12.0699 20.5178 12.1799 20.4977 12.2899 20.4176L12.4599 20.2974C13.0799 19.8368 13.8099 19.5964 14.5799 19.5964C14.8099 19.5964 15.0399 19.6264 15.2699 19.6665L15.4799 19.7066C15.5199 19.7166 15.5499 19.7166 15.5799 19.7166C15.7599 19.7166 15.9299 19.6064 16.0199 19.4462L16.0899 19.306C16.5699 18.4046 17.3999 17.7536 18.3899 17.5033L18.5599 17.4632C18.7799 17.4031 18.9299 17.2128 18.9399 16.9925V16.9024C18.9699 15.8608 19.4499 14.8893 20.2499 14.2283L20.3299 14.1582C20.5099 14.018 20.5599 13.7677 20.4699 13.5674L20.4399 13.5073C19.9999 12.5458 19.9999 11.4542 20.4399 10.5028L20.4699 10.4427C20.5599 10.2424 20.4999 9.99199 20.3299 9.85178L20.2499 9.78167C19.4399 9.12068 18.9699 8.14922 18.9399 7.10766V7.01753C18.9299 6.7972 18.7799 6.5969 18.5599 6.54682L18.3999 6.50676C17.4099 6.2664 16.5699 5.60541 16.0999 4.70406L16.0299 4.56385C15.9399 4.40361 15.7699 4.30346 15.5899 4.30346C15.5499 4.30346 15.5199 4.30345 15.4899 4.31347L15.2799 4.35353C15.0499 4.40361 14.8199 4.42364 14.5899 4.42364C13.8199 4.42364 13.0899 4.18327 12.4699 3.72258L12.2999 3.6024Z" fill="#001325" fill-opacity="0.92"/>
</svg>
