<svg width="24" height="24" viewBox="0 0 24 24" fill="none" xmlns="http://www.w3.org/2000/svg">
<path d="M14.1061 11.7355H12.7489V10.3877C12.7489 10.1891 12.6695 9.99869 12.5281 9.85828C12.3867 9.71786 12.1949 9.63898 11.995 9.63898C11.795 9.63898 11.6032 9.71786 11.4618 9.85828C11.3204 9.99869 11.241 10.1891 11.241 10.3877V11.7355H9.88389C9.78487 11.7355 9.68683 11.7548 9.59536 11.7924C9.50389 11.8301 9.42077 11.8852 9.35076 11.9548C9.28075 12.0243 9.22521 12.1068 9.18732 12.1977C9.14943 12.2885 9.12993 12.3859 9.12993 12.4842C9.12993 12.5825 9.14943 12.6799 9.18732 12.7707C9.22521 12.8616 9.28075 12.9441 9.35076 13.0136C9.42077 13.0832 9.50389 13.1383 9.59536 13.1759C9.68683 13.2136 9.78487 13.2329 9.88389 13.2329H11.241V14.5807C11.241 14.7792 11.3204 14.9697 11.4618 15.1101C11.6032 15.2505 11.795 15.3294 11.995 15.3294C12.1949 15.3294 12.3867 15.2505 12.5281 15.1101C12.6695 14.9697 12.7489 14.7792 12.7489 14.5807V13.2329H14.1061C14.2051 13.2329 14.3031 13.2136 14.3946 13.1759C14.4861 13.1383 14.5692 13.0832 14.6392 13.0136C14.7092 12.9441 14.7647 12.8616 14.8026 12.7707C14.8405 12.6799 14.86 12.5825 14.86 12.4842C14.86 12.3859 14.8405 12.2885 14.8026 12.1977C14.7647 12.1068 14.7092 12.0243 14.6392 11.9548C14.5692 11.8852 14.4861 11.8301 14.3946 11.7924C14.3031 11.7548 14.2051 11.7355 14.1061 11.7355Z" fill="#001325" fill-opacity="0.92"/>
<path fill-rule="evenodd" clip-rule="evenodd" d="M10.9644 3.54038C11.1738 3.11014 11.5826 2.90002 11.9914 2.90002C12.3903 2.90002 12.7991 3.11014 13.0185 3.53037L15.3418 8.24295L20.5169 8.97335C21.4542 9.10342 21.8332 10.2541 21.1551 10.9244L17.4158 14.5964L18.3133 19.7693C18.4429 20.5197 17.8546 21.12 17.1865 21.12C17.017 21.12 16.8375 21.08 16.658 20.9899L12.0214 18.5586L7.39465 21.0099C7.21517 21.11 7.03568 21.15 6.8562 21.15C6.18812 21.15 5.59981 20.5497 5.72944 19.8093L6.60691 14.6465L2.84772 10.9845C2.16967 10.3241 2.53861 9.16346 3.47591 9.02338L8.65104 8.25296L10.9644 3.54038ZM14.0057 8.92332L11.9914 4.85109L9.64817 9.62371L8.87041 9.74377L4.40325 10.4041L7.64393 13.5559L8.2123 14.1062L8.08267 14.8766L7.32485 19.349L12.0214 16.8577L12.7193 17.2279L16.7179 19.329L15.9501 14.8666L15.8204 14.0862L16.3788 13.5359L19.5996 10.3741L14.3546 9.63371L14.0057 8.92332Z" fill="#001325" fill-opacity="0.92"/>
</svg>
