<svg width="24" height="24" viewBox="0 0 24 24" fill="none" xmlns="http://www.w3.org/2000/svg">
<path fill-rule="evenodd" clip-rule="evenodd" d="M9.39999 8.39999H14.6C14.8652 8.39999 15.1196 8.50535 15.3071 8.69289C15.4946 8.88042 15.6 9.13478 15.6 9.39999V14.6C15.6 14.8652 15.4946 15.1196 15.3071 15.3071C15.1196 15.4946 14.8652 15.6 14.6 15.6H9.39999C9.13478 15.6 8.88042 15.4946 8.69289 15.3071C8.50535 15.1196 8.39999 14.8652 8.39999 14.6V9.39999C8.39999 9.13478 8.50535 8.88042 8.69289 8.69289C8.88042 8.50535 9.13478 8.39999 9.39999 8.39999ZM14.1 14.1V9.89999H9.89999V14.1H14.1Z" fill="#001325" fill-opacity="0.92"/>
<path fill-rule="evenodd" clip-rule="evenodd" d="M6.99987 4.51677C8.47991 3.52784 10.22 3 12 3C14.387 3 16.6761 3.94821 18.364 5.63604C20.0518 7.32387 21 9.61305 21 12C21 13.78 20.4722 15.5201 19.4832 17.0001C18.4943 18.4802 17.0887 19.6337 15.4442 20.3149C13.7996 20.9961 11.99 21.1743 10.2442 20.8271C8.49836 20.4798 6.89472 19.6226 5.63604 18.364C4.37737 17.1053 3.5202 15.5016 3.17294 13.7558C2.82567 12.01 3.0039 10.2004 3.68509 8.55585C4.36628 6.91131 5.51983 5.50571 6.99987 4.51677ZM16.1668 5.76398C14.9334 4.93987 13.4834 4.5 12 4.5C10.0109 4.5 8.10323 5.29018 6.6967 6.6967C5.29018 8.10322 4.5 10.0109 4.5 12C4.5 13.4834 4.93987 14.9334 5.76398 16.1668C6.58809 17.4001 7.75943 18.3614 9.12988 18.9291C10.5003 19.4968 12.0083 19.6453 13.4632 19.3559C14.918 19.0665 16.2544 18.3522 17.3033 17.3033C18.3522 16.2544 19.0665 14.918 19.3559 13.4632C19.6453 12.0083 19.4968 10.5003 18.9291 9.12987C18.3614 7.75943 17.4002 6.58809 16.1668 5.76398Z" fill="#001325" fill-opacity="0.92"/>
</svg>
