<svg width="24" height="24" viewBox="0 0 24 24" fill="none" xmlns="http://www.w3.org/2000/svg">
<path d="M21 10.0939L20.1818 4.80968C20.0932 4.43002 19.8753 4.09238 19.5649 3.85384C19.2544 3.6153 18.8705 3.49051 18.4781 3.50056H5.52192C5.12415 3.49233 4.73602 3.62254 4.42483 3.86864C4.11364 4.11473 3.89902 4.46118 3.81818 4.8479L3 10.0939V10.2086C3.0175 10.6226 3.16124 11.0215 3.41221 11.3525C3.66317 11.6835 4.0095 11.9311 4.40535 12.0624V19.5444C4.40535 19.7979 4.50676 20.0409 4.68728 20.2201C4.86779 20.3993 5.11263 20.5 5.36791 20.5H18.6225C18.8777 20.5 19.1226 20.3993 19.3031 20.2201C19.4836 20.0409 19.585 19.7979 19.585 19.5444V12.0624C19.9809 11.9311 20.3272 11.6835 20.5782 11.3525C20.8291 11.0215 20.9729 10.6226 20.9904 10.2086L21 10.0939ZM13.6075 19.0667H10.3925V15.4546H13.6075V19.0667ZM18.1412 19.0667H15.0513V14.9769C15.0513 14.7234 14.9499 14.4804 14.7694 14.3012C14.5889 14.122 14.3441 14.0213 14.0888 14.0213H9.91123C9.65594 14.0213 9.41111 14.122 9.23059 14.3012C9.05008 14.4804 8.94866 14.7234 8.94866 14.9769V19.0667H5.85882V12.2057C6.29152 12.1351 6.69713 11.9503 7.03315 11.6706C7.5043 12.0411 8.08772 12.2427 8.68877 12.2427C9.28982 12.2427 9.87324 12.0411 10.3444 11.6706C10.8155 12.0411 11.3989 12.2427 12 12.2427C12.6011 12.2427 13.1845 12.0411 13.6556 11.6706C14.1268 12.0411 14.7102 12.2427 15.3112 12.2427C15.9123 12.2427 16.4957 12.0411 16.9668 11.6706C17.3029 11.9503 17.7085 12.1351 18.1412 12.2057V19.0667ZM18.6225 10.8106C18.0834 10.8106 17.7273 10.5335 17.6599 10.2564V9.02371C17.6574 8.8344 17.5805 8.65355 17.4457 8.51968C17.3108 8.38581 17.1287 8.30951 16.938 8.30704C16.7473 8.30951 16.5651 8.38581 16.4302 8.51968C16.2954 8.65355 16.2185 8.8344 16.216 9.02371V10.2373C16.216 10.5144 15.8214 10.8106 15.2535 10.8106C14.6856 10.8106 14.3583 10.5239 14.2909 10.2468V9.02371C14.2884 8.8344 14.2116 8.65355 14.0767 8.51968C13.9419 8.38581 13.7597 8.30951 13.569 8.30704C13.3783 8.30951 13.1961 8.38581 13.0613 8.51968C12.9264 8.65355 12.8496 8.8344 12.8471 9.02371V10.2373C12.8471 10.5144 12.4524 10.8106 11.8845 10.8106C11.3166 10.8106 10.9893 10.5239 10.9219 10.2468V9.02371C10.9194 8.8344 10.8426 8.65355 10.7077 8.51968C10.5729 8.38581 10.3907 8.30951 10.2 8.30704C10.0093 8.30951 9.82713 8.38581 9.69228 8.51968C9.55743 8.65355 9.48057 8.8344 9.47807 9.02371V10.2373C9.47807 10.5144 9.08342 10.8106 8.51551 10.8106C7.94759 10.8106 7.62032 10.5144 7.55294 10.2373V9.02371C7.55294 8.83364 7.47688 8.65135 7.34149 8.51694C7.20611 8.38254 7.02248 8.30704 6.83102 8.30704C6.64032 8.30951 6.45814 8.38581 6.32329 8.51968C6.18844 8.65355 6.11158 8.8344 6.10909 9.02371V10.2373C6.10909 10.5144 5.72406 10.8106 5.14652 10.8106C4.94525 10.8408 4.73965 10.8012 4.56434 10.6985C4.38902 10.5958 4.25469 10.4363 4.18396 10.2468V10.0939L5.26203 5.0868C5.26203 5.02946 5.37754 4.94346 5.54118 4.94346H18.4781C18.5304 4.93969 18.5829 4.94809 18.6313 4.96799C18.6798 4.9879 18.7229 5.01876 18.7572 5.05813L19.5273 10.0939V10.2468C19.4588 10.4258 19.3334 10.5777 19.1701 10.6794C19.0068 10.7812 18.8145 10.8272 18.6225 10.8106Z" fill="#001325" fill-opacity="0.92"/>
</svg>
