<svg width="24" height="24" viewBox="0 0 24 24" fill="none" xmlns="http://www.w3.org/2000/svg">
<path d="M20.6602 7.18162C20.4292 7.18424 20.2027 7.24508 20.0016 7.35848C19.8006 7.47188 19.6315 7.63416 19.5102 7.83023H18.6902C18.4729 6.21608 17.676 4.73544 16.4475 3.66321C15.219 2.59098 13.6423 2 12.0102 2C10.378 2 8.80135 2.59098 7.57283 3.66321C6.34432 4.73544 5.54745 6.21608 5.33015 7.83023H4.52015C4.40182 7.63364 4.23481 7.47073 4.03517 7.35714C3.83552 7.24355 3.60996 7.18311 3.38015 7.18162C3.19723 7.1816 3.01614 7.21787 2.84739 7.28831C2.67864 7.35876 2.52562 7.46198 2.39721 7.59198C2.2688 7.72197 2.16757 7.87614 2.0994 8.04553C2.03124 8.21491 1.9975 8.39612 2.00015 8.57864C1.9974 8.83795 2.06704 9.0929 2.20127 9.31496C2.33549 9.53702 2.52901 9.71742 2.76015 9.83595C2.91264 12.0389 3.8507 14.1146 5.40444 15.687C6.95817 17.2594 9.02484 18.2245 11.2302 18.4077V20.5032H8.50015C8.30124 20.5032 8.11047 20.582 7.96982 20.7224C7.82917 20.8627 7.75015 21.0531 7.75015 21.2516C7.75015 21.4501 7.82917 21.6404 7.96982 21.7808C8.11047 21.9212 8.30124 22 8.50015 22H15.5002C15.6991 22 15.8898 21.9212 16.0305 21.7808C16.1711 21.6404 16.2502 21.4501 16.2502 21.2516C16.2502 21.0531 16.1711 20.8627 16.0305 20.7224C15.8898 20.582 15.6991 20.5032 15.5002 20.5032H12.7502V18.4077C14.9515 18.2231 17.0145 17.2602 18.5674 15.6923C20.1204 14.1244 21.0611 12.0546 21.2202 9.85591C21.4574 9.73772 21.6564 9.55519 21.7943 9.32927C21.9323 9.10334 22.0036 8.84318 22.0002 8.57864C22.0056 8.21679 21.868 7.86736 21.6172 7.60592C21.3665 7.34449 21.0227 7.19206 20.6602 7.18162ZM12.0002 3.51943C13.0389 3.51745 14.0549 3.82303 14.9196 4.39747C15.7843 4.97192 16.4588 5.78942 16.8576 6.74652C17.2565 7.70361 17.3619 8.75728 17.1605 9.77416C16.9591 10.7911 16.4598 11.7255 15.726 12.4591C14.9922 13.1928 14.0567 13.6927 13.0381 13.8957C12.0194 14.0986 10.9633 13.9955 10.0034 13.5992C9.04349 13.203 8.22296 12.5316 7.64564 11.6698C7.06832 10.8081 6.76015 9.79482 6.76015 8.75825C6.76278 7.37136 7.31538 6.04188 8.29722 5.06027C9.27905 4.07865 10.6103 3.5247 12.0002 3.51943ZM12.0002 16.9707C10.014 16.9681 8.10466 16.2047 6.66623 14.838C5.22781 13.4714 4.3701 11.6058 4.27015 9.6264C4.37151 9.54309 4.45631 9.44155 4.52015 9.32704H5.28015C5.42545 11.0069 6.19687 12.5714 7.442 13.7112C8.68713 14.8511 10.3154 15.4835 12.0052 15.4835C13.6949 15.4835 15.3232 14.8511 16.5683 13.7112C17.8134 12.5714 18.5849 11.0069 18.7302 9.32704H19.5202C19.5788 9.42513 19.6493 9.51562 19.7302 9.59646C19.6401 11.582 18.7864 13.4565 17.3467 14.83C15.9069 16.2034 13.992 16.9702 12.0002 16.9707Z" fill="#001325" fill-opacity="0.92"/>
</svg>
