<svg width="24" height="24" viewBox="0 0 24 24" fill="none" xmlns="http://www.w3.org/2000/svg">
<path fill-rule="evenodd" clip-rule="evenodd" d="M16 6C15.4872 6 14.9744 6.19537 14.5846 6.58612C13.8051 7.36761 13.8051 8.63239 14.5846 9.41388C14.9641 9.81491 15.4872 10 16 10C16.5128 10 17.0359 9.81491 17.4154 9.41388C18.1949 8.63239 18.1949 7.36761 17.4154 6.58612C17.0154 6.19537 16.5128 6 16 6ZM16 7.54242C16.0821 7.54242 16.2154 7.56298 16.3282 7.67609C16.441 7.7892 16.4615 7.9126 16.4615 7.99486C16.4615 8.07712 16.441 8.2108 16.2974 8.34447C16.2256 8.42674 16.0923 8.45758 16 8.45758C15.9077 8.45758 15.7846 8.42674 15.6718 8.31363C15.559 8.2108 15.5385 8.0874 15.5385 7.99486C15.5385 7.9126 15.559 7.77892 15.6718 7.67609C15.7846 7.56298 15.9077 7.54242 16 7.54242Z" fill="#001325" fill-opacity="0.92"/>
<path d="M12.7296 12.8091L13.9588 14.4495C14.0612 14.5828 13.9588 14.7776 13.8051 14.7776L11.7565 14.7468L10.5684 16.418C10.5274 16.4692 10.4659 16.5 10.4045 16.5C10.3225 16.5 10.2406 16.4487 10.2099 16.3565L9.60553 14.3983L7.64913 13.7934C7.48524 13.7524 7.44427 13.5371 7.58767 13.4345L9.25727 12.2555L9.22654 10.205C9.22654 10.082 9.32897 10 9.4314 10C9.47237 10 9.51334 10.0103 9.54407 10.041L11.1829 11.2713L13.1188 10.6151C13.1496 10.6049 13.1701 10.6049 13.1905 10.6049C13.3237 10.6049 13.4364 10.7382 13.3852 10.8715L12.7296 12.8091Z" fill="#001325" fill-opacity="0.92"/>
<path fill-rule="evenodd" clip-rule="evenodd" d="M20.9481 2H12.2281C11.9441 2 11.6812 2.11579 11.4813 2.30526L2.309 11.5263C1.89877 11.9368 1.89877 12.5895 2.29848 13L10.7555 21.6842C10.9659 21.8947 11.2394 22 11.5129 22C11.7863 22 12.0493 21.8947 12.2597 21.6947L21.695 12.2421C21.8948 12.0421 22 11.7789 22 11.4947V3.05263C22 2.47368 21.5267 2 20.9481 2ZM20.4222 3.57895V11.2842L11.5129 20.2105L3.79214 12.2842L12.4385 3.57895H20.4222Z" fill="#001325" fill-opacity="0.92"/>
</svg>
