<svg width="24" height="24" viewBox="0 0 24 24" fill="none" xmlns="http://www.w3.org/2000/svg">
<path d="M4.45749 14.582C3.40845 14.582 2.9041 14.0605 3.01506 13.2382L5.64774 3.42116C5.73301 3.29348 5.8483 3.18839 5.98364 3.115C6.11898 3.04162 6.27028 3.00214 6.42443 3H16.0372C16.1847 3.00128 16.3304 3.03176 16.4658 3.08966C16.6013 3.14755 16.7238 3.23171 16.8262 3.33721C16.9285 3.44271 17.0087 3.56743 17.062 3.70409C17.1154 3.84075 17.1407 3.9866 17.1367 4.13313V12.6065C17.1375 12.7518 17.1065 12.8955 17.0459 13.0277L13.4953 20.4181C13.4162 20.6121 13.2736 20.7739 13.0906 20.8776C12.9077 20.9813 12.6949 21.0208 12.4867 20.9896C10.6811 20.6587 9.82372 18.9841 9.82372 16.9786V14.582H4.45749Z" fill="#001325" fill-opacity="0.92"/>
<path d="M18.8515 3H19.9913C20.5484 3 21 3.44895 21 4.00277V12.0249C21 12.5787 20.5484 13.0277 19.9913 13.0277H18.8515C18.2944 13.0277 17.8428 12.5787 17.8428 12.0249V4.00277C17.8428 3.44895 18.2944 3 18.8515 3Z" fill="#001325" fill-opacity="0.92"/>
</svg>
