<svg width="24" height="24" viewBox="0 0 24 24" fill="none" xmlns="http://www.w3.org/2000/svg">
<path d="M19.5583 9.41804C20.5975 9.41804 21.0872 9.93948 20.9873 10.7617L18.3192 20.5788C18.2369 20.7063 18.1245 20.8115 17.9921 20.885C17.8596 20.9584 17.7111 20.998 17.5597 21H7.99646C7.71196 20.9794 7.44658 20.8486 7.25639 20.6353C7.06619 20.422 6.96607 20.1428 6.97719 19.8568V11.3935C6.9776 11.2493 7.00471 11.1065 7.05713 10.9723L10.5846 3.58194C10.6631 3.38793 10.8043 3.22606 10.9856 3.12238C11.1668 3.0187 11.3776 2.97924 11.5839 3.01036C13.3727 3.34127 14.2221 5.01589 14.2221 7.02143V9.41804H19.5583Z" fill="#001325" fill-opacity="0.92"/>
<path d="M3.99929 10.9723H5.12849C5.68039 10.9723 6.12779 11.4213 6.12779 11.9751V19.9972C6.12779 20.551 5.68039 21 5.12849 21H3.99929C3.4474 21 3 20.551 3 19.9972V11.9751C3 11.4213 3.4474 10.9723 3.99929 10.9723Z" fill="#001325" fill-opacity="0.92"/>
</svg>
