<svg width="24" height="24" viewBox="0 0 24 24" fill="none" xmlns="http://www.w3.org/2000/svg">
<path d="M13.154 3H6.42022C6.26596 3.00221 6.11473 3.04275 5.98045 3.11789C5.84618 3.19303 5.73316 3.30036 5.6518 3.43L3.01288 13.21C2.91177 14.03 3.4072 14.55 4.45872 14.55H9.81745V16.94C9.79445 17.8622 10.0214 18.7738 10.4747 19.58C10.6904 19.9296 10.9719 20.2351 11.3037 20.48C11.6554 20.7273 12.0546 20.9009 12.4766 20.99C12.5639 21 12.6521 21 12.7395 20.99H12.8507C12.9108 20.979 12.9688 20.9587 13.0226 20.93L13.1136 20.88C13.1714 20.8454 13.2256 20.8052 13.2753 20.76L13.3461 20.69C13.4117 20.611 13.4661 20.5235 13.5079 20.43L17.0568 13H19.9889C20.2571 13 20.5142 12.8946 20.7039 12.7071C20.8935 12.5196 21 12.2652 21 12V4C21 3.73478 20.8935 3.48043 20.7039 3.29289C20.5142 3.10536 20.2571 3 19.9889 3H13.154ZM17.1276 4.5H19.4834V11.5H17.1276V4.5ZM6.94598 4.5H15.6413V12.5L15.4997 12.78L12.3654 19.37C11.4655 18.87 11.3543 17.56 11.3543 16.96V13.05H4.63061L6.94598 4.5Z" fill="#001325" fill-opacity="0.92"/>
</svg>
