<svg width="24" height="24" viewBox="0 0 24 24" fill="none" xmlns="http://www.w3.org/2000/svg">
<path d="M10.846 21H17.5798C17.7329 20.998 17.8832 20.9586 18.0172 20.8854C18.1513 20.8122 18.265 20.7073 18.3482 20.5803L20.9871 10.7963C21.0882 9.97686 20.5928 9.45718 19.5413 9.45718H14.1825V7.06867C14.2072 6.15001 13.9801 5.24184 13.5253 4.4403C13.3125 4.08599 13.0307 3.77689 12.6963 3.53087C12.3474 3.27682 11.9474 3.09962 11.5234 3.01119C11.4364 2.99627 11.3475 2.99627 11.2605 3.01119H11.1493C11.0905 3.02671 11.033 3.04675 10.9774 3.07116L10.8864 3.12113L10.7247 3.25104L10.6539 3.31101C10.5883 3.38999 10.5339 3.4774 10.4921 3.57085L6.94321 11.0062H4.01108C3.74293 11.0062 3.48575 11.1115 3.29614 11.2989C3.10652 11.4864 3 11.7405 3 12.0056V20.0006C3 20.2657 3.10652 20.5199 3.29614 20.7073C3.48575 20.8947 3.74293 21 4.01108 21H10.846ZM6.87244 19.5009H4.51662V12.5053H6.87244V19.5009ZM17.054 19.5009H8.37895V11.5059L8.5205 11.2361L11.6548 4.64018C12.5547 5.13987 12.6659 6.44905 12.6659 7.04868V11.0062H19.3694L17.054 19.5009Z" fill="#001325" fill-opacity="0.92"/>
</svg>
