<svg width="24" height="24" viewBox="0 0 24 24" fill="none" xmlns="http://www.w3.org/2000/svg">
<path d="M3.04881 4.12632C2.76196 4.19208 2.49041 4.31363 2.24922 4.48421L2.63344 5.4C2.82455 5.26702 3.03989 5.17398 3.26687 5.12632C3.46746 5.07706 3.67315 5.05232 3.87954 5.05263C4.17584 5.04571 4.46667 5.13415 4.71028 5.30526C4.82528 5.38806 4.91981 5.49671 4.98646 5.62272C5.05312 5.74873 5.0901 5.88867 5.0945 6.03158C5.10241 6.19147 5.07153 6.35089 5.00454 6.49587C4.93756 6.64085 4.83652 6.76696 4.71028 6.86316C4.41134 7.08611 4.04087 7.1875 3.67186 7.14737H2.97612V8.2H3.79647C4.17086 8.1718 4.54189 8.28839 4.83489 8.52632C4.94992 8.63672 5.04008 8.77099 5.09922 8.91996C5.15836 9.06893 5.18509 9.22908 5.17757 9.38948C5.1841 9.55116 5.15377 9.7122 5.08894 9.86007C5.02411 10.0079 4.92651 10.1387 4.80374 10.2421C4.53872 10.4371 4.21721 10.5371 3.88993 10.5263C3.61487 10.5304 3.34109 10.4877 3.07996 10.4C2.84779 10.3165 2.6304 10.1957 2.43614 10.0421L2 10.9474C2.2546 11.1624 2.54704 11.3267 2.86189 11.4316C3.2455 11.5506 3.6445 11.611 4.04569 11.6105C4.67929 11.6438 5.30528 11.4583 5.82139 11.0842C6.03976 10.9057 6.21301 10.677 6.32678 10.417C6.44055 10.1571 6.49156 9.87339 6.4756 9.58947C6.47814 9.201 6.3374 8.82557 6.081 8.53684C6.23363 8.59281 6.38973 8.63852 6.54829 8.67369C6.69665 8.69072 6.84644 8.69072 6.99481 8.67369C7.27938 8.6929 7.56433 8.64235 7.82554 8.52632V11.7789H9.12357V5.10526H10.162V4.05263H6.99481V5.10526H7.8567V7.30526C7.6987 7.40884 7.52237 7.48033 7.33749 7.51579C7.10211 7.56735 6.86178 7.59207 6.62098 7.58947C6.4342 7.59994 6.247 7.59994 6.06023 7.58947C5.88471 7.56318 5.71122 7.52449 5.54102 7.47368C5.76404 7.32825 5.9521 7.13402 6.09138 6.90526C6.26483 6.62909 6.35171 6.30615 6.3406 5.97895C6.34875 5.6767 6.28462 5.37694 6.15369 5.10526C6.02848 4.86466 5.85519 4.65315 5.64486 4.48421C5.42262 4.31801 5.17297 4.19326 4.90758 4.11579C4.61593 4.03906 4.31585 4.00015 4.01454 4C3.68874 4.00185 3.3644 4.04427 3.04881 4.12632Z" fill="#001325" fill-opacity="0.92"/>
<path fill-rule="evenodd" clip-rule="evenodd" d="M18.8847 12.2526H17.3167L14.2015 20H15.8318L16.5587 18.0947H19.5701L20.2866 20H22L18.8847 12.2526ZM19.1755 16.9789H16.9325L17.3686 15.7789C17.4736 15.5089 17.566 15.2515 17.6556 15.0019L17.6561 15.0005C17.6816 14.9296 17.7068 14.8593 17.7321 14.7895L18.0851 13.8105C18.1891 14.1936 18.293 14.4982 18.3891 14.7799L18.4174 14.8632C18.4568 14.9789 18.4977 15.0961 18.5394 15.216C18.6078 15.4122 18.6789 15.616 18.7497 15.8316L19.1755 16.9789Z" fill="#001325" fill-opacity="0.92"/>
<path d="M12.0831 18.4421C10.926 18.3362 9.81737 17.9208 8.8705 17.2384C7.92362 16.556 7.17243 15.631 6.69367 14.5579L7.55556 13.6842C7.58089 13.6586 7.59793 13.6257 7.60442 13.5901C7.61091 13.5544 7.60654 13.5175 7.5919 13.4844C7.57726 13.4513 7.55303 13.4235 7.52243 13.4046C7.49183 13.3858 7.4563 13.3769 7.42056 13.379H4.91797C4.87666 13.379 4.83704 13.3956 4.80783 13.4252C4.77862 13.4548 4.76221 13.495 4.76221 13.5369V16.0737C4.76221 16.124 4.7819 16.1721 4.81695 16.2077C4.85201 16.2432 4.89955 16.2632 4.94912 16.2632C4.9959 16.2631 5.04071 16.2441 5.07373 16.2105L5.74871 15.4948C6.3561 16.6695 7.24495 17.6707 8.33362 18.4064C9.42229 19.1421 10.6759 19.5888 11.9792 19.7053H12.0312C12.1964 19.7053 12.3549 19.6387 12.4717 19.5203C12.5886 19.4019 12.6542 19.2412 12.6542 19.0737C12.6542 18.9062 12.5886 18.7456 12.4717 18.6271C12.3549 18.5087 12.1964 18.4421 12.0312 18.4421H12.0831Z" fill="#001325" fill-opacity="0.92"/>
<path d="M19.8193 7.78949C19.8596 7.77504 19.9036 7.77504 19.9439 7.78949C19.9686 7.78332 19.9944 7.78263 20.0194 7.78749C20.0444 7.79235 20.068 7.80263 20.0888 7.81762C20.1095 7.83262 20.1267 7.85198 20.1394 7.87438C20.152 7.89678 20.1597 7.92168 20.162 7.94738V10.4526C20.1621 10.4955 20.146 10.5369 20.1171 10.5682C20.0881 10.5995 20.0485 10.6184 20.0062 10.6211H17.5036C17.4688 10.6184 17.4354 10.6058 17.4072 10.5849C17.3791 10.5639 17.3573 10.5354 17.3443 10.5025C17.3313 10.4696 17.3277 10.4337 17.3338 10.3989C17.34 10.364 17.3556 10.3316 17.379 10.3053L18.189 9.48423C17.7225 8.40574 16.9794 7.47367 16.0371 6.78501C15.0947 6.09635 13.9876 5.67625 12.8307 5.56844C12.649 5.55308 12.4807 5.46516 12.3628 5.32401C12.245 5.18287 12.1873 5.00006 12.2025 4.8158C12.2176 4.63155 12.3044 4.46094 12.4436 4.34151C12.5829 4.22208 12.7632 4.16361 12.945 4.17896C14.2548 4.296 15.5138 4.74865 16.6037 5.49438C17.6936 6.24012 18.5786 7.25446 19.1755 8.44212L19.8193 7.78949Z" fill="#001325" fill-opacity="0.92"/>
</svg>
