<svg width="24" height="24" viewBox="0 0 24 24" fill="none" xmlns="http://www.w3.org/2000/svg">
<path d="M21.2402 7H17.2155C17.0113 7 16.8154 7.07902 16.671 7.21967C16.5266 7.36032 16.4455 7.55109 16.4455 7.75C16.4455 7.94891 16.5266 8.13968 16.671 8.28033C16.8154 8.42098 17.0113 8.5 17.2155 8.5H19.2689L13.0265 14.27L8.91965 10.53C8.77747 10.409 8.59508 10.3424 8.40629 10.3424C8.2175 10.3424 8.03511 10.409 7.89293 10.53L2.23573 15.71C2.12584 15.8131 2.04989 15.9457 2.01752 16.091C1.98515 16.2362 1.99783 16.3876 2.05393 16.5258C2.11004 16.664 2.20705 16.7829 2.33265 16.8673C2.45824 16.9518 2.60676 16.9979 2.75935 17C2.95537 16.9994 3.14335 16.924 3.28298 16.79L8.41655 12.09L12.5234 15.84C12.6656 15.961 12.848 16.0276 13.0368 16.0276C13.2256 16.0276 13.408 15.961 13.5501 15.84L20.4599 9.44V11.33C20.4599 11.5289 20.5411 11.7197 20.6855 11.8603C20.8299 12.001 21.0257 12.08 21.23 12.08C21.4342 12.08 21.6301 12.001 21.7745 11.8603C21.9189 11.7197 22 11.5289 22 11.33V7.74C21.9948 7.54533 21.9131 7.36004 21.7717 7.22234C21.6303 7.08465 21.4401 7.00506 21.2402 7Z" fill="#001325" fill-opacity="0.92"/>
</svg>
