<svg width="24" height="24" viewBox="0 0 24 24" fill="none" xmlns="http://www.w3.org/2000/svg">
<path fill-rule="evenodd" clip-rule="evenodd" d="M13.64 5.8375L20.99 5.8375C21.54 5.8375 21.99 6.2875 22 6.8375V19.14C22 19.69 21.55 20.14 21 20.14H20.11V20.16C20.11 20.9 19.51 21.5 18.77 21.5C18.03 21.5 17.43 20.9 17.43 20.16V20.14H6.57V20.16C6.57 20.9 5.97 21.5 5.23 21.5C4.49 21.5 3.89 20.9 3.89 20.16V20.14H3C2.45 20.14 2 19.69 2 19.14V6.8475C2 6.2975 2.45 5.8475 3 5.8475L10.35 5.8475L8.28999 3.7875C7.99999 3.4975 7.99999 3.0175 8.28999 2.7275C8.57999 2.4375 9.05999 2.4375 9.34999 2.7275L12 5.3575L14.64 2.7175C14.93 2.4275 15.41 2.4275 15.7 2.7175C15.99 3.0075 15.99 3.4875 15.7 3.7775L13.64 5.8375ZM3.5 18.63H20.49V7.3375H3.5V18.63ZM13.5932 13.2602L10.9975 11.4877V15.0328L13.5932 13.2602ZM9.5 10.5246C9.5 9.92008 9.9792 9.5 10.4983 9.5C10.688 9.5 10.8777 9.56147 11.0474 9.66393L15.0507 12.3893C15.6498 12.7992 15.6498 13.6906 15.0507 14.1004L11.0474 16.8258C10.8777 16.9488 10.688 17 10.4983 17C9.9792 17 9.5 16.5799 9.5 15.9754V10.5246Z" fill="#001325" fill-opacity="0.92"/>
</svg>
