<svg width="24" height="24" viewBox="0 0 24 24" fill="none" xmlns="http://www.w3.org/2000/svg">
<path fill-rule="evenodd" clip-rule="evenodd" d="M11.9802 3.00293C11.4546 2.99295 10.9327 3.08996 10.4468 3.28789C9.961 3.48582 9.52175 3.78043 9.15652 4.15332C8.79129 4.52621 8.50791 4.96937 8.32409 5.45514C8.14026 5.9409 8.05993 6.45883 8.08811 6.97659V7.07257C8.07381 7.58557 8.16391 8.09619 8.35309 8.57425C8.54226 9.05231 8.82668 9.4881 9.18953 9.85587C9.55237 10.2236 9.98628 10.5159 10.4656 10.7154C10.9449 10.9149 11.4599 11.0176 11.9802 11.0174C12.4986 11.0273 13.0136 10.9328 13.4937 10.7397C13.9739 10.5467 14.4091 10.259 14.7727 9.89445C15.5098 9.11522 15.905 8.08028 15.8722 7.01499V6.919C15.9035 5.85218 15.5046 4.81668 14.763 4.03954C14.3932 3.69169 13.9563 3.42068 13.4782 3.24261C13.0002 3.06453 12.4908 2.98303 11.9802 3.00293ZM11.9802 4.44267C12.3005 4.43562 12.6189 4.49234 12.9165 4.60943C13.2141 4.72652 13.4847 4.90157 13.7121 5.12414C14.1763 5.62276 14.4243 6.28076 14.403 6.9574V7.05338C14.4268 7.7333 14.1787 8.39521 13.7121 8.89623C13.485 9.11925 13.2145 9.2946 12.9168 9.41172C12.6191 9.52884 12.3005 9.5853 11.9802 9.57771C11.6515 9.57946 11.326 9.51498 11.0235 9.38821C10.721 9.26144 10.448 9.07506 10.2212 8.84049C9.9943 8.60593 9.81841 8.32813 9.70426 8.02412C9.59012 7.72012 9.54013 7.39632 9.55736 7.07257V6.97659C9.52841 6.64888 9.57006 6.31883 9.67957 6.00812C9.78909 5.69741 9.96399 5.41307 10.1928 5.17376C10.4216 4.93446 10.6992 4.7456 11.0072 4.6196C11.3152 4.4936 11.6468 4.4333 11.9802 4.44267Z" fill="#001325" fill-opacity="0.92"/>
<path d="M19.7643 20.9996C19.5867 20.9985 19.4156 20.9336 19.283 20.817C19.1505 20.7004 19.0656 20.5401 19.0443 20.3661C18.8234 18.6771 17.9865 17.1252 16.6899 16.0007C15.3934 14.8762 13.7261 14.2559 11.9997 14.2559C10.2732 14.2559 8.60592 14.8762 7.30941 16.0007C6.01289 17.1252 5.17596 18.6771 4.95506 20.3661C4.93184 20.5558 4.83319 20.7285 4.68082 20.8464C4.52846 20.9643 4.33485 21.0177 4.1426 20.9948C3.95034 20.9719 3.77519 20.8746 3.65567 20.7243C3.53615 20.574 3.48205 20.383 3.50527 20.1933C3.76764 18.1537 4.77516 16.2785 6.33895 14.9193C7.90275 13.5601 9.91543 12.8102 11.9997 12.8102C14.0839 12.8102 16.0966 13.5601 17.6604 14.9193C19.2242 16.2785 20.2317 18.1537 20.4941 20.1933C20.5063 20.2867 20.4996 20.3816 20.4743 20.4724C20.449 20.5632 20.4057 20.6481 20.3469 20.7222C20.288 20.7964 20.2148 20.8582 20.1315 20.9042C20.0482 20.9502 19.9564 20.9793 19.8616 20.99L19.7643 20.9996Z" fill="#001325" fill-opacity="0.92"/>
<path d="M12.7099 17.7554H13.8094C14.003 17.7554 14.1886 17.8312 14.3255 17.9662C14.4623 18.1012 14.5392 18.2843 14.5392 18.4752C14.5392 18.6662 14.4623 18.8493 14.3255 18.9843C14.1886 19.1193 14.003 19.1951 13.8094 19.1951H12.7099V20.2797C12.7099 20.4706 12.6331 20.6537 12.4962 20.7887C12.3593 20.9237 12.1737 20.9996 11.9802 20.9996C11.7866 20.9996 11.601 20.9237 11.4642 20.7887C11.3273 20.6537 11.2504 20.4706 11.2504 20.2797V19.1951H10.1509C9.95737 19.1951 9.77176 19.1193 9.6349 18.9843C9.49804 18.8493 9.42116 18.6662 9.42116 18.4752C9.42116 18.2843 9.49804 18.1012 9.6349 17.9662C9.77176 17.8312 9.95737 17.7554 10.1509 17.7554H11.2504V16.6708C11.2504 16.4798 11.3273 16.2967 11.4642 16.1617C11.601 16.0267 11.7866 15.9509 11.9802 15.9509C12.1737 15.9509 12.3593 16.0267 12.4962 16.1617C12.6331 16.2967 12.7099 16.4798 12.7099 16.6708V17.7554Z" fill="#001325" fill-opacity="0.92"/>
</svg>
