<svg width="24" height="24" viewBox="0 0 24 24" fill="none" xmlns="http://www.w3.org/2000/svg">
<path d="M17.389 2.08234C17.3993 2.03089 17.4407 2 17.4924 2C17.5441 2 17.5958 2.03089 17.6062 2.08234L18.1439 3.72882H19.8814C19.9228 3.72882 19.9538 3.74938 19.9745 3.78026C20.0158 3.83171 20.0055 3.89341 19.9538 3.93457L18.5473 4.9533L19.0851 6.59977C19.0954 6.63064 19.0851 6.67178 19.0644 6.70265C19.0334 6.74381 18.961 6.76441 18.9093 6.72325L17.5027 5.70453L16.0962 6.72325C16.0652 6.75412 16.0239 6.75414 15.9928 6.74385C15.9308 6.72327 15.8997 6.66151 15.9204 6.59977L16.4582 4.9533L15.0517 3.93457C15.0207 3.91399 15 3.88316 15 3.84199C15 3.78025 15.0517 3.72882 15.1138 3.72882H16.8512L17.389 2.08234Z" fill="#001325" fill-opacity="0.92"/>
<path fill-rule="evenodd" clip-rule="evenodd" d="M9.99991 4.07C7.67643 4.07 6 5.83959 6 8.27526V8.38462C6 10.7706 7.71565 12.57 9.99011 12.57H9.99991C11.1175 12.57 12.1371 12.1425 12.8724 11.377C13.6077 10.6115 14.0096 9.53784 13.9998 8.36474V8.26532C13.9998 7.09222 13.5979 6.02848 12.8626 5.26298C12.1273 4.48754 11.1175 4.07 9.99991 4.07ZM9.99991 5.56123C10.7156 5.56123 11.3528 5.81971 11.8038 6.2969C12.2646 6.78403 12.5293 7.47994 12.5293 8.25538V8.36474C12.5293 9.15012 12.2744 9.85596 11.8136 10.3431C11.3626 10.8203 10.7156 11.0788 9.99011 11.0788C8.52936 11.0788 7.47056 9.94544 7.47056 8.38462V8.27526C7.47056 6.6548 8.49014 5.56123 9.99991 5.56123Z" fill="#001325" fill-opacity="0.92"/>
<path fill-rule="evenodd" clip-rule="evenodd" d="M10.2501 13.5C7.06338 13.5 4.42611 15.9542 4.00654 19.1272C3.94661 19.5893 4.30623 20 4.76576 20H15.7344C16.1839 20 16.5535 19.5893 16.4936 19.1272C16.074 15.9542 13.4368 13.5 10.2501 13.5ZM10.2501 15.0403C12.3479 15.0403 14.176 16.4573 14.8153 18.4597H5.6848C6.31415 16.4676 8.15225 15.0403 10.2501 15.0403Z" fill="#001325" fill-opacity="0.92"/>
</svg>
