<svg width="24" height="24" viewBox="0 0 24 24" fill="none" xmlns="http://www.w3.org/2000/svg">
<path d="M11.9949 4.4652C12.6897 4.4652 13.3129 4.69963 13.7522 5.13919C14.2018 5.57875 14.4572 6.22344 14.4572 6.94628V7.04396C14.4572 7.76679 14.212 8.41148 13.7625 8.86081C13.3231 9.30037 12.6897 9.5348 11.9847 9.5348C10.5645 9.5348 9.54278 8.48962 9.53257 7.06349V6.96581C9.53257 5.47131 10.5236 4.4652 11.9949 4.4652ZM11.9949 3C9.67561 3 8 4.67033 8 6.96581V7.06349C8 9.31013 9.71648 11 11.9847 11C11.9847 11 11.9847 11 11.9949 11C13.1188 11 14.1303 10.5995 14.8659 9.87668C15.6015 9.15385 16 8.14774 16 7.03419V6.93651C16 5.83272 15.5913 4.82662 14.8659 4.11355C14.1201 3.39072 13.1086 3 11.9949 3Z" fill="#001325" fill-opacity="0.92"/>
<path d="M11.9949 14.0269C15.2903 14.0269 18.143 16.3275 18.8433 19.4731H5.14644C5.84673 16.3275 8.69937 14.0269 11.9949 14.0269ZM11.9949 12.5C7.65924 12.5 4.06511 15.7066 3.509 19.8599C3.42661 20.4605 3.92093 21 4.53884 21H19.4612C20.0791 21 20.5734 20.4605 20.491 19.8599C19.9246 15.6964 16.3305 12.5 11.9949 12.5Z" fill="#001325" fill-opacity="0.92"/>
</svg>
