<svg width="24" height="24" viewBox="0 0 24 24" fill="none" xmlns="http://www.w3.org/2000/svg">
<path d="M20.2468 15.398C20.0479 15.3954 19.8579 15.3153 19.7173 15.1746C19.5766 15.034 19.4965 14.844 19.4939 14.6451V4.7568C19.4939 4.69024 19.4674 4.62641 19.4204 4.57934C19.3733 4.53227 19.3095 4.50583 19.2429 4.50583H5.75064C5.65177 4.50583 5.55386 4.48636 5.46251 4.44852C5.37117 4.41068 5.28817 4.35522 5.21825 4.28531C5.14834 4.21539 5.09288 4.13239 5.05504 4.04104C5.0172 3.9497 4.99773 3.85179 4.99773 3.75292C4.99773 3.65404 5.0172 3.55614 5.05504 3.46479C5.09288 3.37344 5.14834 3.29044 5.21825 3.22052C5.28817 3.15061 5.37117 3.09515 5.46251 3.05731C5.55386 3.01947 5.65177 3 5.75064 3H19.2429C19.7088 3 20.1557 3.18509 20.4851 3.51456C20.8146 3.84402 20.9997 4.29087 20.9997 4.7568V14.615C21.0038 14.7164 20.9873 14.8175 20.9513 14.9124C20.9153 15.0072 20.8604 15.0938 20.7901 15.167C20.7198 15.2401 20.6354 15.2983 20.542 15.338C20.4487 15.3777 20.3482 15.3981 20.2468 15.398Z" fill="#001325" fill-opacity="0.92"/>
<path d="M11.513 9.74614L13.2898 11.5331C13.3547 11.6028 13.4051 11.6847 13.4381 11.774C13.4712 11.8633 13.4863 11.9582 13.4826 12.0534C13.4789 12.1485 13.4564 12.242 13.4164 12.3285C13.3764 12.4149 13.3198 12.4926 13.2497 12.557L11.4728 14.3339C11.4175 14.3913 11.3513 14.4369 11.278 14.4681C11.2047 14.4993 11.1258 14.5154 11.0462 14.5154C10.9665 14.5154 10.8876 14.4993 10.8143 14.4681C10.741 14.4369 10.6748 14.3913 10.6195 14.3339C10.5085 14.2196 10.4464 14.0666 10.4464 13.9073C10.4464 13.7479 10.5085 13.5949 10.6195 13.4806L11.4628 12.6474H7.60784C7.52874 12.6474 7.45041 12.6318 7.37733 12.6015C7.30426 12.5713 7.23785 12.5269 7.18192 12.471C7.12599 12.415 7.08162 12.3486 7.05135 12.2755C7.02108 12.2025 7.0055 12.1241 7.0055 12.045C7.0055 11.9659 7.02108 11.8876 7.05135 11.8145C7.08162 11.7415 7.12599 11.6751 7.18192 11.6191C7.23785 11.5632 7.30426 11.5188 7.37733 11.4886C7.45041 11.4583 7.52874 11.4427 7.60784 11.4427H11.5029L10.6597 10.5994C10.5465 10.4863 10.4829 10.3328 10.4829 10.1728C10.4829 10.0128 10.5465 9.8593 10.6597 9.74614C10.7728 9.63299 10.9263 9.56942 11.0863 9.56942C11.2463 9.56942 11.3998 9.63299 11.513 9.74614Z" fill="#001325" fill-opacity="0.92"/>
<path fill-rule="evenodd" clip-rule="evenodd" d="M16.5324 6.46343H4.00389C3.73764 6.46343 3.4823 6.56919 3.29403 6.75746C3.10577 6.94572 3 7.20107 3 7.46731V16.6127C3 16.879 3.10577 17.1343 3.29403 17.3226C3.4823 17.5109 3.73764 17.6166 4.00389 17.6166H6.12209V20.1866C6.12209 20.4022 6.20776 20.6091 6.36026 20.7616C6.51275 20.9141 6.71958 20.9997 6.93524 20.9997C7.06273 21.003 7.18933 20.9776 7.30573 20.9255C7.42213 20.8734 7.52537 20.7958 7.60785 20.6986L10.6898 17.6267H16.5324C16.7987 17.6267 17.054 17.5209 17.2423 17.3326C17.4305 17.1444 17.5363 16.889 17.5363 16.6228V7.46731C17.5363 7.20107 17.4305 6.94572 17.2423 6.75746C17.054 6.56919 16.7987 6.46343 16.5324 6.46343ZM16.0505 7.96926V16.1108H10.0874L9.64574 16.5425L7.63796 18.5502V16.1108H4.50583V7.96926H16.0505Z" fill="#001325" fill-opacity="0.92"/>
</svg>
