<svg width="24" height="24" viewBox="0 0 24 24" fill="none" xmlns="http://www.w3.org/2000/svg">
<path d="M20.9474 4H3.05263C2.42105 4 2 4.42105 2 5.05263V18.9474C2 19.5789 2.42105 20 3.05263 20H20.9474C21.5789 20 22 19.5789 22 18.9474V5.05263C22 4.42105 21.5789 4 20.9474 4ZM20.4211 13.6842H16.7368C15.7895 13.6842 15.0526 12.9474 15.0526 12C15.0526 11.0526 15.7895 10.3158 16.7368 10.3158H20.4211V13.6842ZM16.7368 8.73684C14.9474 8.73684 13.4737 10.2105 13.4737 12C13.4737 13.7895 14.9474 15.2632 16.7368 15.2632H20.4211V18.4211H3.57895V5.57895H20.4211V8.73684H16.7368Z" fill="#001325" fill-opacity="0.92"/>
</svg>
